M48
;GenerationSoftware,Autodesk,EAGLE,8.6.0*%
;CreationDate,2018-06-10T17:56:43Z*%
FMAT,2
ICI,OFF
METRIC,TZ,000.000
T9C0.254
T8C0.350
T7C0.400
T6C0.700
T5C0.914
T4C1.016
T3C2.286
T2C2.997
T1C3.302
%
G90
M71
T1
X81280Y5334
X81280Y98298
X18796Y98298
X18796Y5334
X9855Y61795
X9855Y86795
T2
X10969Y28035
X4970Y28035
X7969Y23335
T3
X6020Y5309
X6020Y17348
T4
X90830Y55016
X67996Y98527
X67996Y92024
X63475Y98527
X63475Y92024
X55474Y63500
X52934Y63500
X55474Y66040
X52934Y66040
X55474Y68580
X52934Y68580
X55474Y71120
X52934Y71120
X55474Y73660
X52934Y73660
X55474Y76200
X52934Y76200
X54381Y42164
X54381Y39624
X54381Y37084
X54381Y34544
X54381Y32004
X42069Y71247
X42069Y73787
X42069Y76327
X42069Y78867
X42069Y81407
X42069Y83947
X42069Y86487
X42069Y89027
X90830Y52476
X90830Y49936
X8435Y78445
X8435Y75675
X8435Y72915
X8435Y70145
X11275Y79835
X11275Y77065
X11275Y74295
X11275Y71525
X11275Y68755
X44044Y98425
X44044Y91923
X39522Y98425
X39522Y91923
X61671Y27788
X61087Y54610
X67843Y11684
X67843Y14224
X42069Y21749
X42069Y24289
X42069Y26829
X42069Y32067
X42069Y34608
X42069Y37148
X42069Y39688
X42069Y42228
X42069Y46907
X42069Y49447
X42069Y51987
X42069Y54527
X42069Y57067
X42069Y59607
X42069Y62147
X42069Y64687
X56280Y98514
X56280Y92011
X61671Y30328
X61087Y52070
X90830Y42316
X51759Y98514
X51759Y92011
X30956Y12224
X33496Y12224
X19209Y11906
X21749Y11906
X2540Y39370
X2540Y41910
X2540Y44450
X2540Y46990
X2540Y49530
X2540Y52070
X90830Y44856
X90830Y47396
X15208Y9265
X15208Y11805
X15208Y14345
T5
X8738Y10078
X8738Y12578
X10719Y12578
X10719Y10078
T6
X29508Y60109
X29031Y29210
X26531Y29210
X18236Y29210
X15736Y29210
X34588Y60109
T7
X76454Y31369
X69520Y22327
X78410Y17983
X65532Y10389
X61951Y23139
X61925Y25070
X56642Y27076
T8
X58547Y56109
X66025Y42073
X50394Y54813
X64287Y42774
X50419Y53569
X48587Y64694
X50343Y57379
X66998Y80195
X71806Y80213
X71171Y58951
X68936Y58905
X72369Y59690
X89010Y65993
X73277Y59690
X88951Y67412
X74186Y59665
X88996Y68758
X75095Y59693
X89052Y70180
X75997Y63167
X89002Y71526
X91961Y65913
X20955Y51117
X91961Y67386
X88925Y61722
X67259Y59792
X58572Y57379
X37846Y82829
X84150Y66269
X64643Y62509
X87681Y64313
X50876Y62941
X50851Y69926
X50851Y72212
X88494Y74701
X48816Y75974
X86284Y64745
X57880Y74724
X84328Y67564
X57350Y76183
X37084Y78181
X44069Y86792
X43561Y77597
X80086Y76454
X48791Y70587
X35677Y46214
X41334Y69902
X38303Y76987
X64364Y63418
X58804Y75660
X30556Y88697
X18593Y65684
X18618Y69774
X19533Y80874
X19507Y85039
X22428Y85090
X22606Y81204
X27864Y86817
X36347Y84150
X39599Y82855
X28600Y75768
X33452Y70536
X20015Y65024
X8573Y44577
X35243Y39846
X29527Y42863
X19526Y43656
X36513Y34608
X35243Y38894
X31750Y41593
X17939Y45402
X23177Y40958
X22542Y43339
X89459Y74701
X58242Y79734
X12924Y92918
X36322Y62947
X39754Y62738
X40259Y55651
X59461Y74778
X61570Y68984
X13849Y92913
X88900Y59893
X12382Y37148
X24447Y43339
X30956Y42545
X32106Y87020
X39522Y87147
X23724Y85979
X20498Y92507
X19050Y86868
X17577Y64694
X18466Y71323
X71349Y78209
X67488Y78753
X64160Y75438
X74927Y78753
X37084Y7366
X20320Y13970
X57556Y31090
X57556Y40894
X20288Y52864
X24289Y50482
X34925Y54451
X36830Y51911
X11112Y55086
X26194Y55086
X36322Y63856
X39779Y63716
X40598Y54388
X36556Y45808
X81241Y72173
X58623Y76838
X14757Y92837
X36322Y64764
X39548Y64874
X85573Y72288
X51359Y74828
X44275Y75819
X39700Y79096
X86081Y75590
X49962Y73812
X43358Y75260
X39014Y78003
X48133Y69088
X42266Y68758
X23444Y59131
X22384Y51594
X21431Y52864
X62509Y71730
X59538Y61824
X40538Y64874
X41097Y68707
X30480Y44132
T9
X33452Y82575
X33452Y81788
X33452Y81001
X33452Y80213
X33452Y79426
X32664Y82575
X32664Y81788
X32664Y81001
X32664Y80213
X32664Y79426
X31877Y82575
X31877Y81788
X31877Y81001
X31877Y80213
X31877Y79426
X31090Y82575
X31090Y81788
X31090Y81001
X31090Y80213
X31090Y79426
X30302Y82575
X30302Y81788
X30302Y81001
X30302Y80213
X30302Y79426
M30