G04 EAGLE Gerber X2 export*
%TF.Part,Single*%
%TF.FileFunction,Soldermask,Bot,1*%
%TF.FilePolarity,Negative*%
%TF.GenerationSoftware,Autodesk,EAGLE,8.6.0*%
%TF.CreationDate,2018-05-31T17:21:58Z*%
G75*
%MOMM*%
%FSLAX34Y34*%
%LPD*%
%AMOC8*
5,1,8,0,0,1.08239X$1,22.5*%
G01*
%ADD10C,1.854200*%
%ADD11R,1.854200X1.854200*%
%ADD12C,4.521200*%
%ADD13C,1.879600*%
%ADD14C,3.505200*%
%ADD15C,2.082800*%
%ADD16R,1.203200X1.303200*%
%ADD17R,1.303200X1.203200*%
%ADD18R,1.003200X1.403200*%
%ADD19C,0.965200*%
%ADD20R,0.803200X0.803200*%
%ADD21R,0.603200X0.803200*%
%ADD22R,2.082800X2.082800*%
%ADD23C,5.283200*%
%ADD24C,0.959600*%
%ADD25C,1.009600*%


D10*
X157363Y292100D03*
D11*
X182363Y292100D03*
D10*
X265313Y292100D03*
D11*
X290313Y292100D03*
D12*
X109695Y280353D03*
X49695Y280353D03*
X79695Y233353D03*
D13*
X107188Y100784D03*
X107188Y125784D03*
X87376Y125784D03*
X87376Y100784D03*
D14*
X60198Y53086D03*
X60198Y173482D03*
D15*
X152083Y143447D03*
X152083Y118047D03*
X152083Y92647D03*
D16*
X191135Y528565D03*
X191135Y511565D03*
D17*
X257248Y506095D03*
X274248Y506095D03*
D18*
X207755Y567690D03*
X189755Y567690D03*
D17*
X229308Y536893D03*
X246308Y536893D03*
D10*
X295085Y601091D03*
X345885Y601091D03*
D17*
X330763Y540068D03*
X313763Y540068D03*
X218513Y421323D03*
X235513Y421323D03*
D15*
X25400Y520700D03*
X25400Y495300D03*
X25400Y469900D03*
X25400Y444500D03*
X25400Y419100D03*
X25400Y393700D03*
X217488Y119063D03*
X192088Y119063D03*
X334963Y122238D03*
X309563Y122238D03*
X517589Y920115D03*
X517589Y985139D03*
X562801Y920115D03*
X562801Y985139D03*
X420688Y646875D03*
X420688Y621475D03*
X420688Y596075D03*
X420688Y570675D03*
X420688Y545275D03*
X420688Y519875D03*
X420688Y494475D03*
X420688Y469075D03*
X420688Y422275D03*
X420688Y396875D03*
X420688Y371475D03*
X420688Y346075D03*
X420688Y320675D03*
X420688Y268288D03*
X420688Y242888D03*
X420688Y217488D03*
X678434Y142240D03*
X678434Y116840D03*
X616712Y303276D03*
X616712Y277876D03*
D19*
X303022Y794258D03*
X303022Y802132D03*
X303022Y810006D03*
X303022Y817880D03*
X303022Y825754D03*
X310896Y794258D03*
X310896Y802132D03*
X310896Y810006D03*
X310896Y817880D03*
X310896Y825754D03*
X318770Y794258D03*
X318770Y802132D03*
X318770Y810006D03*
X318770Y817880D03*
X318770Y825754D03*
X326644Y794258D03*
X326644Y802132D03*
X326644Y810006D03*
X326644Y817880D03*
X326644Y825754D03*
X334518Y794258D03*
X334518Y802132D03*
X334518Y810006D03*
X334518Y817880D03*
X334518Y825754D03*
D20*
X220352Y879712D03*
D21*
X212852Y879712D03*
D20*
X205352Y879712D03*
X220352Y861712D03*
D21*
X212852Y861712D03*
D20*
X205352Y861712D03*
X163964Y651366D03*
D21*
X156464Y651366D03*
D20*
X148964Y651366D03*
X163964Y633366D03*
D21*
X156464Y633366D03*
D20*
X148964Y633366D03*
D15*
X395224Y919226D03*
X395224Y984250D03*
X440436Y919226D03*
X440436Y984250D03*
D22*
X112752Y687550D03*
D15*
X112752Y715250D03*
X112752Y742950D03*
X112752Y770650D03*
X112752Y798350D03*
X84352Y701450D03*
X84352Y729150D03*
X84352Y756750D03*
X84352Y784450D03*
D23*
X98552Y617950D03*
X98552Y867950D03*
D15*
X420688Y890270D03*
X420688Y864870D03*
X420688Y839470D03*
X420688Y814070D03*
X420688Y788670D03*
X420688Y763270D03*
X420688Y737870D03*
X420688Y712470D03*
X543814Y320040D03*
X543814Y345440D03*
X543814Y370840D03*
X543814Y396240D03*
X543814Y421640D03*
D14*
X812800Y53340D03*
X812800Y982980D03*
X187960Y982980D03*
X187960Y53340D03*
D15*
X529336Y762000D03*
X554736Y762000D03*
X529336Y736600D03*
X554736Y736600D03*
X529336Y711200D03*
X554736Y711200D03*
X529336Y685800D03*
X554736Y685800D03*
X529336Y660400D03*
X554736Y660400D03*
X529336Y635000D03*
X554736Y635000D03*
X634746Y920242D03*
X634746Y985266D03*
X679958Y920242D03*
X679958Y985266D03*
X908304Y550164D03*
X908304Y524764D03*
X908304Y499364D03*
X908304Y473964D03*
X908304Y448564D03*
X908304Y423164D03*
D24*
X209550Y511175D03*
X123825Y371475D03*
X244475Y433388D03*
X309563Y425450D03*
D25*
X655320Y103886D03*
X784098Y179832D03*
X695198Y223266D03*
X764540Y313690D03*
D24*
X321056Y870204D03*
X395224Y871474D03*
X237236Y859790D03*
X204978Y925068D03*
X190500Y868680D03*
X175768Y646938D03*
X184658Y713232D03*
X713488Y782094D03*
X674876Y787527D03*
X641604Y754380D03*
X749272Y787527D03*
X575564Y310896D03*
X575564Y408940D03*
X202883Y528638D03*
X242888Y504825D03*
X349250Y544513D03*
X368300Y519113D03*
X111125Y550863D03*
X261938Y550863D03*
X304800Y441325D03*
X410972Y687070D03*
X405384Y648744D03*
X595376Y618236D03*
X625094Y717296D03*
X214313Y528638D03*
X223838Y515938D03*
X234442Y591312D03*
X422656Y687578D03*
X481330Y690880D03*
X390144Y780034D03*
X433578Y752602D03*
X499618Y738124D03*
X860806Y755904D03*
X397002Y790956D03*
X442750Y758190D03*
X513588Y748284D03*
X855726Y722884D03*
X395478Y648744D03*
X363220Y647644D03*
X147574Y928370D03*
X586232Y768378D03*
X812409Y721731D03*
X365563Y458078D03*
X405984Y543878D03*
X397792Y637158D03*
X363220Y638556D03*
X138486Y929132D03*
X615696Y689836D03*
X594614Y747776D03*
X402590Y556514D03*
X397538Y627380D03*
X363220Y629468D03*
X129236Y929182D03*
X582422Y797336D03*
X894588Y747014D03*
X225425Y433388D03*
X231775Y409575D03*
X179388Y454025D03*
X317500Y415925D03*
X352425Y388938D03*
X365125Y346075D03*
X195263Y436563D03*
X295275Y428625D03*
X352425Y398463D03*
X85725Y445770D03*
X200152Y650240D03*
X334518Y705358D03*
X286004Y757682D03*
D25*
X566420Y270764D03*
X619252Y250698D03*
X619506Y231394D03*
D24*
X395986Y828548D03*
X363474Y841502D03*
X278638Y868172D03*
X226060Y812038D03*
X224282Y850900D03*
X195072Y850392D03*
X195326Y808736D03*
X186182Y697738D03*
X185928Y656844D03*
X305562Y886968D03*
X588038Y756598D03*
X643636Y634182D03*
X383032Y769874D03*
X413343Y699020D03*
X356774Y462142D03*
X487906Y705866D03*
X800862Y764540D03*
X435610Y775970D03*
X440688Y867920D03*
X370840Y781812D03*
X573504Y761832D03*
X860806Y660400D03*
X578796Y747240D03*
X862838Y647446D03*
X488162Y759742D03*
X884936Y747014D03*
X508508Y722122D03*
X508508Y699262D03*
X508762Y629412D03*
X876808Y643128D03*
X646430Y625094D03*
X841502Y662686D03*
X378460Y828294D03*
X585724Y573786D03*
X585470Y561086D03*
X660255Y420733D03*
X503936Y548132D03*
X642874Y427736D03*
X504190Y535686D03*
X485874Y646938D03*
X503428Y573786D03*
X669980Y801950D03*
X718060Y802132D03*
X711708Y589506D03*
X689356Y589054D03*
X723686Y596900D03*
X890098Y659932D03*
X732774Y596900D03*
X889508Y674116D03*
X741862Y596646D03*
X889960Y687578D03*
X750950Y596928D03*
X890524Y701802D03*
X759968Y631670D03*
X890016Y715264D03*
X919614Y659130D03*
X889000Y598932D03*
X919614Y673862D03*
X889254Y617220D03*
X672592Y597916D03*
M02*
