G04 EAGLE Gerber X2 export*
%TF.Part,Single*%
%TF.FileFunction,Copper,L2,Bot,Mixed*%
%TF.FilePolarity,Positive*%
%TF.GenerationSoftware,Autodesk,EAGLE,8.6.0*%
%TF.CreationDate,2018-05-14T08:47:16Z*%
G75*
%MOMM*%
%FSLAX34Y34*%
%LPD*%
%AMOC8*
5,1,8,0,0,1.08239X$1,22.5*%
G01*
%ADD10C,1.651000*%
%ADD11R,1.651000X1.651000*%
%ADD12C,4.318000*%
%ADD13C,1.879600*%
%ADD14R,1.000000X1.100000*%
%ADD15R,1.100000X1.000000*%
%ADD16R,0.800000X1.200000*%
%ADD17C,0.756400*%
%ADD18C,0.609600*%
%ADD19C,1.016000*%
%ADD20C,0.812800*%
%ADD21C,0.508000*%
%ADD22C,0.254000*%
%ADD23C,0.203200*%


D10*
X157363Y292100D03*
D11*
X182363Y292100D03*
D10*
X265313Y292100D03*
D11*
X290313Y292100D03*
D12*
X108425Y246063D03*
X48425Y246063D03*
X78425Y199063D03*
D13*
X119063Y144463D03*
X119063Y119063D03*
X119063Y93663D03*
D14*
X191135Y528565D03*
X191135Y511565D03*
D15*
X257248Y506095D03*
X274248Y506095D03*
D16*
X207755Y567690D03*
X189755Y567690D03*
D15*
X229308Y536893D03*
X246308Y536893D03*
D10*
X296863Y620395D03*
X347663Y620395D03*
D15*
X330763Y540068D03*
X313763Y540068D03*
X218513Y421323D03*
X235513Y421323D03*
D13*
X25400Y520700D03*
X25400Y495300D03*
X25400Y469900D03*
X25400Y444500D03*
X25400Y419100D03*
X25400Y393700D03*
X217488Y119063D03*
X192088Y119063D03*
X334963Y122238D03*
X309563Y122238D03*
X30417Y595503D03*
X30417Y660527D03*
X75629Y595503D03*
X75629Y660527D03*
X420688Y646113D03*
X420688Y620713D03*
X420688Y595313D03*
X420688Y569913D03*
X420688Y544513D03*
X420688Y519113D03*
X420688Y493713D03*
X420688Y468313D03*
X420688Y422275D03*
X420688Y396875D03*
X420688Y371475D03*
X420688Y346075D03*
X420688Y320675D03*
X420688Y268288D03*
X420688Y242888D03*
X420688Y217488D03*
D17*
X209550Y511175D03*
D18*
X191525Y511175D01*
X191135Y511565D01*
X182173Y511565D01*
X176213Y554148D02*
X189755Y567690D01*
X176213Y517525D02*
X182173Y511565D01*
X176213Y517525D02*
X176213Y554148D01*
D17*
X66675Y106363D03*
D19*
X78425Y118113D01*
X78425Y199063D01*
X48425Y229063D01*
X48425Y246063D01*
D17*
X123825Y371475D03*
D20*
X123825Y443475D01*
X191525Y511175D01*
D21*
X209550Y511175D02*
X209550Y512779D01*
D20*
X189852Y567690D02*
X189755Y567690D01*
X274248Y506095D02*
X308220Y540068D01*
X313763Y540068D01*
X54435Y595503D02*
X30417Y595503D01*
X54435Y595503D02*
X69421Y580517D01*
X149843Y580517D02*
X176213Y554148D01*
X149843Y580517D02*
X69421Y580517D01*
X265062Y495507D02*
X268336Y498780D01*
X268336Y500183D02*
X274248Y506095D01*
X268336Y500183D02*
X268336Y498780D01*
X247857Y495507D02*
X233363Y481013D01*
X247857Y495507D02*
X265062Y495507D01*
X233363Y481013D02*
X215900Y481013D01*
X209550Y487363D01*
X209550Y511175D01*
D17*
X244475Y433388D03*
D22*
X244475Y430285D01*
X235513Y421323D01*
D21*
X291482Y421323D01*
X292025Y420779D01*
X304892Y420779D01*
X309563Y425450D01*
D17*
X309563Y425450D03*
X104648Y580644D03*
X176022Y547116D03*
X182118Y502158D03*
D23*
X182118Y511511D01*
X182173Y511565D01*
D17*
X85725Y106363D03*
D20*
X119063Y144463D02*
X108425Y155100D01*
X108425Y246063D01*
X182363Y292100D02*
X245736Y292100D01*
X259579Y305943D01*
X332232Y305943D01*
X420688Y217488D01*
D17*
X202883Y528638D03*
D21*
X202810Y528565D01*
X191135Y528565D01*
D20*
X245673Y537528D02*
X246308Y536893D01*
D17*
X242888Y504825D03*
D21*
X255978Y504825D01*
X257248Y506095D01*
D20*
X307975Y355600D02*
X420688Y242888D01*
X307975Y355600D02*
X111125Y355600D01*
X111125Y550863D01*
X307975Y355600D02*
X330763Y378388D01*
X330763Y441325D01*
X330763Y540068D01*
X344805Y540068D01*
X349250Y544513D01*
D17*
X349250Y544513D03*
D20*
X368300Y525463D01*
X368300Y519113D01*
D17*
X368300Y519113D03*
X111125Y550863D03*
X261938Y550863D03*
D20*
X260278Y550863D01*
X246308Y536893D01*
D21*
X330010Y540068D02*
X330763Y540068D01*
X330010Y540068D02*
X320946Y549132D01*
X300284Y549132D02*
X257248Y506095D01*
X300284Y549132D02*
X320946Y549132D01*
D17*
X304800Y441325D03*
D20*
X330763Y441325D01*
D17*
X214313Y528638D03*
D18*
X214313Y561133D02*
X207755Y567690D01*
X214313Y561133D02*
X214313Y528638D01*
D17*
X223838Y515938D03*
D22*
X228795Y536380D02*
X229308Y536893D01*
X228795Y536380D02*
X223838Y531423D01*
X223838Y515938D01*
X218885Y595503D02*
X75629Y595503D01*
X228795Y585593D02*
X228795Y536380D01*
X228795Y585593D02*
X218885Y595503D01*
X218885Y652272D01*
X400050Y666750D02*
X420688Y646113D01*
X233363Y666750D02*
X218885Y652272D01*
X233363Y666750D02*
X400050Y666750D01*
D17*
X225425Y433388D03*
D22*
X218513Y426475D01*
X218513Y421323D01*
X230260Y409575D01*
X231775Y409575D01*
D17*
X231775Y409575D03*
X179388Y454025D03*
D22*
X169863Y444500D01*
X169863Y439738D01*
X212725Y396875D01*
X306388Y396875D02*
X317500Y407988D01*
X317500Y415925D01*
X306388Y396875D02*
X212725Y396875D01*
D17*
X317500Y415925D03*
X352425Y388938D03*
D22*
X352425Y358775D01*
X365125Y346075D01*
D17*
X365125Y346075D03*
X195263Y436563D03*
D22*
X219300Y436563D01*
X222701Y439964D01*
D17*
X295275Y428625D03*
D22*
X283937Y439964D01*
X222701Y439964D01*
D17*
X352425Y398463D03*
D22*
X382588Y368300D01*
X382588Y338138D01*
X400050Y320675D01*
X420688Y320675D01*
X77470Y445770D02*
X25400Y393700D01*
X77470Y445770D02*
X85725Y445770D01*
D17*
X85725Y445770D03*
M02*
