G04 EAGLE Gerber X2 export*
%TF.Part,Single*%
%TF.FileFunction,Copper,L1,Top,Mixed*%
%TF.FilePolarity,Positive*%
%TF.GenerationSoftware,Autodesk,EAGLE,8.6.0*%
%TF.CreationDate,2018-05-14T08:47:16Z*%
G75*
%MOMM*%
%FSLAX34Y34*%
%LPD*%
%AMOC8*
5,1,8,0,0,1.08239X$1,22.5*%
G01*
%ADD10R,1.100000X1.000000*%
%ADD11C,1.651000*%
%ADD12R,1.651000X1.651000*%
%ADD13R,3.600000X3.600000*%
%ADD14R,0.250000X0.600000*%
%ADD15R,0.600000X0.250000*%
%ADD16C,4.318000*%
%ADD17R,1.400000X0.350000*%
%ADD18R,1.900000X1.800000*%
%ADD19R,1.900000X1.900000*%
%ADD20C,1.879600*%
%ADD21R,1.219200X2.235200*%
%ADD22R,3.600000X2.200000*%
%ADD23C,0.254000*%
%ADD24C,0.756400*%
%ADD25C,0.406400*%
%ADD26C,1.016000*%
%ADD27C,0.812800*%
%ADD28C,0.203200*%
%ADD29C,0.304800*%
%ADD30C,0.508000*%

G36*
X342763Y174743D02*
X342763Y174743D01*
X342862Y174746D01*
X342920Y174763D01*
X342980Y174771D01*
X343072Y174807D01*
X343167Y174835D01*
X343219Y174865D01*
X343276Y174888D01*
X343356Y174946D01*
X343441Y174996D01*
X343517Y175062D01*
X343533Y175074D01*
X343541Y175084D01*
X343562Y175103D01*
X408377Y239918D01*
X408438Y239996D01*
X408506Y240068D01*
X408535Y240121D01*
X408572Y240169D01*
X408611Y240260D01*
X408659Y240346D01*
X408674Y240405D01*
X408698Y240461D01*
X408714Y240559D01*
X408739Y240654D01*
X408745Y240754D01*
X408748Y240775D01*
X408747Y240787D01*
X408749Y240815D01*
X408749Y245262D01*
X410566Y249650D01*
X413925Y253009D01*
X417407Y254451D01*
X417433Y254466D01*
X417461Y254475D01*
X417570Y254544D01*
X417683Y254608D01*
X417705Y254629D01*
X417730Y254645D01*
X417818Y254740D01*
X417911Y254830D01*
X417927Y254855D01*
X417947Y254877D01*
X418010Y254990D01*
X418078Y255101D01*
X418086Y255129D01*
X418101Y255156D01*
X418133Y255281D01*
X418171Y255405D01*
X418173Y255435D01*
X418180Y255464D01*
X418180Y255593D01*
X418186Y255722D01*
X418180Y255752D01*
X418180Y255782D01*
X418148Y255907D01*
X418122Y256034D01*
X418109Y256061D01*
X418102Y256090D01*
X418039Y256203D01*
X417982Y256320D01*
X417963Y256342D01*
X417949Y256369D01*
X417860Y256463D01*
X417776Y256562D01*
X417752Y256579D01*
X417731Y256601D01*
X417622Y256670D01*
X417516Y256745D01*
X417488Y256755D01*
X417463Y256771D01*
X417313Y256831D01*
X416105Y257223D01*
X414430Y258077D01*
X412910Y259181D01*
X411581Y260510D01*
X410477Y262030D01*
X409623Y263705D01*
X409043Y265492D01*
X409002Y265748D01*
X419417Y265748D01*
X419536Y265763D01*
X419654Y265771D01*
X419693Y265783D01*
X419733Y265788D01*
X419844Y265832D01*
X419957Y265869D01*
X419991Y265890D01*
X420029Y265905D01*
X420125Y265975D01*
X420225Y266039D01*
X420253Y266068D01*
X420286Y266092D01*
X420362Y266184D01*
X420443Y266270D01*
X420463Y266306D01*
X420489Y266337D01*
X420539Y266445D01*
X420597Y266549D01*
X420607Y266588D01*
X420624Y266625D01*
X420647Y266741D01*
X420676Y266857D01*
X420680Y266917D01*
X420684Y266937D01*
X420683Y266957D01*
X420687Y267018D01*
X420687Y268288D01*
X420688Y268288D01*
X420688Y267018D01*
X420703Y266899D01*
X420711Y266781D01*
X420723Y266742D01*
X420728Y266702D01*
X420772Y266591D01*
X420809Y266478D01*
X420830Y266444D01*
X420845Y266406D01*
X420915Y266310D01*
X420979Y266209D01*
X421008Y266182D01*
X421032Y266149D01*
X421124Y266073D01*
X421211Y265991D01*
X421246Y265972D01*
X421277Y265946D01*
X421385Y265895D01*
X421489Y265838D01*
X421528Y265828D01*
X421565Y265811D01*
X421682Y265788D01*
X421797Y265758D01*
X421857Y265755D01*
X421877Y265751D01*
X421897Y265752D01*
X421958Y265748D01*
X432373Y265748D01*
X432332Y265492D01*
X431752Y263705D01*
X430898Y262030D01*
X429794Y260510D01*
X428465Y259181D01*
X426945Y258077D01*
X425270Y257223D01*
X424062Y256831D01*
X424035Y256818D01*
X424006Y256811D01*
X423891Y256750D01*
X423774Y256695D01*
X423751Y256676D01*
X423725Y256662D01*
X423628Y256575D01*
X423529Y256493D01*
X423511Y256469D01*
X423489Y256448D01*
X423418Y256340D01*
X423342Y256235D01*
X423331Y256208D01*
X423314Y256183D01*
X423272Y256060D01*
X423225Y255940D01*
X423221Y255910D01*
X423211Y255882D01*
X423201Y255753D01*
X423185Y255624D01*
X423188Y255595D01*
X423186Y255565D01*
X423208Y255437D01*
X423224Y255309D01*
X423235Y255281D01*
X423240Y255252D01*
X423294Y255134D01*
X423341Y255013D01*
X423359Y254989D01*
X423371Y254962D01*
X423452Y254861D01*
X423528Y254756D01*
X423551Y254736D01*
X423570Y254713D01*
X423673Y254635D01*
X423773Y254553D01*
X423800Y254540D01*
X423824Y254522D01*
X423968Y254451D01*
X427450Y253009D01*
X430809Y249650D01*
X432626Y245262D01*
X432626Y240513D01*
X430809Y236125D01*
X427450Y232766D01*
X424055Y231360D01*
X423934Y231291D01*
X423812Y231226D01*
X423797Y231213D01*
X423779Y231203D01*
X423679Y231106D01*
X423576Y231012D01*
X423565Y230995D01*
X423551Y230981D01*
X423478Y230863D01*
X423402Y230747D01*
X423395Y230727D01*
X423384Y230710D01*
X423344Y230578D01*
X423298Y230446D01*
X423297Y230426D01*
X423291Y230406D01*
X423284Y230268D01*
X423273Y230129D01*
X423277Y230109D01*
X423276Y230089D01*
X423304Y229952D01*
X423328Y229815D01*
X423336Y229797D01*
X423340Y229777D01*
X423401Y229652D01*
X423458Y229525D01*
X423471Y229510D01*
X423480Y229491D01*
X423570Y229386D01*
X423657Y229277D01*
X423673Y229265D01*
X423686Y229249D01*
X423800Y229170D01*
X423911Y229086D01*
X423936Y229073D01*
X423946Y229066D01*
X423965Y229059D01*
X424055Y229015D01*
X427450Y227609D01*
X430809Y224250D01*
X432626Y219862D01*
X432626Y215113D01*
X430809Y210725D01*
X427450Y207366D01*
X423062Y205549D01*
X418615Y205549D01*
X418517Y205536D01*
X418418Y205533D01*
X418360Y205517D01*
X418299Y205509D01*
X418207Y205472D01*
X418112Y205445D01*
X418060Y205414D01*
X418004Y205392D01*
X417924Y205334D01*
X417838Y205283D01*
X417763Y205217D01*
X417746Y205205D01*
X417739Y205196D01*
X417718Y205177D01*
X389438Y176898D01*
X389353Y176788D01*
X389264Y176681D01*
X389255Y176662D01*
X389243Y176646D01*
X389188Y176518D01*
X389129Y176393D01*
X389125Y176373D01*
X389117Y176354D01*
X389095Y176216D01*
X389069Y176081D01*
X389070Y176060D01*
X389067Y176040D01*
X389080Y175901D01*
X389089Y175763D01*
X389095Y175744D01*
X389097Y175724D01*
X389144Y175592D01*
X389187Y175461D01*
X389197Y175443D01*
X389204Y175424D01*
X389282Y175309D01*
X389357Y175192D01*
X389372Y175178D01*
X389383Y175161D01*
X389487Y175069D01*
X389588Y174974D01*
X389606Y174964D01*
X389621Y174951D01*
X389745Y174888D01*
X389867Y174820D01*
X389886Y174815D01*
X389905Y174806D01*
X390040Y174776D01*
X390175Y174741D01*
X390203Y174739D01*
X390215Y174737D01*
X390235Y174737D01*
X390335Y174731D01*
X456000Y174731D01*
X456098Y174743D01*
X456197Y174746D01*
X456255Y174763D01*
X456316Y174771D01*
X456408Y174807D01*
X456503Y174835D01*
X456555Y174865D01*
X456611Y174888D01*
X456691Y174946D01*
X456777Y174996D01*
X456852Y175062D01*
X456869Y175074D01*
X456876Y175084D01*
X456898Y175103D01*
X472898Y191103D01*
X472958Y191181D01*
X473026Y191253D01*
X473055Y191306D01*
X473092Y191354D01*
X473132Y191445D01*
X473180Y191531D01*
X473195Y191590D01*
X473219Y191646D01*
X473234Y191744D01*
X473259Y191839D01*
X473265Y191939D01*
X473269Y191960D01*
X473267Y191972D01*
X473269Y192000D01*
X473269Y664000D01*
X473257Y664098D01*
X473254Y664197D01*
X473237Y664255D01*
X473229Y664316D01*
X473193Y664408D01*
X473165Y664503D01*
X473135Y664555D01*
X473112Y664611D01*
X473054Y664691D01*
X473004Y664777D01*
X472938Y664852D01*
X472926Y664869D01*
X472916Y664876D01*
X472898Y664898D01*
X458717Y679078D01*
X458639Y679138D01*
X458567Y679206D01*
X458514Y679235D01*
X458466Y679272D01*
X458375Y679312D01*
X458289Y679360D01*
X458230Y679375D01*
X458174Y679399D01*
X458076Y679414D01*
X457981Y679439D01*
X457881Y679445D01*
X457860Y679449D01*
X457848Y679447D01*
X457820Y679449D01*
X452268Y679449D01*
X445669Y681218D01*
X445661Y681221D01*
X445651Y681222D01*
X445647Y681224D01*
X445615Y681228D01*
X445567Y681235D01*
X445475Y681259D01*
X445366Y681266D01*
X445347Y681269D01*
X445337Y681268D01*
X445314Y681269D01*
X42049Y681269D01*
X41954Y681257D01*
X41858Y681255D01*
X41825Y681245D01*
X41766Y681234D01*
X41733Y681229D01*
X41720Y681224D01*
X41716Y681224D01*
X35094Y679449D01*
X28406Y679449D01*
X23789Y680686D01*
X23684Y680701D01*
X23581Y680724D01*
X23527Y680722D01*
X23474Y680730D01*
X23369Y680717D01*
X23263Y680714D01*
X23211Y680699D01*
X23158Y680693D01*
X23059Y680655D01*
X22958Y680626D01*
X22911Y680598D01*
X22861Y680579D01*
X22775Y680518D01*
X22684Y680464D01*
X22619Y680408D01*
X22602Y680395D01*
X22592Y680383D01*
X22563Y680358D01*
X10532Y668327D01*
X10472Y668249D01*
X10404Y668177D01*
X10375Y668124D01*
X10338Y668076D01*
X10298Y667985D01*
X10250Y667899D01*
X10235Y667840D01*
X10211Y667784D01*
X10196Y667686D01*
X10171Y667591D01*
X10165Y667491D01*
X10161Y667470D01*
X10163Y667458D01*
X10161Y667430D01*
X10161Y372570D01*
X10173Y372472D01*
X10176Y372373D01*
X10193Y372315D01*
X10201Y372254D01*
X10237Y372162D01*
X10265Y372067D01*
X10295Y372015D01*
X10318Y371959D01*
X10376Y371879D01*
X10426Y371793D01*
X10492Y371718D01*
X10504Y371701D01*
X10514Y371694D01*
X10532Y371673D01*
X15103Y367103D01*
X15181Y367042D01*
X15253Y366974D01*
X15306Y366945D01*
X15354Y366908D01*
X15445Y366868D01*
X15531Y366820D01*
X15590Y366805D01*
X15646Y366781D01*
X15744Y366766D01*
X15839Y366741D01*
X15939Y366735D01*
X15960Y366731D01*
X15972Y366733D01*
X16000Y366731D01*
X278731Y366731D01*
X278731Y365997D01*
X278746Y365879D01*
X278753Y365761D01*
X278766Y365722D01*
X278771Y365682D01*
X278814Y365571D01*
X278851Y365458D01*
X278873Y365424D01*
X278888Y365386D01*
X278958Y365290D01*
X279021Y365189D01*
X279051Y365162D01*
X279074Y365129D01*
X279166Y365053D01*
X279253Y364971D01*
X279288Y364952D01*
X279319Y364926D01*
X279427Y364875D01*
X279531Y364818D01*
X279571Y364808D01*
X279607Y364791D01*
X279724Y364768D01*
X279839Y364738D01*
X279900Y364735D01*
X279920Y364731D01*
X279940Y364732D01*
X280000Y364728D01*
X280638Y364728D01*
X280638Y358418D01*
X280653Y358299D01*
X280661Y358181D01*
X280673Y358142D01*
X280678Y358102D01*
X280722Y357991D01*
X280759Y357878D01*
X280780Y357844D01*
X280795Y357806D01*
X280865Y357710D01*
X280929Y357610D01*
X280958Y357582D01*
X280982Y357549D01*
X281074Y357473D01*
X281160Y357392D01*
X281196Y357372D01*
X281227Y357346D01*
X281335Y357296D01*
X281439Y357238D01*
X281478Y357228D01*
X281515Y357211D01*
X281621Y357190D01*
X281592Y357187D01*
X281481Y357143D01*
X281368Y357106D01*
X281334Y357085D01*
X281296Y357070D01*
X281200Y357000D01*
X281099Y356936D01*
X281072Y356907D01*
X281039Y356883D01*
X280963Y356791D01*
X280881Y356704D01*
X280862Y356669D01*
X280836Y356638D01*
X280785Y356530D01*
X280728Y356426D01*
X280718Y356387D01*
X280701Y356350D01*
X280678Y356233D01*
X280648Y356118D01*
X280645Y356058D01*
X280641Y356038D01*
X280642Y356017D01*
X280638Y355957D01*
X280638Y350093D01*
X280651Y349994D01*
X280654Y349895D01*
X280670Y349837D01*
X280678Y349777D01*
X280714Y349685D01*
X280742Y349590D01*
X280773Y349538D01*
X280795Y349481D01*
X280853Y349401D01*
X280904Y349316D01*
X280970Y349240D01*
X280982Y349224D01*
X280991Y349216D01*
X281010Y349195D01*
X318731Y311474D01*
X318731Y192000D01*
X318743Y191902D01*
X318746Y191803D01*
X318763Y191745D01*
X318771Y191684D01*
X318807Y191592D01*
X318835Y191497D01*
X318865Y191445D01*
X318888Y191389D01*
X318946Y191309D01*
X318996Y191223D01*
X319062Y191148D01*
X319074Y191131D01*
X319084Y191124D01*
X319103Y191103D01*
X335103Y175103D01*
X335181Y175042D01*
X335253Y174974D01*
X335306Y174945D01*
X335354Y174908D01*
X335445Y174868D01*
X335531Y174820D01*
X335590Y174805D01*
X335646Y174781D01*
X335744Y174766D01*
X335839Y174741D01*
X335939Y174735D01*
X335960Y174731D01*
X335972Y174733D01*
X336000Y174731D01*
X342665Y174731D01*
X342763Y174743D01*
G37*
%LPC*%
G36*
X418313Y308736D02*
X418313Y308736D01*
X413925Y310554D01*
X410566Y313912D01*
X408749Y318300D01*
X408749Y323050D01*
X410566Y327438D01*
X413925Y330796D01*
X417320Y332202D01*
X417440Y332271D01*
X417563Y332336D01*
X417578Y332350D01*
X417596Y332360D01*
X417696Y332457D01*
X417799Y332550D01*
X417810Y332567D01*
X417824Y332581D01*
X417897Y332700D01*
X417973Y332816D01*
X417980Y332835D01*
X417991Y332852D01*
X418031Y332985D01*
X418077Y333117D01*
X418078Y333137D01*
X418084Y333156D01*
X418091Y333295D01*
X418102Y333434D01*
X418098Y333454D01*
X418099Y333474D01*
X418071Y333610D01*
X418047Y333747D01*
X418039Y333766D01*
X418035Y333785D01*
X417974Y333911D01*
X417917Y334037D01*
X417904Y334053D01*
X417895Y334071D01*
X417805Y334177D01*
X417718Y334285D01*
X417702Y334298D01*
X417689Y334313D01*
X417575Y334393D01*
X417565Y334401D01*
X417552Y334413D01*
X417540Y334420D01*
X417464Y334477D01*
X417439Y334489D01*
X417429Y334496D01*
X417410Y334503D01*
X417320Y334548D01*
X413925Y335954D01*
X410566Y339312D01*
X409668Y341481D01*
X409653Y341506D01*
X409644Y341534D01*
X409575Y341644D01*
X409511Y341757D01*
X409490Y341778D01*
X409474Y341803D01*
X409380Y341892D01*
X409289Y341985D01*
X409264Y342001D01*
X409243Y342021D01*
X409129Y342084D01*
X409018Y342152D01*
X408990Y342160D01*
X408964Y342175D01*
X408838Y342207D01*
X408714Y342245D01*
X408685Y342247D01*
X408656Y342254D01*
X408495Y342264D01*
X370782Y342264D01*
X370684Y342252D01*
X370584Y342249D01*
X370526Y342232D01*
X370466Y342224D01*
X370374Y342188D01*
X370279Y342160D01*
X370227Y342130D01*
X370170Y342107D01*
X370090Y342049D01*
X370005Y341999D01*
X369930Y341933D01*
X369913Y341921D01*
X369905Y341911D01*
X369884Y341893D01*
X368707Y340715D01*
X366383Y339752D01*
X363867Y339752D01*
X361543Y340715D01*
X359765Y342493D01*
X358802Y344817D01*
X358802Y347333D01*
X359765Y349657D01*
X361543Y351435D01*
X363867Y352398D01*
X366383Y352398D01*
X368707Y351435D01*
X369884Y350257D01*
X369962Y350197D01*
X370035Y350129D01*
X370088Y350100D01*
X370135Y350063D01*
X370226Y350023D01*
X370313Y349975D01*
X370372Y349960D01*
X370427Y349936D01*
X370525Y349921D01*
X370621Y349896D01*
X370721Y349890D01*
X370741Y349886D01*
X370754Y349888D01*
X370782Y349886D01*
X408495Y349886D01*
X408525Y349889D01*
X408554Y349887D01*
X408682Y349909D01*
X408811Y349926D01*
X408838Y349936D01*
X408868Y349941D01*
X408986Y349995D01*
X409107Y350043D01*
X409131Y350060D01*
X409158Y350072D01*
X409259Y350153D01*
X409364Y350229D01*
X409383Y350252D01*
X409406Y350271D01*
X409484Y350374D01*
X409567Y350474D01*
X409579Y350501D01*
X409597Y350525D01*
X409668Y350669D01*
X410566Y352838D01*
X413925Y356196D01*
X417320Y357602D01*
X417379Y357637D01*
X417438Y357660D01*
X417490Y357698D01*
X417563Y357736D01*
X417578Y357750D01*
X417596Y357760D01*
X417655Y357817D01*
X417695Y357846D01*
X417728Y357886D01*
X417799Y357950D01*
X417810Y357967D01*
X417824Y357981D01*
X417874Y358063D01*
X417898Y358091D01*
X417915Y358127D01*
X417973Y358216D01*
X417980Y358235D01*
X417991Y358252D01*
X418022Y358355D01*
X418034Y358379D01*
X418039Y358407D01*
X418077Y358517D01*
X418078Y358537D01*
X418084Y358556D01*
X418090Y358672D01*
X418093Y358692D01*
X418092Y358712D01*
X418102Y358834D01*
X418098Y358854D01*
X418099Y358874D01*
X418075Y358994D01*
X418074Y359009D01*
X418069Y359024D01*
X418047Y359147D01*
X418039Y359166D01*
X418035Y359185D01*
X417980Y359298D01*
X417976Y359311D01*
X417968Y359324D01*
X417917Y359437D01*
X417904Y359453D01*
X417895Y359471D01*
X417815Y359566D01*
X417805Y359580D01*
X417793Y359591D01*
X417718Y359685D01*
X417702Y359698D01*
X417689Y359713D01*
X417590Y359782D01*
X417574Y359798D01*
X417555Y359809D01*
X417464Y359877D01*
X417439Y359889D01*
X417429Y359896D01*
X417410Y359903D01*
X417320Y359948D01*
X413925Y361354D01*
X410566Y364712D01*
X408749Y369100D01*
X408749Y373850D01*
X410335Y377680D01*
X410354Y377748D01*
X410382Y377812D01*
X410396Y377901D01*
X410419Y377987D01*
X410421Y378057D01*
X410431Y378126D01*
X410423Y378215D01*
X410424Y378305D01*
X410408Y378373D01*
X410402Y378443D01*
X410371Y378527D01*
X410350Y378614D01*
X410318Y378676D01*
X410294Y378742D01*
X410244Y378816D01*
X410202Y378896D01*
X410155Y378947D01*
X410115Y379005D01*
X410048Y379064D01*
X409988Y379131D01*
X409929Y379169D01*
X409877Y379215D01*
X409797Y379256D01*
X409722Y379306D01*
X409656Y379328D01*
X409594Y379360D01*
X409506Y379380D01*
X409421Y379409D01*
X409352Y379414D01*
X409284Y379430D01*
X409194Y379427D01*
X409104Y379434D01*
X409035Y379422D01*
X408966Y379420D01*
X408879Y379395D01*
X408791Y379380D01*
X408727Y379351D01*
X408660Y379332D01*
X408583Y379286D01*
X408501Y379249D01*
X408446Y379206D01*
X408386Y379170D01*
X408265Y379064D01*
X405328Y376126D01*
X153553Y376126D01*
X150949Y378730D01*
X145480Y384200D01*
X145401Y384261D01*
X145329Y384329D01*
X145276Y384358D01*
X145228Y384395D01*
X145137Y384434D01*
X145051Y384482D01*
X144992Y384497D01*
X144936Y384521D01*
X144838Y384537D01*
X144743Y384562D01*
X144643Y384568D01*
X144622Y384571D01*
X144610Y384570D01*
X144582Y384572D01*
X133855Y384572D01*
X132367Y386060D01*
X132367Y398165D01*
X133855Y399653D01*
X138377Y399653D01*
X138475Y399666D01*
X138574Y399669D01*
X138632Y399685D01*
X138693Y399693D01*
X138785Y399730D01*
X138880Y399757D01*
X138932Y399788D01*
X138988Y399810D01*
X139068Y399868D01*
X139154Y399919D01*
X139229Y399985D01*
X139246Y399997D01*
X139253Y400006D01*
X139274Y400025D01*
X141749Y402500D01*
X141750Y402500D01*
X188172Y448923D01*
X188257Y449032D01*
X188346Y449139D01*
X188355Y449158D01*
X188367Y449174D01*
X188422Y449302D01*
X188481Y449427D01*
X188485Y449447D01*
X188493Y449466D01*
X188515Y449603D01*
X188541Y449740D01*
X188540Y449760D01*
X188543Y449780D01*
X188530Y449919D01*
X188521Y450057D01*
X188515Y450076D01*
X188513Y450096D01*
X188466Y450228D01*
X188423Y450359D01*
X188413Y450377D01*
X188406Y450396D01*
X188328Y450511D01*
X188253Y450628D01*
X188239Y450642D01*
X188227Y450659D01*
X188123Y450751D01*
X188022Y450846D01*
X188004Y450856D01*
X187989Y450869D01*
X187865Y450933D01*
X187743Y451000D01*
X187724Y451005D01*
X187706Y451014D01*
X187570Y451044D01*
X187435Y451079D01*
X187407Y451081D01*
X187395Y451084D01*
X187375Y451083D01*
X187275Y451089D01*
X185863Y451089D01*
X185834Y451086D01*
X185804Y451088D01*
X185677Y451066D01*
X185548Y451049D01*
X185520Y451039D01*
X185491Y451033D01*
X185373Y450980D01*
X185252Y450932D01*
X185228Y450915D01*
X185201Y450903D01*
X185100Y450822D01*
X184995Y450746D01*
X184976Y450723D01*
X184953Y450704D01*
X184875Y450601D01*
X184792Y450501D01*
X184780Y450476D01*
X182969Y448665D01*
X180645Y447702D01*
X178130Y447702D01*
X175806Y448665D01*
X174027Y450443D01*
X173113Y452652D01*
X173088Y452695D01*
X173071Y452742D01*
X173010Y452832D01*
X172955Y452928D01*
X172921Y452964D01*
X172893Y453005D01*
X172810Y453077D01*
X172734Y453156D01*
X172692Y453182D01*
X172654Y453215D01*
X172556Y453265D01*
X172463Y453323D01*
X172415Y453337D01*
X172371Y453360D01*
X172264Y453384D01*
X172159Y453416D01*
X172109Y453419D01*
X172061Y453429D01*
X171951Y453426D01*
X171841Y453431D01*
X171793Y453421D01*
X171743Y453420D01*
X171637Y453389D01*
X171530Y453367D01*
X171485Y453345D01*
X171437Y453331D01*
X171343Y453276D01*
X171244Y453227D01*
X171206Y453195D01*
X171163Y453170D01*
X171043Y453063D01*
X140102Y422123D01*
X140042Y422045D01*
X139974Y421973D01*
X139945Y421920D01*
X139908Y421872D01*
X139868Y421781D01*
X139820Y421694D01*
X139805Y421636D01*
X139781Y421580D01*
X139766Y421482D01*
X139741Y421386D01*
X139735Y421286D01*
X139731Y421266D01*
X139733Y421254D01*
X139731Y421226D01*
X139731Y413048D01*
X138242Y411559D01*
X125138Y411559D01*
X124087Y412609D01*
X123993Y412682D01*
X123904Y412761D01*
X123868Y412779D01*
X123836Y412804D01*
X123727Y412852D01*
X123621Y412906D01*
X123582Y412915D01*
X123544Y412931D01*
X123427Y412949D01*
X123311Y412975D01*
X123270Y412974D01*
X123230Y412980D01*
X123112Y412969D01*
X122993Y412966D01*
X122954Y412954D01*
X122914Y412951D01*
X122802Y412910D01*
X122687Y412877D01*
X122652Y412857D01*
X122614Y412843D01*
X122516Y412776D01*
X122413Y412716D01*
X122368Y412676D01*
X122351Y412664D01*
X122338Y412649D01*
X122292Y412609D01*
X121242Y411559D01*
X108138Y411559D01*
X106684Y413013D01*
X106606Y413073D01*
X106534Y413141D01*
X106481Y413170D01*
X106433Y413207D01*
X106342Y413247D01*
X106255Y413295D01*
X106197Y413310D01*
X106141Y413334D01*
X106043Y413349D01*
X105948Y413374D01*
X105847Y413380D01*
X105827Y413384D01*
X105815Y413382D01*
X105787Y413384D01*
X78432Y413384D01*
X51498Y440318D01*
X51420Y440378D01*
X51348Y440446D01*
X51295Y440475D01*
X51247Y440512D01*
X51156Y440552D01*
X51069Y440600D01*
X51011Y440615D01*
X50955Y440639D01*
X50857Y440654D01*
X50761Y440679D01*
X50661Y440685D01*
X50641Y440689D01*
X50629Y440687D01*
X50601Y440689D01*
X37592Y440689D01*
X37563Y440686D01*
X37533Y440688D01*
X37405Y440666D01*
X37276Y440649D01*
X37249Y440639D01*
X37220Y440634D01*
X37101Y440580D01*
X36981Y440532D01*
X36957Y440515D01*
X36930Y440503D01*
X36829Y440422D01*
X36723Y440346D01*
X36705Y440323D01*
X36682Y440304D01*
X36603Y440201D01*
X36521Y440101D01*
X36508Y440074D01*
X36490Y440050D01*
X36419Y439906D01*
X35521Y437737D01*
X32163Y434379D01*
X28681Y432937D01*
X28655Y432922D01*
X28626Y432913D01*
X28517Y432843D01*
X28404Y432779D01*
X28383Y432758D01*
X28358Y432742D01*
X28269Y432648D01*
X28176Y432558D01*
X28160Y432532D01*
X28140Y432510D01*
X28077Y432397D01*
X28010Y432287D01*
X28001Y432258D01*
X27987Y432232D01*
X27954Y432106D01*
X27916Y431983D01*
X27915Y431953D01*
X27907Y431924D01*
X27907Y431794D01*
X27901Y431665D01*
X27907Y431636D01*
X27907Y431606D01*
X27939Y431480D01*
X27965Y431354D01*
X27978Y431327D01*
X27986Y431298D01*
X28048Y431184D01*
X28105Y431068D01*
X28124Y431045D01*
X28139Y431019D01*
X28227Y430925D01*
X28311Y430826D01*
X28336Y430809D01*
X28356Y430787D01*
X28465Y430717D01*
X28571Y430643D01*
X28599Y430632D01*
X28625Y430616D01*
X28774Y430557D01*
X29983Y430164D01*
X31657Y429311D01*
X33178Y428206D01*
X34506Y426878D01*
X35611Y425357D01*
X36464Y423683D01*
X37045Y421896D01*
X37085Y421639D01*
X26670Y421639D01*
X26552Y421624D01*
X26433Y421617D01*
X26395Y421604D01*
X26355Y421599D01*
X26244Y421556D01*
X26131Y421519D01*
X26097Y421497D01*
X26059Y421482D01*
X25963Y421412D01*
X25862Y421349D01*
X25834Y421319D01*
X25802Y421295D01*
X25726Y421204D01*
X25644Y421117D01*
X25625Y421082D01*
X25599Y421051D01*
X25548Y420943D01*
X25491Y420839D01*
X25480Y420799D01*
X25463Y420763D01*
X25441Y420646D01*
X25411Y420531D01*
X25407Y420470D01*
X25403Y420450D01*
X25405Y420430D01*
X25401Y420370D01*
X25401Y417830D01*
X25416Y417712D01*
X25423Y417593D01*
X25436Y417555D01*
X25441Y417514D01*
X25485Y417404D01*
X25521Y417291D01*
X25543Y417256D01*
X25558Y417219D01*
X25628Y417123D01*
X25691Y417022D01*
X25721Y416994D01*
X25745Y416961D01*
X25836Y416886D01*
X25923Y416804D01*
X25958Y416784D01*
X25990Y416759D01*
X26097Y416708D01*
X26202Y416650D01*
X26241Y416640D01*
X26277Y416623D01*
X26394Y416601D01*
X26509Y416571D01*
X26570Y416567D01*
X26590Y416563D01*
X26610Y416565D01*
X26670Y416561D01*
X37085Y416561D01*
X37045Y416304D01*
X36464Y414517D01*
X35611Y412843D01*
X34506Y411322D01*
X33178Y409994D01*
X31657Y408889D01*
X29983Y408036D01*
X28774Y407643D01*
X28747Y407631D01*
X28718Y407624D01*
X28604Y407563D01*
X28486Y407508D01*
X28463Y407489D01*
X28437Y407475D01*
X28341Y407387D01*
X28241Y407305D01*
X28224Y407281D01*
X28202Y407261D01*
X28130Y407152D01*
X28054Y407048D01*
X28043Y407020D01*
X28027Y406995D01*
X27985Y406872D01*
X27937Y406752D01*
X27933Y406723D01*
X27924Y406694D01*
X27913Y406565D01*
X27897Y406437D01*
X27901Y406407D01*
X27899Y406377D01*
X27921Y406250D01*
X27937Y406121D01*
X27948Y406093D01*
X27953Y406064D01*
X28006Y405946D01*
X28054Y405825D01*
X28071Y405801D01*
X28084Y405774D01*
X28164Y405673D01*
X28240Y405568D01*
X28263Y405549D01*
X28282Y405526D01*
X28386Y405448D01*
X28485Y405365D01*
X28512Y405352D01*
X28536Y405334D01*
X28681Y405263D01*
X32163Y403821D01*
X35521Y400463D01*
X37339Y396075D01*
X37339Y391325D01*
X35521Y386937D01*
X32163Y383579D01*
X27775Y381761D01*
X23025Y381761D01*
X18637Y383579D01*
X15279Y386937D01*
X13461Y391325D01*
X13461Y396075D01*
X15279Y400463D01*
X18637Y403821D01*
X22119Y405263D01*
X22145Y405278D01*
X22174Y405287D01*
X22283Y405357D01*
X22396Y405421D01*
X22417Y405442D01*
X22442Y405458D01*
X22531Y405552D01*
X22624Y405642D01*
X22640Y405668D01*
X22660Y405690D01*
X22723Y405803D01*
X22790Y405913D01*
X22799Y405942D01*
X22813Y405968D01*
X22846Y406094D01*
X22884Y406217D01*
X22885Y406247D01*
X22893Y406276D01*
X22893Y406406D01*
X22899Y406535D01*
X22893Y406564D01*
X22893Y406594D01*
X22861Y406720D01*
X22835Y406846D01*
X22822Y406873D01*
X22814Y406902D01*
X22752Y407016D01*
X22695Y407132D01*
X22676Y407155D01*
X22661Y407181D01*
X22573Y407275D01*
X22489Y407374D01*
X22464Y407391D01*
X22444Y407413D01*
X22335Y407483D01*
X22229Y407557D01*
X22201Y407568D01*
X22175Y407584D01*
X22026Y407643D01*
X20817Y408036D01*
X19143Y408889D01*
X17622Y409994D01*
X16294Y411322D01*
X15189Y412843D01*
X14336Y414517D01*
X13755Y416304D01*
X13715Y416561D01*
X24130Y416561D01*
X24248Y416576D01*
X24367Y416583D01*
X24405Y416596D01*
X24445Y416601D01*
X24556Y416644D01*
X24669Y416681D01*
X24703Y416703D01*
X24741Y416718D01*
X24837Y416788D01*
X24938Y416851D01*
X24966Y416881D01*
X24998Y416904D01*
X25074Y416996D01*
X25156Y417083D01*
X25175Y417118D01*
X25201Y417149D01*
X25252Y417257D01*
X25309Y417361D01*
X25320Y417401D01*
X25337Y417437D01*
X25359Y417554D01*
X25389Y417669D01*
X25393Y417730D01*
X25397Y417750D01*
X25395Y417770D01*
X25399Y417830D01*
X25399Y420370D01*
X25384Y420488D01*
X25377Y420607D01*
X25364Y420645D01*
X25359Y420685D01*
X25315Y420796D01*
X25279Y420909D01*
X25257Y420944D01*
X25242Y420981D01*
X25172Y421077D01*
X25109Y421178D01*
X25079Y421206D01*
X25055Y421239D01*
X24964Y421314D01*
X24877Y421396D01*
X24842Y421416D01*
X24810Y421441D01*
X24703Y421492D01*
X24598Y421550D01*
X24559Y421560D01*
X24523Y421577D01*
X24406Y421599D01*
X24291Y421629D01*
X24230Y421633D01*
X24210Y421637D01*
X24190Y421635D01*
X24130Y421639D01*
X13715Y421639D01*
X13755Y421896D01*
X14336Y423683D01*
X15189Y425357D01*
X16294Y426878D01*
X17622Y428206D01*
X19143Y429311D01*
X20817Y430164D01*
X22026Y430557D01*
X22053Y430569D01*
X22082Y430576D01*
X22196Y430637D01*
X22314Y430692D01*
X22337Y430711D01*
X22363Y430725D01*
X22459Y430813D01*
X22559Y430895D01*
X22576Y430919D01*
X22598Y430939D01*
X22670Y431048D01*
X22746Y431152D01*
X22757Y431180D01*
X22773Y431205D01*
X22815Y431328D01*
X22863Y431448D01*
X22867Y431477D01*
X22876Y431506D01*
X22887Y431635D01*
X22903Y431763D01*
X22899Y431793D01*
X22901Y431823D01*
X22879Y431950D01*
X22863Y432079D01*
X22852Y432107D01*
X22847Y432136D01*
X22794Y432254D01*
X22746Y432375D01*
X22729Y432399D01*
X22716Y432426D01*
X22636Y432527D01*
X22560Y432632D01*
X22537Y432651D01*
X22518Y432674D01*
X22414Y432752D01*
X22315Y432835D01*
X22288Y432848D01*
X22264Y432866D01*
X22119Y432937D01*
X18637Y434379D01*
X15279Y437737D01*
X13461Y442125D01*
X13461Y446875D01*
X15279Y451263D01*
X18637Y454621D01*
X22032Y456027D01*
X22153Y456096D01*
X22276Y456161D01*
X22291Y456175D01*
X22308Y456185D01*
X22408Y456282D01*
X22511Y456375D01*
X22522Y456392D01*
X22537Y456406D01*
X22609Y456524D01*
X22686Y456641D01*
X22692Y456660D01*
X22703Y456677D01*
X22744Y456810D01*
X22789Y456942D01*
X22791Y456962D01*
X22797Y456981D01*
X22803Y457120D01*
X22814Y457259D01*
X22811Y457279D01*
X22812Y457299D01*
X22784Y457435D01*
X22760Y457572D01*
X22752Y457591D01*
X22748Y457610D01*
X22686Y457735D01*
X22629Y457862D01*
X22617Y457878D01*
X22608Y457896D01*
X22517Y458002D01*
X22431Y458110D01*
X22415Y458123D01*
X22401Y458138D01*
X22288Y458218D01*
X22177Y458302D01*
X22151Y458314D01*
X22141Y458321D01*
X22122Y458328D01*
X22032Y458373D01*
X18637Y459779D01*
X15279Y463137D01*
X13461Y467525D01*
X13461Y472275D01*
X15279Y476663D01*
X18637Y480021D01*
X22032Y481427D01*
X22153Y481496D01*
X22276Y481561D01*
X22291Y481575D01*
X22308Y481585D01*
X22408Y481682D01*
X22511Y481775D01*
X22522Y481792D01*
X22537Y481806D01*
X22610Y481925D01*
X22686Y482041D01*
X22692Y482060D01*
X22703Y482077D01*
X22744Y482210D01*
X22789Y482342D01*
X22791Y482362D01*
X22797Y482381D01*
X22803Y482520D01*
X22814Y482659D01*
X22811Y482679D01*
X22812Y482699D01*
X22784Y482835D01*
X22760Y482972D01*
X22752Y482991D01*
X22747Y483010D01*
X22686Y483136D01*
X22629Y483262D01*
X22617Y483278D01*
X22608Y483296D01*
X22517Y483402D01*
X22431Y483510D01*
X22415Y483523D01*
X22401Y483538D01*
X22288Y483618D01*
X22177Y483702D01*
X22151Y483714D01*
X22141Y483721D01*
X22122Y483728D01*
X22032Y483773D01*
X18637Y485179D01*
X15279Y488537D01*
X13461Y492925D01*
X13461Y497675D01*
X15279Y502063D01*
X18637Y505421D01*
X22032Y506827D01*
X22153Y506896D01*
X22276Y506961D01*
X22291Y506975D01*
X22308Y506985D01*
X22408Y507082D01*
X22511Y507175D01*
X22522Y507192D01*
X22537Y507206D01*
X22610Y507325D01*
X22686Y507441D01*
X22692Y507460D01*
X22703Y507477D01*
X22744Y507610D01*
X22789Y507742D01*
X22791Y507762D01*
X22797Y507781D01*
X22803Y507920D01*
X22814Y508059D01*
X22811Y508079D01*
X22812Y508099D01*
X22784Y508235D01*
X22760Y508372D01*
X22752Y508391D01*
X22747Y508410D01*
X22686Y508536D01*
X22629Y508662D01*
X22617Y508678D01*
X22608Y508696D01*
X22517Y508802D01*
X22431Y508910D01*
X22415Y508923D01*
X22401Y508938D01*
X22288Y509018D01*
X22177Y509102D01*
X22151Y509114D01*
X22141Y509121D01*
X22122Y509128D01*
X22032Y509173D01*
X18637Y510579D01*
X15279Y513937D01*
X13461Y518325D01*
X13461Y523075D01*
X15279Y527463D01*
X18637Y530821D01*
X23025Y532639D01*
X27775Y532639D01*
X32163Y530821D01*
X35521Y527463D01*
X36419Y525294D01*
X36434Y525269D01*
X36443Y525241D01*
X36513Y525131D01*
X36577Y525018D01*
X36597Y524997D01*
X36613Y524972D01*
X36708Y524883D01*
X36798Y524790D01*
X36823Y524774D01*
X36845Y524754D01*
X36959Y524691D01*
X37069Y524623D01*
X37098Y524615D01*
X37123Y524600D01*
X37249Y524568D01*
X37373Y524530D01*
X37403Y524528D01*
X37431Y524521D01*
X37592Y524511D01*
X105380Y524511D01*
X105498Y524526D01*
X105617Y524533D01*
X105655Y524546D01*
X105696Y524551D01*
X105806Y524594D01*
X105919Y524631D01*
X105954Y524653D01*
X105991Y524668D01*
X106087Y524737D01*
X106188Y524801D01*
X106216Y524831D01*
X106249Y524854D01*
X106325Y524946D01*
X106406Y525033D01*
X106426Y525068D01*
X106451Y525099D01*
X106502Y525207D01*
X106560Y525311D01*
X106570Y525351D01*
X106587Y525387D01*
X106609Y525504D01*
X106639Y525619D01*
X106643Y525679D01*
X106647Y525699D01*
X106645Y525720D01*
X106649Y525780D01*
X106649Y526752D01*
X108138Y528241D01*
X121242Y528241D01*
X122292Y527191D01*
X122387Y527118D01*
X122476Y527039D01*
X122512Y527020D01*
X122544Y526996D01*
X122653Y526948D01*
X122759Y526894D01*
X122798Y526885D01*
X122836Y526869D01*
X122953Y526851D01*
X123069Y526825D01*
X123110Y526826D01*
X123150Y526820D01*
X123268Y526831D01*
X123387Y526834D01*
X123426Y526846D01*
X123466Y526849D01*
X123579Y526890D01*
X123693Y526923D01*
X123727Y526943D01*
X123766Y526957D01*
X123864Y527024D01*
X123967Y527084D01*
X124012Y527124D01*
X124029Y527136D01*
X124042Y527151D01*
X124087Y527191D01*
X125138Y528241D01*
X138242Y528241D01*
X139731Y526752D01*
X139731Y525780D01*
X139746Y525662D01*
X139753Y525543D01*
X139766Y525505D01*
X139771Y525464D01*
X139814Y525354D01*
X139851Y525241D01*
X139873Y525206D01*
X139888Y525169D01*
X139957Y525073D01*
X140021Y524972D01*
X140051Y524944D01*
X140074Y524911D01*
X140166Y524835D01*
X140253Y524754D01*
X140288Y524734D01*
X140319Y524709D01*
X140427Y524658D01*
X140531Y524600D01*
X140571Y524590D01*
X140607Y524573D01*
X140724Y524551D01*
X140839Y524521D01*
X140899Y524517D01*
X140919Y524513D01*
X140940Y524515D01*
X141000Y524511D01*
X143818Y524511D01*
X179247Y489082D01*
X179325Y489022D01*
X179397Y488954D01*
X179450Y488925D01*
X179498Y488888D01*
X179589Y488848D01*
X179676Y488800D01*
X179734Y488785D01*
X179790Y488761D01*
X179888Y488746D01*
X179984Y488721D01*
X180084Y488715D01*
X180104Y488711D01*
X180116Y488713D01*
X180144Y488711D01*
X197001Y488711D01*
X197038Y488701D01*
X197137Y488695D01*
X197158Y488691D01*
X197170Y488693D01*
X197199Y488691D01*
X197747Y488691D01*
X197845Y488703D01*
X197944Y488706D01*
X198002Y488723D01*
X198062Y488731D01*
X198154Y488767D01*
X198250Y488795D01*
X198302Y488825D01*
X198358Y488848D01*
X198438Y488906D01*
X198523Y488956D01*
X198599Y489022D01*
X198615Y489034D01*
X198623Y489044D01*
X198644Y489062D01*
X199913Y490331D01*
X199973Y490409D01*
X200041Y490481D01*
X200070Y490534D01*
X200107Y490582D01*
X200147Y490673D01*
X200195Y490760D01*
X200210Y490818D01*
X200234Y490874D01*
X200249Y490972D01*
X200274Y491067D01*
X200280Y491168D01*
X200284Y491188D01*
X200282Y491200D01*
X200284Y491228D01*
X200284Y491776D01*
X200272Y491874D01*
X200269Y491973D01*
X200264Y491989D01*
X200264Y499623D01*
X200252Y499721D01*
X200249Y499821D01*
X200232Y499879D01*
X200224Y499939D01*
X200188Y500031D01*
X200160Y500126D01*
X200130Y500178D01*
X200107Y500235D01*
X200049Y500315D01*
X199999Y500400D01*
X199933Y500475D01*
X199921Y500492D01*
X199911Y500500D01*
X199893Y500521D01*
X199072Y501342D01*
X199072Y522981D01*
X199059Y523079D01*
X199056Y523178D01*
X199040Y523236D01*
X199032Y523296D01*
X198995Y523388D01*
X198968Y523484D01*
X198937Y523536D01*
X198915Y523592D01*
X198857Y523672D01*
X198806Y523757D01*
X198740Y523833D01*
X198728Y523849D01*
X198719Y523857D01*
X198700Y523878D01*
X197522Y525056D01*
X196560Y527380D01*
X196560Y529895D01*
X197537Y532254D01*
X197559Y532277D01*
X197588Y532330D01*
X197625Y532378D01*
X197664Y532469D01*
X197712Y532556D01*
X197727Y532614D01*
X197751Y532670D01*
X197767Y532768D01*
X197792Y532864D01*
X197798Y532964D01*
X197801Y532984D01*
X197800Y532996D01*
X197802Y533024D01*
X197802Y558546D01*
X197787Y558664D01*
X197779Y558783D01*
X197767Y558821D01*
X197762Y558862D01*
X197718Y558972D01*
X197681Y559085D01*
X197660Y559120D01*
X197645Y559157D01*
X197575Y559253D01*
X197511Y559354D01*
X197482Y559382D01*
X197458Y559415D01*
X197366Y559491D01*
X197280Y559572D01*
X197244Y559592D01*
X197213Y559617D01*
X197105Y559668D01*
X197001Y559726D01*
X196962Y559736D01*
X196925Y559753D01*
X196809Y559775D01*
X196693Y559805D01*
X196633Y559809D01*
X196613Y559813D01*
X196593Y559811D01*
X196533Y559815D01*
X129944Y559815D01*
X129846Y559803D01*
X129747Y559800D01*
X129689Y559783D01*
X129628Y559775D01*
X129536Y559739D01*
X129441Y559711D01*
X129389Y559681D01*
X129333Y559658D01*
X129253Y559600D01*
X129167Y559550D01*
X129092Y559484D01*
X129075Y559472D01*
X129068Y559462D01*
X129046Y559444D01*
X114866Y545263D01*
X112439Y544258D01*
X109811Y544258D01*
X107384Y545263D01*
X105526Y547121D01*
X104520Y549549D01*
X104520Y552176D01*
X105526Y554604D01*
X120905Y569983D01*
X122941Y572019D01*
X125369Y573025D01*
X271776Y573025D01*
X271874Y573037D01*
X271973Y573040D01*
X272031Y573057D01*
X272091Y573065D01*
X272183Y573101D01*
X272279Y573129D01*
X272331Y573159D01*
X272387Y573182D01*
X272467Y573240D01*
X272552Y573290D01*
X272628Y573356D01*
X272644Y573368D01*
X272652Y573378D01*
X272673Y573396D01*
X273238Y573961D01*
X286342Y573961D01*
X287393Y572911D01*
X287487Y572838D01*
X287576Y572759D01*
X287612Y572741D01*
X287644Y572716D01*
X287753Y572668D01*
X287859Y572614D01*
X287898Y572605D01*
X287936Y572589D01*
X288053Y572571D01*
X288169Y572545D01*
X288210Y572546D01*
X288250Y572540D01*
X288368Y572551D01*
X288487Y572554D01*
X288526Y572566D01*
X288566Y572569D01*
X288678Y572610D01*
X288793Y572643D01*
X288828Y572663D01*
X288866Y572677D01*
X288964Y572744D01*
X289067Y572804D01*
X289112Y572844D01*
X289129Y572856D01*
X289142Y572871D01*
X289188Y572911D01*
X290238Y573961D01*
X291710Y573961D01*
X291828Y573976D01*
X291947Y573983D01*
X291985Y573996D01*
X292026Y574001D01*
X292136Y574044D01*
X292249Y574081D01*
X292284Y574103D01*
X292321Y574118D01*
X292417Y574187D01*
X292518Y574251D01*
X292546Y574281D01*
X292579Y574304D01*
X292655Y574396D01*
X292736Y574483D01*
X292756Y574518D01*
X292781Y574549D01*
X292832Y574657D01*
X292890Y574761D01*
X292900Y574801D01*
X292917Y574837D01*
X292939Y574954D01*
X292969Y575069D01*
X292973Y575129D01*
X292977Y575149D01*
X292975Y575170D01*
X292979Y575230D01*
X292979Y609470D01*
X292976Y609500D01*
X292978Y609529D01*
X292956Y609657D01*
X292939Y609786D01*
X292929Y609813D01*
X292924Y609842D01*
X292870Y609961D01*
X292822Y610081D01*
X292805Y610105D01*
X292793Y610132D01*
X292712Y610234D01*
X292636Y610339D01*
X292613Y610358D01*
X292594Y610381D01*
X292491Y610459D01*
X292391Y610542D01*
X292364Y610554D01*
X292340Y610572D01*
X292196Y610643D01*
X290747Y611243D01*
X287710Y614280D01*
X286067Y618248D01*
X286067Y622542D01*
X287710Y626510D01*
X290747Y629547D01*
X294715Y631191D01*
X299010Y631191D01*
X302978Y629547D01*
X306015Y626510D01*
X307658Y622542D01*
X307658Y618248D01*
X306015Y614280D01*
X302978Y611243D01*
X301384Y610583D01*
X301359Y610568D01*
X301331Y610559D01*
X301221Y610490D01*
X301108Y610425D01*
X301087Y610405D01*
X301062Y610389D01*
X300973Y610294D01*
X300880Y610204D01*
X300864Y610179D01*
X300844Y610157D01*
X300781Y610043D01*
X300713Y609933D01*
X300705Y609905D01*
X300690Y609879D01*
X300658Y609753D01*
X300620Y609629D01*
X300618Y609599D01*
X300611Y609571D01*
X300601Y609410D01*
X300601Y575230D01*
X300616Y575112D01*
X300623Y574993D01*
X300636Y574955D01*
X300641Y574914D01*
X300684Y574804D01*
X300721Y574691D01*
X300743Y574656D01*
X300758Y574619D01*
X300827Y574523D01*
X300891Y574422D01*
X300921Y574394D01*
X300944Y574361D01*
X301036Y574285D01*
X301123Y574204D01*
X301158Y574184D01*
X301189Y574159D01*
X301297Y574108D01*
X301401Y574050D01*
X301441Y574040D01*
X301477Y574023D01*
X301594Y574001D01*
X301709Y573971D01*
X301769Y573967D01*
X301789Y573963D01*
X301810Y573965D01*
X301870Y573961D01*
X303342Y573961D01*
X304831Y572472D01*
X304831Y560368D01*
X304478Y560015D01*
X304393Y559905D01*
X304304Y559798D01*
X304296Y559780D01*
X304283Y559764D01*
X304228Y559636D01*
X304169Y559510D01*
X304165Y559491D01*
X304157Y559472D01*
X304135Y559334D01*
X304109Y559198D01*
X304110Y559178D01*
X304107Y559158D01*
X304120Y559019D01*
X304129Y558881D01*
X304135Y558861D01*
X304137Y558841D01*
X304184Y558710D01*
X304227Y558578D01*
X304238Y558561D01*
X304244Y558542D01*
X304322Y558427D01*
X304397Y558309D01*
X304412Y558295D01*
X304423Y558279D01*
X304527Y558187D01*
X304628Y558091D01*
X304646Y558082D01*
X304661Y558068D01*
X304785Y558005D01*
X304907Y557938D01*
X304927Y557933D01*
X304945Y557924D01*
X305081Y557893D01*
X305215Y557858D01*
X305243Y557857D01*
X305255Y557854D01*
X305275Y557855D01*
X305376Y557848D01*
X332858Y557848D01*
X332956Y557861D01*
X333056Y557864D01*
X333114Y557880D01*
X333174Y557888D01*
X333266Y557925D01*
X333361Y557952D01*
X333413Y557983D01*
X333470Y558005D01*
X333550Y558063D01*
X333635Y558114D01*
X333710Y558180D01*
X333727Y558192D01*
X333735Y558201D01*
X333756Y558220D01*
X337418Y561882D01*
X337478Y561960D01*
X337546Y562032D01*
X337575Y562085D01*
X337612Y562133D01*
X337652Y562224D01*
X337700Y562311D01*
X337715Y562369D01*
X337739Y562425D01*
X337754Y562523D01*
X337779Y562619D01*
X337785Y562719D01*
X337789Y562739D01*
X337787Y562751D01*
X337789Y562779D01*
X337789Y571520D01*
X339278Y573008D01*
X340750Y573008D01*
X340868Y573023D01*
X340987Y573031D01*
X341025Y573043D01*
X341066Y573048D01*
X341176Y573092D01*
X341289Y573129D01*
X341324Y573150D01*
X341361Y573165D01*
X341457Y573235D01*
X341558Y573299D01*
X341586Y573328D01*
X341619Y573352D01*
X341695Y573444D01*
X341776Y573530D01*
X341796Y573566D01*
X341821Y573597D01*
X341872Y573705D01*
X341930Y573809D01*
X341940Y573848D01*
X341957Y573885D01*
X341979Y574001D01*
X342009Y574117D01*
X342013Y574177D01*
X342017Y574197D01*
X342015Y574217D01*
X342019Y574277D01*
X342019Y610245D01*
X342007Y610343D01*
X342004Y610442D01*
X341987Y610500D01*
X341979Y610561D01*
X341943Y610653D01*
X341915Y610748D01*
X341885Y610800D01*
X341862Y610856D01*
X341804Y610936D01*
X341754Y611022D01*
X341688Y611097D01*
X341676Y611114D01*
X341666Y611121D01*
X341648Y611143D01*
X338510Y614280D01*
X336867Y618248D01*
X336867Y622542D01*
X338510Y626510D01*
X341547Y629547D01*
X345515Y631191D01*
X349810Y631191D01*
X353778Y629547D01*
X356815Y626510D01*
X358458Y622542D01*
X358458Y618248D01*
X356815Y614280D01*
X353778Y611243D01*
X350424Y609854D01*
X350399Y609839D01*
X350371Y609830D01*
X350261Y609761D01*
X350148Y609696D01*
X350127Y609676D01*
X350102Y609660D01*
X350013Y609565D01*
X349920Y609475D01*
X349904Y609450D01*
X349884Y609428D01*
X349821Y609315D01*
X349753Y609204D01*
X349745Y609176D01*
X349730Y609150D01*
X349698Y609024D01*
X349660Y608900D01*
X349658Y608870D01*
X349651Y608842D01*
X349641Y608681D01*
X349641Y574277D01*
X349656Y574159D01*
X349663Y574041D01*
X349676Y574002D01*
X349681Y573962D01*
X349724Y573851D01*
X349761Y573738D01*
X349783Y573704D01*
X349798Y573666D01*
X349867Y573570D01*
X349931Y573469D01*
X349961Y573442D01*
X349984Y573409D01*
X350076Y573333D01*
X350163Y573251D01*
X350198Y573232D01*
X350229Y573206D01*
X350337Y573155D01*
X350441Y573098D01*
X350481Y573088D01*
X350517Y573071D01*
X350634Y573048D01*
X350749Y573018D01*
X350809Y573015D01*
X350829Y573011D01*
X350850Y573012D01*
X350910Y573008D01*
X352382Y573008D01*
X353432Y571958D01*
X353527Y571885D01*
X353616Y571806D01*
X353652Y571788D01*
X353684Y571763D01*
X353793Y571716D01*
X353899Y571662D01*
X353938Y571653D01*
X353976Y571637D01*
X354093Y571618D01*
X354209Y571592D01*
X354250Y571593D01*
X354290Y571587D01*
X354408Y571598D01*
X354527Y571602D01*
X354566Y571613D01*
X354606Y571617D01*
X354719Y571657D01*
X354833Y571690D01*
X354867Y571711D01*
X354906Y571724D01*
X355004Y571791D01*
X355107Y571852D01*
X355152Y571892D01*
X355169Y571903D01*
X355182Y571918D01*
X355227Y571958D01*
X356278Y573008D01*
X367983Y573008D01*
X368101Y573023D01*
X368219Y573031D01*
X368258Y573043D01*
X368298Y573048D01*
X368409Y573092D01*
X368522Y573129D01*
X368556Y573150D01*
X368594Y573165D01*
X368690Y573235D01*
X368791Y573299D01*
X368818Y573328D01*
X368851Y573352D01*
X368927Y573444D01*
X369009Y573530D01*
X369028Y573566D01*
X369054Y573597D01*
X369105Y573705D01*
X369162Y573809D01*
X369172Y573848D01*
X369189Y573885D01*
X369212Y574001D01*
X369242Y574117D01*
X369245Y574177D01*
X369249Y574197D01*
X369248Y574217D01*
X369252Y574277D01*
X369252Y574666D01*
X371856Y577270D01*
X409372Y614786D01*
X409390Y614809D01*
X409412Y614829D01*
X409487Y614935D01*
X409567Y615037D01*
X409579Y615064D01*
X409596Y615089D01*
X409642Y615210D01*
X409693Y615329D01*
X409698Y615358D01*
X409708Y615386D01*
X409723Y615515D01*
X409743Y615643D01*
X409740Y615673D01*
X409743Y615702D01*
X409725Y615830D01*
X409713Y615960D01*
X409703Y615988D01*
X409699Y616017D01*
X409647Y616169D01*
X408749Y618338D01*
X408749Y623087D01*
X410566Y627475D01*
X413925Y630834D01*
X417320Y632240D01*
X417440Y632309D01*
X417563Y632374D01*
X417578Y632387D01*
X417596Y632397D01*
X417696Y632494D01*
X417799Y632588D01*
X417810Y632605D01*
X417824Y632619D01*
X417897Y632738D01*
X417973Y632853D01*
X417980Y632873D01*
X417991Y632890D01*
X418031Y633023D01*
X418077Y633154D01*
X418078Y633174D01*
X418084Y633194D01*
X418091Y633333D01*
X418102Y633471D01*
X418098Y633491D01*
X418099Y633511D01*
X418071Y633648D01*
X418047Y633785D01*
X418039Y633803D01*
X418035Y633823D01*
X417974Y633948D01*
X417917Y634075D01*
X417904Y634090D01*
X417895Y634109D01*
X417805Y634215D01*
X417718Y634323D01*
X417702Y634335D01*
X417689Y634351D01*
X417575Y634431D01*
X417464Y634514D01*
X417439Y634527D01*
X417429Y634534D01*
X417410Y634541D01*
X417320Y634585D01*
X413925Y635991D01*
X410566Y639350D01*
X408749Y643738D01*
X408749Y648487D01*
X410566Y652875D01*
X413925Y656234D01*
X418313Y658051D01*
X423062Y658051D01*
X427450Y656234D01*
X430809Y652875D01*
X432626Y648487D01*
X432626Y643738D01*
X430809Y639350D01*
X427450Y635991D01*
X424055Y634585D01*
X423935Y634516D01*
X423812Y634451D01*
X423797Y634438D01*
X423779Y634428D01*
X423679Y634331D01*
X423576Y634237D01*
X423565Y634220D01*
X423551Y634206D01*
X423478Y634088D01*
X423402Y633972D01*
X423395Y633952D01*
X423384Y633935D01*
X423344Y633803D01*
X423298Y633671D01*
X423297Y633651D01*
X423291Y633631D01*
X423284Y633493D01*
X423273Y633354D01*
X423277Y633334D01*
X423276Y633314D01*
X423304Y633177D01*
X423328Y633040D01*
X423336Y633022D01*
X423340Y633002D01*
X423401Y632877D01*
X423458Y632750D01*
X423471Y632735D01*
X423480Y632716D01*
X423570Y632611D01*
X423657Y632502D01*
X423673Y632490D01*
X423686Y632474D01*
X423800Y632395D01*
X423911Y632311D01*
X423936Y632298D01*
X423946Y632291D01*
X423965Y632284D01*
X424055Y632240D01*
X427450Y630834D01*
X430809Y627475D01*
X432626Y623087D01*
X432626Y618338D01*
X430809Y613950D01*
X427450Y610591D01*
X424055Y609185D01*
X423935Y609116D01*
X423812Y609051D01*
X423797Y609038D01*
X423779Y609028D01*
X423679Y608931D01*
X423576Y608837D01*
X423565Y608820D01*
X423551Y608806D01*
X423478Y608688D01*
X423402Y608572D01*
X423395Y608552D01*
X423384Y608535D01*
X423344Y608403D01*
X423298Y608271D01*
X423297Y608251D01*
X423291Y608231D01*
X423284Y608093D01*
X423273Y607954D01*
X423277Y607934D01*
X423276Y607914D01*
X423304Y607777D01*
X423328Y607640D01*
X423336Y607622D01*
X423340Y607602D01*
X423401Y607477D01*
X423458Y607350D01*
X423471Y607335D01*
X423480Y607316D01*
X423570Y607211D01*
X423657Y607102D01*
X423673Y607090D01*
X423686Y607074D01*
X423800Y606995D01*
X423911Y606911D01*
X423936Y606898D01*
X423946Y606891D01*
X423965Y606884D01*
X424055Y606840D01*
X427450Y605434D01*
X430809Y602075D01*
X432626Y597687D01*
X432626Y592938D01*
X430809Y588550D01*
X427450Y585191D01*
X424055Y583785D01*
X423935Y583716D01*
X423812Y583651D01*
X423797Y583638D01*
X423779Y583628D01*
X423679Y583531D01*
X423576Y583437D01*
X423565Y583420D01*
X423551Y583406D01*
X423478Y583288D01*
X423402Y583172D01*
X423395Y583152D01*
X423384Y583135D01*
X423344Y583003D01*
X423298Y582871D01*
X423297Y582851D01*
X423291Y582831D01*
X423284Y582693D01*
X423273Y582554D01*
X423277Y582534D01*
X423276Y582514D01*
X423304Y582377D01*
X423328Y582240D01*
X423336Y582222D01*
X423340Y582202D01*
X423401Y582077D01*
X423458Y581950D01*
X423471Y581935D01*
X423480Y581916D01*
X423570Y581811D01*
X423657Y581702D01*
X423673Y581690D01*
X423686Y581674D01*
X423800Y581595D01*
X423911Y581511D01*
X423936Y581498D01*
X423946Y581491D01*
X423965Y581484D01*
X424055Y581440D01*
X427450Y580034D01*
X430809Y576675D01*
X432626Y572287D01*
X432626Y567538D01*
X430809Y563150D01*
X427450Y559791D01*
X424055Y558385D01*
X423935Y558316D01*
X423812Y558251D01*
X423797Y558238D01*
X423779Y558228D01*
X423679Y558131D01*
X423576Y558037D01*
X423565Y558020D01*
X423551Y558006D01*
X423478Y557888D01*
X423402Y557772D01*
X423395Y557752D01*
X423384Y557735D01*
X423344Y557603D01*
X423298Y557471D01*
X423297Y557451D01*
X423291Y557431D01*
X423284Y557293D01*
X423273Y557154D01*
X423277Y557134D01*
X423276Y557114D01*
X423304Y556977D01*
X423328Y556840D01*
X423336Y556822D01*
X423340Y556802D01*
X423401Y556677D01*
X423458Y556550D01*
X423471Y556535D01*
X423480Y556516D01*
X423570Y556411D01*
X423657Y556302D01*
X423673Y556290D01*
X423686Y556274D01*
X423800Y556195D01*
X423911Y556111D01*
X423936Y556098D01*
X423946Y556091D01*
X423965Y556084D01*
X424055Y556040D01*
X427450Y554634D01*
X430809Y551275D01*
X432626Y546887D01*
X432626Y542138D01*
X430809Y537750D01*
X427450Y534391D01*
X424055Y532985D01*
X423935Y532916D01*
X423812Y532851D01*
X423797Y532838D01*
X423779Y532828D01*
X423679Y532731D01*
X423576Y532637D01*
X423565Y532620D01*
X423551Y532606D01*
X423478Y532488D01*
X423402Y532372D01*
X423395Y532352D01*
X423384Y532335D01*
X423344Y532203D01*
X423298Y532071D01*
X423297Y532051D01*
X423291Y532031D01*
X423284Y531893D01*
X423273Y531754D01*
X423277Y531734D01*
X423276Y531714D01*
X423304Y531577D01*
X423328Y531440D01*
X423336Y531422D01*
X423340Y531402D01*
X423401Y531277D01*
X423458Y531150D01*
X423471Y531135D01*
X423480Y531116D01*
X423570Y531011D01*
X423657Y530902D01*
X423673Y530890D01*
X423686Y530874D01*
X423800Y530795D01*
X423911Y530711D01*
X423936Y530698D01*
X423946Y530691D01*
X423965Y530684D01*
X424055Y530640D01*
X427450Y529234D01*
X430809Y525875D01*
X432626Y521487D01*
X432626Y516738D01*
X430809Y512350D01*
X427450Y508991D01*
X424055Y507585D01*
X423935Y507516D01*
X423812Y507451D01*
X423797Y507438D01*
X423779Y507428D01*
X423679Y507331D01*
X423576Y507237D01*
X423565Y507220D01*
X423551Y507206D01*
X423478Y507088D01*
X423402Y506972D01*
X423395Y506952D01*
X423384Y506935D01*
X423344Y506803D01*
X423298Y506671D01*
X423297Y506651D01*
X423291Y506631D01*
X423284Y506493D01*
X423273Y506354D01*
X423277Y506334D01*
X423276Y506314D01*
X423304Y506177D01*
X423328Y506040D01*
X423336Y506022D01*
X423340Y506002D01*
X423401Y505877D01*
X423458Y505750D01*
X423471Y505735D01*
X423480Y505716D01*
X423570Y505611D01*
X423657Y505502D01*
X423673Y505490D01*
X423686Y505474D01*
X423800Y505395D01*
X423911Y505311D01*
X423936Y505298D01*
X423946Y505291D01*
X423965Y505284D01*
X424055Y505240D01*
X427450Y503834D01*
X430809Y500475D01*
X432626Y496087D01*
X432626Y491338D01*
X430809Y486950D01*
X427450Y483591D01*
X424055Y482185D01*
X423935Y482116D01*
X423812Y482051D01*
X423797Y482038D01*
X423779Y482028D01*
X423679Y481931D01*
X423576Y481837D01*
X423565Y481820D01*
X423551Y481806D01*
X423478Y481688D01*
X423402Y481572D01*
X423395Y481552D01*
X423384Y481535D01*
X423344Y481403D01*
X423298Y481271D01*
X423297Y481251D01*
X423291Y481231D01*
X423284Y481093D01*
X423273Y480954D01*
X423277Y480934D01*
X423276Y480914D01*
X423304Y480777D01*
X423328Y480640D01*
X423336Y480622D01*
X423340Y480602D01*
X423401Y480477D01*
X423458Y480350D01*
X423471Y480335D01*
X423480Y480316D01*
X423570Y480211D01*
X423657Y480102D01*
X423673Y480090D01*
X423686Y480074D01*
X423800Y479995D01*
X423911Y479911D01*
X423936Y479898D01*
X423946Y479891D01*
X423965Y479884D01*
X424055Y479840D01*
X427450Y478434D01*
X430809Y475075D01*
X432626Y470687D01*
X432626Y465938D01*
X430809Y461550D01*
X427450Y458191D01*
X423062Y456374D01*
X418313Y456374D01*
X413925Y458191D01*
X410566Y461550D01*
X409668Y463718D01*
X409653Y463744D01*
X409644Y463772D01*
X409575Y463882D01*
X409511Y463994D01*
X409490Y464016D01*
X409474Y464041D01*
X409380Y464130D01*
X409289Y464223D01*
X409264Y464238D01*
X409243Y464259D01*
X409129Y464321D01*
X409018Y464389D01*
X408990Y464398D01*
X408964Y464412D01*
X408838Y464445D01*
X408714Y464483D01*
X408685Y464484D01*
X408656Y464492D01*
X408495Y464502D01*
X403139Y464502D01*
X403041Y464489D01*
X402942Y464486D01*
X402884Y464470D01*
X402824Y464462D01*
X402731Y464425D01*
X402636Y464398D01*
X402584Y464367D01*
X402528Y464345D01*
X402448Y464287D01*
X402362Y464236D01*
X402287Y464170D01*
X402271Y464158D01*
X402263Y464149D01*
X402242Y464130D01*
X385802Y447691D01*
X310839Y447691D01*
X310701Y447673D01*
X310563Y447660D01*
X310544Y447653D01*
X310523Y447651D01*
X310394Y447600D01*
X310263Y447553D01*
X310247Y447541D01*
X310228Y447534D01*
X310115Y447452D01*
X310000Y447374D01*
X309987Y447359D01*
X309970Y447347D01*
X309882Y447240D01*
X309790Y447136D01*
X309781Y447118D01*
X309768Y447102D01*
X309708Y446976D01*
X309645Y446852D01*
X309641Y446833D01*
X309632Y446814D01*
X309606Y446678D01*
X309575Y446542D01*
X309576Y446522D01*
X309572Y446502D01*
X309581Y446363D01*
X309585Y446224D01*
X309591Y446205D01*
X309592Y446185D01*
X309635Y446052D01*
X309674Y445919D01*
X309684Y445901D01*
X309690Y445882D01*
X309764Y445765D01*
X309835Y445645D01*
X309854Y445624D01*
X309860Y445613D01*
X309875Y445599D01*
X309941Y445524D01*
X310399Y445066D01*
X311405Y442639D01*
X311405Y440011D01*
X310399Y437584D01*
X308541Y435726D01*
X306114Y434720D01*
X301186Y434720D01*
X301048Y434703D01*
X300909Y434690D01*
X300890Y434683D01*
X300870Y434680D01*
X300741Y434629D01*
X300610Y434582D01*
X300593Y434571D01*
X300574Y434563D01*
X300462Y434482D01*
X300347Y434404D01*
X300333Y434388D01*
X300317Y434377D01*
X300228Y434269D01*
X300136Y434165D01*
X300127Y434147D01*
X300114Y434132D01*
X300055Y434006D01*
X299992Y433882D01*
X299987Y433862D01*
X299979Y433844D01*
X299953Y433708D01*
X299922Y433572D01*
X299923Y433551D01*
X299919Y433532D01*
X299928Y433393D01*
X299932Y433254D01*
X299937Y433234D01*
X299939Y433214D01*
X299982Y433082D01*
X300020Y432948D01*
X300031Y432931D01*
X300037Y432912D01*
X300111Y432794D01*
X300182Y432674D01*
X300200Y432653D01*
X300207Y432643D01*
X300222Y432629D01*
X300288Y432553D01*
X300635Y432206D01*
X301598Y429883D01*
X301598Y427871D01*
X301607Y427799D01*
X301606Y427726D01*
X301627Y427642D01*
X301638Y427555D01*
X301664Y427488D01*
X301681Y427418D01*
X301723Y427340D01*
X301755Y427259D01*
X301797Y427201D01*
X301831Y427137D01*
X301932Y427012D01*
X309765Y418487D01*
X309823Y418438D01*
X309875Y418381D01*
X309944Y418336D01*
X310008Y418282D01*
X310077Y418249D01*
X310140Y418207D01*
X310219Y418180D01*
X310294Y418143D01*
X310369Y418128D01*
X310441Y418103D01*
X310524Y418097D01*
X310606Y418080D01*
X310682Y418084D01*
X310758Y418078D01*
X310840Y418092D01*
X310923Y418097D01*
X310996Y418119D01*
X311072Y418133D01*
X311147Y418167D01*
X311227Y418192D01*
X311292Y418232D01*
X311362Y418263D01*
X311426Y418315D01*
X311497Y418359D01*
X311550Y418414D01*
X311610Y418462D01*
X311660Y418528D01*
X311718Y418588D01*
X311755Y418655D01*
X311801Y418716D01*
X311872Y418860D01*
X312140Y419507D01*
X313918Y421285D01*
X316242Y422248D01*
X317908Y422248D01*
X318006Y422260D01*
X318105Y422263D01*
X318163Y422280D01*
X318223Y422288D01*
X318315Y422324D01*
X318411Y422352D01*
X318463Y422382D01*
X318519Y422405D01*
X318599Y422463D01*
X318684Y422513D01*
X318760Y422579D01*
X318776Y422591D01*
X318784Y422601D01*
X318805Y422619D01*
X322272Y426086D01*
X408495Y426086D01*
X408525Y426089D01*
X408554Y426087D01*
X408682Y426109D01*
X408811Y426126D01*
X408838Y426136D01*
X408868Y426141D01*
X408986Y426195D01*
X409107Y426243D01*
X409131Y426260D01*
X409158Y426272D01*
X409259Y426353D01*
X409364Y426429D01*
X409383Y426452D01*
X409406Y426471D01*
X409484Y426574D01*
X409567Y426674D01*
X409579Y426701D01*
X409597Y426725D01*
X409668Y426869D01*
X410566Y429038D01*
X413925Y432396D01*
X418313Y434214D01*
X423062Y434214D01*
X427450Y432396D01*
X430809Y429038D01*
X432626Y424650D01*
X432626Y419900D01*
X430809Y415512D01*
X428643Y413346D01*
X428570Y413252D01*
X428491Y413163D01*
X428472Y413127D01*
X428448Y413095D01*
X428400Y412986D01*
X428346Y412880D01*
X428337Y412840D01*
X428321Y412803D01*
X428303Y412685D01*
X428277Y412569D01*
X428278Y412529D01*
X428271Y412489D01*
X428283Y412370D01*
X428286Y412251D01*
X428298Y412213D01*
X428301Y412172D01*
X428342Y412060D01*
X428375Y411946D01*
X428395Y411911D01*
X428409Y411873D01*
X428476Y411775D01*
X428536Y411672D01*
X428576Y411627D01*
X428587Y411610D01*
X428603Y411596D01*
X428643Y411551D01*
X436690Y403504D01*
X436690Y390246D01*
X428643Y382199D01*
X428570Y382105D01*
X428491Y382015D01*
X428473Y381980D01*
X428448Y381948D01*
X428400Y381838D01*
X428346Y381732D01*
X428337Y381693D01*
X428321Y381656D01*
X428303Y381538D01*
X428277Y381422D01*
X428278Y381382D01*
X428271Y381342D01*
X428283Y381223D01*
X428286Y381104D01*
X428298Y381065D01*
X428301Y381025D01*
X428342Y380913D01*
X428375Y380799D01*
X428395Y380764D01*
X428409Y380726D01*
X428476Y380627D01*
X428536Y380525D01*
X428576Y380479D01*
X428587Y380463D01*
X428603Y380449D01*
X428643Y380404D01*
X430809Y378238D01*
X432626Y373850D01*
X432626Y369100D01*
X430809Y364712D01*
X427450Y361354D01*
X424055Y359948D01*
X423961Y359894D01*
X423937Y359884D01*
X423915Y359869D01*
X423812Y359814D01*
X423797Y359800D01*
X423779Y359790D01*
X423695Y359709D01*
X423680Y359698D01*
X423667Y359683D01*
X423576Y359600D01*
X423565Y359583D01*
X423551Y359569D01*
X423486Y359464D01*
X423477Y359453D01*
X423471Y359439D01*
X423402Y359334D01*
X423395Y359315D01*
X423384Y359298D01*
X423348Y359178D01*
X423341Y359165D01*
X423339Y359151D01*
X423298Y359033D01*
X423297Y359013D01*
X423291Y358994D01*
X423285Y358870D01*
X423282Y358853D01*
X423283Y358836D01*
X423273Y358716D01*
X423277Y358696D01*
X423276Y358676D01*
X423300Y358559D01*
X423301Y358535D01*
X423308Y358514D01*
X423328Y358403D01*
X423336Y358384D01*
X423340Y358365D01*
X423389Y358264D01*
X423399Y358233D01*
X423416Y358206D01*
X423458Y358113D01*
X423471Y358097D01*
X423480Y358079D01*
X423546Y358001D01*
X423570Y357964D01*
X423601Y357934D01*
X423657Y357865D01*
X423673Y357852D01*
X423686Y357837D01*
X423759Y357785D01*
X423801Y357746D01*
X423850Y357719D01*
X423911Y357673D01*
X423936Y357661D01*
X423946Y357654D01*
X423965Y357647D01*
X424055Y357602D01*
X427450Y356196D01*
X430809Y352838D01*
X432626Y348450D01*
X432626Y343700D01*
X430809Y339312D01*
X427450Y335954D01*
X424055Y334548D01*
X423998Y334515D01*
X423959Y334499D01*
X423919Y334471D01*
X423812Y334414D01*
X423797Y334400D01*
X423779Y334390D01*
X423679Y334293D01*
X423576Y334200D01*
X423565Y334183D01*
X423551Y334169D01*
X423478Y334051D01*
X423402Y333934D01*
X423395Y333915D01*
X423384Y333898D01*
X423344Y333765D01*
X423298Y333633D01*
X423297Y333613D01*
X423291Y333594D01*
X423284Y333455D01*
X423273Y333316D01*
X423277Y333296D01*
X423276Y333276D01*
X423304Y333140D01*
X423328Y333003D01*
X423336Y332984D01*
X423340Y332965D01*
X423401Y332840D01*
X423458Y332713D01*
X423471Y332697D01*
X423480Y332679D01*
X423570Y332573D01*
X423657Y332465D01*
X423673Y332452D01*
X423686Y332437D01*
X423800Y332357D01*
X423911Y332273D01*
X423936Y332261D01*
X423946Y332254D01*
X423965Y332247D01*
X424055Y332202D01*
X427450Y330796D01*
X430809Y327438D01*
X432626Y323050D01*
X432626Y318300D01*
X430809Y313912D01*
X427450Y310554D01*
X423062Y308736D01*
X418313Y308736D01*
G37*
%LPD*%
G36*
X261708Y414988D02*
X261708Y414988D01*
X261827Y414996D01*
X261865Y415008D01*
X261906Y415013D01*
X262016Y415057D01*
X262129Y415094D01*
X262164Y415115D01*
X262201Y415130D01*
X262297Y415200D01*
X262398Y415264D01*
X262426Y415293D01*
X262459Y415317D01*
X262535Y415409D01*
X262616Y415495D01*
X262636Y415531D01*
X262661Y415562D01*
X262712Y415670D01*
X262770Y415774D01*
X262780Y415813D01*
X262797Y415850D01*
X262819Y415966D01*
X262849Y416082D01*
X262853Y416142D01*
X262857Y416162D01*
X262855Y416182D01*
X262859Y416242D01*
X262859Y417215D01*
X264348Y418703D01*
X269800Y418703D01*
X269849Y418709D01*
X269898Y418707D01*
X270006Y418729D01*
X270115Y418743D01*
X270161Y418761D01*
X270210Y418771D01*
X270308Y418820D01*
X270411Y418860D01*
X270451Y418889D01*
X270496Y418911D01*
X270579Y418982D01*
X270668Y419047D01*
X270700Y419085D01*
X270738Y419117D01*
X270801Y419207D01*
X270871Y419292D01*
X270892Y419337D01*
X270921Y419378D01*
X270960Y419480D01*
X271006Y419580D01*
X271016Y419628D01*
X271033Y419675D01*
X271046Y419784D01*
X271066Y419892D01*
X271063Y419941D01*
X271069Y419991D01*
X271053Y420100D01*
X271046Y420209D01*
X271031Y420257D01*
X271024Y420306D01*
X270972Y420458D01*
X270183Y422364D01*
X270183Y433311D01*
X270170Y433409D01*
X270167Y433508D01*
X270151Y433566D01*
X270143Y433626D01*
X270106Y433718D01*
X270079Y433814D01*
X270048Y433866D01*
X270026Y433922D01*
X269968Y434002D01*
X269917Y434087D01*
X269851Y434163D01*
X269839Y434179D01*
X269830Y434187D01*
X269811Y434208D01*
X269185Y434834D01*
X269091Y434907D01*
X269002Y434986D01*
X268966Y435004D01*
X268934Y435029D01*
X268824Y435077D01*
X268718Y435131D01*
X268679Y435140D01*
X268642Y435156D01*
X268524Y435174D01*
X268408Y435200D01*
X268368Y435199D01*
X268328Y435205D01*
X268209Y435194D01*
X268090Y435191D01*
X268051Y435179D01*
X268011Y435176D01*
X267899Y435135D01*
X267785Y435102D01*
X267750Y435082D01*
X267712Y435068D01*
X267613Y435001D01*
X267511Y434941D01*
X267466Y434901D01*
X267449Y434889D01*
X267435Y434874D01*
X267390Y434834D01*
X266340Y433784D01*
X253235Y433784D01*
X251747Y435273D01*
X251747Y440313D01*
X251734Y440411D01*
X251731Y440511D01*
X251715Y440569D01*
X251707Y440629D01*
X251670Y440721D01*
X251643Y440816D01*
X251612Y440868D01*
X251590Y440925D01*
X251532Y441005D01*
X251481Y441090D01*
X251415Y441165D01*
X251403Y441182D01*
X251394Y441190D01*
X251375Y441211D01*
X241848Y450738D01*
X241770Y450798D01*
X241698Y450866D01*
X241645Y450895D01*
X241597Y450932D01*
X241506Y450972D01*
X241419Y451020D01*
X241361Y451035D01*
X241305Y451059D01*
X241207Y451074D01*
X241112Y451099D01*
X241011Y451105D01*
X240991Y451109D01*
X240979Y451107D01*
X240951Y451109D01*
X240403Y451109D01*
X240305Y451097D01*
X240206Y451094D01*
X240148Y451077D01*
X240088Y451069D01*
X239996Y451033D01*
X239900Y451005D01*
X239848Y450975D01*
X239792Y450952D01*
X239712Y450894D01*
X239627Y450844D01*
X239551Y450778D01*
X239535Y450766D01*
X239527Y450756D01*
X239506Y450738D01*
X238237Y449469D01*
X238177Y449391D01*
X238109Y449319D01*
X238080Y449266D01*
X238043Y449218D01*
X238003Y449127D01*
X237955Y449040D01*
X237940Y448982D01*
X237916Y448926D01*
X237901Y448828D01*
X237876Y448733D01*
X237870Y448632D01*
X237866Y448612D01*
X237868Y448600D01*
X237866Y448572D01*
X237866Y447169D01*
X235091Y447169D01*
X234973Y447154D01*
X234854Y447147D01*
X234816Y447135D01*
X234775Y447130D01*
X234665Y447086D01*
X234552Y447049D01*
X234517Y447027D01*
X234480Y447013D01*
X234384Y446943D01*
X234283Y446879D01*
X234255Y446849D01*
X234222Y446826D01*
X234146Y446734D01*
X234065Y446647D01*
X234045Y446612D01*
X234020Y446581D01*
X233969Y446473D01*
X233911Y446369D01*
X233901Y446330D01*
X233884Y446293D01*
X233862Y446176D01*
X233832Y446061D01*
X233828Y446001D01*
X233824Y445981D01*
X233824Y445980D01*
X233826Y445960D01*
X233822Y445900D01*
X233837Y445782D01*
X233844Y445663D01*
X233857Y445624D01*
X233862Y445584D01*
X233905Y445474D01*
X233942Y445360D01*
X233964Y445326D01*
X233979Y445289D01*
X234048Y445192D01*
X234112Y445092D01*
X234142Y445064D01*
X234165Y445031D01*
X234257Y444955D01*
X234344Y444874D01*
X234379Y444854D01*
X234410Y444828D01*
X234518Y444778D01*
X234622Y444720D01*
X234662Y444710D01*
X234698Y444693D01*
X234815Y444671D01*
X234930Y444641D01*
X234990Y444637D01*
X235010Y444633D01*
X235031Y444634D01*
X235091Y444631D01*
X237866Y444631D01*
X237866Y442566D01*
X237693Y441919D01*
X237358Y441340D01*
X236885Y440867D01*
X236306Y440532D01*
X236153Y440492D01*
X236030Y440442D01*
X235906Y440397D01*
X235883Y440382D01*
X235858Y440371D01*
X235752Y440292D01*
X235643Y440218D01*
X235625Y440198D01*
X235603Y440182D01*
X235520Y440079D01*
X235432Y439980D01*
X235420Y439956D01*
X235403Y439935D01*
X235348Y439815D01*
X235287Y439696D01*
X235282Y439670D01*
X235270Y439646D01*
X235247Y439515D01*
X235218Y439386D01*
X235219Y439359D01*
X235214Y439333D01*
X235223Y439201D01*
X235227Y439068D01*
X235235Y439042D01*
X235237Y439015D01*
X235279Y438890D01*
X235316Y438763D01*
X235330Y438740D01*
X235338Y438714D01*
X235410Y438603D01*
X235477Y438489D01*
X235503Y438460D01*
X235511Y438447D01*
X235527Y438433D01*
X235584Y438368D01*
X258607Y415345D01*
X258685Y415284D01*
X258757Y415216D01*
X258810Y415187D01*
X258858Y415150D01*
X258949Y415111D01*
X259036Y415063D01*
X259094Y415048D01*
X259150Y415024D01*
X259248Y415008D01*
X259344Y414983D01*
X259444Y414977D01*
X259464Y414974D01*
X259476Y414975D01*
X259504Y414973D01*
X261590Y414973D01*
X261708Y414988D01*
G37*
%LPC*%
G36*
X28042Y648588D02*
X28042Y648588D01*
X23654Y650406D01*
X20295Y653764D01*
X18478Y658152D01*
X18478Y662902D01*
X20295Y667290D01*
X23654Y670648D01*
X28042Y672466D01*
X32791Y672466D01*
X37179Y670648D01*
X40538Y667290D01*
X42355Y662902D01*
X42355Y658152D01*
X40538Y653764D01*
X37179Y650406D01*
X32791Y648588D01*
X28042Y648588D01*
G37*
%LPD*%
%LPC*%
G36*
X73254Y583564D02*
X73254Y583564D01*
X68866Y585382D01*
X65507Y588740D01*
X63690Y593128D01*
X63690Y597878D01*
X65507Y602266D01*
X68866Y605624D01*
X73254Y607442D01*
X78003Y607442D01*
X82391Y605624D01*
X85750Y602266D01*
X87567Y597878D01*
X87567Y593128D01*
X85750Y588740D01*
X82391Y585382D01*
X78003Y583564D01*
X73254Y583564D01*
G37*
%LPD*%
%LPC*%
G36*
X73254Y648588D02*
X73254Y648588D01*
X68866Y650406D01*
X65507Y653764D01*
X63690Y658152D01*
X63690Y662902D01*
X65507Y667290D01*
X68866Y670648D01*
X73254Y672466D01*
X78003Y672466D01*
X82391Y670648D01*
X85750Y667290D01*
X87567Y662902D01*
X87567Y658152D01*
X85750Y653764D01*
X82391Y650406D01*
X78003Y648588D01*
X73254Y648588D01*
G37*
%LPD*%
G36*
X209094Y502736D02*
X209094Y502736D01*
X209232Y502745D01*
X209251Y502751D01*
X209271Y502753D01*
X209403Y502800D01*
X209534Y502843D01*
X209552Y502854D01*
X209571Y502860D01*
X209686Y502939D01*
X209803Y503013D01*
X209817Y503028D01*
X209834Y503039D01*
X209926Y503143D01*
X210021Y503245D01*
X210031Y503262D01*
X210044Y503277D01*
X210107Y503401D01*
X210175Y503523D01*
X210180Y503543D01*
X210189Y503561D01*
X210219Y503697D01*
X210254Y503831D01*
X210256Y503859D01*
X210259Y503871D01*
X210258Y503891D01*
X210264Y503992D01*
X210264Y507979D01*
X211944Y509658D01*
X212004Y509736D01*
X212072Y509808D01*
X212101Y509861D01*
X212138Y509909D01*
X212178Y510000D01*
X212226Y510087D01*
X212241Y510145D01*
X212265Y510201D01*
X212280Y510299D01*
X212305Y510395D01*
X212311Y510495D01*
X212315Y510515D01*
X212313Y510527D01*
X212315Y510555D01*
X212315Y511795D01*
X212303Y511893D01*
X212300Y511992D01*
X212283Y512050D01*
X212275Y512110D01*
X212239Y512202D01*
X212211Y512297D01*
X212181Y512350D01*
X212158Y512406D01*
X212100Y512486D01*
X212050Y512571D01*
X211984Y512647D01*
X211972Y512663D01*
X211962Y512671D01*
X211944Y512692D01*
X210502Y514134D01*
X210502Y522981D01*
X210489Y523079D01*
X210486Y523178D01*
X210470Y523236D01*
X210462Y523296D01*
X210426Y523388D01*
X210398Y523483D01*
X210367Y523536D01*
X210345Y523592D01*
X210287Y523672D01*
X210236Y523757D01*
X210170Y523833D01*
X210158Y523849D01*
X210149Y523857D01*
X210130Y523878D01*
X209495Y524513D01*
X209401Y524586D01*
X209312Y524665D01*
X209276Y524683D01*
X209244Y524708D01*
X209134Y524756D01*
X209028Y524810D01*
X208989Y524819D01*
X208952Y524835D01*
X208834Y524853D01*
X208718Y524879D01*
X208678Y524878D01*
X208638Y524884D01*
X208519Y524873D01*
X208400Y524870D01*
X208361Y524858D01*
X208321Y524855D01*
X208209Y524814D01*
X208095Y524781D01*
X208060Y524761D01*
X208022Y524747D01*
X207924Y524680D01*
X207821Y524620D01*
X207776Y524580D01*
X207759Y524568D01*
X207745Y524553D01*
X207700Y524513D01*
X207065Y523878D01*
X207004Y523800D01*
X206936Y523728D01*
X206907Y523675D01*
X206870Y523627D01*
X206831Y523536D01*
X206783Y523449D01*
X206768Y523391D01*
X206744Y523335D01*
X206728Y523237D01*
X206703Y523141D01*
X206697Y523041D01*
X206694Y523021D01*
X206695Y523009D01*
X206693Y522981D01*
X206693Y505024D01*
X206706Y504926D01*
X206709Y504827D01*
X206725Y504769D01*
X206733Y504709D01*
X206769Y504617D01*
X206797Y504521D01*
X206828Y504469D01*
X206850Y504413D01*
X206908Y504333D01*
X206959Y504248D01*
X207025Y504172D01*
X207037Y504156D01*
X207046Y504148D01*
X207065Y504127D01*
X208098Y503094D01*
X208207Y503009D01*
X208314Y502920D01*
X208333Y502912D01*
X208349Y502899D01*
X208476Y502844D01*
X208602Y502785D01*
X208622Y502781D01*
X208641Y502773D01*
X208779Y502751D01*
X208915Y502725D01*
X208935Y502726D01*
X208955Y502723D01*
X209094Y502736D01*
G37*
%LPC*%
G36*
X32956Y598042D02*
X32956Y598042D01*
X32956Y607188D01*
X33212Y607148D01*
X34999Y606567D01*
X36674Y605714D01*
X38194Y604609D01*
X39523Y603281D01*
X40627Y601760D01*
X41481Y600086D01*
X42061Y598299D01*
X42102Y598042D01*
X32956Y598042D01*
G37*
%LPD*%
%LPC*%
G36*
X423227Y270827D02*
X423227Y270827D01*
X423227Y279973D01*
X423483Y279932D01*
X425270Y279352D01*
X426945Y278498D01*
X428465Y277394D01*
X429794Y276065D01*
X430898Y274545D01*
X431752Y272870D01*
X432332Y271083D01*
X432373Y270827D01*
X423227Y270827D01*
G37*
%LPD*%
%LPC*%
G36*
X32956Y592964D02*
X32956Y592964D01*
X42102Y592964D01*
X42061Y592707D01*
X41481Y590920D01*
X40627Y589246D01*
X39523Y587725D01*
X38194Y586397D01*
X36674Y585292D01*
X34999Y584439D01*
X33212Y583858D01*
X32956Y583818D01*
X32956Y592964D01*
G37*
%LPD*%
%LPC*%
G36*
X18731Y598042D02*
X18731Y598042D01*
X18772Y598299D01*
X19352Y600086D01*
X20206Y601760D01*
X21310Y603281D01*
X22639Y604609D01*
X24159Y605714D01*
X25834Y606567D01*
X27621Y607148D01*
X27877Y607188D01*
X27877Y598042D01*
X18731Y598042D01*
G37*
%LPD*%
%LPC*%
G36*
X409002Y270827D02*
X409002Y270827D01*
X409043Y271083D01*
X409623Y272870D01*
X410477Y274545D01*
X411581Y276065D01*
X412910Y277394D01*
X414430Y278498D01*
X416105Y279352D01*
X417892Y279932D01*
X418148Y279973D01*
X418148Y270827D01*
X409002Y270827D01*
G37*
%LPD*%
%LPC*%
G36*
X27621Y583858D02*
X27621Y583858D01*
X25834Y584439D01*
X24159Y585292D01*
X22639Y586397D01*
X21310Y587725D01*
X20206Y589246D01*
X19352Y590920D01*
X18772Y592707D01*
X18731Y592964D01*
X27877Y592964D01*
X27877Y583818D01*
X27621Y583858D01*
G37*
%LPD*%
%LPC*%
G36*
X285637Y359687D02*
X285637Y359687D01*
X285637Y364728D01*
X288972Y364728D01*
X289618Y364555D01*
X290197Y364221D01*
X290671Y363747D01*
X291005Y363168D01*
X291178Y362522D01*
X291178Y359687D01*
X285637Y359687D01*
G37*
%LPD*%
%LPC*%
G36*
X285637Y349647D02*
X285637Y349647D01*
X285637Y354688D01*
X291178Y354688D01*
X291178Y351853D01*
X291005Y351207D01*
X290671Y350628D01*
X290197Y350154D01*
X289618Y349820D01*
X288972Y349647D01*
X285637Y349647D01*
G37*
%LPD*%
%LPC*%
G36*
X30416Y595502D02*
X30416Y595502D01*
X30416Y595504D01*
X30417Y595504D01*
X30417Y595502D01*
X30416Y595502D01*
G37*
%LPD*%
D10*
X169300Y236538D03*
X186300Y236538D03*
D11*
X157363Y292100D03*
D12*
X182363Y292100D03*
D11*
X265313Y292100D03*
D12*
X290313Y292100D03*
D10*
X285995Y233680D03*
X268995Y233680D03*
D13*
X219075Y469900D03*
D14*
X219075Y493900D03*
X224075Y493900D03*
X229075Y493900D03*
X234075Y493900D03*
X214075Y493900D03*
X209075Y493900D03*
X204075Y493900D03*
X219075Y445900D03*
X224075Y445900D03*
X229075Y445900D03*
X234075Y445900D03*
D15*
X243075Y469900D03*
X243075Y464900D03*
X243075Y459900D03*
X243075Y454900D03*
X243075Y474900D03*
X243075Y479900D03*
X243075Y484900D03*
X195075Y469900D03*
X195075Y464900D03*
X195075Y459900D03*
X195075Y454900D03*
X195075Y474900D03*
X195075Y479900D03*
X195075Y484900D03*
D14*
X214075Y445900D03*
X209075Y445900D03*
X204075Y445900D03*
D16*
X108425Y246063D03*
X48425Y246063D03*
X78425Y199063D03*
D17*
X47138Y132063D03*
X47138Y106063D03*
X47138Y125563D03*
X47138Y119063D03*
X47138Y112563D03*
D18*
X20638Y159063D03*
X20638Y79063D03*
D19*
X20638Y131763D03*
X20638Y106363D03*
D20*
X119063Y144463D03*
X119063Y119063D03*
X119063Y93663D03*
D10*
X266138Y357188D03*
X283138Y357188D03*
D21*
X203899Y162687D03*
X227013Y162687D03*
X250127Y162687D03*
D22*
X227013Y224665D03*
D11*
X296863Y620395D03*
X347663Y620395D03*
D10*
X345830Y565468D03*
X362830Y565468D03*
X296790Y566420D03*
X279790Y566420D03*
X296300Y471488D03*
X313300Y471488D03*
X296300Y498475D03*
X313300Y498475D03*
X334400Y498475D03*
X351400Y498475D03*
X259788Y441325D03*
X276788Y441325D03*
X270900Y411163D03*
X287900Y411163D03*
X157408Y392113D03*
X140408Y392113D03*
X198048Y421958D03*
X181048Y421958D03*
X181365Y391795D03*
X198365Y391795D03*
X114690Y520700D03*
X131690Y520700D03*
X114690Y495300D03*
X131690Y495300D03*
X114690Y469900D03*
X131690Y469900D03*
X114690Y444500D03*
X131690Y444500D03*
X114690Y419100D03*
X131690Y419100D03*
D20*
X25400Y520700D03*
X25400Y495300D03*
X25400Y469900D03*
X25400Y444500D03*
X25400Y419100D03*
X25400Y393700D03*
X217488Y119063D03*
X192088Y119063D03*
X334963Y122238D03*
X309563Y122238D03*
D10*
X232800Y398463D03*
X249800Y398463D03*
D20*
X30417Y595503D03*
X30417Y660527D03*
X75629Y595503D03*
X75629Y660527D03*
X420688Y646113D03*
X420688Y620713D03*
X420688Y595313D03*
X420688Y569913D03*
X420688Y544513D03*
X420688Y519113D03*
X420688Y493713D03*
X420688Y468313D03*
X420688Y422275D03*
X420688Y396875D03*
X420688Y371475D03*
X420688Y346075D03*
X420688Y320675D03*
X420688Y268288D03*
X420688Y242888D03*
X420688Y217488D03*
D23*
X209075Y493900D02*
X209075Y501175D01*
X209550Y501650D01*
X209550Y511175D01*
D24*
X209550Y511175D03*
D25*
X66375Y106063D02*
X47138Y106063D01*
X66375Y106063D02*
X66675Y106363D01*
D24*
X66675Y106363D03*
D26*
X78425Y199063D02*
X132725Y199063D01*
X169101Y162687D02*
X203899Y162687D01*
X169101Y162687D02*
X132725Y199063D01*
X177535Y224934D02*
X181404Y228802D01*
X158596Y224934D02*
X132725Y199063D01*
X181404Y228802D02*
X181404Y231642D01*
X186300Y236538D01*
X177535Y224934D02*
X158596Y224934D01*
X186300Y236538D02*
X189194Y239431D01*
X241863Y292100D01*
X265313Y292100D01*
X189194Y239431D02*
X157363Y271263D01*
X157363Y292100D01*
D27*
X265313Y292100D02*
X265313Y237363D01*
X268995Y233680D01*
X265313Y292100D02*
X265313Y356363D01*
X266138Y357188D01*
X268850Y371475D02*
X283138Y357188D01*
X73025Y371475D02*
X25400Y419100D01*
X123825Y371475D02*
X268850Y371475D01*
X123825Y371475D02*
X73025Y371475D01*
D24*
X123825Y371475D03*
D27*
X283138Y357188D02*
X372038Y268288D01*
X420688Y268288D01*
D23*
X244475Y435500D02*
X234075Y445900D01*
X244475Y435500D02*
X244475Y433388D01*
D24*
X244475Y433388D03*
X309563Y425450D03*
D27*
X317326Y425450D01*
X321009Y429133D01*
X391033Y429133D01*
X403225Y441325D01*
X439738Y441325D02*
X454025Y427038D01*
X454025Y301625D01*
X420688Y268288D01*
X403225Y441325D02*
X439738Y441325D01*
D24*
X104648Y580644D03*
X176022Y547116D03*
X182118Y502158D03*
D23*
X196088Y493776D02*
X196088Y493268D01*
X203708Y485648D01*
D28*
X187452Y450342D02*
X186944Y449834D01*
X187452Y450342D02*
X199136Y450342D01*
D23*
X235204Y453898D02*
X240284Y448818D01*
X235204Y453898D02*
X234950Y453898D01*
D28*
X203708Y454914D02*
X203708Y485648D01*
X203708Y454914D02*
X199136Y450342D01*
D29*
X60025Y132063D02*
X47138Y132063D01*
X60025Y132063D02*
X85725Y106363D01*
D24*
X85725Y106363D03*
D27*
X98425Y93663D01*
X119063Y93663D01*
D26*
X182363Y292100D02*
X182363Y330400D01*
X179388Y333375D01*
X139700Y333375D01*
X133350Y327025D01*
X133350Y266700D01*
X141288Y258763D01*
X147075Y258763D01*
X169220Y236618D01*
X169300Y236618D01*
D27*
X250127Y151702D02*
X217488Y119063D01*
X250127Y151702D02*
X250127Y162687D01*
X341170Y107252D02*
X349949Y116030D01*
X291544Y119063D02*
X217488Y119063D01*
X291544Y119063D02*
X303355Y107252D01*
X341170Y107252D01*
X349949Y146749D02*
X420688Y217488D01*
X349949Y146749D02*
X349949Y116030D01*
D23*
X204075Y493900D02*
X204075Y501728D01*
X202883Y502920D01*
X202883Y528638D01*
D24*
X202883Y528638D03*
D23*
X234075Y499188D02*
X234075Y493900D01*
X239713Y504825D02*
X242888Y504825D01*
X239713Y504825D02*
X234075Y499188D01*
D24*
X242888Y504825D03*
D27*
X334963Y157163D02*
X334963Y122238D01*
X334963Y157163D02*
X420688Y242888D01*
D24*
X349250Y544513D03*
D27*
X362830Y558093D01*
X362830Y565468D01*
D24*
X368300Y519113D03*
D27*
X368300Y515375D01*
X351400Y498475D01*
D24*
X111125Y550863D03*
D27*
X126683Y566420D01*
X203200Y566420D01*
X279790Y566420D01*
X264233Y550863D01*
X261938Y550863D01*
D24*
X261938Y550863D03*
D27*
X281988Y417075D02*
X287900Y411163D01*
X281988Y417075D02*
X281988Y418477D01*
X276788Y423678D02*
X276788Y441325D01*
X276788Y423678D02*
X281988Y418477D01*
X276788Y441325D02*
X304800Y441325D01*
D24*
X304800Y441325D03*
D30*
X202883Y528638D02*
X202883Y566103D01*
X203200Y566420D01*
D23*
X214075Y506400D02*
X214075Y493900D01*
X214075Y506400D02*
X216126Y508451D01*
X216126Y513899D01*
X214313Y515712D01*
X214313Y528638D01*
D24*
X214313Y528638D03*
D23*
X219075Y505653D02*
X219075Y493900D01*
X219075Y505653D02*
X220190Y506768D01*
X220190Y512763D01*
X223365Y515938D01*
X223838Y515938D01*
D24*
X223838Y515938D03*
D23*
X345830Y565468D02*
X347663Y567300D01*
X229075Y502125D02*
X229075Y493900D01*
X245174Y518224D02*
X254341Y518224D01*
X290155Y554038D02*
X334963Y554038D01*
X290155Y554038D02*
X254341Y518224D01*
X245174Y518224D02*
X229075Y502125D01*
X334963Y554038D02*
X345830Y564905D01*
X345830Y565468D01*
X345830Y618563D01*
X347663Y620395D01*
X224075Y503475D02*
X224075Y493900D01*
X224075Y503475D02*
X242888Y522288D01*
X252658Y522288D01*
X296790Y566420D01*
X296790Y620323D01*
X296863Y620395D01*
X290369Y506269D02*
X289643Y506269D01*
X290369Y506269D02*
X312738Y528638D01*
X268274Y484900D02*
X243075Y484900D01*
X268274Y484900D02*
X289643Y506269D01*
X312738Y528638D02*
X352425Y528638D01*
X373063Y549275D01*
X373063Y573088D02*
X420688Y620713D01*
X373063Y573088D02*
X373063Y549275D01*
X292888Y474900D02*
X243075Y474900D01*
X292888Y474900D02*
X296300Y471488D01*
X313300Y471488D02*
X332494Y490681D01*
X372201Y504825D02*
X379413Y504825D01*
X372201Y504825D02*
X358057Y490681D01*
X332494Y490681D01*
X379413Y504825D02*
X388938Y514350D01*
X388938Y560388D01*
X398463Y569913D01*
X420688Y569913D01*
X420688Y544513D02*
X393002Y516827D01*
X393002Y512667D01*
X283436Y469900D02*
X243075Y469900D01*
X283436Y469900D02*
X289643Y463694D01*
X344028Y463694D01*
X393002Y512667D01*
X282689Y464900D02*
X243075Y464900D01*
X282689Y464900D02*
X287959Y459630D01*
X361205Y459630D01*
X420688Y519113D01*
X277725Y479900D02*
X243075Y479900D01*
X277725Y479900D02*
X296300Y498475D01*
X313300Y498475D02*
X334400Y498475D01*
X377825Y541900D01*
X377825Y569913D01*
X403225Y595313D01*
X420688Y595313D01*
X281941Y459900D02*
X243075Y459900D01*
X281941Y459900D02*
X286276Y455566D01*
X382541Y455566D01*
X420688Y493713D01*
X256650Y441325D02*
X243075Y454900D01*
X256650Y441325D02*
X259788Y441325D01*
X401035Y468313D02*
X420688Y468313D01*
X401035Y468313D02*
X384224Y451502D01*
X269964Y451502D02*
X259788Y441325D01*
X269964Y451502D02*
X384224Y451502D01*
X230011Y444964D02*
X229075Y445900D01*
X257400Y411163D02*
X270900Y411163D01*
X230011Y438552D02*
X230011Y444964D01*
X230011Y438552D02*
X257400Y411163D01*
X224075Y434738D02*
X224075Y445900D01*
X224075Y434738D02*
X225425Y433388D01*
D24*
X225425Y433388D03*
X231775Y409575D03*
D23*
X235094Y406257D01*
X239457Y406257D01*
X247251Y398463D02*
X249800Y398463D01*
X247251Y398463D02*
X239457Y406257D01*
X195075Y454900D02*
X180263Y454900D01*
X179388Y454025D01*
D24*
X179388Y454025D03*
X317500Y415925D03*
D23*
X323850Y422275D01*
X420688Y422275D01*
X142956Y398318D02*
X142956Y394661D01*
X140408Y392113D01*
X142956Y392113D01*
X155132Y379937D01*
X403750Y379937D01*
X420688Y396875D01*
X204075Y445900D02*
X190539Y445900D01*
X142956Y398318D01*
X198048Y421958D02*
X214075Y437985D01*
X214075Y445900D01*
X166596Y392113D02*
X157408Y392113D01*
X166596Y392113D02*
X174708Y384001D01*
X190571Y384001D02*
X198048Y391478D01*
X198365Y391795D01*
X190571Y384001D02*
X174708Y384001D01*
X198048Y391478D02*
X198048Y421958D01*
X198365Y391795D02*
X225016Y391795D01*
X226143Y390669D01*
X307832Y390669D02*
X309563Y388938D01*
X307832Y390669D02*
X226143Y390669D01*
X309563Y388938D02*
X352425Y388938D01*
D24*
X352425Y388938D03*
X365125Y346075D03*
D23*
X420688Y346075D01*
X181365Y391795D02*
X181365Y421640D01*
X181048Y421958D01*
X208139Y444964D02*
X209075Y445900D01*
X208139Y444964D02*
X208139Y441763D01*
X202939Y436563D01*
X195263Y436563D01*
D24*
X195263Y436563D03*
D23*
X181365Y422665D01*
X181365Y421640D01*
D24*
X295275Y428625D03*
D23*
X425738Y409067D02*
X432880Y401925D01*
X432880Y391825D01*
X420688Y379633D01*
X420688Y371475D01*
X313246Y409067D02*
X295275Y428625D01*
X313246Y409067D02*
X425738Y409067D01*
X219075Y437238D02*
X219075Y445900D01*
X219075Y437238D02*
X209212Y427375D01*
X209212Y413088D01*
X223838Y398463D02*
X232800Y398463D01*
X217488Y404813D02*
X209212Y413088D01*
X217488Y404813D02*
X223838Y398463D01*
X232800Y398463D02*
X235349Y398463D01*
X256457Y406257D02*
X264251Y398463D01*
X352425Y398463D01*
D24*
X352425Y398463D03*
D23*
X256457Y406257D02*
X245205Y406257D01*
X235310Y416151D01*
X228826Y416151D01*
X217488Y404813D01*
X142240Y520700D02*
X131690Y520700D01*
X178040Y484900D02*
X195075Y484900D01*
X178040Y484900D02*
X142240Y520700D01*
X131690Y495300D02*
X147090Y479900D01*
X195075Y479900D01*
X144145Y469900D02*
X131690Y469900D01*
X149145Y474900D02*
X195075Y474900D01*
X149145Y474900D02*
X144145Y469900D01*
X157090Y469900D02*
X131690Y444500D01*
X157090Y469900D02*
X195075Y469900D01*
X177490Y464900D02*
X131690Y419100D01*
X177490Y464900D02*
X195075Y464900D01*
X114690Y520700D02*
X25400Y520700D01*
X25400Y495300D02*
X114690Y495300D01*
X114690Y469900D02*
X25400Y469900D01*
D24*
X85725Y445770D03*
D23*
X113420Y445770D01*
X114690Y444500D01*
X52705Y444500D02*
X25400Y444500D01*
X52705Y444500D02*
X80010Y417195D01*
X112785Y417195D01*
X114690Y419100D01*
D27*
X119063Y119063D02*
X192088Y119063D01*
X309563Y122238D02*
X309563Y142115D01*
X227013Y224665D01*
X227013Y162687D01*
X227013Y224665D02*
X259607Y224665D01*
X261180Y223092D01*
X276810Y223092D01*
X280083Y226365D01*
X280083Y227768D01*
X285995Y233680D01*
X285995Y287783D01*
X290313Y292100D01*
M02*
