M48
;GenerationSoftware,Autodesk,EAGLE,8.6.0*%
;CreationDate,2018-05-14T08:47:15Z*%
FMAT,2
ICI,OFF
METRIC,TZ,000.000
T5C0.350
T4C0.700
T3C1.016
T2C2.997
T1C3.048
%
G90
M71
T1
X45561Y3969
X3175Y3969
X45561Y70485
X3175Y70485
T2
X4843Y24606
X7842Y19906
X10843Y24606
T3
X42069Y21749
X11906Y9366
X42069Y24289
X42069Y26829
X42069Y32067
X42069Y34608
X42069Y37148
X42069Y39688
X42069Y42228
X42069Y46831
X42069Y49371
X42069Y51911
X42069Y54451
X42069Y56991
X42069Y59531
X42069Y62071
X42069Y64611
X7563Y66053
X7563Y59550
X3042Y66053
X3042Y59550
X30956Y12224
X33496Y12224
X19209Y11906
X21749Y11906
X2540Y49530
X2540Y52070
X2540Y46990
X11906Y11906
X2540Y39370
X2540Y41910
X2540Y44450
X11906Y14446
T4
X29031Y29210
X26531Y29210
X29686Y62039
X34766Y62039
X18236Y29210
X15736Y29210
T5
X8573Y10636
X6667Y10636
X18212Y50216
X12382Y37148
X24447Y43339
X30956Y42545
X10465Y58064
X17602Y54712
X8573Y44577
X35243Y39846
X29527Y42863
X19526Y43656
X36513Y34608
X35243Y38894
X31750Y41593
X17939Y45402
X23177Y40958
X22542Y43339
X22384Y51594
X21431Y52864
X30480Y44132
X26194Y55086
X11112Y55086
X36830Y51911
X34925Y54451
X24289Y50482
X20288Y52864
X20955Y51117
M30