G04 EAGLE Gerber X2 export*
%TF.Part,Single*%
%TF.FileFunction,Soldermask,Top,1*%
%TF.FilePolarity,Negative*%
%TF.GenerationSoftware,Autodesk,EAGLE,8.6.0*%
%TF.CreationDate,2018-05-14T08:47:16Z*%
G75*
%MOMM*%
%FSLAX34Y34*%
%LPD*%
%AMOC8*
5,1,8,0,0,1.08239X$1,22.5*%
G01*
%ADD10R,1.303200X1.203200*%
%ADD11C,1.854200*%
%ADD12R,1.854200X1.854200*%
%ADD13R,3.803200X3.803200*%
%ADD14R,0.453200X0.803200*%
%ADD15R,0.803200X0.453200*%
%ADD16C,4.521200*%
%ADD17R,1.603200X0.553200*%
%ADD18R,2.103200X2.003200*%
%ADD19R,2.103200X2.103200*%
%ADD20C,2.082800*%
%ADD21R,1.422400X2.438400*%
%ADD22R,3.803200X2.403200*%
%ADD23C,3.251200*%
%ADD24C,0.959600*%


D10*
X169300Y236538D03*
X186300Y236538D03*
D11*
X157363Y292100D03*
D12*
X182363Y292100D03*
D11*
X265313Y292100D03*
D12*
X290313Y292100D03*
D10*
X285995Y233680D03*
X268995Y233680D03*
D13*
X219075Y469900D03*
D14*
X219075Y493900D03*
X224075Y493900D03*
X229075Y493900D03*
X234075Y493900D03*
X214075Y493900D03*
X209075Y493900D03*
X204075Y493900D03*
X219075Y445900D03*
X224075Y445900D03*
X229075Y445900D03*
X234075Y445900D03*
D15*
X243075Y469900D03*
X243075Y464900D03*
X243075Y459900D03*
X243075Y454900D03*
X243075Y474900D03*
X243075Y479900D03*
X243075Y484900D03*
X195075Y469900D03*
X195075Y464900D03*
X195075Y459900D03*
X195075Y454900D03*
X195075Y474900D03*
X195075Y479900D03*
X195075Y484900D03*
D14*
X214075Y445900D03*
X209075Y445900D03*
X204075Y445900D03*
D16*
X108425Y246063D03*
X48425Y246063D03*
X78425Y199063D03*
D17*
X47138Y132063D03*
X47138Y106063D03*
X47138Y125563D03*
X47138Y119063D03*
X47138Y112563D03*
D18*
X20638Y159063D03*
X20638Y79063D03*
D19*
X20638Y131763D03*
X20638Y106363D03*
D20*
X119063Y144463D03*
X119063Y119063D03*
X119063Y93663D03*
D10*
X266138Y357188D03*
X283138Y357188D03*
D21*
X203899Y162687D03*
X227013Y162687D03*
X250127Y162687D03*
D22*
X227013Y224665D03*
D11*
X296863Y620395D03*
X347663Y620395D03*
D10*
X345830Y565468D03*
X362830Y565468D03*
X296790Y566420D03*
X279790Y566420D03*
X296300Y471488D03*
X313300Y471488D03*
X296300Y498475D03*
X313300Y498475D03*
X334400Y498475D03*
X351400Y498475D03*
X259788Y441325D03*
X276788Y441325D03*
X270900Y411163D03*
X287900Y411163D03*
X157408Y392113D03*
X140408Y392113D03*
X198048Y421958D03*
X181048Y421958D03*
X181365Y391795D03*
X198365Y391795D03*
X114690Y520700D03*
X131690Y520700D03*
X114690Y495300D03*
X131690Y495300D03*
X114690Y469900D03*
X131690Y469900D03*
X114690Y444500D03*
X131690Y444500D03*
X114690Y419100D03*
X131690Y419100D03*
D20*
X25400Y520700D03*
X25400Y495300D03*
X25400Y469900D03*
X25400Y444500D03*
X25400Y419100D03*
X25400Y393700D03*
X217488Y119063D03*
X192088Y119063D03*
X334963Y122238D03*
X309563Y122238D03*
D10*
X232800Y398463D03*
X249800Y398463D03*
D20*
X30417Y595503D03*
X30417Y660527D03*
X75629Y595503D03*
X75629Y660527D03*
X420688Y646113D03*
X420688Y620713D03*
X420688Y595313D03*
X420688Y569913D03*
X420688Y544513D03*
X420688Y519113D03*
X420688Y493713D03*
X420688Y468313D03*
X420688Y422275D03*
X420688Y396875D03*
X420688Y371475D03*
X420688Y346075D03*
X420688Y320675D03*
X420688Y268288D03*
X420688Y242888D03*
X420688Y217488D03*
D23*
X31750Y704850D03*
X455613Y704850D03*
X31750Y39688D03*
X455613Y39688D03*
D24*
X209550Y511175D03*
X66675Y106363D03*
X123825Y371475D03*
X244475Y433388D03*
X309563Y425450D03*
X104648Y580644D03*
X176022Y547116D03*
X182118Y502158D03*
X85725Y106363D03*
X202883Y528638D03*
X242888Y504825D03*
X349250Y544513D03*
X368300Y519113D03*
X111125Y550863D03*
X261938Y550863D03*
X304800Y441325D03*
X214313Y528638D03*
X223838Y515938D03*
X225425Y433388D03*
X231775Y409575D03*
X179388Y454025D03*
X317500Y415925D03*
X352425Y388938D03*
X365125Y346075D03*
X195263Y436563D03*
X295275Y428625D03*
X352425Y398463D03*
X85725Y445770D03*
M02*
