G04 EAGLE Gerber X2 export*
%TF.Part,Single*%
%TF.FileFunction,Soldermask,Bot,1*%
%TF.FilePolarity,Negative*%
%TF.GenerationSoftware,Autodesk,EAGLE,8.6.0*%
%TF.CreationDate,2018-05-14T08:47:16Z*%
G75*
%MOMM*%
%FSLAX34Y34*%
%LPD*%
%AMOC8*
5,1,8,0,0,1.08239X$1,22.5*%
G01*
%ADD10C,1.854200*%
%ADD11R,1.854200X1.854200*%
%ADD12C,4.521200*%
%ADD13C,2.082800*%
%ADD14R,1.203200X1.303200*%
%ADD15R,1.303200X1.203200*%
%ADD16R,1.003200X1.403200*%
%ADD17C,3.251200*%
%ADD18C,0.959600*%


D10*
X157363Y292100D03*
D11*
X182363Y292100D03*
D10*
X265313Y292100D03*
D11*
X290313Y292100D03*
D12*
X108425Y246063D03*
X48425Y246063D03*
X78425Y199063D03*
D13*
X119063Y144463D03*
X119063Y119063D03*
X119063Y93663D03*
D14*
X191135Y528565D03*
X191135Y511565D03*
D15*
X257248Y506095D03*
X274248Y506095D03*
D16*
X207755Y567690D03*
X189755Y567690D03*
D15*
X229308Y536893D03*
X246308Y536893D03*
D10*
X296863Y620395D03*
X347663Y620395D03*
D15*
X330763Y540068D03*
X313763Y540068D03*
X218513Y421323D03*
X235513Y421323D03*
D13*
X25400Y520700D03*
X25400Y495300D03*
X25400Y469900D03*
X25400Y444500D03*
X25400Y419100D03*
X25400Y393700D03*
X217488Y119063D03*
X192088Y119063D03*
X334963Y122238D03*
X309563Y122238D03*
X30417Y595503D03*
X30417Y660527D03*
X75629Y595503D03*
X75629Y660527D03*
X420688Y646113D03*
X420688Y620713D03*
X420688Y595313D03*
X420688Y569913D03*
X420688Y544513D03*
X420688Y519113D03*
X420688Y493713D03*
X420688Y468313D03*
X420688Y422275D03*
X420688Y396875D03*
X420688Y371475D03*
X420688Y346075D03*
X420688Y320675D03*
X420688Y268288D03*
X420688Y242888D03*
X420688Y217488D03*
D17*
X31750Y704850D03*
X455613Y704850D03*
X31750Y39688D03*
X455613Y39688D03*
D18*
X209550Y511175D03*
X66675Y106363D03*
X123825Y371475D03*
X244475Y433388D03*
X309563Y425450D03*
X104648Y580644D03*
X176022Y547116D03*
X182118Y502158D03*
X85725Y106363D03*
X202883Y528638D03*
X242888Y504825D03*
X349250Y544513D03*
X368300Y519113D03*
X111125Y550863D03*
X261938Y550863D03*
X304800Y441325D03*
X214313Y528638D03*
X223838Y515938D03*
X225425Y433388D03*
X231775Y409575D03*
X179388Y454025D03*
X317500Y415925D03*
X352425Y388938D03*
X365125Y346075D03*
X195263Y436563D03*
X295275Y428625D03*
X352425Y398463D03*
X85725Y445770D03*
M02*
