G04 EAGLE Gerber X2 export*
%TF.Part,Single*%
%TF.FileFunction,Copper,L2,Bot,Mixed*%
%TF.FilePolarity,Positive*%
%TF.GenerationSoftware,Autodesk,EAGLE,8.6.0*%
%TF.CreationDate,2018-05-28T12:08:45Z*%
G75*
%MOMM*%
%FSLAX34Y34*%
%LPD*%
%AMOC8*
5,1,8,0,0,1.08239X$1,22.5*%
G01*
%ADD10C,1.651000*%
%ADD11R,1.651000X1.651000*%
%ADD12C,4.318000*%
%ADD13C,1.676400*%
%ADD14C,3.302000*%
%ADD15C,1.879600*%
%ADD16R,1.000000X1.100000*%
%ADD17R,1.100000X1.000000*%
%ADD18R,0.800000X1.200000*%
%ADD19C,0.762000*%
%ADD20R,0.600000X0.600000*%
%ADD21R,0.400000X0.600000*%
%ADD22R,1.879600X1.879600*%
%ADD23C,5.080000*%
%ADD24C,0.756400*%
%ADD25C,0.609600*%
%ADD26C,0.812800*%
%ADD27C,0.508000*%
%ADD28C,0.254000*%
%ADD29C,0.806400*%
%ADD30C,1.016000*%
%ADD31C,0.304800*%
%ADD32C,1.270000*%
%ADD33C,0.762000*%
%ADD34C,0.406400*%


D10*
X157363Y292100D03*
D11*
X182363Y292100D03*
D10*
X265313Y292100D03*
D11*
X290313Y292100D03*
D12*
X109695Y280353D03*
X49695Y280353D03*
X79695Y233353D03*
D13*
X107188Y100784D03*
X107188Y125784D03*
X87376Y125784D03*
X87376Y100784D03*
D14*
X60198Y53086D03*
X60198Y173482D03*
D15*
X152083Y143447D03*
X152083Y118047D03*
X152083Y92647D03*
D16*
X191135Y528565D03*
X191135Y511565D03*
D17*
X257248Y506095D03*
X274248Y506095D03*
D18*
X207755Y567690D03*
X189755Y567690D03*
D17*
X229308Y536893D03*
X246308Y536893D03*
D10*
X295085Y601091D03*
X345885Y601091D03*
D17*
X330763Y540068D03*
X313763Y540068D03*
X218513Y421323D03*
X235513Y421323D03*
D15*
X25400Y520700D03*
X25400Y495300D03*
X25400Y469900D03*
X25400Y444500D03*
X25400Y419100D03*
X25400Y393700D03*
X217488Y119063D03*
X192088Y119063D03*
X334963Y122238D03*
X309563Y122238D03*
X517589Y920115D03*
X517589Y985139D03*
X562801Y920115D03*
X562801Y985139D03*
X420688Y646875D03*
X420688Y621475D03*
X420688Y596075D03*
X420688Y570675D03*
X420688Y545275D03*
X420688Y519875D03*
X420688Y494475D03*
X420688Y469075D03*
X420688Y422275D03*
X420688Y396875D03*
X420688Y371475D03*
X420688Y346075D03*
X420688Y320675D03*
X420688Y268288D03*
X420688Y242888D03*
X420688Y217488D03*
X678434Y142240D03*
X678434Y116840D03*
X616712Y303276D03*
X616712Y277876D03*
D19*
X303022Y794258D03*
X303022Y802132D03*
X303022Y810006D03*
X303022Y817880D03*
X303022Y825754D03*
X310896Y794258D03*
X310896Y802132D03*
X310896Y810006D03*
X310896Y817880D03*
X310896Y825754D03*
X318770Y794258D03*
X318770Y802132D03*
X318770Y810006D03*
X318770Y817880D03*
X318770Y825754D03*
X326644Y794258D03*
X326644Y802132D03*
X326644Y810006D03*
X326644Y817880D03*
X326644Y825754D03*
X334518Y794258D03*
X334518Y802132D03*
X334518Y810006D03*
X334518Y817880D03*
X334518Y825754D03*
D20*
X220352Y879712D03*
D21*
X212852Y879712D03*
D20*
X205352Y879712D03*
X220352Y861712D03*
D21*
X212852Y861712D03*
D20*
X205352Y861712D03*
X163964Y651366D03*
D21*
X156464Y651366D03*
D20*
X148964Y651366D03*
X163964Y633366D03*
D21*
X156464Y633366D03*
D20*
X148964Y633366D03*
D15*
X395224Y919226D03*
X395224Y984250D03*
X440436Y919226D03*
X440436Y984250D03*
D22*
X112752Y687550D03*
D15*
X112752Y715250D03*
X112752Y742950D03*
X112752Y770650D03*
X112752Y798350D03*
X84352Y701450D03*
X84352Y729150D03*
X84352Y756750D03*
X84352Y784450D03*
D23*
X98552Y617950D03*
X98552Y867950D03*
D15*
X420688Y890270D03*
X420688Y864870D03*
X420688Y839470D03*
X420688Y814070D03*
X420688Y788670D03*
X420688Y763270D03*
X420688Y737870D03*
X420688Y712470D03*
X543814Y320040D03*
X543814Y345440D03*
X543814Y370840D03*
X543814Y396240D03*
X543814Y421640D03*
D24*
X209550Y511175D03*
D25*
X191525Y511175D01*
X191135Y511565D01*
D24*
X123825Y371475D03*
D26*
X123825Y443475D01*
X191525Y511175D01*
D27*
X209550Y511175D02*
X209550Y512779D01*
D26*
X189852Y567690D02*
X189755Y567690D01*
X274248Y506095D02*
X308220Y540068D01*
X313763Y540068D01*
X268336Y498780D02*
X265062Y495507D01*
X268336Y500183D02*
X274248Y506095D01*
X268336Y500183D02*
X268336Y498780D01*
X247857Y495507D02*
X233363Y481013D01*
X247857Y495507D02*
X265062Y495507D01*
X233363Y481013D02*
X215900Y481013D01*
X209550Y487363D01*
X209550Y511175D01*
D24*
X244475Y433388D03*
D28*
X244475Y430285D01*
X235513Y421323D01*
D27*
X291482Y421323D01*
X292025Y420779D01*
X304892Y420779D01*
X309563Y425450D01*
D24*
X309563Y425450D03*
D29*
X655320Y103886D03*
D26*
X655320Y154940D01*
X680212Y179832D01*
X745998Y179832D01*
X784098Y179832D01*
X784352Y179832D01*
D29*
X784098Y179832D03*
X695198Y223266D03*
D26*
X732790Y260858D01*
X732790Y301752D02*
X744982Y313944D01*
X764286Y313944D01*
X764540Y313690D01*
X732790Y301752D02*
X732790Y260858D01*
D29*
X764540Y313690D03*
D26*
X189755Y567690D02*
X176276Y554211D01*
X176276Y525018D01*
X190119Y511175D01*
X191525Y511175D01*
D24*
X321056Y870204D03*
X395224Y871474D03*
D28*
X393954Y870204D01*
X321056Y870204D01*
D24*
X237236Y859790D03*
D28*
X222274Y859790D01*
X220352Y861712D01*
D30*
X612902Y421640D02*
X732790Y301752D01*
X612902Y421640D02*
X543814Y421640D01*
X695198Y223266D02*
X738632Y179832D01*
X745998Y179832D01*
D24*
X483362Y401828D03*
D31*
X483362Y885889D01*
X517589Y920115D01*
D32*
X543814Y940054D02*
X543814Y421640D01*
X543814Y940054D02*
X533654Y950214D01*
X501142Y950214D01*
D33*
X388070Y1001522D02*
X381212Y994664D01*
D32*
X246380Y994664D01*
D30*
X449834Y1001522D02*
X501142Y950214D01*
D33*
X449834Y1001522D02*
X388070Y1001522D01*
D32*
X191008Y939292D02*
X72644Y939292D01*
X40386Y907034D01*
X40386Y773116D02*
X84352Y729150D01*
X40386Y773116D02*
X40386Y907034D01*
X191008Y939292D02*
X204978Y925322D01*
X204978Y925068D01*
D24*
X204978Y925068D03*
X190500Y868680D03*
D25*
X201532Y879712D01*
X205352Y879712D01*
D30*
X68350Y745152D02*
X40386Y773116D01*
X166569Y713232D02*
X184658Y713232D01*
X185928Y713232D01*
X68350Y694822D02*
X68350Y745152D01*
X124885Y671548D02*
X166569Y713232D01*
X91624Y671548D02*
X68350Y694822D01*
X91624Y671548D02*
X124885Y671548D01*
D27*
X128782Y671548D01*
X148964Y651366D01*
D24*
X175768Y646938D03*
D27*
X175768Y645170D01*
X163964Y633366D01*
D24*
X184658Y713232D03*
D30*
X49695Y280353D02*
X79695Y250353D01*
X79695Y233353D01*
X79695Y186673D01*
X83312Y183056D01*
X83312Y142913D01*
X72390Y131991D01*
X72390Y115770D01*
X87376Y100784D01*
D32*
X191008Y939292D02*
X219710Y939292D01*
X230632Y950214D01*
X230632Y978916D02*
X246380Y994664D01*
X230632Y978916D02*
X230632Y950214D01*
D30*
X107188Y100784D02*
X115326Y92647D01*
X152083Y92647D01*
X109695Y185834D02*
X109695Y280353D01*
X109695Y185834D02*
X152083Y143447D01*
D26*
X182363Y292100D02*
X245736Y292100D01*
X259579Y305943D01*
X332232Y305943D01*
X420688Y217488D01*
D24*
X202883Y528638D03*
D27*
X202810Y528565D01*
X191135Y528565D01*
D26*
X245673Y537528D02*
X246308Y536893D01*
D24*
X242888Y504825D03*
D27*
X255978Y504825D01*
X257248Y506095D01*
D26*
X307975Y355600D02*
X420688Y242888D01*
X307975Y355600D02*
X111125Y355600D01*
X111125Y550863D01*
X307975Y355600D02*
X330763Y378388D01*
X330763Y441325D01*
X330763Y540068D01*
X344805Y540068D01*
X349250Y544513D01*
D24*
X349250Y544513D03*
D26*
X368300Y525463D01*
X368300Y519113D01*
D24*
X368300Y519113D03*
X111125Y550863D03*
X261938Y550863D03*
D26*
X260278Y550863D01*
X246308Y536893D01*
D27*
X330010Y540068D02*
X330763Y540068D01*
X330010Y540068D02*
X320946Y549132D01*
X300284Y549132D02*
X257248Y506095D01*
X300284Y549132D02*
X320946Y549132D01*
D24*
X304800Y441325D03*
D26*
X330763Y441325D01*
D24*
X214313Y528638D03*
D25*
X214313Y561133D02*
X207755Y567690D01*
X214313Y561133D02*
X214313Y528638D01*
D24*
X223838Y515938D03*
D28*
X228795Y536380D02*
X229308Y536893D01*
X228795Y536380D02*
X223838Y531423D01*
X223838Y515938D01*
X228795Y536380D02*
X228795Y585593D01*
X234442Y591240D01*
X234442Y591312D01*
D24*
X234442Y591312D03*
D31*
X420688Y646875D02*
X420688Y685610D01*
X422656Y687578D01*
D24*
X422656Y687578D03*
X390144Y780034D03*
D28*
X408496Y761683D01*
X408496Y758220D01*
X416653Y750062D01*
X425738Y750062D01*
X433070Y742730D01*
X433070Y583057D02*
X420688Y570675D01*
X433070Y583057D02*
X433070Y742730D01*
D24*
X397002Y790956D03*
D28*
X412496Y775462D01*
X425738Y775462D01*
X436372Y764828D01*
X436372Y745175D02*
X437134Y744413D01*
X437134Y561721D01*
X420688Y545275D01*
X436372Y745175D02*
X436372Y764828D01*
D24*
X225425Y433388D03*
D28*
X218513Y426475D01*
X218513Y421323D01*
X230260Y409575D01*
X231775Y409575D01*
D24*
X231775Y409575D03*
X179388Y454025D03*
D28*
X169863Y444500D01*
X169863Y439738D01*
X212725Y396875D01*
X306388Y396875D02*
X317500Y407988D01*
X317500Y415925D01*
X306388Y396875D02*
X212725Y396875D01*
D24*
X317500Y415925D03*
X352425Y388938D03*
D28*
X352425Y358775D01*
X365125Y346075D01*
D24*
X365125Y346075D03*
X195263Y436563D03*
D28*
X219300Y436563D01*
X222701Y439964D01*
D24*
X295275Y428625D03*
D28*
X283937Y439964D01*
X222701Y439964D01*
D24*
X352425Y398463D03*
D28*
X382588Y368300D01*
X382588Y338138D01*
X400050Y320675D01*
X420688Y320675D01*
X77470Y445770D02*
X25400Y393700D01*
X77470Y445770D02*
X85725Y445770D01*
D24*
X85725Y445770D03*
D28*
X156464Y633366D02*
X156464Y642366D01*
X156464Y651366D01*
X143170Y624418D02*
X150368Y617220D01*
X176784Y617220D01*
D24*
X200152Y650240D03*
D28*
X191770Y641858D01*
X191770Y632206D02*
X176784Y617220D01*
X191770Y632206D02*
X191770Y641858D01*
X144807Y639160D02*
X143170Y637523D01*
X153258Y639160D02*
X156464Y642366D01*
X143170Y637523D02*
X143170Y624418D01*
X144807Y639160D02*
X153258Y639160D01*
D24*
X334518Y705358D03*
X286004Y757682D03*
D27*
X312166Y731520D01*
X323850Y731520D01*
X334518Y720852D01*
X334518Y705358D01*
D29*
X566420Y270764D03*
D26*
X609600Y270764D01*
X616712Y277876D01*
D29*
X619252Y250698D03*
X619506Y231394D03*
D34*
X619252Y250698D02*
X621538Y250698D01*
X625602Y246634D01*
X625602Y237490D01*
X619506Y231394D01*
D24*
X395986Y828548D03*
X363474Y841502D03*
D28*
X383032Y841502D02*
X395986Y828548D01*
X383032Y841502D02*
X363474Y841502D01*
D30*
X559816Y326668D02*
X559816Y313412D01*
X550442Y304038D01*
X360454Y777510D02*
X360454Y786114D01*
X375158Y762806D02*
X375158Y554268D01*
X395986Y821646D02*
X395986Y828548D01*
X360454Y777510D02*
X375158Y762806D01*
X360454Y786114D02*
X395986Y821646D01*
X375158Y554268D02*
X404686Y524741D01*
X543814Y345440D02*
X543814Y342670D01*
X559816Y326668D01*
X404686Y524741D02*
X342039Y462094D01*
X342039Y354473D01*
X392474Y304038D02*
X550442Y304038D01*
X392474Y304038D02*
X342039Y354473D01*
D24*
X278638Y868172D03*
D28*
X212852Y869950D02*
X212852Y879712D01*
X212852Y869950D02*
X212852Y866394D01*
X212852Y861712D01*
X214630Y868172D02*
X278638Y868172D01*
X214630Y868172D02*
X212852Y866394D01*
X214630Y868172D02*
X212852Y869950D01*
D30*
X447294Y416560D02*
X543814Y320040D01*
X447294Y416560D02*
X447294Y691388D01*
D27*
X278638Y868172D02*
X278638Y883920D01*
X241046Y921512D01*
X241046Y961644D01*
X258572Y979170D01*
X448564Y692658D02*
X447294Y691388D01*
D25*
X365506Y979170D02*
X258572Y979170D01*
X446223Y933196D02*
X454406Y925013D01*
X454406Y913439D01*
X446223Y933196D02*
X411480Y933196D01*
X447294Y906327D02*
X454406Y913439D01*
X447294Y906327D02*
X447294Y691388D01*
X411480Y933196D02*
X365506Y979170D01*
D24*
X226060Y812038D03*
D28*
X224282Y813816D01*
X224282Y850900D01*
D24*
X224282Y850900D03*
X195072Y850392D03*
D28*
X205352Y860672D01*
X205352Y861712D01*
D24*
X195326Y808736D03*
D28*
X177292Y826770D01*
X177292Y871220D02*
X193294Y887222D01*
X217678Y887222D01*
X220352Y884548D02*
X220352Y879712D01*
X177292Y871220D02*
X177292Y826770D01*
X220352Y884548D02*
X217678Y887222D01*
D24*
X186182Y697738D03*
D28*
X175514Y697738D01*
X163964Y686188D02*
X163964Y651366D01*
X163964Y686188D02*
X175514Y697738D01*
D24*
X185928Y656844D03*
D28*
X185928Y633730D01*
X175768Y623570D01*
X152400Y623570D01*
X148964Y627006D02*
X148964Y633366D01*
X148964Y627006D02*
X152400Y623570D01*
D24*
X305562Y886968D03*
D28*
X314480Y867480D02*
X318332Y863628D01*
X323780Y863628D01*
X314480Y878050D02*
X305562Y886968D01*
X314480Y878050D02*
X314480Y867480D01*
X323780Y863628D02*
X324514Y864362D01*
X401320Y864362D01*
X420688Y844995D01*
X420688Y839470D01*
D24*
X383032Y769874D03*
D28*
X383032Y557530D02*
X420688Y519875D01*
X383032Y557530D02*
X383032Y769874D01*
D24*
X370840Y781812D03*
D28*
X404150Y797532D02*
X420688Y814070D01*
X404150Y797532D02*
X394278Y797532D01*
X378558Y781812D02*
X370840Y781812D01*
X378558Y781812D02*
X394278Y797532D01*
D24*
X378460Y828294D03*
D31*
X425843Y827024D02*
X433134Y834315D01*
X425843Y827024D02*
X415532Y827024D01*
X360645Y848332D02*
X356644Y844331D01*
X356644Y838673D01*
X360645Y834672D01*
X372082Y834672D02*
X378460Y828294D01*
X394224Y848332D02*
X415532Y827024D01*
X394224Y848332D02*
X360645Y848332D01*
X360645Y834672D02*
X372082Y834672D01*
X433134Y834315D02*
X433134Y870025D01*
X440436Y877328D02*
X440436Y919226D01*
X440436Y877328D02*
X433134Y870025D01*
M02*
