M48
;GenerationSoftware,Autodesk,EAGLE,8.6.0*%
;CreationDate,2018-05-28T12:08:43Z*%
FMAT,2
ICI,OFF
METRIC,TZ,000.000
T9C0.254
T8C0.350
T7C0.400
T6C0.700
T5C0.914
T4C1.016
T3C2.286
T2C2.997
T1C3.302
%
G90
M71
T1
X9855Y86795
X9855Y61795
X18796Y5334
X18796Y98298
X81280Y98298
X81280Y5334
T2
X7969Y23335
X4970Y28035
X10969Y28035
T3
X6020Y17348
X6020Y5309
T4
X54381Y42164
X30956Y12224
X54381Y39624
X54381Y37084
X54381Y34544
X54381Y32004
X42069Y71247
X42069Y73787
X42069Y76327
X42069Y78867
X42069Y81407
X42069Y83947
X42069Y86487
X42069Y89027
X2540Y44450
X8435Y78445
X8435Y75675
X8435Y72915
X8435Y70145
X11275Y79835
X11275Y77065
X11275Y74295
X11275Y71525
X11275Y68755
X44044Y98425
X44044Y91923
X39522Y98425
X39522Y91923
X61671Y27788
X61671Y30328
X67843Y11684
X51759Y92011
X51759Y98514
X33496Y12224
X67843Y14224
X42069Y21749
X42069Y24289
X42069Y26829
X42069Y32067
X42069Y34608
X42069Y37148
X42069Y39688
X42069Y42228
X42069Y46907
X42069Y49447
X42069Y51987
X42069Y54527
X42069Y57067
X42069Y59607
X42069Y62147
X19209Y11906
X21749Y11906
X2540Y39370
X2540Y41910
X56280Y92011
X2540Y46990
X2540Y49530
X2540Y52070
X15208Y9265
X15208Y11805
X15208Y14345
X56280Y98514
X42069Y64687
T5
X8738Y10078
X8738Y12578
X10719Y12578
X10719Y10078
T6
X29508Y60109
X34588Y60109
X29031Y29210
X26531Y29210
X18236Y29210
X15736Y29210
T7
X65532Y10389
X78410Y17983
X69520Y22327
X76454Y31369
X61951Y23139
X61925Y25070
X56642Y27076
T8
X20498Y92507
X48336Y40183
X24447Y43339
X30956Y42545
X32106Y87020
X39522Y87147
X23724Y85979
X37846Y82829
X37084Y78181
X38303Y76987
X30556Y88697
X18593Y65684
X18618Y69774
X19533Y80874
X19507Y85039
X22428Y85090
X22606Y81204
X27864Y86817
X36347Y84150
X39599Y82855
X28600Y75768
X33452Y70536
X20015Y65024
X19050Y86868
X17577Y64694
X18466Y71323
X20288Y52864
X24289Y50482
X34925Y54451
X36830Y51911
X11112Y55086
X26194Y55086
X30480Y44132
X21431Y52864
X22384Y51594
X23444Y59131
X12382Y37148
X42266Y68758
X20955Y51117
X39014Y78003
X39700Y79096
X22542Y43339
X23177Y40958
X17939Y45402
X31750Y41593
X35243Y38894
X36513Y34608
X19526Y43656
X8573Y44577
X35243Y39846
X29527Y42863
T9
X33452Y82575
X33452Y81788
X33452Y81001
X33452Y80213
X33452Y79426
X32664Y82575
X32664Y81788
X32664Y81001
X32664Y80213
X31877Y82575
X31877Y81788
X31877Y81001
X31877Y80213
X31877Y79426
X31090Y82575
X31090Y81788
X31090Y81001
X31090Y80213
X31090Y79426
X30302Y82575
X30302Y81788
X30302Y81001
X30302Y80213
X30302Y79426
X32664Y79426
M30