G04 EAGLE Gerber X2 export*
%TF.Part,Single*%
%TF.FileFunction,Legend,Bot,1*%
%TF.FilePolarity,Positive*%
%TF.GenerationSoftware,Autodesk,EAGLE,8.6.0*%
%TF.CreationDate,2018-05-28T12:08:45Z*%
G75*
%MOMM*%
%FSLAX34Y34*%
%LPD*%
%AMOC8*
5,1,8,0,0,1.08239X$1,22.5*%
G01*
%ADD10C,0.177800*%
%ADD11C,0.203200*%
%ADD12C,0.127000*%
%ADD13C,0.400000*%
%ADD14C,0.076200*%


D10*
X175514Y517896D02*
X175514Y516316D01*
X175516Y516238D01*
X175522Y516161D01*
X175531Y516084D01*
X175544Y516008D01*
X175561Y515932D01*
X175582Y515857D01*
X175606Y515784D01*
X175634Y515711D01*
X175666Y515640D01*
X175701Y515571D01*
X175739Y515504D01*
X175780Y515438D01*
X175825Y515375D01*
X175873Y515314D01*
X175923Y515255D01*
X175977Y515199D01*
X176033Y515145D01*
X176092Y515095D01*
X176153Y515047D01*
X176216Y515002D01*
X176282Y514961D01*
X176349Y514923D01*
X176418Y514888D01*
X176489Y514856D01*
X176562Y514828D01*
X176635Y514804D01*
X176710Y514783D01*
X176786Y514766D01*
X176862Y514753D01*
X176939Y514744D01*
X177016Y514738D01*
X177094Y514736D01*
X177094Y514735D02*
X181046Y514735D01*
X181046Y514736D02*
X181124Y514738D01*
X181201Y514744D01*
X181278Y514753D01*
X181354Y514766D01*
X181430Y514783D01*
X181505Y514804D01*
X181578Y514828D01*
X181651Y514856D01*
X181722Y514888D01*
X181791Y514923D01*
X181858Y514961D01*
X181924Y515002D01*
X181987Y515047D01*
X182048Y515095D01*
X182107Y515145D01*
X182163Y515199D01*
X182217Y515255D01*
X182267Y515314D01*
X182315Y515375D01*
X182360Y515438D01*
X182401Y515504D01*
X182439Y515571D01*
X182474Y515640D01*
X182506Y515711D01*
X182534Y515784D01*
X182558Y515857D01*
X182579Y515932D01*
X182596Y516008D01*
X182609Y516084D01*
X182618Y516161D01*
X182624Y516238D01*
X182626Y516316D01*
X182626Y517896D01*
X175514Y521444D02*
X175514Y523814D01*
X175516Y523892D01*
X175522Y523969D01*
X175531Y524046D01*
X175544Y524122D01*
X175561Y524198D01*
X175582Y524273D01*
X175606Y524346D01*
X175634Y524419D01*
X175666Y524490D01*
X175701Y524559D01*
X175739Y524626D01*
X175780Y524692D01*
X175825Y524755D01*
X175873Y524816D01*
X175923Y524875D01*
X175977Y524931D01*
X176033Y524985D01*
X176092Y525035D01*
X176153Y525083D01*
X176216Y525128D01*
X176282Y525169D01*
X176349Y525207D01*
X176418Y525242D01*
X176489Y525274D01*
X176562Y525302D01*
X176635Y525326D01*
X176710Y525347D01*
X176786Y525364D01*
X176862Y525377D01*
X176939Y525386D01*
X177016Y525392D01*
X177094Y525394D01*
X177094Y525395D02*
X177885Y525395D01*
X177885Y525394D02*
X177963Y525392D01*
X178040Y525386D01*
X178117Y525377D01*
X178193Y525364D01*
X178269Y525347D01*
X178344Y525326D01*
X178417Y525302D01*
X178490Y525274D01*
X178561Y525242D01*
X178630Y525207D01*
X178697Y525169D01*
X178763Y525128D01*
X178826Y525083D01*
X178887Y525035D01*
X178946Y524985D01*
X179002Y524931D01*
X179056Y524875D01*
X179106Y524816D01*
X179154Y524755D01*
X179199Y524692D01*
X179240Y524626D01*
X179278Y524559D01*
X179313Y524490D01*
X179345Y524419D01*
X179373Y524346D01*
X179397Y524273D01*
X179418Y524198D01*
X179435Y524122D01*
X179448Y524046D01*
X179457Y523969D01*
X179463Y523892D01*
X179465Y523814D01*
X179465Y521444D01*
X182626Y521444D01*
X182626Y525395D01*
X267916Y514858D02*
X269497Y514858D01*
X269575Y514860D01*
X269652Y514866D01*
X269729Y514875D01*
X269805Y514888D01*
X269881Y514905D01*
X269956Y514926D01*
X270029Y514950D01*
X270102Y514978D01*
X270173Y515010D01*
X270242Y515045D01*
X270309Y515083D01*
X270375Y515124D01*
X270438Y515169D01*
X270499Y515217D01*
X270558Y515267D01*
X270614Y515321D01*
X270668Y515377D01*
X270718Y515436D01*
X270766Y515497D01*
X270811Y515560D01*
X270852Y515626D01*
X270890Y515693D01*
X270925Y515762D01*
X270957Y515833D01*
X270985Y515906D01*
X271009Y515979D01*
X271030Y516054D01*
X271047Y516130D01*
X271060Y516206D01*
X271069Y516283D01*
X271075Y516360D01*
X271077Y516438D01*
X271077Y520390D01*
X271075Y520468D01*
X271069Y520545D01*
X271060Y520622D01*
X271047Y520698D01*
X271030Y520774D01*
X271009Y520849D01*
X270985Y520922D01*
X270957Y520995D01*
X270925Y521066D01*
X270890Y521135D01*
X270852Y521202D01*
X270811Y521268D01*
X270766Y521331D01*
X270718Y521392D01*
X270668Y521451D01*
X270614Y521507D01*
X270558Y521561D01*
X270499Y521611D01*
X270438Y521659D01*
X270375Y521704D01*
X270309Y521745D01*
X270242Y521783D01*
X270173Y521818D01*
X270102Y521850D01*
X270029Y521878D01*
X269956Y521902D01*
X269881Y521923D01*
X269805Y521940D01*
X269729Y521953D01*
X269652Y521962D01*
X269575Y521968D01*
X269497Y521970D01*
X267916Y521970D01*
X264369Y518809D02*
X261998Y518809D01*
X261920Y518807D01*
X261843Y518801D01*
X261766Y518792D01*
X261690Y518779D01*
X261614Y518762D01*
X261539Y518741D01*
X261466Y518717D01*
X261393Y518689D01*
X261322Y518657D01*
X261253Y518622D01*
X261186Y518584D01*
X261120Y518543D01*
X261057Y518498D01*
X260996Y518450D01*
X260937Y518400D01*
X260881Y518346D01*
X260827Y518290D01*
X260777Y518231D01*
X260729Y518170D01*
X260684Y518107D01*
X260643Y518041D01*
X260605Y517974D01*
X260570Y517905D01*
X260538Y517834D01*
X260510Y517761D01*
X260486Y517688D01*
X260465Y517613D01*
X260448Y517537D01*
X260435Y517461D01*
X260426Y517384D01*
X260420Y517307D01*
X260418Y517229D01*
X260418Y516834D01*
X260417Y516834D02*
X260419Y516747D01*
X260425Y516659D01*
X260434Y516572D01*
X260448Y516486D01*
X260465Y516400D01*
X260486Y516316D01*
X260511Y516232D01*
X260540Y516149D01*
X260572Y516068D01*
X260607Y515988D01*
X260646Y515910D01*
X260689Y515833D01*
X260735Y515759D01*
X260784Y515687D01*
X260836Y515617D01*
X260892Y515549D01*
X260950Y515484D01*
X261011Y515421D01*
X261075Y515362D01*
X261142Y515305D01*
X261210Y515251D01*
X261282Y515200D01*
X261355Y515153D01*
X261430Y515108D01*
X261508Y515067D01*
X261587Y515030D01*
X261667Y514996D01*
X261749Y514966D01*
X261832Y514939D01*
X261917Y514916D01*
X262002Y514897D01*
X262088Y514882D01*
X262175Y514870D01*
X262262Y514862D01*
X262349Y514858D01*
X262437Y514858D01*
X262524Y514862D01*
X262611Y514870D01*
X262698Y514882D01*
X262784Y514897D01*
X262869Y514916D01*
X262954Y514939D01*
X263037Y514966D01*
X263119Y514996D01*
X263199Y515030D01*
X263278Y515067D01*
X263356Y515108D01*
X263431Y515153D01*
X263504Y515200D01*
X263576Y515251D01*
X263644Y515305D01*
X263711Y515362D01*
X263775Y515421D01*
X263836Y515484D01*
X263894Y515549D01*
X263950Y515617D01*
X264002Y515687D01*
X264051Y515759D01*
X264097Y515833D01*
X264140Y515910D01*
X264179Y515988D01*
X264214Y516068D01*
X264246Y516149D01*
X264275Y516232D01*
X264300Y516316D01*
X264321Y516400D01*
X264338Y516486D01*
X264352Y516572D01*
X264361Y516659D01*
X264367Y516747D01*
X264369Y516834D01*
X264369Y518809D01*
X264367Y518919D01*
X264361Y519030D01*
X264352Y519139D01*
X264338Y519249D01*
X264321Y519358D01*
X264300Y519466D01*
X264275Y519574D01*
X264247Y519680D01*
X264214Y519786D01*
X264178Y519890D01*
X264139Y519993D01*
X264096Y520095D01*
X264049Y520195D01*
X263999Y520293D01*
X263946Y520390D01*
X263889Y520484D01*
X263829Y520577D01*
X263765Y520667D01*
X263699Y520755D01*
X263629Y520841D01*
X263557Y520924D01*
X263482Y521005D01*
X263404Y521083D01*
X263323Y521158D01*
X263240Y521230D01*
X263154Y521300D01*
X263066Y521366D01*
X262976Y521430D01*
X262883Y521490D01*
X262789Y521547D01*
X262692Y521600D01*
X262594Y521650D01*
X262494Y521697D01*
X262392Y521740D01*
X262289Y521779D01*
X262185Y521815D01*
X262079Y521848D01*
X261973Y521876D01*
X261865Y521901D01*
X261757Y521922D01*
X261648Y521939D01*
X261538Y521953D01*
X261429Y521962D01*
X261318Y521968D01*
X261208Y521970D01*
X202504Y577469D02*
X200924Y577469D01*
X202504Y577469D02*
X202582Y577471D01*
X202659Y577477D01*
X202736Y577486D01*
X202812Y577499D01*
X202888Y577516D01*
X202963Y577537D01*
X203036Y577561D01*
X203109Y577589D01*
X203180Y577621D01*
X203249Y577656D01*
X203316Y577694D01*
X203382Y577735D01*
X203445Y577780D01*
X203506Y577828D01*
X203565Y577878D01*
X203621Y577932D01*
X203675Y577988D01*
X203725Y578047D01*
X203773Y578108D01*
X203818Y578171D01*
X203859Y578237D01*
X203897Y578304D01*
X203932Y578373D01*
X203964Y578444D01*
X203992Y578517D01*
X204016Y578590D01*
X204037Y578665D01*
X204054Y578741D01*
X204067Y578817D01*
X204076Y578894D01*
X204082Y578971D01*
X204084Y579049D01*
X204085Y579049D02*
X204085Y583001D01*
X204084Y583001D02*
X204082Y583079D01*
X204076Y583156D01*
X204067Y583233D01*
X204054Y583309D01*
X204037Y583385D01*
X204016Y583460D01*
X203992Y583533D01*
X203964Y583606D01*
X203932Y583677D01*
X203897Y583746D01*
X203859Y583813D01*
X203818Y583879D01*
X203773Y583942D01*
X203725Y584003D01*
X203675Y584062D01*
X203621Y584118D01*
X203565Y584172D01*
X203506Y584222D01*
X203445Y584270D01*
X203382Y584315D01*
X203316Y584356D01*
X203249Y584394D01*
X203180Y584429D01*
X203109Y584461D01*
X203036Y584489D01*
X202963Y584513D01*
X202888Y584534D01*
X202812Y584551D01*
X202736Y584564D01*
X202659Y584573D01*
X202582Y584579D01*
X202504Y584581D01*
X200924Y584581D01*
X197376Y584581D02*
X197376Y583791D01*
X197376Y584581D02*
X193425Y584581D01*
X195401Y577469D01*
X243738Y552768D02*
X243738Y545656D01*
X243738Y552768D02*
X241763Y552768D01*
X241676Y552766D01*
X241588Y552760D01*
X241501Y552751D01*
X241415Y552737D01*
X241329Y552720D01*
X241245Y552699D01*
X241161Y552674D01*
X241078Y552645D01*
X240997Y552613D01*
X240917Y552578D01*
X240839Y552539D01*
X240762Y552496D01*
X240688Y552450D01*
X240616Y552401D01*
X240546Y552349D01*
X240478Y552293D01*
X240413Y552235D01*
X240350Y552174D01*
X240291Y552110D01*
X240234Y552043D01*
X240180Y551975D01*
X240129Y551903D01*
X240082Y551830D01*
X240037Y551755D01*
X239996Y551677D01*
X239959Y551598D01*
X239925Y551518D01*
X239895Y551436D01*
X239868Y551353D01*
X239845Y551268D01*
X239826Y551183D01*
X239811Y551097D01*
X239799Y551010D01*
X239791Y550923D01*
X239787Y550836D01*
X239787Y550748D01*
X239791Y550661D01*
X239799Y550574D01*
X239811Y550487D01*
X239826Y550401D01*
X239845Y550316D01*
X239868Y550231D01*
X239895Y550148D01*
X239925Y550066D01*
X239959Y549986D01*
X239996Y549907D01*
X240037Y549829D01*
X240082Y549754D01*
X240129Y549681D01*
X240180Y549609D01*
X240234Y549541D01*
X240291Y549474D01*
X240350Y549410D01*
X240413Y549349D01*
X240478Y549291D01*
X240546Y549235D01*
X240616Y549183D01*
X240688Y549134D01*
X240762Y549088D01*
X240839Y549045D01*
X240917Y549006D01*
X240997Y548971D01*
X241078Y548939D01*
X241161Y548910D01*
X241245Y548885D01*
X241329Y548864D01*
X241415Y548847D01*
X241501Y548833D01*
X241588Y548824D01*
X241676Y548818D01*
X241763Y548816D01*
X243738Y548816D01*
X241368Y548816D02*
X239787Y545656D01*
X233655Y552768D02*
X233573Y552766D01*
X233491Y552760D01*
X233409Y552751D01*
X233328Y552738D01*
X233248Y552721D01*
X233168Y552700D01*
X233090Y552676D01*
X233013Y552648D01*
X232937Y552617D01*
X232862Y552582D01*
X232790Y552543D01*
X232719Y552502D01*
X232650Y552457D01*
X232584Y552409D01*
X232519Y552358D01*
X232457Y552304D01*
X232398Y552247D01*
X232341Y552188D01*
X232287Y552126D01*
X232236Y552061D01*
X232188Y551995D01*
X232143Y551926D01*
X232102Y551855D01*
X232063Y551783D01*
X232028Y551708D01*
X231997Y551632D01*
X231969Y551555D01*
X231945Y551477D01*
X231924Y551397D01*
X231907Y551317D01*
X231894Y551236D01*
X231885Y551154D01*
X231879Y551072D01*
X231877Y550990D01*
X233655Y552767D02*
X233748Y552765D01*
X233840Y552759D01*
X233932Y552750D01*
X234024Y552737D01*
X234115Y552720D01*
X234205Y552700D01*
X234295Y552676D01*
X234383Y552648D01*
X234471Y552616D01*
X234556Y552582D01*
X234641Y552543D01*
X234723Y552502D01*
X234804Y552457D01*
X234884Y552408D01*
X234961Y552357D01*
X235036Y552303D01*
X235108Y552245D01*
X235179Y552185D01*
X235246Y552121D01*
X235311Y552056D01*
X235374Y551987D01*
X235433Y551916D01*
X235490Y551843D01*
X235544Y551767D01*
X235594Y551690D01*
X235642Y551610D01*
X235686Y551528D01*
X235726Y551445D01*
X235764Y551360D01*
X235798Y551274D01*
X235828Y551187D01*
X232469Y549607D02*
X232408Y549668D01*
X232350Y549731D01*
X232295Y549797D01*
X232242Y549865D01*
X232193Y549936D01*
X232148Y550008D01*
X232105Y550083D01*
X232066Y550159D01*
X232030Y550238D01*
X231998Y550317D01*
X231970Y550398D01*
X231945Y550481D01*
X231924Y550564D01*
X231907Y550648D01*
X231893Y550733D01*
X231884Y550818D01*
X231878Y550904D01*
X231876Y550990D01*
X232469Y549607D02*
X235828Y545656D01*
X231877Y545656D01*
X328432Y548577D02*
X330012Y548577D01*
X330090Y548579D01*
X330167Y548585D01*
X330244Y548594D01*
X330320Y548607D01*
X330396Y548624D01*
X330471Y548645D01*
X330544Y548669D01*
X330617Y548697D01*
X330688Y548729D01*
X330757Y548764D01*
X330824Y548802D01*
X330890Y548843D01*
X330953Y548888D01*
X331014Y548936D01*
X331073Y548986D01*
X331129Y549040D01*
X331183Y549096D01*
X331233Y549155D01*
X331281Y549216D01*
X331326Y549279D01*
X331367Y549345D01*
X331405Y549412D01*
X331440Y549481D01*
X331472Y549552D01*
X331500Y549625D01*
X331524Y549698D01*
X331545Y549773D01*
X331562Y549849D01*
X331575Y549925D01*
X331584Y550002D01*
X331590Y550079D01*
X331592Y550157D01*
X331593Y550157D02*
X331593Y554108D01*
X331592Y554108D02*
X331590Y554186D01*
X331584Y554263D01*
X331575Y554340D01*
X331562Y554416D01*
X331545Y554492D01*
X331524Y554567D01*
X331500Y554640D01*
X331472Y554713D01*
X331440Y554784D01*
X331405Y554853D01*
X331367Y554920D01*
X331326Y554986D01*
X331281Y555049D01*
X331233Y555110D01*
X331183Y555169D01*
X331129Y555225D01*
X331073Y555279D01*
X331014Y555329D01*
X330953Y555377D01*
X330890Y555422D01*
X330824Y555463D01*
X330757Y555501D01*
X330688Y555536D01*
X330617Y555568D01*
X330544Y555596D01*
X330471Y555620D01*
X330396Y555641D01*
X330320Y555658D01*
X330244Y555671D01*
X330167Y555680D01*
X330090Y555686D01*
X330012Y555688D01*
X330012Y555689D02*
X328432Y555689D01*
X324884Y554108D02*
X322909Y555689D01*
X322909Y548577D01*
X324884Y548577D02*
X320933Y548577D01*
X316884Y552133D02*
X316882Y552281D01*
X316877Y552428D01*
X316867Y552576D01*
X316854Y552723D01*
X316838Y552870D01*
X316817Y553016D01*
X316793Y553162D01*
X316765Y553307D01*
X316734Y553451D01*
X316699Y553594D01*
X316660Y553737D01*
X316618Y553878D01*
X316572Y554019D01*
X316523Y554158D01*
X316470Y554296D01*
X316414Y554433D01*
X316354Y554568D01*
X316291Y554701D01*
X316265Y554772D01*
X316235Y554841D01*
X316201Y554909D01*
X316164Y554975D01*
X316124Y555039D01*
X316080Y555101D01*
X316034Y555160D01*
X315984Y555217D01*
X315931Y555271D01*
X315876Y555323D01*
X315818Y555371D01*
X315758Y555417D01*
X315695Y555459D01*
X315630Y555498D01*
X315564Y555534D01*
X315495Y555566D01*
X315426Y555594D01*
X315354Y555619D01*
X315282Y555640D01*
X315208Y555658D01*
X315134Y555671D01*
X315059Y555681D01*
X314984Y555687D01*
X314908Y555689D01*
X314832Y555687D01*
X314757Y555681D01*
X314682Y555671D01*
X314608Y555658D01*
X314534Y555640D01*
X314462Y555619D01*
X314391Y555594D01*
X314321Y555566D01*
X314252Y555534D01*
X314186Y555498D01*
X314121Y555459D01*
X314058Y555417D01*
X313998Y555371D01*
X313940Y555323D01*
X313885Y555271D01*
X313832Y555217D01*
X313782Y555160D01*
X313736Y555101D01*
X313692Y555039D01*
X313652Y554975D01*
X313615Y554909D01*
X313581Y554841D01*
X313551Y554772D01*
X313525Y554701D01*
X313462Y554568D01*
X313402Y554433D01*
X313346Y554296D01*
X313293Y554158D01*
X313244Y554019D01*
X313198Y553878D01*
X313156Y553737D01*
X313117Y553594D01*
X313082Y553451D01*
X313051Y553307D01*
X313023Y553162D01*
X312999Y553016D01*
X312978Y552870D01*
X312962Y552723D01*
X312949Y552576D01*
X312939Y552428D01*
X312934Y552281D01*
X312932Y552133D01*
X316883Y552133D02*
X316881Y551985D01*
X316876Y551838D01*
X316866Y551690D01*
X316853Y551543D01*
X316837Y551396D01*
X316816Y551250D01*
X316792Y551105D01*
X316764Y550959D01*
X316733Y550815D01*
X316698Y550672D01*
X316659Y550529D01*
X316617Y550388D01*
X316571Y550247D01*
X316522Y550108D01*
X316469Y549970D01*
X316413Y549833D01*
X316353Y549698D01*
X316290Y549565D01*
X316291Y549564D02*
X316265Y549493D01*
X316235Y549424D01*
X316201Y549356D01*
X316164Y549290D01*
X316124Y549226D01*
X316080Y549164D01*
X316034Y549105D01*
X315984Y549048D01*
X315931Y548994D01*
X315876Y548942D01*
X315818Y548894D01*
X315758Y548848D01*
X315695Y548806D01*
X315630Y548767D01*
X315564Y548731D01*
X315495Y548699D01*
X315425Y548671D01*
X315354Y548646D01*
X315282Y548625D01*
X315208Y548607D01*
X315134Y548594D01*
X315059Y548584D01*
X314984Y548578D01*
X314908Y548576D01*
X313525Y549565D02*
X313462Y549698D01*
X313402Y549833D01*
X313346Y549970D01*
X313293Y550108D01*
X313244Y550247D01*
X313198Y550388D01*
X313156Y550529D01*
X313117Y550672D01*
X313082Y550815D01*
X313051Y550959D01*
X313023Y551105D01*
X312999Y551250D01*
X312978Y551396D01*
X312962Y551543D01*
X312949Y551690D01*
X312939Y551838D01*
X312934Y551985D01*
X312932Y552133D01*
X313525Y549564D02*
X313551Y549493D01*
X313581Y549424D01*
X313615Y549356D01*
X313652Y549290D01*
X313692Y549226D01*
X313736Y549164D01*
X313782Y549105D01*
X313832Y549048D01*
X313885Y548994D01*
X313940Y548942D01*
X313998Y548894D01*
X314058Y548848D01*
X314121Y548806D01*
X314186Y548767D01*
X314252Y548731D01*
X314321Y548699D01*
X314391Y548671D01*
X314462Y548646D01*
X314534Y548625D01*
X314608Y548607D01*
X314682Y548594D01*
X314757Y548584D01*
X314832Y548578D01*
X314908Y548576D01*
X316488Y550157D02*
X313328Y554108D01*
X234762Y431102D02*
X233182Y431102D01*
X234762Y431102D02*
X234840Y431104D01*
X234917Y431110D01*
X234994Y431119D01*
X235070Y431132D01*
X235146Y431149D01*
X235221Y431170D01*
X235294Y431194D01*
X235367Y431222D01*
X235438Y431254D01*
X235507Y431289D01*
X235574Y431327D01*
X235640Y431368D01*
X235703Y431413D01*
X235764Y431461D01*
X235823Y431511D01*
X235879Y431565D01*
X235933Y431621D01*
X235983Y431680D01*
X236031Y431741D01*
X236076Y431804D01*
X236117Y431870D01*
X236155Y431937D01*
X236190Y432006D01*
X236222Y432077D01*
X236250Y432150D01*
X236274Y432223D01*
X236295Y432298D01*
X236312Y432374D01*
X236325Y432450D01*
X236334Y432527D01*
X236340Y432604D01*
X236342Y432682D01*
X236343Y432682D02*
X236343Y436633D01*
X236342Y436633D02*
X236340Y436711D01*
X236334Y436788D01*
X236325Y436865D01*
X236312Y436941D01*
X236295Y437017D01*
X236274Y437092D01*
X236250Y437165D01*
X236222Y437238D01*
X236190Y437309D01*
X236155Y437378D01*
X236117Y437445D01*
X236076Y437511D01*
X236031Y437574D01*
X235983Y437635D01*
X235933Y437694D01*
X235879Y437750D01*
X235823Y437804D01*
X235764Y437854D01*
X235703Y437902D01*
X235640Y437947D01*
X235574Y437988D01*
X235507Y438026D01*
X235438Y438061D01*
X235367Y438093D01*
X235294Y438121D01*
X235221Y438145D01*
X235146Y438166D01*
X235070Y438183D01*
X234994Y438196D01*
X234917Y438205D01*
X234840Y438211D01*
X234762Y438213D01*
X234762Y438214D02*
X233182Y438214D01*
X229634Y436633D02*
X227659Y438214D01*
X227659Y431102D01*
X229634Y431102D02*
X225683Y431102D01*
X221634Y436633D02*
X219658Y438214D01*
X219658Y431102D01*
X221634Y431102D02*
X217682Y431102D01*
D11*
X38100Y514350D02*
X38100Y527050D01*
D12*
X202852Y866712D02*
X202852Y874712D01*
X222852Y874712D02*
X222852Y866712D01*
D13*
X219852Y868712D03*
D14*
X192471Y876093D02*
X192471Y885331D01*
X189905Y885331D01*
X189807Y885329D01*
X189709Y885323D01*
X189611Y885314D01*
X189513Y885301D01*
X189416Y885284D01*
X189320Y885264D01*
X189225Y885239D01*
X189131Y885211D01*
X189038Y885180D01*
X188946Y885145D01*
X188855Y885106D01*
X188766Y885065D01*
X188679Y885019D01*
X188594Y884971D01*
X188510Y884919D01*
X188429Y884864D01*
X188349Y884806D01*
X188272Y884745D01*
X188198Y884681D01*
X188126Y884614D01*
X188056Y884544D01*
X187989Y884472D01*
X187925Y884398D01*
X187864Y884321D01*
X187806Y884241D01*
X187751Y884160D01*
X187699Y884076D01*
X187651Y883991D01*
X187605Y883904D01*
X187564Y883815D01*
X187525Y883724D01*
X187490Y883632D01*
X187459Y883539D01*
X187431Y883445D01*
X187406Y883350D01*
X187386Y883254D01*
X187369Y883157D01*
X187356Y883059D01*
X187347Y882961D01*
X187341Y882863D01*
X187339Y882765D01*
X187339Y878659D01*
X187341Y878561D01*
X187347Y878463D01*
X187356Y878365D01*
X187369Y878267D01*
X187386Y878170D01*
X187406Y878074D01*
X187431Y877979D01*
X187459Y877885D01*
X187490Y877792D01*
X187525Y877700D01*
X187564Y877609D01*
X187605Y877520D01*
X187651Y877433D01*
X187699Y877348D01*
X187751Y877264D01*
X187806Y877183D01*
X187864Y877103D01*
X187925Y877026D01*
X187989Y876952D01*
X188056Y876880D01*
X188126Y876810D01*
X188198Y876743D01*
X188272Y876679D01*
X188349Y876618D01*
X188429Y876560D01*
X188510Y876505D01*
X188594Y876453D01*
X188679Y876405D01*
X188766Y876359D01*
X188855Y876318D01*
X188946Y876279D01*
X189038Y876244D01*
X189131Y876213D01*
X189225Y876185D01*
X189320Y876160D01*
X189416Y876140D01*
X189513Y876123D01*
X189611Y876110D01*
X189709Y876101D01*
X189807Y876095D01*
X189905Y876093D01*
X192471Y876093D01*
X180348Y885331D02*
X180253Y885329D01*
X180157Y885323D01*
X180062Y885313D01*
X179968Y885299D01*
X179874Y885282D01*
X179781Y885260D01*
X179689Y885235D01*
X179598Y885206D01*
X179508Y885173D01*
X179420Y885136D01*
X179333Y885096D01*
X179249Y885053D01*
X179166Y885005D01*
X179085Y884955D01*
X179006Y884901D01*
X178929Y884844D01*
X178855Y884784D01*
X178783Y884721D01*
X178715Y884654D01*
X178648Y884586D01*
X178585Y884514D01*
X178525Y884440D01*
X178468Y884363D01*
X178414Y884284D01*
X178364Y884203D01*
X178316Y884120D01*
X178273Y884036D01*
X178233Y883949D01*
X178196Y883861D01*
X178163Y883771D01*
X178134Y883680D01*
X178109Y883588D01*
X178087Y883495D01*
X178070Y883401D01*
X178056Y883307D01*
X178046Y883212D01*
X178040Y883116D01*
X178038Y883021D01*
X180348Y885331D02*
X180455Y885329D01*
X180561Y885323D01*
X180667Y885314D01*
X180773Y885300D01*
X180878Y885283D01*
X180983Y885262D01*
X181086Y885238D01*
X181189Y885209D01*
X181291Y885177D01*
X181391Y885142D01*
X181490Y885102D01*
X181588Y885059D01*
X181684Y885013D01*
X181778Y884963D01*
X181871Y884910D01*
X181961Y884854D01*
X182050Y884794D01*
X182136Y884732D01*
X182220Y884666D01*
X182301Y884597D01*
X182380Y884526D01*
X182457Y884451D01*
X182530Y884374D01*
X182601Y884294D01*
X182669Y884212D01*
X182734Y884128D01*
X182796Y884041D01*
X182854Y883952D01*
X182910Y883861D01*
X182962Y883768D01*
X183011Y883673D01*
X183056Y883576D01*
X183098Y883478D01*
X183136Y883379D01*
X183171Y883278D01*
X178809Y881225D02*
X178741Y881292D01*
X178675Y881362D01*
X178613Y881435D01*
X178553Y881509D01*
X178496Y881586D01*
X178442Y881665D01*
X178392Y881746D01*
X178344Y881829D01*
X178300Y881914D01*
X178259Y882000D01*
X178221Y882088D01*
X178187Y882177D01*
X178156Y882268D01*
X178129Y882360D01*
X178105Y882452D01*
X178085Y882546D01*
X178068Y882640D01*
X178056Y882735D01*
X178046Y882830D01*
X178041Y882925D01*
X178039Y883021D01*
X178809Y881225D02*
X183171Y876093D01*
X178039Y876093D01*
D12*
X146464Y646366D02*
X146464Y638366D01*
X166464Y638366D02*
X166464Y646366D01*
D13*
X163464Y640366D03*
D14*
X136083Y647747D02*
X136083Y656985D01*
X133517Y656985D01*
X133419Y656983D01*
X133321Y656977D01*
X133223Y656968D01*
X133125Y656955D01*
X133028Y656938D01*
X132932Y656918D01*
X132837Y656893D01*
X132743Y656865D01*
X132650Y656834D01*
X132558Y656799D01*
X132467Y656760D01*
X132378Y656719D01*
X132291Y656673D01*
X132206Y656625D01*
X132122Y656573D01*
X132041Y656518D01*
X131961Y656460D01*
X131884Y656399D01*
X131810Y656335D01*
X131738Y656268D01*
X131668Y656198D01*
X131601Y656126D01*
X131537Y656052D01*
X131476Y655975D01*
X131418Y655895D01*
X131363Y655814D01*
X131311Y655730D01*
X131263Y655645D01*
X131217Y655558D01*
X131176Y655469D01*
X131137Y655378D01*
X131102Y655286D01*
X131071Y655193D01*
X131043Y655099D01*
X131018Y655004D01*
X130998Y654908D01*
X130981Y654811D01*
X130968Y654713D01*
X130959Y654615D01*
X130953Y654517D01*
X130951Y654419D01*
X130951Y650313D01*
X130953Y650215D01*
X130959Y650117D01*
X130968Y650019D01*
X130981Y649921D01*
X130998Y649824D01*
X131018Y649728D01*
X131043Y649633D01*
X131071Y649539D01*
X131102Y649446D01*
X131137Y649354D01*
X131176Y649263D01*
X131217Y649174D01*
X131263Y649087D01*
X131311Y649002D01*
X131363Y648918D01*
X131418Y648837D01*
X131476Y648757D01*
X131537Y648680D01*
X131601Y648606D01*
X131668Y648534D01*
X131738Y648464D01*
X131810Y648397D01*
X131884Y648333D01*
X131961Y648272D01*
X132041Y648214D01*
X132122Y648159D01*
X132206Y648107D01*
X132291Y648059D01*
X132378Y648013D01*
X132467Y647972D01*
X132558Y647933D01*
X132650Y647898D01*
X132743Y647867D01*
X132837Y647839D01*
X132932Y647814D01*
X133028Y647794D01*
X133125Y647777D01*
X133223Y647764D01*
X133321Y647755D01*
X133419Y647749D01*
X133517Y647747D01*
X136083Y647747D01*
X126783Y647747D02*
X124217Y647747D01*
X124118Y647749D01*
X124018Y647755D01*
X123919Y647764D01*
X123821Y647778D01*
X123723Y647795D01*
X123625Y647816D01*
X123529Y647841D01*
X123434Y647870D01*
X123339Y647902D01*
X123247Y647938D01*
X123155Y647977D01*
X123065Y648020D01*
X122977Y648066D01*
X122891Y648116D01*
X122807Y648169D01*
X122725Y648225D01*
X122645Y648285D01*
X122568Y648347D01*
X122493Y648413D01*
X122420Y648481D01*
X122351Y648552D01*
X122284Y648626D01*
X122220Y648702D01*
X122159Y648781D01*
X122101Y648862D01*
X122046Y648945D01*
X121995Y649030D01*
X121947Y649117D01*
X121902Y649206D01*
X121861Y649297D01*
X121823Y649389D01*
X121789Y649482D01*
X121759Y649577D01*
X121732Y649673D01*
X121709Y649770D01*
X121690Y649867D01*
X121675Y649966D01*
X121663Y650065D01*
X121655Y650164D01*
X121651Y650263D01*
X121651Y650363D01*
X121655Y650462D01*
X121663Y650561D01*
X121675Y650660D01*
X121690Y650759D01*
X121709Y650856D01*
X121732Y650953D01*
X121759Y651049D01*
X121789Y651144D01*
X121823Y651237D01*
X121861Y651329D01*
X121902Y651420D01*
X121947Y651509D01*
X121995Y651596D01*
X122046Y651681D01*
X122101Y651764D01*
X122159Y651845D01*
X122220Y651924D01*
X122284Y652000D01*
X122351Y652074D01*
X122420Y652145D01*
X122493Y652213D01*
X122568Y652279D01*
X122645Y652341D01*
X122725Y652401D01*
X122807Y652457D01*
X122891Y652510D01*
X122977Y652560D01*
X123065Y652606D01*
X123155Y652649D01*
X123247Y652688D01*
X123339Y652724D01*
X123434Y652756D01*
X123529Y652785D01*
X123625Y652810D01*
X123723Y652831D01*
X123821Y652848D01*
X123919Y652862D01*
X124018Y652871D01*
X124118Y652877D01*
X124217Y652879D01*
X123704Y656985D02*
X126783Y656985D01*
X123704Y656985D02*
X123614Y656983D01*
X123525Y656977D01*
X123436Y656967D01*
X123348Y656954D01*
X123260Y656936D01*
X123173Y656915D01*
X123087Y656890D01*
X123002Y656861D01*
X122918Y656829D01*
X122836Y656793D01*
X122756Y656753D01*
X122678Y656710D01*
X122601Y656663D01*
X122526Y656614D01*
X122454Y656561D01*
X122384Y656505D01*
X122317Y656446D01*
X122252Y656384D01*
X122190Y656319D01*
X122131Y656252D01*
X122075Y656182D01*
X122022Y656110D01*
X121973Y656035D01*
X121926Y655959D01*
X121883Y655880D01*
X121843Y655800D01*
X121807Y655718D01*
X121775Y655634D01*
X121746Y655549D01*
X121721Y655463D01*
X121700Y655376D01*
X121682Y655288D01*
X121669Y655200D01*
X121659Y655111D01*
X121653Y655022D01*
X121651Y654932D01*
X121653Y654842D01*
X121659Y654753D01*
X121669Y654664D01*
X121682Y654576D01*
X121700Y654488D01*
X121721Y654401D01*
X121746Y654315D01*
X121775Y654230D01*
X121807Y654146D01*
X121843Y654064D01*
X121883Y653984D01*
X121926Y653906D01*
X121973Y653829D01*
X122022Y653754D01*
X122075Y653682D01*
X122131Y653612D01*
X122190Y653545D01*
X122252Y653480D01*
X122317Y653418D01*
X122384Y653359D01*
X122454Y653303D01*
X122526Y653250D01*
X122601Y653201D01*
X122678Y653154D01*
X122756Y653111D01*
X122836Y653071D01*
X122918Y653035D01*
X123002Y653003D01*
X123087Y652974D01*
X123173Y652949D01*
X123260Y652928D01*
X123348Y652910D01*
X123436Y652897D01*
X123525Y652887D01*
X123614Y652881D01*
X123704Y652879D01*
X125757Y652879D01*
M02*
