G04 EAGLE Gerber X2 export*
%TF.Part,Single*%
%TF.FileFunction,Soldermask,Top,1*%
%TF.FilePolarity,Negative*%
%TF.GenerationSoftware,Autodesk,EAGLE,8.6.0*%
%TF.CreationDate,2018-05-28T12:08:45Z*%
G75*
%MOMM*%
%FSLAX34Y34*%
%LPD*%
%AMOC8*
5,1,8,0,0,1.08239X$1,22.5*%
G01*
%ADD10R,1.303200X1.203200*%
%ADD11C,1.854200*%
%ADD12R,1.854200X1.854200*%
%ADD13R,3.803200X3.803200*%
%ADD14R,0.453200X0.803200*%
%ADD15R,0.803200X0.453200*%
%ADD16C,4.521200*%
%ADD17C,1.879600*%
%ADD18C,3.505200*%
%ADD19C,2.082800*%
%ADD20R,1.422400X2.438400*%
%ADD21R,3.803200X2.403200*%
%ADD22R,1.753200X0.853200*%
%ADD23R,2.613200X3.303200*%
%ADD24R,1.803200X1.603200*%
%ADD25R,1.403200X1.603200*%
%ADD26R,1.003200X1.403200*%
%ADD27R,1.603200X1.803200*%
%ADD28R,1.625600X0.635000*%
%ADD29R,1.778000X2.082800*%
%ADD30R,1.203200X1.303200*%
%ADD31R,1.041400X0.482600*%
%ADD32R,0.482600X1.041400*%
%ADD33R,4.343400X4.343400*%
%ADD34C,0.965200*%
%ADD35R,1.403200X1.003200*%
%ADD36R,2.103200X1.303200*%
%ADD37R,2.082800X2.082800*%
%ADD38C,5.283200*%
%ADD39C,0.959600*%
%ADD40C,1.009600*%

G36*
X340111Y788669D02*
X340111Y788669D01*
X340111Y788670D01*
X340111Y831342D01*
X340107Y831347D01*
X340106Y831347D01*
X297434Y831347D01*
X297429Y831343D01*
X297429Y831342D01*
X297429Y788670D01*
X297433Y788665D01*
X297434Y788665D01*
X340106Y788665D01*
X340111Y788669D01*
G37*
G36*
X353573Y815339D02*
X353573Y815339D01*
X353573Y815340D01*
X353573Y819658D01*
X353569Y819663D01*
X353568Y819663D01*
X343662Y819663D01*
X343657Y819659D01*
X343657Y819658D01*
X343657Y815340D01*
X343661Y815335D01*
X343662Y815335D01*
X353568Y815335D01*
X353573Y815339D01*
G37*
G36*
X293883Y815339D02*
X293883Y815339D01*
X293883Y815340D01*
X293883Y819658D01*
X293879Y819663D01*
X293878Y819663D01*
X283972Y819663D01*
X283967Y819659D01*
X283967Y819658D01*
X283967Y815340D01*
X283971Y815335D01*
X283972Y815335D01*
X293878Y815335D01*
X293883Y815339D01*
G37*
G36*
X293883Y800353D02*
X293883Y800353D01*
X293883Y800354D01*
X293883Y804672D01*
X293879Y804677D01*
X293878Y804677D01*
X283972Y804677D01*
X283967Y804673D01*
X283967Y804672D01*
X283967Y800354D01*
X283971Y800349D01*
X283972Y800349D01*
X293878Y800349D01*
X293883Y800353D01*
G37*
G36*
X353573Y800353D02*
X353573Y800353D01*
X353573Y800354D01*
X353573Y804672D01*
X353569Y804677D01*
X353568Y804677D01*
X343662Y804677D01*
X343657Y804673D01*
X343657Y804672D01*
X343657Y800354D01*
X343661Y800349D01*
X343662Y800349D01*
X353568Y800349D01*
X353573Y800353D01*
G37*
G36*
X353573Y785367D02*
X353573Y785367D01*
X353573Y785368D01*
X353573Y789686D01*
X353569Y789691D01*
X353568Y789691D01*
X343662Y789691D01*
X343657Y789687D01*
X343657Y789686D01*
X343657Y785368D01*
X343661Y785363D01*
X343662Y785363D01*
X353568Y785363D01*
X353573Y785367D01*
G37*
G36*
X293883Y785367D02*
X293883Y785367D01*
X293883Y785368D01*
X293883Y789686D01*
X293879Y789691D01*
X293878Y789691D01*
X283972Y789691D01*
X283967Y789687D01*
X283967Y789686D01*
X283967Y785368D01*
X283971Y785363D01*
X283972Y785363D01*
X293878Y785363D01*
X293883Y785367D01*
G37*
G36*
X353573Y830325D02*
X353573Y830325D01*
X353573Y830326D01*
X353573Y834644D01*
X353569Y834649D01*
X353568Y834649D01*
X343662Y834649D01*
X343657Y834645D01*
X343657Y834644D01*
X343657Y830326D01*
X343661Y830321D01*
X343662Y830321D01*
X353568Y830321D01*
X353573Y830325D01*
G37*
G36*
X293883Y830325D02*
X293883Y830325D01*
X293883Y830326D01*
X293883Y834644D01*
X293879Y834649D01*
X293878Y834649D01*
X283972Y834649D01*
X283967Y834645D01*
X283967Y834644D01*
X283967Y830326D01*
X283971Y830321D01*
X283972Y830321D01*
X293878Y830321D01*
X293883Y830325D01*
G37*
G36*
X313441Y834897D02*
X313441Y834897D01*
X313441Y834898D01*
X313441Y844804D01*
X313437Y844809D01*
X313436Y844809D01*
X309118Y844809D01*
X309113Y844805D01*
X309113Y844804D01*
X309113Y834898D01*
X309117Y834893D01*
X309118Y834893D01*
X313436Y834893D01*
X313441Y834897D01*
G37*
G36*
X298455Y775207D02*
X298455Y775207D01*
X298455Y775208D01*
X298455Y785114D01*
X298451Y785119D01*
X298450Y785119D01*
X294132Y785119D01*
X294127Y785115D01*
X294127Y785114D01*
X294127Y775208D01*
X294131Y775203D01*
X294132Y775203D01*
X298450Y775203D01*
X298455Y775207D01*
G37*
G36*
X343413Y834897D02*
X343413Y834897D01*
X343413Y834898D01*
X343413Y844804D01*
X343409Y844809D01*
X343408Y844809D01*
X339090Y844809D01*
X339085Y844805D01*
X339085Y844804D01*
X339085Y834898D01*
X339089Y834893D01*
X339090Y834893D01*
X343408Y834893D01*
X343413Y834897D01*
G37*
G36*
X313441Y775207D02*
X313441Y775207D01*
X313441Y775208D01*
X313441Y785114D01*
X313437Y785119D01*
X313436Y785119D01*
X309118Y785119D01*
X309113Y785115D01*
X309113Y785114D01*
X309113Y775208D01*
X309117Y775203D01*
X309118Y775203D01*
X313436Y775203D01*
X313441Y775207D01*
G37*
G36*
X328427Y775207D02*
X328427Y775207D01*
X328427Y775208D01*
X328427Y785114D01*
X328423Y785119D01*
X328422Y785119D01*
X324104Y785119D01*
X324099Y785115D01*
X324099Y785114D01*
X324099Y775208D01*
X324103Y775203D01*
X324104Y775203D01*
X328422Y775203D01*
X328427Y775207D01*
G37*
G36*
X328427Y834897D02*
X328427Y834897D01*
X328427Y834898D01*
X328427Y844804D01*
X328423Y844809D01*
X328422Y844809D01*
X324104Y844809D01*
X324099Y844805D01*
X324099Y844804D01*
X324099Y834898D01*
X324103Y834893D01*
X324104Y834893D01*
X328422Y834893D01*
X328427Y834897D01*
G37*
G36*
X343413Y775207D02*
X343413Y775207D01*
X343413Y775208D01*
X343413Y785114D01*
X343409Y785119D01*
X343408Y785119D01*
X339090Y785119D01*
X339085Y785115D01*
X339085Y785114D01*
X339085Y775208D01*
X339089Y775203D01*
X339090Y775203D01*
X343408Y775203D01*
X343413Y775207D01*
G37*
G36*
X298455Y834897D02*
X298455Y834897D01*
X298455Y834898D01*
X298455Y844804D01*
X298451Y844809D01*
X298450Y844809D01*
X294132Y844809D01*
X294127Y844805D01*
X294127Y844804D01*
X294127Y834898D01*
X294131Y834893D01*
X294132Y834893D01*
X298450Y834893D01*
X298455Y834897D01*
G37*
G36*
X333253Y775207D02*
X333253Y775207D01*
X333253Y775208D01*
X333253Y785114D01*
X333249Y785119D01*
X333248Y785119D01*
X329184Y785119D01*
X329179Y785115D01*
X329179Y785114D01*
X329179Y775208D01*
X329183Y775203D01*
X329184Y775203D01*
X333248Y775203D01*
X333253Y775207D01*
G37*
G36*
X338333Y775207D02*
X338333Y775207D01*
X338333Y775208D01*
X338333Y785114D01*
X338329Y785119D01*
X338328Y785119D01*
X334264Y785119D01*
X334259Y785115D01*
X334259Y785114D01*
X334259Y775208D01*
X334263Y775203D01*
X334264Y775203D01*
X338328Y775203D01*
X338333Y775207D01*
G37*
G36*
X323347Y834897D02*
X323347Y834897D01*
X323347Y834898D01*
X323347Y844804D01*
X323343Y844809D01*
X323342Y844809D01*
X319278Y844809D01*
X319273Y844805D01*
X319273Y844804D01*
X319273Y834898D01*
X319277Y834893D01*
X319278Y834893D01*
X323342Y834893D01*
X323347Y834897D01*
G37*
G36*
X293883Y820419D02*
X293883Y820419D01*
X293883Y820420D01*
X293883Y824484D01*
X293879Y824489D01*
X293878Y824489D01*
X283972Y824489D01*
X283967Y824485D01*
X283967Y824484D01*
X283967Y820420D01*
X283971Y820415D01*
X283972Y820415D01*
X293878Y820415D01*
X293883Y820419D01*
G37*
G36*
X353573Y820419D02*
X353573Y820419D01*
X353573Y820420D01*
X353573Y824484D01*
X353569Y824489D01*
X353568Y824489D01*
X343662Y824489D01*
X343657Y824485D01*
X343657Y824484D01*
X343657Y820420D01*
X343661Y820415D01*
X343662Y820415D01*
X353568Y820415D01*
X353573Y820419D01*
G37*
G36*
X308361Y834897D02*
X308361Y834897D01*
X308361Y834898D01*
X308361Y844804D01*
X308357Y844809D01*
X308356Y844809D01*
X304292Y844809D01*
X304287Y844805D01*
X304287Y844804D01*
X304287Y834898D01*
X304291Y834893D01*
X304292Y834893D01*
X308356Y834893D01*
X308361Y834897D01*
G37*
G36*
X323347Y775207D02*
X323347Y775207D01*
X323347Y775208D01*
X323347Y785114D01*
X323343Y785119D01*
X323342Y785119D01*
X319278Y785119D01*
X319273Y785115D01*
X319273Y785114D01*
X319273Y775208D01*
X319277Y775203D01*
X319278Y775203D01*
X323342Y775203D01*
X323347Y775207D01*
G37*
G36*
X303281Y775207D02*
X303281Y775207D01*
X303281Y775208D01*
X303281Y785114D01*
X303277Y785119D01*
X303276Y785119D01*
X299212Y785119D01*
X299207Y785115D01*
X299207Y785114D01*
X299207Y775208D01*
X299211Y775203D01*
X299212Y775203D01*
X303276Y775203D01*
X303281Y775207D01*
G37*
G36*
X308361Y775207D02*
X308361Y775207D01*
X308361Y775208D01*
X308361Y785114D01*
X308357Y785119D01*
X308356Y785119D01*
X304292Y785119D01*
X304287Y785115D01*
X304287Y785114D01*
X304287Y775208D01*
X304291Y775203D01*
X304292Y775203D01*
X308356Y775203D01*
X308361Y775207D01*
G37*
G36*
X333253Y834897D02*
X333253Y834897D01*
X333253Y834898D01*
X333253Y844804D01*
X333249Y844809D01*
X333248Y844809D01*
X329184Y844809D01*
X329179Y844805D01*
X329179Y844804D01*
X329179Y834898D01*
X329183Y834893D01*
X329184Y834893D01*
X333248Y834893D01*
X333253Y834897D01*
G37*
G36*
X318267Y775207D02*
X318267Y775207D01*
X318267Y775208D01*
X318267Y785114D01*
X318263Y785119D01*
X318262Y785119D01*
X314198Y785119D01*
X314193Y785115D01*
X314193Y785114D01*
X314193Y775208D01*
X314197Y775203D01*
X314198Y775203D01*
X318262Y775203D01*
X318267Y775207D01*
G37*
G36*
X318267Y834897D02*
X318267Y834897D01*
X318267Y834898D01*
X318267Y844804D01*
X318263Y844809D01*
X318262Y844809D01*
X314198Y844809D01*
X314193Y844805D01*
X314193Y844804D01*
X314193Y834898D01*
X314197Y834893D01*
X314198Y834893D01*
X318262Y834893D01*
X318267Y834897D01*
G37*
G36*
X353573Y810513D02*
X353573Y810513D01*
X353573Y810514D01*
X353573Y814578D01*
X353569Y814583D01*
X353568Y814583D01*
X343662Y814583D01*
X343657Y814579D01*
X343657Y814578D01*
X343657Y810514D01*
X343661Y810509D01*
X343662Y810509D01*
X353568Y810509D01*
X353573Y810513D01*
G37*
G36*
X293883Y810513D02*
X293883Y810513D01*
X293883Y810514D01*
X293883Y814578D01*
X293879Y814583D01*
X293878Y814583D01*
X283972Y814583D01*
X283967Y814579D01*
X283967Y814578D01*
X283967Y810514D01*
X283971Y810509D01*
X283972Y810509D01*
X293878Y810509D01*
X293883Y810513D01*
G37*
G36*
X303281Y834897D02*
X303281Y834897D01*
X303281Y834898D01*
X303281Y844804D01*
X303277Y844809D01*
X303276Y844809D01*
X299212Y844809D01*
X299207Y844805D01*
X299207Y844804D01*
X299207Y834898D01*
X299211Y834893D01*
X299212Y834893D01*
X303276Y834893D01*
X303281Y834897D01*
G37*
G36*
X338333Y834897D02*
X338333Y834897D01*
X338333Y834898D01*
X338333Y844804D01*
X338329Y844809D01*
X338328Y844809D01*
X334264Y844809D01*
X334259Y844805D01*
X334259Y844804D01*
X334259Y834898D01*
X334263Y834893D01*
X334264Y834893D01*
X338328Y834893D01*
X338333Y834897D01*
G37*
G36*
X353573Y790447D02*
X353573Y790447D01*
X353573Y790448D01*
X353573Y794512D01*
X353569Y794517D01*
X353568Y794517D01*
X343662Y794517D01*
X343657Y794513D01*
X343657Y794512D01*
X343657Y790448D01*
X343661Y790443D01*
X343662Y790443D01*
X353568Y790443D01*
X353573Y790447D01*
G37*
G36*
X293883Y790447D02*
X293883Y790447D01*
X293883Y790448D01*
X293883Y794512D01*
X293879Y794517D01*
X293878Y794517D01*
X283972Y794517D01*
X283967Y794513D01*
X283967Y794512D01*
X283967Y790448D01*
X283971Y790443D01*
X283972Y790443D01*
X293878Y790443D01*
X293883Y790447D01*
G37*
G36*
X353573Y795527D02*
X353573Y795527D01*
X353573Y795528D01*
X353573Y799592D01*
X353569Y799597D01*
X353568Y799597D01*
X343662Y799597D01*
X343657Y799593D01*
X343657Y799592D01*
X343657Y795528D01*
X343661Y795523D01*
X343662Y795523D01*
X353568Y795523D01*
X353573Y795527D01*
G37*
G36*
X353573Y805433D02*
X353573Y805433D01*
X353573Y805434D01*
X353573Y809498D01*
X353569Y809503D01*
X353568Y809503D01*
X343662Y809503D01*
X343657Y809499D01*
X343657Y809498D01*
X343657Y805434D01*
X343661Y805429D01*
X343662Y805429D01*
X353568Y805429D01*
X353573Y805433D01*
G37*
G36*
X293883Y805433D02*
X293883Y805433D01*
X293883Y805434D01*
X293883Y809498D01*
X293879Y809503D01*
X293878Y809503D01*
X283972Y809503D01*
X283967Y809499D01*
X283967Y809498D01*
X283967Y805434D01*
X283971Y805429D01*
X283972Y805429D01*
X293878Y805429D01*
X293883Y805433D01*
G37*
G36*
X353573Y825499D02*
X353573Y825499D01*
X353573Y825500D01*
X353573Y829564D01*
X353569Y829569D01*
X353568Y829569D01*
X343662Y829569D01*
X343657Y829565D01*
X343657Y829564D01*
X343657Y825500D01*
X343661Y825495D01*
X343662Y825495D01*
X353568Y825495D01*
X353573Y825499D01*
G37*
G36*
X293883Y825499D02*
X293883Y825499D01*
X293883Y825500D01*
X293883Y829564D01*
X293879Y829569D01*
X293878Y829569D01*
X283972Y829569D01*
X283967Y829565D01*
X283967Y829564D01*
X283967Y825500D01*
X283971Y825495D01*
X283972Y825495D01*
X293878Y825495D01*
X293883Y825499D01*
G37*
G36*
X293883Y795527D02*
X293883Y795527D01*
X293883Y795528D01*
X293883Y799592D01*
X293879Y799597D01*
X293878Y799597D01*
X283972Y799597D01*
X283967Y799593D01*
X283967Y799592D01*
X283967Y795528D01*
X283971Y795523D01*
X283972Y795523D01*
X293878Y795523D01*
X293883Y795527D01*
G37*
%LPC*%
G36*
X308869Y800105D02*
X308869Y800105D01*
X308869Y804159D01*
X312923Y804159D01*
X312923Y800105D01*
X308869Y800105D01*
G37*
%LPD*%
%LPC*%
G36*
X316743Y800105D02*
X316743Y800105D01*
X316743Y804159D01*
X320797Y804159D01*
X320797Y800105D01*
X316743Y800105D01*
G37*
%LPD*%
%LPC*%
G36*
X324617Y800105D02*
X324617Y800105D01*
X324617Y804159D01*
X328671Y804159D01*
X328671Y800105D01*
X324617Y800105D01*
G37*
%LPD*%
%LPC*%
G36*
X332491Y800105D02*
X332491Y800105D01*
X332491Y804159D01*
X336545Y804159D01*
X336545Y800105D01*
X332491Y800105D01*
G37*
%LPD*%
%LPC*%
G36*
X300995Y800105D02*
X300995Y800105D01*
X300995Y804159D01*
X305049Y804159D01*
X305049Y800105D01*
X300995Y800105D01*
G37*
%LPD*%
%LPC*%
G36*
X332491Y807979D02*
X332491Y807979D01*
X332491Y812033D01*
X336545Y812033D01*
X336545Y807979D01*
X332491Y807979D01*
G37*
%LPD*%
%LPC*%
G36*
X300995Y792231D02*
X300995Y792231D01*
X300995Y796285D01*
X305049Y796285D01*
X305049Y792231D01*
X300995Y792231D01*
G37*
%LPD*%
%LPC*%
G36*
X316743Y792231D02*
X316743Y792231D01*
X316743Y796285D01*
X320797Y796285D01*
X320797Y792231D01*
X316743Y792231D01*
G37*
%LPD*%
%LPC*%
G36*
X324617Y792231D02*
X324617Y792231D01*
X324617Y796285D01*
X328671Y796285D01*
X328671Y792231D01*
X324617Y792231D01*
G37*
%LPD*%
%LPC*%
G36*
X332491Y792231D02*
X332491Y792231D01*
X332491Y796285D01*
X336545Y796285D01*
X336545Y792231D01*
X332491Y792231D01*
G37*
%LPD*%
%LPC*%
G36*
X308869Y792231D02*
X308869Y792231D01*
X308869Y796285D01*
X312923Y796285D01*
X312923Y792231D01*
X308869Y792231D01*
G37*
%LPD*%
%LPC*%
G36*
X324617Y807979D02*
X324617Y807979D01*
X324617Y812033D01*
X328671Y812033D01*
X328671Y807979D01*
X324617Y807979D01*
G37*
%LPD*%
%LPC*%
G36*
X324617Y823727D02*
X324617Y823727D01*
X324617Y827781D01*
X328671Y827781D01*
X328671Y823727D01*
X324617Y823727D01*
G37*
%LPD*%
%LPC*%
G36*
X308869Y807979D02*
X308869Y807979D01*
X308869Y812033D01*
X312923Y812033D01*
X312923Y807979D01*
X308869Y807979D01*
G37*
%LPD*%
%LPC*%
G36*
X300995Y807979D02*
X300995Y807979D01*
X300995Y812033D01*
X305049Y812033D01*
X305049Y807979D01*
X300995Y807979D01*
G37*
%LPD*%
%LPC*%
G36*
X316743Y823727D02*
X316743Y823727D01*
X316743Y827781D01*
X320797Y827781D01*
X320797Y823727D01*
X316743Y823727D01*
G37*
%LPD*%
%LPC*%
G36*
X300995Y823727D02*
X300995Y823727D01*
X300995Y827781D01*
X305049Y827781D01*
X305049Y823727D01*
X300995Y823727D01*
G37*
%LPD*%
%LPC*%
G36*
X332491Y815853D02*
X332491Y815853D01*
X332491Y819907D01*
X336545Y819907D01*
X336545Y815853D01*
X332491Y815853D01*
G37*
%LPD*%
%LPC*%
G36*
X324617Y815853D02*
X324617Y815853D01*
X324617Y819907D01*
X328671Y819907D01*
X328671Y815853D01*
X324617Y815853D01*
G37*
%LPD*%
%LPC*%
G36*
X316743Y815853D02*
X316743Y815853D01*
X316743Y819907D01*
X320797Y819907D01*
X320797Y815853D01*
X316743Y815853D01*
G37*
%LPD*%
%LPC*%
G36*
X308869Y815853D02*
X308869Y815853D01*
X308869Y819907D01*
X312923Y819907D01*
X312923Y815853D01*
X308869Y815853D01*
G37*
%LPD*%
%LPC*%
G36*
X300995Y815853D02*
X300995Y815853D01*
X300995Y819907D01*
X305049Y819907D01*
X305049Y815853D01*
X300995Y815853D01*
G37*
%LPD*%
%LPC*%
G36*
X308869Y823727D02*
X308869Y823727D01*
X308869Y827781D01*
X312923Y827781D01*
X312923Y823727D01*
X308869Y823727D01*
G37*
%LPD*%
%LPC*%
G36*
X332491Y823727D02*
X332491Y823727D01*
X332491Y827781D01*
X336545Y827781D01*
X336545Y823727D01*
X332491Y823727D01*
G37*
%LPD*%
%LPC*%
G36*
X316743Y807979D02*
X316743Y807979D01*
X316743Y812033D01*
X320797Y812033D01*
X320797Y807979D01*
X316743Y807979D01*
G37*
%LPD*%
D10*
X169300Y236538D03*
X186300Y236538D03*
D11*
X157363Y292100D03*
D12*
X182363Y292100D03*
D11*
X265313Y292100D03*
D12*
X290313Y292100D03*
D10*
X285995Y233680D03*
X268995Y233680D03*
D13*
X219075Y469900D03*
D14*
X219075Y493900D03*
X224075Y493900D03*
X229075Y493900D03*
X234075Y493900D03*
X214075Y493900D03*
X209075Y493900D03*
X204075Y493900D03*
X219075Y445900D03*
X224075Y445900D03*
X229075Y445900D03*
X234075Y445900D03*
D15*
X243075Y469900D03*
X243075Y464900D03*
X243075Y459900D03*
X243075Y454900D03*
X243075Y474900D03*
X243075Y479900D03*
X243075Y484900D03*
X195075Y469900D03*
X195075Y464900D03*
X195075Y459900D03*
X195075Y454900D03*
X195075Y474900D03*
X195075Y479900D03*
X195075Y484900D03*
D14*
X214075Y445900D03*
X209075Y445900D03*
X204075Y445900D03*
D16*
X109695Y280353D03*
X49695Y280353D03*
X79695Y233353D03*
D17*
X107188Y100784D03*
X107188Y125784D03*
X87376Y125784D03*
X87376Y100784D03*
D18*
X60198Y53086D03*
X60198Y173482D03*
D19*
X152083Y143447D03*
X152083Y118047D03*
X152083Y92647D03*
D10*
X266138Y357188D03*
X283138Y357188D03*
D20*
X203899Y162687D03*
X227013Y162687D03*
X250127Y162687D03*
D21*
X227013Y224665D03*
D11*
X295085Y601091D03*
X345885Y601091D03*
D10*
X345830Y565468D03*
X362830Y565468D03*
X296790Y566420D03*
X279790Y566420D03*
X296300Y471488D03*
X313300Y471488D03*
X296300Y498475D03*
X313300Y498475D03*
X334400Y498475D03*
X351400Y498475D03*
X259788Y441325D03*
X276788Y441325D03*
X270900Y411163D03*
X287900Y411163D03*
X157408Y392113D03*
X140408Y392113D03*
X198048Y421958D03*
X181048Y421958D03*
X181365Y391795D03*
X198365Y391795D03*
X114690Y520700D03*
X131690Y520700D03*
X114690Y495300D03*
X131690Y495300D03*
X114690Y469900D03*
X131690Y469900D03*
X114690Y444500D03*
X131690Y444500D03*
X114690Y419100D03*
X131690Y419100D03*
D19*
X25400Y520700D03*
X25400Y495300D03*
X25400Y469900D03*
X25400Y444500D03*
X25400Y419100D03*
X25400Y393700D03*
X217488Y119063D03*
X192088Y119063D03*
X334963Y122238D03*
X309563Y122238D03*
D10*
X232800Y398463D03*
X249800Y398463D03*
D19*
X517589Y920115D03*
X517589Y985139D03*
X562801Y920115D03*
X562801Y985139D03*
X420688Y646875D03*
X420688Y621475D03*
X420688Y596075D03*
X420688Y570675D03*
X420688Y545275D03*
X420688Y519875D03*
X420688Y494475D03*
X420688Y469075D03*
X420688Y422275D03*
X420688Y396875D03*
X420688Y371475D03*
X420688Y346075D03*
X420688Y320675D03*
X420688Y268288D03*
X420688Y242888D03*
X420688Y217488D03*
X678434Y142240D03*
X678434Y116840D03*
D10*
X559698Y89662D03*
X576698Y89662D03*
D22*
X521644Y156210D03*
X521644Y143510D03*
X521644Y130810D03*
X521644Y118110D03*
X576144Y118110D03*
X576144Y130810D03*
X576144Y143510D03*
X576144Y156210D03*
D23*
X548894Y137160D03*
D10*
X616594Y109728D03*
X633594Y109728D03*
X633340Y152654D03*
X616340Y152654D03*
X492624Y156210D03*
X475624Y156210D03*
X633340Y130810D03*
X616340Y130810D03*
D24*
X491490Y90140D03*
X491490Y118140D03*
D25*
X422162Y116586D03*
X392162Y116586D03*
D10*
X409312Y84582D03*
X392312Y84582D03*
D24*
X723392Y116302D03*
X723392Y144302D03*
D26*
X758334Y144272D03*
X776334Y144272D03*
X758588Y114554D03*
X776588Y114554D03*
D27*
X835182Y151384D03*
X807182Y151384D03*
X836198Y106934D03*
X808198Y106934D03*
D10*
X869578Y150876D03*
X886578Y150876D03*
X871610Y106680D03*
X888610Y106680D03*
D28*
X560832Y250698D03*
X560832Y244348D03*
X560832Y237744D03*
X560832Y231394D03*
X604520Y231394D03*
X604520Y237744D03*
X604520Y244348D03*
X604520Y250698D03*
D29*
X582676Y241046D03*
D27*
X541304Y194818D03*
X513304Y194818D03*
D30*
X648970Y237608D03*
X648970Y220608D03*
D10*
X527168Y269240D03*
X510168Y269240D03*
X510168Y222504D03*
X527168Y222504D03*
X510168Y245872D03*
X527168Y245872D03*
X572906Y205740D03*
X589906Y205740D03*
X462906Y116078D03*
X445906Y116078D03*
X486528Y194818D03*
X469528Y194818D03*
D19*
X616712Y303276D03*
X616712Y277876D03*
D24*
X662940Y274798D03*
X662940Y302798D03*
D26*
X700676Y269748D03*
X718676Y269748D03*
X700676Y302514D03*
X718676Y302514D03*
D27*
X782096Y240030D03*
X754096Y240030D03*
X781842Y290576D03*
X753842Y290576D03*
D10*
X817508Y240030D03*
X834508Y240030D03*
X817254Y290068D03*
X834254Y290068D03*
D31*
X289020Y832506D03*
X289020Y827506D03*
X289020Y822506D03*
X289020Y817506D03*
X289020Y812506D03*
X289020Y807506D03*
X289020Y802506D03*
X289020Y797506D03*
X289020Y792506D03*
X289020Y787506D03*
D32*
X296264Y780256D03*
X301266Y780256D03*
X306267Y780256D03*
X311268Y780256D03*
X316269Y780256D03*
X321271Y780256D03*
X326272Y780256D03*
X331273Y780256D03*
X336274Y780256D03*
X341276Y780256D03*
D31*
X348520Y787506D03*
X348520Y792506D03*
X348520Y797506D03*
X348520Y802506D03*
X348520Y807506D03*
X348520Y812506D03*
X348520Y817506D03*
X348520Y822506D03*
X348520Y827506D03*
X348520Y832506D03*
D32*
X341276Y839756D03*
X336274Y839756D03*
X331273Y839756D03*
X326272Y839756D03*
X321271Y839756D03*
X316269Y839756D03*
X311268Y839756D03*
X306267Y839756D03*
X301266Y839756D03*
X296264Y839756D03*
D33*
X318770Y810006D03*
D34*
X303022Y794258D03*
X303022Y802132D03*
X303022Y810006D03*
X303022Y817880D03*
X303022Y825754D03*
X310896Y794258D03*
X310896Y802132D03*
X310896Y810006D03*
X310896Y817880D03*
X310896Y825754D03*
X318770Y794258D03*
X318770Y802132D03*
X318770Y810006D03*
X318770Y817880D03*
X318770Y825754D03*
X326644Y794258D03*
X326644Y802132D03*
X326644Y810006D03*
X326644Y817880D03*
X326644Y825754D03*
X334518Y794258D03*
X334518Y802132D03*
X334518Y810006D03*
X334518Y817880D03*
X334518Y825754D03*
D30*
X296418Y757800D03*
X296418Y740800D03*
D35*
X331470Y758808D03*
X331470Y740808D03*
D10*
X239658Y842518D03*
X256658Y842518D03*
D26*
X239666Y773684D03*
X257666Y773684D03*
D10*
X378342Y860806D03*
X395342Y860806D03*
X264024Y868934D03*
X247024Y868934D03*
D26*
X257666Y751586D03*
X239666Y751586D03*
D10*
X240166Y817626D03*
X257166Y817626D03*
X195208Y820928D03*
X212208Y820928D03*
X194954Y837692D03*
X211954Y837692D03*
X187588Y686308D03*
X204588Y686308D03*
X187588Y669544D03*
X204588Y669544D03*
D36*
X295444Y936174D03*
X332444Y959174D03*
X295444Y959174D03*
X332444Y936174D03*
D30*
X292608Y886850D03*
X292608Y903850D03*
X334518Y903342D03*
X334518Y886342D03*
D10*
X246262Y904240D03*
X263262Y904240D03*
X360308Y905002D03*
X377308Y905002D03*
X378088Y840232D03*
X395088Y840232D03*
D19*
X395224Y919226D03*
X395224Y984250D03*
X440436Y919226D03*
X440436Y984250D03*
D10*
X396104Y817626D03*
X379104Y817626D03*
X350656Y880364D03*
X367656Y880364D03*
X342020Y860806D03*
X359020Y860806D03*
D30*
X273558Y745354D03*
X273558Y728354D03*
D10*
X257420Y792480D03*
X240420Y792480D03*
X222114Y792480D03*
X205114Y792480D03*
D37*
X112752Y687550D03*
D19*
X112752Y715250D03*
X112752Y742950D03*
X112752Y770650D03*
X112752Y798350D03*
X84352Y701450D03*
X84352Y729150D03*
X84352Y756750D03*
X84352Y784450D03*
D38*
X98552Y617950D03*
X98552Y867950D03*
D10*
X221352Y773684D03*
X204352Y773684D03*
D19*
X420688Y890270D03*
X420688Y864870D03*
X420688Y839470D03*
X420688Y814070D03*
X420688Y788670D03*
X420688Y763270D03*
X420688Y737870D03*
X420688Y712470D03*
X543814Y320040D03*
X543814Y345440D03*
X543814Y370840D03*
X543814Y396240D03*
X543814Y421640D03*
D18*
X812800Y53340D03*
X812800Y982980D03*
X187960Y982980D03*
X187960Y53340D03*
D39*
X209550Y511175D03*
X123825Y371475D03*
X244475Y433388D03*
X309563Y425450D03*
D40*
X655320Y103886D03*
X784098Y179832D03*
X695198Y223266D03*
X764540Y313690D03*
D39*
X321056Y870204D03*
X395224Y871474D03*
X237236Y859790D03*
X483362Y401828D03*
X204978Y925068D03*
X190500Y868680D03*
X175768Y646938D03*
X184658Y713232D03*
X202883Y528638D03*
X242888Y504825D03*
X349250Y544513D03*
X368300Y519113D03*
X111125Y550863D03*
X261938Y550863D03*
X304800Y441325D03*
X214313Y528638D03*
X223838Y515938D03*
X234442Y591312D03*
X422656Y687578D03*
X390144Y780034D03*
X397002Y790956D03*
X225425Y433388D03*
X231775Y409575D03*
X179388Y454025D03*
X317500Y415925D03*
X352425Y388938D03*
X365125Y346075D03*
X195263Y436563D03*
X295275Y428625D03*
X352425Y398463D03*
X85725Y445770D03*
X200152Y650240D03*
X334518Y705358D03*
X286004Y757682D03*
D40*
X566420Y270764D03*
X619252Y250698D03*
X619506Y231394D03*
D39*
X395986Y828548D03*
X363474Y841502D03*
X278638Y868172D03*
X226060Y812038D03*
X224282Y850900D03*
X195072Y850392D03*
X195326Y808736D03*
X186182Y697738D03*
X185928Y656844D03*
X305562Y886968D03*
X383032Y769874D03*
X370840Y781812D03*
X378460Y828294D03*
M02*
