G04 EAGLE Gerber X2 export*
%TF.Part,Single*%
%TF.FileFunction,Soldermask,Bot,1*%
%TF.FilePolarity,Negative*%
%TF.GenerationSoftware,Autodesk,EAGLE,8.6.0*%
%TF.CreationDate,2018-05-28T12:08:45Z*%
G75*
%MOMM*%
%FSLAX34Y34*%
%LPD*%
%AMOC8*
5,1,8,0,0,1.08239X$1,22.5*%
G01*
%ADD10C,1.854200*%
%ADD11R,1.854200X1.854200*%
%ADD12C,4.521200*%
%ADD13C,1.879600*%
%ADD14C,3.505200*%
%ADD15C,2.082800*%
%ADD16R,1.203200X1.303200*%
%ADD17R,1.303200X1.203200*%
%ADD18R,1.003200X1.403200*%
%ADD19C,0.965200*%
%ADD20R,0.803200X0.803200*%
%ADD21R,0.603200X0.803200*%
%ADD22R,2.082800X2.082800*%
%ADD23C,5.283200*%
%ADD24C,0.959600*%
%ADD25C,1.009600*%


D10*
X157363Y292100D03*
D11*
X182363Y292100D03*
D10*
X265313Y292100D03*
D11*
X290313Y292100D03*
D12*
X109695Y280353D03*
X49695Y280353D03*
X79695Y233353D03*
D13*
X107188Y100784D03*
X107188Y125784D03*
X87376Y125784D03*
X87376Y100784D03*
D14*
X60198Y53086D03*
X60198Y173482D03*
D15*
X152083Y143447D03*
X152083Y118047D03*
X152083Y92647D03*
D16*
X191135Y528565D03*
X191135Y511565D03*
D17*
X257248Y506095D03*
X274248Y506095D03*
D18*
X207755Y567690D03*
X189755Y567690D03*
D17*
X229308Y536893D03*
X246308Y536893D03*
D10*
X295085Y601091D03*
X345885Y601091D03*
D17*
X330763Y540068D03*
X313763Y540068D03*
X218513Y421323D03*
X235513Y421323D03*
D15*
X25400Y520700D03*
X25400Y495300D03*
X25400Y469900D03*
X25400Y444500D03*
X25400Y419100D03*
X25400Y393700D03*
X217488Y119063D03*
X192088Y119063D03*
X334963Y122238D03*
X309563Y122238D03*
X517589Y920115D03*
X517589Y985139D03*
X562801Y920115D03*
X562801Y985139D03*
X420688Y646875D03*
X420688Y621475D03*
X420688Y596075D03*
X420688Y570675D03*
X420688Y545275D03*
X420688Y519875D03*
X420688Y494475D03*
X420688Y469075D03*
X420688Y422275D03*
X420688Y396875D03*
X420688Y371475D03*
X420688Y346075D03*
X420688Y320675D03*
X420688Y268288D03*
X420688Y242888D03*
X420688Y217488D03*
X678434Y142240D03*
X678434Y116840D03*
X616712Y303276D03*
X616712Y277876D03*
D19*
X303022Y794258D03*
X303022Y802132D03*
X303022Y810006D03*
X303022Y817880D03*
X303022Y825754D03*
X310896Y794258D03*
X310896Y802132D03*
X310896Y810006D03*
X310896Y817880D03*
X310896Y825754D03*
X318770Y794258D03*
X318770Y802132D03*
X318770Y810006D03*
X318770Y817880D03*
X318770Y825754D03*
X326644Y794258D03*
X326644Y802132D03*
X326644Y810006D03*
X326644Y817880D03*
X326644Y825754D03*
X334518Y794258D03*
X334518Y802132D03*
X334518Y810006D03*
X334518Y817880D03*
X334518Y825754D03*
D20*
X220352Y879712D03*
D21*
X212852Y879712D03*
D20*
X205352Y879712D03*
X220352Y861712D03*
D21*
X212852Y861712D03*
D20*
X205352Y861712D03*
X163964Y651366D03*
D21*
X156464Y651366D03*
D20*
X148964Y651366D03*
X163964Y633366D03*
D21*
X156464Y633366D03*
D20*
X148964Y633366D03*
D15*
X395224Y919226D03*
X395224Y984250D03*
X440436Y919226D03*
X440436Y984250D03*
D22*
X112752Y687550D03*
D15*
X112752Y715250D03*
X112752Y742950D03*
X112752Y770650D03*
X112752Y798350D03*
X84352Y701450D03*
X84352Y729150D03*
X84352Y756750D03*
X84352Y784450D03*
D23*
X98552Y617950D03*
X98552Y867950D03*
D15*
X420688Y890270D03*
X420688Y864870D03*
X420688Y839470D03*
X420688Y814070D03*
X420688Y788670D03*
X420688Y763270D03*
X420688Y737870D03*
X420688Y712470D03*
X543814Y320040D03*
X543814Y345440D03*
X543814Y370840D03*
X543814Y396240D03*
X543814Y421640D03*
D14*
X812800Y53340D03*
X812800Y982980D03*
X187960Y982980D03*
X187960Y53340D03*
D24*
X209550Y511175D03*
X123825Y371475D03*
X244475Y433388D03*
X309563Y425450D03*
D25*
X655320Y103886D03*
X784098Y179832D03*
X695198Y223266D03*
X764540Y313690D03*
D24*
X321056Y870204D03*
X395224Y871474D03*
X237236Y859790D03*
X483362Y401828D03*
X204978Y925068D03*
X190500Y868680D03*
X175768Y646938D03*
X184658Y713232D03*
X202883Y528638D03*
X242888Y504825D03*
X349250Y544513D03*
X368300Y519113D03*
X111125Y550863D03*
X261938Y550863D03*
X304800Y441325D03*
X214313Y528638D03*
X223838Y515938D03*
X234442Y591312D03*
X422656Y687578D03*
X390144Y780034D03*
X397002Y790956D03*
X225425Y433388D03*
X231775Y409575D03*
X179388Y454025D03*
X317500Y415925D03*
X352425Y388938D03*
X365125Y346075D03*
X195263Y436563D03*
X295275Y428625D03*
X352425Y398463D03*
X85725Y445770D03*
X200152Y650240D03*
X334518Y705358D03*
X286004Y757682D03*
D25*
X566420Y270764D03*
X619252Y250698D03*
X619506Y231394D03*
D24*
X395986Y828548D03*
X363474Y841502D03*
X278638Y868172D03*
X226060Y812038D03*
X224282Y850900D03*
X195072Y850392D03*
X195326Y808736D03*
X186182Y697738D03*
X185928Y656844D03*
X305562Y886968D03*
X383032Y769874D03*
X370840Y781812D03*
X378460Y828294D03*
M02*
