G75*
%MOIN*%
%OFA0B0*%
%FSLAX25Y25*%
%IPPOS*%
%LPD*%
%AMOC8*
5,1,8,0,0,1.08239X$1,22.5*
%
%ADD10C,0.01300*%
%ADD11C,0.00900*%
%ADD12C,0.00700*%
%ADD13C,0.00800*%
%ADD14C,0.00394*%
%ADD15C,0.00500*%
D10*
X0045650Y0271775D02*
X0047550Y0277475D01*
X0049450Y0271775D01*
X0048975Y0273200D02*
X0046125Y0273200D01*
X0052326Y0271775D02*
X0053909Y0271775D01*
X0052326Y0271775D02*
X0052326Y0277475D01*
X0053909Y0277475D01*
X0053987Y0277473D01*
X0054064Y0277467D01*
X0054141Y0277458D01*
X0054218Y0277445D01*
X0054294Y0277428D01*
X0054369Y0277407D01*
X0054442Y0277382D01*
X0054515Y0277355D01*
X0054586Y0277323D01*
X0054655Y0277288D01*
X0054723Y0277250D01*
X0054788Y0277208D01*
X0054852Y0277163D01*
X0054913Y0277116D01*
X0054972Y0277065D01*
X0055028Y0277011D01*
X0055082Y0276955D01*
X0055133Y0276896D01*
X0055180Y0276835D01*
X0055225Y0276771D01*
X0055267Y0276706D01*
X0055305Y0276638D01*
X0055340Y0276569D01*
X0055372Y0276498D01*
X0055399Y0276425D01*
X0055424Y0276352D01*
X0055445Y0276277D01*
X0055462Y0276201D01*
X0055475Y0276124D01*
X0055484Y0276047D01*
X0055490Y0275970D01*
X0055492Y0275892D01*
X0055492Y0273358D01*
X0055490Y0273280D01*
X0055484Y0273203D01*
X0055475Y0273126D01*
X0055462Y0273049D01*
X0055445Y0272973D01*
X0055424Y0272898D01*
X0055399Y0272825D01*
X0055372Y0272752D01*
X0055340Y0272681D01*
X0055305Y0272612D01*
X0055267Y0272544D01*
X0055225Y0272479D01*
X0055180Y0272415D01*
X0055133Y0272354D01*
X0055082Y0272295D01*
X0055028Y0272239D01*
X0054972Y0272185D01*
X0054913Y0272134D01*
X0054852Y0272087D01*
X0054788Y0272042D01*
X0054723Y0272000D01*
X0054655Y0271962D01*
X0054586Y0271927D01*
X0054515Y0271896D01*
X0054442Y0271868D01*
X0054369Y0271843D01*
X0054294Y0271822D01*
X0054218Y0271805D01*
X0054141Y0271792D01*
X0054064Y0271783D01*
X0053987Y0271777D01*
X0053909Y0271775D01*
X0059272Y0275100D02*
X0061013Y0274150D01*
X0060380Y0271775D02*
X0060279Y0271777D01*
X0060179Y0271783D01*
X0060079Y0271792D01*
X0059979Y0271805D01*
X0059880Y0271822D01*
X0059781Y0271843D01*
X0059684Y0271867D01*
X0059587Y0271895D01*
X0059492Y0271927D01*
X0059397Y0271962D01*
X0059305Y0272001D01*
X0059213Y0272043D01*
X0059123Y0272088D01*
X0059036Y0272137D01*
X0058950Y0272189D01*
X0058866Y0272245D01*
X0058784Y0272303D01*
X0058704Y0272365D01*
X0058627Y0272429D01*
X0058552Y0272497D01*
X0058480Y0272567D01*
X0061013Y0274150D02*
X0061072Y0274113D01*
X0061130Y0274072D01*
X0061185Y0274029D01*
X0061238Y0273982D01*
X0061288Y0273933D01*
X0061335Y0273881D01*
X0061379Y0273826D01*
X0061421Y0273769D01*
X0061459Y0273710D01*
X0061494Y0273649D01*
X0061525Y0273586D01*
X0061553Y0273522D01*
X0061577Y0273456D01*
X0061598Y0273389D01*
X0061615Y0273321D01*
X0061629Y0273252D01*
X0061638Y0273182D01*
X0061644Y0273112D01*
X0061646Y0273042D01*
X0061647Y0273042D02*
X0061645Y0272973D01*
X0061640Y0272905D01*
X0061630Y0272837D01*
X0061617Y0272770D01*
X0061601Y0272703D01*
X0061581Y0272637D01*
X0061557Y0272573D01*
X0061530Y0272510D01*
X0061499Y0272449D01*
X0061466Y0272389D01*
X0061429Y0272331D01*
X0061389Y0272275D01*
X0061346Y0272222D01*
X0061300Y0272171D01*
X0061251Y0272122D01*
X0061200Y0272076D01*
X0061147Y0272033D01*
X0061091Y0271993D01*
X0061033Y0271956D01*
X0060973Y0271923D01*
X0060912Y0271892D01*
X0060849Y0271865D01*
X0060785Y0271841D01*
X0060719Y0271821D01*
X0060652Y0271805D01*
X0060585Y0271792D01*
X0060517Y0271782D01*
X0060449Y0271777D01*
X0060380Y0271775D01*
X0061330Y0277000D02*
X0061252Y0277056D01*
X0061173Y0277108D01*
X0061091Y0277158D01*
X0061007Y0277204D01*
X0060922Y0277246D01*
X0060835Y0277285D01*
X0060746Y0277321D01*
X0060656Y0277353D01*
X0060565Y0277381D01*
X0060473Y0277406D01*
X0060379Y0277427D01*
X0060285Y0277444D01*
X0060191Y0277458D01*
X0060096Y0277467D01*
X0060001Y0277473D01*
X0059905Y0277475D01*
X0059836Y0277473D01*
X0059768Y0277468D01*
X0059700Y0277458D01*
X0059633Y0277445D01*
X0059566Y0277429D01*
X0059500Y0277409D01*
X0059436Y0277385D01*
X0059373Y0277358D01*
X0059312Y0277327D01*
X0059252Y0277294D01*
X0059194Y0277257D01*
X0059138Y0277217D01*
X0059085Y0277174D01*
X0059034Y0277128D01*
X0058985Y0277079D01*
X0058939Y0277028D01*
X0058896Y0276975D01*
X0058856Y0276919D01*
X0058819Y0276861D01*
X0058786Y0276801D01*
X0058755Y0276740D01*
X0058728Y0276677D01*
X0058704Y0276613D01*
X0058684Y0276547D01*
X0058668Y0276480D01*
X0058655Y0276413D01*
X0058645Y0276345D01*
X0058640Y0276277D01*
X0058638Y0276208D01*
X0058639Y0276208D02*
X0058641Y0276138D01*
X0058647Y0276068D01*
X0058656Y0275998D01*
X0058670Y0275929D01*
X0058687Y0275861D01*
X0058708Y0275794D01*
X0058732Y0275728D01*
X0058760Y0275664D01*
X0058791Y0275601D01*
X0058826Y0275540D01*
X0058864Y0275481D01*
X0058906Y0275424D01*
X0058950Y0275369D01*
X0058997Y0275317D01*
X0059047Y0275268D01*
X0059100Y0275221D01*
X0059155Y0275178D01*
X0059213Y0275137D01*
X0059272Y0275100D01*
X0064429Y0276208D02*
X0066012Y0277475D01*
X0066012Y0271775D01*
X0064429Y0271775D02*
X0067595Y0271775D01*
X0070583Y0271775D02*
X0073749Y0271775D01*
X0070583Y0271775D02*
X0073274Y0274942D01*
X0072324Y0277475D02*
X0072242Y0277473D01*
X0072160Y0277468D01*
X0072078Y0277458D01*
X0071997Y0277446D01*
X0071916Y0277429D01*
X0071837Y0277409D01*
X0071758Y0277385D01*
X0071680Y0277358D01*
X0071604Y0277327D01*
X0071529Y0277293D01*
X0071456Y0277256D01*
X0071384Y0277215D01*
X0071315Y0277172D01*
X0071247Y0277125D01*
X0071182Y0277075D01*
X0071119Y0277022D01*
X0071058Y0276967D01*
X0071000Y0276909D01*
X0070944Y0276848D01*
X0070892Y0276785D01*
X0070842Y0276719D01*
X0070795Y0276652D01*
X0070751Y0276582D01*
X0070711Y0276510D01*
X0070674Y0276437D01*
X0070640Y0276362D01*
X0070609Y0276286D01*
X0070582Y0276208D01*
X0073275Y0274941D02*
X0073330Y0274996D01*
X0073381Y0275054D01*
X0073430Y0275114D01*
X0073476Y0275176D01*
X0073519Y0275241D01*
X0073558Y0275308D01*
X0073594Y0275376D01*
X0073626Y0275447D01*
X0073655Y0275519D01*
X0073680Y0275592D01*
X0073701Y0275667D01*
X0073719Y0275742D01*
X0073732Y0275818D01*
X0073742Y0275895D01*
X0073748Y0275973D01*
X0073750Y0276050D01*
X0073749Y0276050D02*
X0073747Y0276125D01*
X0073741Y0276199D01*
X0073731Y0276273D01*
X0073718Y0276346D01*
X0073700Y0276419D01*
X0073679Y0276490D01*
X0073654Y0276561D01*
X0073626Y0276630D01*
X0073594Y0276697D01*
X0073558Y0276763D01*
X0073519Y0276826D01*
X0073477Y0276888D01*
X0073431Y0276947D01*
X0073383Y0277004D01*
X0073332Y0277058D01*
X0073278Y0277109D01*
X0073221Y0277157D01*
X0073162Y0277203D01*
X0073100Y0277245D01*
X0073037Y0277284D01*
X0072971Y0277320D01*
X0072904Y0277352D01*
X0072835Y0277380D01*
X0072764Y0277405D01*
X0072693Y0277426D01*
X0072620Y0277444D01*
X0072547Y0277457D01*
X0072473Y0277467D01*
X0072399Y0277473D01*
X0072324Y0277475D01*
X0076737Y0275892D02*
X0076737Y0275575D01*
X0076736Y0275575D02*
X0076738Y0275506D01*
X0076743Y0275438D01*
X0076753Y0275370D01*
X0076766Y0275303D01*
X0076782Y0275236D01*
X0076802Y0275170D01*
X0076826Y0275106D01*
X0076853Y0275043D01*
X0076884Y0274982D01*
X0076917Y0274922D01*
X0076954Y0274864D01*
X0076994Y0274808D01*
X0077037Y0274755D01*
X0077083Y0274704D01*
X0077132Y0274655D01*
X0077183Y0274609D01*
X0077236Y0274566D01*
X0077292Y0274526D01*
X0077350Y0274489D01*
X0077410Y0274456D01*
X0077471Y0274425D01*
X0077534Y0274398D01*
X0077598Y0274374D01*
X0077664Y0274354D01*
X0077731Y0274338D01*
X0077798Y0274325D01*
X0077866Y0274315D01*
X0077934Y0274310D01*
X0078003Y0274308D01*
X0079903Y0274308D01*
X0079903Y0275892D01*
X0079901Y0275970D01*
X0079895Y0276047D01*
X0079886Y0276124D01*
X0079873Y0276201D01*
X0079856Y0276277D01*
X0079835Y0276352D01*
X0079810Y0276425D01*
X0079783Y0276498D01*
X0079751Y0276569D01*
X0079716Y0276638D01*
X0079678Y0276706D01*
X0079636Y0276771D01*
X0079591Y0276835D01*
X0079544Y0276896D01*
X0079493Y0276955D01*
X0079439Y0277011D01*
X0079383Y0277065D01*
X0079324Y0277116D01*
X0079263Y0277163D01*
X0079199Y0277208D01*
X0079134Y0277250D01*
X0079066Y0277288D01*
X0078997Y0277323D01*
X0078926Y0277355D01*
X0078853Y0277382D01*
X0078780Y0277407D01*
X0078705Y0277428D01*
X0078629Y0277445D01*
X0078552Y0277458D01*
X0078475Y0277467D01*
X0078398Y0277473D01*
X0078320Y0277475D01*
X0078242Y0277473D01*
X0078165Y0277467D01*
X0078088Y0277458D01*
X0078011Y0277445D01*
X0077935Y0277428D01*
X0077860Y0277407D01*
X0077787Y0277382D01*
X0077714Y0277355D01*
X0077643Y0277323D01*
X0077574Y0277288D01*
X0077506Y0277250D01*
X0077441Y0277208D01*
X0077377Y0277163D01*
X0077316Y0277116D01*
X0077257Y0277065D01*
X0077201Y0277011D01*
X0077147Y0276955D01*
X0077096Y0276896D01*
X0077049Y0276835D01*
X0077004Y0276771D01*
X0076962Y0276706D01*
X0076924Y0276638D01*
X0076889Y0276569D01*
X0076857Y0276498D01*
X0076830Y0276425D01*
X0076805Y0276352D01*
X0076784Y0276277D01*
X0076767Y0276201D01*
X0076754Y0276124D01*
X0076745Y0276047D01*
X0076739Y0275970D01*
X0076737Y0275892D01*
X0079903Y0274308D02*
X0079901Y0274209D01*
X0079895Y0274109D01*
X0079885Y0274010D01*
X0079872Y0273912D01*
X0079854Y0273814D01*
X0079833Y0273717D01*
X0079808Y0273620D01*
X0079779Y0273525D01*
X0079746Y0273431D01*
X0079710Y0273339D01*
X0079670Y0273248D01*
X0079627Y0273158D01*
X0079580Y0273070D01*
X0079530Y0272985D01*
X0079476Y0272901D01*
X0079419Y0272819D01*
X0079359Y0272740D01*
X0079296Y0272663D01*
X0079230Y0272589D01*
X0079161Y0272517D01*
X0079089Y0272448D01*
X0079015Y0272382D01*
X0078938Y0272319D01*
X0078859Y0272259D01*
X0078777Y0272202D01*
X0078693Y0272148D01*
X0078608Y0272098D01*
X0078520Y0272051D01*
X0078430Y0272008D01*
X0078339Y0271968D01*
X0078247Y0271932D01*
X0078153Y0271899D01*
X0078058Y0271870D01*
X0077961Y0271845D01*
X0077864Y0271824D01*
X0077766Y0271806D01*
X0077668Y0271793D01*
X0077569Y0271783D01*
X0077469Y0271777D01*
X0077370Y0271775D01*
X0082891Y0271775D02*
X0084474Y0271775D01*
X0084552Y0271777D01*
X0084629Y0271783D01*
X0084706Y0271792D01*
X0084783Y0271805D01*
X0084859Y0271822D01*
X0084934Y0271843D01*
X0085007Y0271868D01*
X0085080Y0271895D01*
X0085151Y0271927D01*
X0085220Y0271962D01*
X0085288Y0272000D01*
X0085353Y0272042D01*
X0085417Y0272087D01*
X0085478Y0272134D01*
X0085537Y0272185D01*
X0085593Y0272239D01*
X0085647Y0272295D01*
X0085698Y0272354D01*
X0085745Y0272415D01*
X0085790Y0272479D01*
X0085832Y0272544D01*
X0085870Y0272612D01*
X0085905Y0272681D01*
X0085937Y0272752D01*
X0085964Y0272825D01*
X0085989Y0272898D01*
X0086010Y0272973D01*
X0086027Y0273049D01*
X0086040Y0273126D01*
X0086049Y0273203D01*
X0086055Y0273280D01*
X0086057Y0273358D01*
X0086055Y0273436D01*
X0086049Y0273513D01*
X0086040Y0273590D01*
X0086027Y0273667D01*
X0086010Y0273743D01*
X0085989Y0273818D01*
X0085964Y0273891D01*
X0085937Y0273964D01*
X0085905Y0274035D01*
X0085870Y0274104D01*
X0085832Y0274172D01*
X0085790Y0274237D01*
X0085745Y0274301D01*
X0085698Y0274362D01*
X0085647Y0274421D01*
X0085593Y0274477D01*
X0085537Y0274531D01*
X0085478Y0274582D01*
X0085417Y0274629D01*
X0085353Y0274674D01*
X0085288Y0274716D01*
X0085220Y0274754D01*
X0085151Y0274789D01*
X0085080Y0274821D01*
X0085007Y0274848D01*
X0084934Y0274873D01*
X0084859Y0274894D01*
X0084783Y0274911D01*
X0084706Y0274924D01*
X0084629Y0274933D01*
X0084552Y0274939D01*
X0084474Y0274941D01*
X0084791Y0274942D02*
X0083524Y0274942D01*
X0084791Y0274941D02*
X0084861Y0274943D01*
X0084930Y0274949D01*
X0085000Y0274958D01*
X0085068Y0274972D01*
X0085136Y0274989D01*
X0085202Y0275010D01*
X0085268Y0275034D01*
X0085332Y0275062D01*
X0085394Y0275094D01*
X0085454Y0275129D01*
X0085513Y0275167D01*
X0085569Y0275208D01*
X0085623Y0275253D01*
X0085674Y0275300D01*
X0085723Y0275350D01*
X0085769Y0275403D01*
X0085812Y0275458D01*
X0085852Y0275515D01*
X0085888Y0275575D01*
X0085921Y0275636D01*
X0085951Y0275699D01*
X0085978Y0275764D01*
X0086000Y0275830D01*
X0086019Y0275897D01*
X0086034Y0275965D01*
X0086046Y0276034D01*
X0086054Y0276103D01*
X0086058Y0276173D01*
X0086058Y0276243D01*
X0086054Y0276313D01*
X0086046Y0276382D01*
X0086034Y0276451D01*
X0086019Y0276519D01*
X0086000Y0276586D01*
X0085978Y0276652D01*
X0085951Y0276717D01*
X0085921Y0276780D01*
X0085888Y0276842D01*
X0085852Y0276901D01*
X0085812Y0276958D01*
X0085769Y0277013D01*
X0085723Y0277066D01*
X0085674Y0277116D01*
X0085623Y0277163D01*
X0085569Y0277208D01*
X0085513Y0277249D01*
X0085454Y0277287D01*
X0085394Y0277322D01*
X0085332Y0277354D01*
X0085268Y0277382D01*
X0085202Y0277406D01*
X0085136Y0277427D01*
X0085068Y0277444D01*
X0085000Y0277458D01*
X0084930Y0277467D01*
X0084861Y0277473D01*
X0084791Y0277475D01*
X0082891Y0277475D01*
X0089138Y0273992D02*
X0092938Y0273992D01*
X0095609Y0277475D02*
X0098776Y0277475D01*
X0097193Y0277475D02*
X0097193Y0271775D01*
X0101578Y0271775D02*
X0101578Y0277475D01*
X0104111Y0277475D01*
X0103478Y0274942D02*
X0101578Y0274942D01*
X0101578Y0271775D02*
X0104111Y0271775D01*
X0109014Y0274150D02*
X0109073Y0274113D01*
X0109131Y0274072D01*
X0109186Y0274029D01*
X0109239Y0273982D01*
X0109289Y0273933D01*
X0109336Y0273881D01*
X0109380Y0273826D01*
X0109422Y0273769D01*
X0109460Y0273710D01*
X0109495Y0273649D01*
X0109526Y0273586D01*
X0109554Y0273522D01*
X0109578Y0273456D01*
X0109599Y0273389D01*
X0109616Y0273321D01*
X0109630Y0273252D01*
X0109639Y0273182D01*
X0109645Y0273112D01*
X0109647Y0273042D01*
X0109648Y0273042D02*
X0109646Y0272973D01*
X0109641Y0272905D01*
X0109631Y0272837D01*
X0109618Y0272770D01*
X0109602Y0272703D01*
X0109582Y0272637D01*
X0109558Y0272573D01*
X0109531Y0272510D01*
X0109500Y0272449D01*
X0109467Y0272389D01*
X0109430Y0272331D01*
X0109390Y0272275D01*
X0109347Y0272222D01*
X0109301Y0272171D01*
X0109252Y0272122D01*
X0109201Y0272076D01*
X0109148Y0272033D01*
X0109092Y0271993D01*
X0109034Y0271956D01*
X0108974Y0271923D01*
X0108913Y0271892D01*
X0108850Y0271865D01*
X0108786Y0271841D01*
X0108720Y0271821D01*
X0108653Y0271805D01*
X0108586Y0271792D01*
X0108518Y0271782D01*
X0108450Y0271777D01*
X0108381Y0271775D01*
X0109015Y0274150D02*
X0107273Y0275100D01*
X0107906Y0277475D02*
X0108002Y0277473D01*
X0108097Y0277467D01*
X0108192Y0277458D01*
X0108286Y0277444D01*
X0108380Y0277427D01*
X0108474Y0277406D01*
X0108566Y0277381D01*
X0108657Y0277353D01*
X0108747Y0277321D01*
X0108836Y0277285D01*
X0108923Y0277246D01*
X0109008Y0277204D01*
X0109092Y0277158D01*
X0109174Y0277108D01*
X0109253Y0277056D01*
X0109331Y0277000D01*
X0107273Y0275100D02*
X0107214Y0275137D01*
X0107156Y0275178D01*
X0107101Y0275221D01*
X0107048Y0275268D01*
X0106998Y0275317D01*
X0106951Y0275369D01*
X0106907Y0275424D01*
X0106865Y0275481D01*
X0106827Y0275540D01*
X0106792Y0275601D01*
X0106761Y0275664D01*
X0106733Y0275728D01*
X0106709Y0275794D01*
X0106688Y0275861D01*
X0106671Y0275929D01*
X0106657Y0275998D01*
X0106648Y0276068D01*
X0106642Y0276138D01*
X0106640Y0276208D01*
X0106639Y0276208D02*
X0106641Y0276277D01*
X0106646Y0276345D01*
X0106656Y0276413D01*
X0106669Y0276480D01*
X0106685Y0276547D01*
X0106705Y0276613D01*
X0106729Y0276677D01*
X0106756Y0276740D01*
X0106787Y0276801D01*
X0106820Y0276861D01*
X0106857Y0276919D01*
X0106897Y0276975D01*
X0106940Y0277028D01*
X0106986Y0277079D01*
X0107035Y0277128D01*
X0107086Y0277174D01*
X0107139Y0277217D01*
X0107195Y0277257D01*
X0107253Y0277294D01*
X0107313Y0277327D01*
X0107374Y0277358D01*
X0107437Y0277385D01*
X0107501Y0277409D01*
X0107567Y0277429D01*
X0107634Y0277445D01*
X0107701Y0277458D01*
X0107769Y0277468D01*
X0107837Y0277473D01*
X0107906Y0277475D01*
X0106481Y0272567D02*
X0106553Y0272497D01*
X0106628Y0272429D01*
X0106705Y0272365D01*
X0106785Y0272303D01*
X0106867Y0272245D01*
X0106951Y0272189D01*
X0107037Y0272137D01*
X0107124Y0272088D01*
X0107214Y0272043D01*
X0107306Y0272001D01*
X0107398Y0271962D01*
X0107493Y0271927D01*
X0107588Y0271895D01*
X0107685Y0271867D01*
X0107782Y0271843D01*
X0107881Y0271822D01*
X0107980Y0271805D01*
X0108080Y0271792D01*
X0108180Y0271783D01*
X0108280Y0271777D01*
X0108381Y0271775D01*
X0112020Y0277475D02*
X0115187Y0277475D01*
X0113603Y0277475D02*
X0113603Y0271775D01*
X0117857Y0273992D02*
X0121657Y0273992D01*
X0125085Y0274308D02*
X0126669Y0274308D01*
X0126669Y0274309D02*
X0126747Y0274311D01*
X0126824Y0274317D01*
X0126901Y0274326D01*
X0126978Y0274339D01*
X0127054Y0274356D01*
X0127129Y0274377D01*
X0127202Y0274402D01*
X0127275Y0274429D01*
X0127346Y0274461D01*
X0127415Y0274496D01*
X0127483Y0274534D01*
X0127548Y0274576D01*
X0127612Y0274621D01*
X0127673Y0274668D01*
X0127732Y0274719D01*
X0127788Y0274773D01*
X0127842Y0274829D01*
X0127893Y0274888D01*
X0127940Y0274949D01*
X0127985Y0275013D01*
X0128027Y0275078D01*
X0128065Y0275146D01*
X0128100Y0275215D01*
X0128132Y0275286D01*
X0128159Y0275359D01*
X0128184Y0275432D01*
X0128205Y0275507D01*
X0128222Y0275583D01*
X0128235Y0275660D01*
X0128244Y0275737D01*
X0128250Y0275814D01*
X0128252Y0275892D01*
X0128250Y0275970D01*
X0128244Y0276047D01*
X0128235Y0276124D01*
X0128222Y0276201D01*
X0128205Y0276277D01*
X0128184Y0276352D01*
X0128159Y0276425D01*
X0128132Y0276498D01*
X0128100Y0276569D01*
X0128065Y0276638D01*
X0128027Y0276706D01*
X0127985Y0276771D01*
X0127940Y0276835D01*
X0127893Y0276896D01*
X0127842Y0276955D01*
X0127788Y0277011D01*
X0127732Y0277065D01*
X0127673Y0277116D01*
X0127612Y0277163D01*
X0127548Y0277208D01*
X0127483Y0277250D01*
X0127415Y0277288D01*
X0127346Y0277323D01*
X0127275Y0277355D01*
X0127202Y0277382D01*
X0127129Y0277407D01*
X0127054Y0277428D01*
X0126978Y0277445D01*
X0126901Y0277458D01*
X0126824Y0277467D01*
X0126747Y0277473D01*
X0126669Y0277475D01*
X0125085Y0277475D01*
X0125085Y0271775D01*
X0130866Y0273042D02*
X0130866Y0276208D01*
X0130865Y0276208D02*
X0130867Y0276279D01*
X0130873Y0276350D01*
X0130883Y0276420D01*
X0130897Y0276490D01*
X0130915Y0276559D01*
X0130936Y0276626D01*
X0130961Y0276693D01*
X0130990Y0276758D01*
X0131023Y0276821D01*
X0131059Y0276882D01*
X0131099Y0276941D01*
X0131141Y0276998D01*
X0131187Y0277052D01*
X0131236Y0277104D01*
X0131288Y0277153D01*
X0131342Y0277199D01*
X0131399Y0277241D01*
X0131458Y0277281D01*
X0131519Y0277317D01*
X0131582Y0277350D01*
X0131647Y0277379D01*
X0131714Y0277404D01*
X0131781Y0277425D01*
X0131850Y0277443D01*
X0131920Y0277457D01*
X0131990Y0277467D01*
X0132061Y0277473D01*
X0132132Y0277475D01*
X0133399Y0277475D01*
X0136368Y0277475D02*
X0136368Y0271775D01*
X0137951Y0271775D01*
X0138029Y0271777D01*
X0138106Y0271783D01*
X0138183Y0271792D01*
X0138260Y0271805D01*
X0138336Y0271822D01*
X0138411Y0271843D01*
X0138484Y0271868D01*
X0138557Y0271895D01*
X0138628Y0271927D01*
X0138697Y0271962D01*
X0138765Y0272000D01*
X0138830Y0272042D01*
X0138894Y0272087D01*
X0138955Y0272134D01*
X0139014Y0272185D01*
X0139070Y0272239D01*
X0139124Y0272295D01*
X0139175Y0272354D01*
X0139222Y0272415D01*
X0139267Y0272479D01*
X0139309Y0272544D01*
X0139347Y0272612D01*
X0139382Y0272681D01*
X0139414Y0272752D01*
X0139441Y0272825D01*
X0139466Y0272898D01*
X0139487Y0272973D01*
X0139504Y0273049D01*
X0139517Y0273126D01*
X0139526Y0273203D01*
X0139532Y0273280D01*
X0139534Y0273358D01*
X0139532Y0273436D01*
X0139526Y0273513D01*
X0139517Y0273590D01*
X0139504Y0273667D01*
X0139487Y0273743D01*
X0139466Y0273818D01*
X0139441Y0273891D01*
X0139414Y0273964D01*
X0139382Y0274035D01*
X0139347Y0274104D01*
X0139309Y0274172D01*
X0139267Y0274237D01*
X0139222Y0274301D01*
X0139175Y0274362D01*
X0139124Y0274421D01*
X0139070Y0274477D01*
X0139014Y0274531D01*
X0138955Y0274582D01*
X0138894Y0274629D01*
X0138830Y0274674D01*
X0138765Y0274716D01*
X0138697Y0274754D01*
X0138628Y0274789D01*
X0138557Y0274821D01*
X0138484Y0274848D01*
X0138411Y0274873D01*
X0138336Y0274894D01*
X0138260Y0274911D01*
X0138183Y0274924D01*
X0138106Y0274933D01*
X0138029Y0274939D01*
X0137951Y0274941D01*
X0137951Y0274942D02*
X0136368Y0274942D01*
X0137951Y0274941D02*
X0138021Y0274943D01*
X0138090Y0274949D01*
X0138160Y0274958D01*
X0138228Y0274972D01*
X0138296Y0274989D01*
X0138362Y0275010D01*
X0138428Y0275034D01*
X0138492Y0275062D01*
X0138554Y0275094D01*
X0138614Y0275129D01*
X0138673Y0275167D01*
X0138729Y0275208D01*
X0138783Y0275253D01*
X0138834Y0275300D01*
X0138883Y0275350D01*
X0138929Y0275403D01*
X0138972Y0275458D01*
X0139012Y0275515D01*
X0139048Y0275575D01*
X0139081Y0275636D01*
X0139111Y0275699D01*
X0139138Y0275764D01*
X0139160Y0275830D01*
X0139179Y0275897D01*
X0139194Y0275965D01*
X0139206Y0276034D01*
X0139214Y0276103D01*
X0139218Y0276173D01*
X0139218Y0276243D01*
X0139214Y0276313D01*
X0139206Y0276382D01*
X0139194Y0276451D01*
X0139179Y0276519D01*
X0139160Y0276586D01*
X0139138Y0276652D01*
X0139111Y0276717D01*
X0139081Y0276780D01*
X0139048Y0276842D01*
X0139012Y0276901D01*
X0138972Y0276958D01*
X0138929Y0277013D01*
X0138883Y0277066D01*
X0138834Y0277116D01*
X0138783Y0277163D01*
X0138729Y0277208D01*
X0138673Y0277249D01*
X0138614Y0277287D01*
X0138554Y0277322D01*
X0138492Y0277354D01*
X0138428Y0277382D01*
X0138362Y0277406D01*
X0138296Y0277427D01*
X0138228Y0277444D01*
X0138160Y0277458D01*
X0138090Y0277467D01*
X0138021Y0277473D01*
X0137951Y0277475D01*
X0136368Y0277475D01*
X0130865Y0273042D02*
X0130867Y0272973D01*
X0130872Y0272905D01*
X0130882Y0272837D01*
X0130895Y0272770D01*
X0130911Y0272703D01*
X0130931Y0272637D01*
X0130955Y0272573D01*
X0130982Y0272510D01*
X0131013Y0272449D01*
X0131046Y0272389D01*
X0131083Y0272331D01*
X0131123Y0272275D01*
X0131166Y0272222D01*
X0131212Y0272171D01*
X0131261Y0272122D01*
X0131312Y0272076D01*
X0131365Y0272033D01*
X0131421Y0271993D01*
X0131479Y0271956D01*
X0131539Y0271923D01*
X0131600Y0271892D01*
X0131663Y0271865D01*
X0131727Y0271841D01*
X0131793Y0271821D01*
X0131860Y0271805D01*
X0131927Y0271792D01*
X0131995Y0271782D01*
X0132063Y0271777D01*
X0132132Y0271775D01*
X0133399Y0271775D01*
X0142268Y0273992D02*
X0146068Y0273992D01*
X0149416Y0274308D02*
X0150999Y0274308D01*
X0151316Y0274308D02*
X0152583Y0271775D01*
X0149416Y0271775D02*
X0149416Y0277475D01*
X0150999Y0277475D01*
X0151077Y0277473D01*
X0151154Y0277467D01*
X0151231Y0277458D01*
X0151308Y0277445D01*
X0151384Y0277428D01*
X0151459Y0277407D01*
X0151532Y0277382D01*
X0151605Y0277355D01*
X0151676Y0277323D01*
X0151745Y0277288D01*
X0151813Y0277250D01*
X0151878Y0277208D01*
X0151942Y0277163D01*
X0152003Y0277116D01*
X0152062Y0277065D01*
X0152118Y0277011D01*
X0152172Y0276955D01*
X0152223Y0276896D01*
X0152270Y0276835D01*
X0152315Y0276771D01*
X0152357Y0276706D01*
X0152395Y0276638D01*
X0152430Y0276569D01*
X0152462Y0276498D01*
X0152489Y0276425D01*
X0152514Y0276352D01*
X0152535Y0276277D01*
X0152552Y0276201D01*
X0152565Y0276124D01*
X0152574Y0276047D01*
X0152580Y0275970D01*
X0152582Y0275892D01*
X0152580Y0275814D01*
X0152574Y0275737D01*
X0152565Y0275660D01*
X0152552Y0275583D01*
X0152535Y0275507D01*
X0152514Y0275432D01*
X0152489Y0275359D01*
X0152462Y0275286D01*
X0152430Y0275215D01*
X0152395Y0275146D01*
X0152357Y0275078D01*
X0152315Y0275013D01*
X0152270Y0274949D01*
X0152223Y0274888D01*
X0152172Y0274829D01*
X0152118Y0274773D01*
X0152062Y0274719D01*
X0152003Y0274668D01*
X0151942Y0274621D01*
X0151878Y0274576D01*
X0151813Y0274534D01*
X0151745Y0274496D01*
X0151676Y0274461D01*
X0151605Y0274429D01*
X0151532Y0274402D01*
X0151459Y0274377D01*
X0151384Y0274356D01*
X0151308Y0274339D01*
X0151231Y0274326D01*
X0151154Y0274317D01*
X0151077Y0274311D01*
X0150999Y0274309D01*
X0155415Y0274308D02*
X0155415Y0272725D01*
X0155417Y0272665D01*
X0155422Y0272606D01*
X0155432Y0272547D01*
X0155445Y0272489D01*
X0155461Y0272431D01*
X0155482Y0272375D01*
X0155505Y0272321D01*
X0155533Y0272267D01*
X0155563Y0272216D01*
X0155596Y0272167D01*
X0155633Y0272119D01*
X0155672Y0272075D01*
X0155715Y0272032D01*
X0155759Y0271993D01*
X0155807Y0271956D01*
X0155856Y0271923D01*
X0155907Y0271893D01*
X0155961Y0271865D01*
X0156015Y0271842D01*
X0156071Y0271821D01*
X0156129Y0271805D01*
X0156187Y0271792D01*
X0156246Y0271782D01*
X0156305Y0271777D01*
X0156365Y0271775D01*
X0157948Y0271775D01*
X0157948Y0273675D02*
X0155415Y0273675D01*
X0155414Y0274308D02*
X0155416Y0274378D01*
X0155422Y0274447D01*
X0155431Y0274517D01*
X0155445Y0274585D01*
X0155462Y0274653D01*
X0155483Y0274719D01*
X0155507Y0274785D01*
X0155535Y0274849D01*
X0155567Y0274911D01*
X0155602Y0274971D01*
X0155640Y0275030D01*
X0155681Y0275086D01*
X0155726Y0275140D01*
X0155773Y0275191D01*
X0155823Y0275240D01*
X0155876Y0275286D01*
X0155931Y0275329D01*
X0155988Y0275369D01*
X0156048Y0275405D01*
X0156109Y0275438D01*
X0156172Y0275468D01*
X0156237Y0275495D01*
X0156303Y0275517D01*
X0156370Y0275536D01*
X0156438Y0275551D01*
X0156507Y0275563D01*
X0156576Y0275571D01*
X0156646Y0275575D01*
X0156716Y0275575D01*
X0156786Y0275571D01*
X0156855Y0275563D01*
X0156924Y0275551D01*
X0156992Y0275536D01*
X0157059Y0275517D01*
X0157125Y0275495D01*
X0157190Y0275468D01*
X0157253Y0275438D01*
X0157315Y0275405D01*
X0157374Y0275369D01*
X0157431Y0275329D01*
X0157486Y0275286D01*
X0157539Y0275240D01*
X0157589Y0275191D01*
X0157636Y0275140D01*
X0157681Y0275086D01*
X0157722Y0275030D01*
X0157760Y0274971D01*
X0157795Y0274911D01*
X0157827Y0274849D01*
X0157855Y0274785D01*
X0157879Y0274719D01*
X0157900Y0274653D01*
X0157917Y0274585D01*
X0157931Y0274517D01*
X0157940Y0274447D01*
X0157946Y0274378D01*
X0157948Y0274308D01*
X0157948Y0273675D01*
X0160543Y0275575D02*
X0161810Y0271775D01*
X0163076Y0275575D01*
X0165344Y0272092D02*
X0165661Y0272092D01*
X0165661Y0271775D01*
X0165344Y0271775D01*
X0165344Y0272092D01*
X0174200Y0272567D02*
X0174257Y0272687D01*
X0174310Y0272809D01*
X0174360Y0272933D01*
X0174406Y0273058D01*
X0174448Y0273184D01*
X0174488Y0273311D01*
X0174523Y0273440D01*
X0174555Y0273569D01*
X0174583Y0273699D01*
X0174607Y0273830D01*
X0174628Y0273961D01*
X0174645Y0274094D01*
X0174658Y0274226D01*
X0174667Y0274359D01*
X0174673Y0274492D01*
X0174675Y0274625D01*
X0171509Y0274625D02*
X0171511Y0274758D01*
X0171517Y0274891D01*
X0171526Y0275024D01*
X0171539Y0275156D01*
X0171556Y0275289D01*
X0171577Y0275420D01*
X0171601Y0275551D01*
X0171629Y0275681D01*
X0171661Y0275810D01*
X0171696Y0275939D01*
X0171736Y0276066D01*
X0171778Y0276192D01*
X0171824Y0276317D01*
X0171874Y0276441D01*
X0171927Y0276563D01*
X0171984Y0276683D01*
X0173092Y0277475D02*
X0173158Y0277473D01*
X0173224Y0277468D01*
X0173289Y0277458D01*
X0173354Y0277445D01*
X0173418Y0277429D01*
X0173481Y0277409D01*
X0173543Y0277385D01*
X0173603Y0277358D01*
X0173662Y0277327D01*
X0173718Y0277294D01*
X0173773Y0277257D01*
X0173826Y0277217D01*
X0173876Y0277174D01*
X0173924Y0277128D01*
X0173969Y0277080D01*
X0174012Y0277030D01*
X0174051Y0276977D01*
X0174088Y0276921D01*
X0174121Y0276864D01*
X0174151Y0276805D01*
X0174177Y0276745D01*
X0174201Y0276683D01*
X0174359Y0276208D02*
X0171825Y0273042D01*
X0173092Y0271775D02*
X0173158Y0271777D01*
X0173224Y0271782D01*
X0173289Y0271792D01*
X0173354Y0271805D01*
X0173418Y0271821D01*
X0173481Y0271841D01*
X0173543Y0271865D01*
X0173603Y0271892D01*
X0173662Y0271923D01*
X0173718Y0271956D01*
X0173773Y0271993D01*
X0173826Y0272033D01*
X0173876Y0272076D01*
X0173924Y0272122D01*
X0173969Y0272170D01*
X0174012Y0272220D01*
X0174051Y0272273D01*
X0174088Y0272329D01*
X0174121Y0272386D01*
X0174151Y0272445D01*
X0174177Y0272505D01*
X0174201Y0272567D01*
X0173092Y0271775D02*
X0173026Y0271777D01*
X0172960Y0271782D01*
X0172895Y0271792D01*
X0172830Y0271805D01*
X0172766Y0271821D01*
X0172703Y0271841D01*
X0172641Y0271865D01*
X0172581Y0271892D01*
X0172522Y0271923D01*
X0172466Y0271956D01*
X0172411Y0271993D01*
X0172358Y0272033D01*
X0172308Y0272076D01*
X0172260Y0272122D01*
X0172215Y0272170D01*
X0172172Y0272220D01*
X0172133Y0272273D01*
X0172096Y0272329D01*
X0172063Y0272386D01*
X0172033Y0272445D01*
X0172007Y0272505D01*
X0171983Y0272567D01*
X0174675Y0274625D02*
X0174673Y0274758D01*
X0174667Y0274891D01*
X0174658Y0275024D01*
X0174645Y0275156D01*
X0174628Y0275289D01*
X0174607Y0275420D01*
X0174583Y0275551D01*
X0174555Y0275681D01*
X0174523Y0275810D01*
X0174488Y0275939D01*
X0174448Y0276066D01*
X0174406Y0276192D01*
X0174360Y0276317D01*
X0174310Y0276441D01*
X0174257Y0276563D01*
X0174200Y0276683D01*
X0173092Y0277475D02*
X0173026Y0277473D01*
X0172960Y0277468D01*
X0172895Y0277458D01*
X0172830Y0277445D01*
X0172766Y0277429D01*
X0172703Y0277409D01*
X0172641Y0277385D01*
X0172581Y0277358D01*
X0172522Y0277327D01*
X0172466Y0277294D01*
X0172411Y0277257D01*
X0172358Y0277217D01*
X0172308Y0277174D01*
X0172260Y0277128D01*
X0172215Y0277080D01*
X0172172Y0277030D01*
X0172133Y0276977D01*
X0172096Y0276921D01*
X0172063Y0276864D01*
X0172033Y0276805D01*
X0172007Y0276745D01*
X0171983Y0276683D01*
X0171509Y0274625D02*
X0171511Y0274492D01*
X0171517Y0274359D01*
X0171526Y0274226D01*
X0171539Y0274094D01*
X0171556Y0273961D01*
X0171577Y0273830D01*
X0171601Y0273699D01*
X0171629Y0273569D01*
X0171661Y0273440D01*
X0171696Y0273311D01*
X0171736Y0273184D01*
X0171778Y0273058D01*
X0171824Y0272933D01*
X0171874Y0272809D01*
X0171927Y0272687D01*
X0171984Y0272567D01*
X0177663Y0271775D02*
X0180830Y0271775D01*
X0179246Y0271775D02*
X0179246Y0277475D01*
X0177663Y0276208D01*
D11*
X0174621Y0266300D02*
X0172798Y0266300D01*
X0172798Y0262200D01*
X0174621Y0262200D01*
X0174165Y0264478D02*
X0172798Y0264478D01*
X0170190Y0266300D02*
X0170190Y0262200D01*
X0168823Y0264022D02*
X0170190Y0266300D01*
X0168823Y0264022D02*
X0167456Y0266300D01*
X0167456Y0262200D01*
X0164131Y0262200D02*
X0162992Y0262200D01*
X0162992Y0266300D01*
X0164131Y0266300D01*
X0164191Y0266298D01*
X0164250Y0266292D01*
X0164309Y0266282D01*
X0164367Y0266269D01*
X0164424Y0266252D01*
X0164480Y0266231D01*
X0164534Y0266206D01*
X0164587Y0266178D01*
X0164637Y0266146D01*
X0164686Y0266112D01*
X0164732Y0266074D01*
X0164775Y0266033D01*
X0164816Y0265990D01*
X0164854Y0265944D01*
X0164888Y0265895D01*
X0164920Y0265845D01*
X0164948Y0265792D01*
X0164973Y0265738D01*
X0164994Y0265682D01*
X0165011Y0265625D01*
X0165024Y0265567D01*
X0165034Y0265508D01*
X0165040Y0265449D01*
X0165042Y0265389D01*
X0165040Y0265329D01*
X0165034Y0265270D01*
X0165024Y0265211D01*
X0165011Y0265153D01*
X0164994Y0265096D01*
X0164973Y0265040D01*
X0164948Y0264986D01*
X0164920Y0264934D01*
X0164888Y0264883D01*
X0164854Y0264834D01*
X0164816Y0264788D01*
X0164775Y0264745D01*
X0164732Y0264704D01*
X0164686Y0264666D01*
X0164637Y0264632D01*
X0164587Y0264600D01*
X0164534Y0264572D01*
X0164480Y0264547D01*
X0164424Y0264526D01*
X0164367Y0264509D01*
X0164309Y0264496D01*
X0164250Y0264486D01*
X0164191Y0264480D01*
X0164131Y0264478D01*
X0162992Y0264478D01*
X0164131Y0264478D02*
X0164197Y0264476D01*
X0164263Y0264470D01*
X0164329Y0264461D01*
X0164394Y0264447D01*
X0164458Y0264430D01*
X0164521Y0264409D01*
X0164582Y0264385D01*
X0164642Y0264357D01*
X0164701Y0264325D01*
X0164757Y0264291D01*
X0164811Y0264253D01*
X0164863Y0264212D01*
X0164913Y0264167D01*
X0164959Y0264121D01*
X0165004Y0264071D01*
X0165045Y0264019D01*
X0165083Y0263965D01*
X0165117Y0263909D01*
X0165149Y0263850D01*
X0165177Y0263790D01*
X0165201Y0263729D01*
X0165222Y0263666D01*
X0165239Y0263602D01*
X0165253Y0263537D01*
X0165262Y0263471D01*
X0165268Y0263405D01*
X0165270Y0263339D01*
X0165268Y0263273D01*
X0165262Y0263207D01*
X0165253Y0263141D01*
X0165239Y0263076D01*
X0165222Y0263012D01*
X0165201Y0262949D01*
X0165177Y0262888D01*
X0165149Y0262828D01*
X0165117Y0262770D01*
X0165083Y0262713D01*
X0165045Y0262659D01*
X0165004Y0262607D01*
X0164959Y0262557D01*
X0164913Y0262511D01*
X0164863Y0262466D01*
X0164811Y0262425D01*
X0164757Y0262387D01*
X0164701Y0262353D01*
X0164642Y0262321D01*
X0164582Y0262293D01*
X0164521Y0262269D01*
X0164458Y0262248D01*
X0164394Y0262231D01*
X0164329Y0262217D01*
X0164263Y0262208D01*
X0164197Y0262202D01*
X0164131Y0262200D01*
X0160440Y0263794D02*
X0157706Y0263794D01*
X0155262Y0263339D02*
X0155262Y0266300D01*
X0152984Y0266300D02*
X0152984Y0263339D01*
X0152986Y0263273D01*
X0152992Y0263207D01*
X0153001Y0263141D01*
X0153015Y0263076D01*
X0153032Y0263012D01*
X0153053Y0262949D01*
X0153077Y0262888D01*
X0153105Y0262828D01*
X0153137Y0262770D01*
X0153171Y0262713D01*
X0153209Y0262659D01*
X0153250Y0262607D01*
X0153295Y0262557D01*
X0153341Y0262511D01*
X0153391Y0262466D01*
X0153443Y0262425D01*
X0153497Y0262387D01*
X0153554Y0262353D01*
X0153612Y0262321D01*
X0153672Y0262293D01*
X0153733Y0262269D01*
X0153796Y0262248D01*
X0153860Y0262231D01*
X0153925Y0262217D01*
X0153991Y0262208D01*
X0154057Y0262202D01*
X0154123Y0262200D01*
X0154189Y0262202D01*
X0154255Y0262208D01*
X0154321Y0262217D01*
X0154386Y0262231D01*
X0154450Y0262248D01*
X0154513Y0262269D01*
X0154574Y0262293D01*
X0154634Y0262321D01*
X0154693Y0262353D01*
X0154749Y0262387D01*
X0154803Y0262425D01*
X0154855Y0262466D01*
X0154905Y0262511D01*
X0154951Y0262557D01*
X0154996Y0262607D01*
X0155037Y0262659D01*
X0155075Y0262713D01*
X0155109Y0262770D01*
X0155141Y0262828D01*
X0155169Y0262888D01*
X0155193Y0262949D01*
X0155214Y0263012D01*
X0155231Y0263076D01*
X0155245Y0263141D01*
X0155254Y0263207D01*
X0155260Y0263273D01*
X0155262Y0263339D01*
X0150912Y0266300D02*
X0148634Y0266300D01*
X0149773Y0266300D02*
X0149773Y0262200D01*
X0146592Y0263111D02*
X0146592Y0266300D01*
X0146591Y0263111D02*
X0146589Y0263051D01*
X0146583Y0262992D01*
X0146573Y0262933D01*
X0146560Y0262875D01*
X0146543Y0262818D01*
X0146522Y0262762D01*
X0146497Y0262708D01*
X0146469Y0262656D01*
X0146437Y0262605D01*
X0146403Y0262556D01*
X0146365Y0262510D01*
X0146324Y0262467D01*
X0146281Y0262426D01*
X0146235Y0262388D01*
X0146186Y0262354D01*
X0146136Y0262322D01*
X0146083Y0262294D01*
X0146029Y0262269D01*
X0145973Y0262248D01*
X0145916Y0262231D01*
X0145858Y0262218D01*
X0145799Y0262208D01*
X0145740Y0262202D01*
X0145680Y0262200D01*
X0145225Y0262200D01*
X0143790Y0262200D02*
X0141056Y0266300D01*
X0143790Y0266300D02*
X0141056Y0262200D01*
X0136959Y0262200D02*
X0136618Y0261289D01*
X0136731Y0262200D02*
X0136731Y0262428D01*
X0136959Y0262428D01*
X0136959Y0262200D01*
X0136731Y0262200D01*
X0135078Y0262200D02*
X0134167Y0262200D01*
X0134623Y0262200D02*
X0134623Y0266300D01*
X0135078Y0266300D02*
X0134167Y0266300D01*
X0130649Y0266300D02*
X0130649Y0262200D01*
X0132471Y0262200D01*
X0126171Y0262200D02*
X0124349Y0262200D01*
X0124349Y0266300D01*
X0126171Y0266300D01*
X0125715Y0264478D02*
X0124349Y0264478D01*
X0122179Y0266300D02*
X0121267Y0266300D01*
X0121723Y0266300D02*
X0121723Y0262200D01*
X0121267Y0262200D02*
X0122179Y0262200D01*
X0119142Y0263111D02*
X0119142Y0266300D01*
X0115962Y0266300D02*
X0114595Y0266300D01*
X0114535Y0266298D01*
X0114476Y0266292D01*
X0114417Y0266282D01*
X0114359Y0266269D01*
X0114302Y0266252D01*
X0114246Y0266231D01*
X0114192Y0266206D01*
X0114139Y0266178D01*
X0114089Y0266146D01*
X0114040Y0266112D01*
X0113994Y0266074D01*
X0113951Y0266033D01*
X0113910Y0265990D01*
X0113872Y0265944D01*
X0113838Y0265895D01*
X0113806Y0265844D01*
X0113778Y0265792D01*
X0113753Y0265738D01*
X0113732Y0265682D01*
X0113715Y0265625D01*
X0113702Y0265567D01*
X0113692Y0265508D01*
X0113686Y0265449D01*
X0113684Y0265389D01*
X0113684Y0263111D01*
X0113686Y0263051D01*
X0113692Y0262992D01*
X0113702Y0262933D01*
X0113715Y0262875D01*
X0113732Y0262818D01*
X0113753Y0262762D01*
X0113778Y0262708D01*
X0113806Y0262656D01*
X0113838Y0262605D01*
X0113872Y0262556D01*
X0113910Y0262510D01*
X0113951Y0262467D01*
X0113994Y0262426D01*
X0114040Y0262388D01*
X0114089Y0262354D01*
X0114140Y0262322D01*
X0114192Y0262294D01*
X0114246Y0262269D01*
X0114302Y0262248D01*
X0114359Y0262231D01*
X0114417Y0262218D01*
X0114476Y0262208D01*
X0114535Y0262202D01*
X0114595Y0262200D01*
X0115962Y0262200D01*
X0115962Y0264478D01*
X0115279Y0264478D01*
X0118230Y0262200D02*
X0118290Y0262202D01*
X0118349Y0262208D01*
X0118408Y0262218D01*
X0118466Y0262231D01*
X0118523Y0262248D01*
X0118579Y0262269D01*
X0118633Y0262294D01*
X0118686Y0262322D01*
X0118736Y0262354D01*
X0118785Y0262388D01*
X0118831Y0262426D01*
X0118874Y0262467D01*
X0118915Y0262510D01*
X0118953Y0262556D01*
X0118987Y0262605D01*
X0119019Y0262656D01*
X0119047Y0262708D01*
X0119072Y0262762D01*
X0119093Y0262818D01*
X0119110Y0262875D01*
X0119123Y0262933D01*
X0119133Y0262992D01*
X0119139Y0263051D01*
X0119141Y0263111D01*
X0118230Y0262200D02*
X0117775Y0262200D01*
X0111162Y0262200D02*
X0111162Y0266300D01*
X0108884Y0266300D02*
X0111162Y0262200D01*
X0108884Y0262200D02*
X0108884Y0266300D01*
X0106729Y0266300D02*
X0105817Y0266300D01*
X0106273Y0266300D02*
X0106273Y0262200D01*
X0105817Y0262200D02*
X0106729Y0262200D01*
X0103692Y0263111D02*
X0103692Y0266300D01*
X0103692Y0263111D02*
X0103690Y0263051D01*
X0103684Y0262992D01*
X0103674Y0262933D01*
X0103661Y0262875D01*
X0103644Y0262818D01*
X0103623Y0262762D01*
X0103598Y0262708D01*
X0103570Y0262656D01*
X0103538Y0262605D01*
X0103504Y0262556D01*
X0103466Y0262510D01*
X0103425Y0262467D01*
X0103382Y0262426D01*
X0103336Y0262388D01*
X0103287Y0262354D01*
X0103237Y0262322D01*
X0103184Y0262294D01*
X0103130Y0262269D01*
X0103074Y0262248D01*
X0103017Y0262231D01*
X0102959Y0262218D01*
X0102900Y0262208D01*
X0102841Y0262202D01*
X0102781Y0262200D01*
X0102325Y0262200D01*
X0117242Y0013175D02*
X0116104Y0012264D01*
X0117242Y0013175D02*
X0117242Y0009075D01*
X0116104Y0009075D02*
X0118381Y0009075D01*
X0120604Y0012719D02*
X0120604Y0013175D01*
X0122881Y0013175D01*
X0121742Y0009075D01*
X0125176Y0010669D02*
X0127909Y0010669D01*
X0132139Y0009644D02*
X0132186Y0009744D01*
X0132229Y0009844D01*
X0132269Y0009946D01*
X0132305Y0010049D01*
X0132338Y0010154D01*
X0132368Y0010259D01*
X0132394Y0010365D01*
X0132417Y0010472D01*
X0132437Y0010580D01*
X0132453Y0010688D01*
X0132465Y0010797D01*
X0132474Y0010906D01*
X0132479Y0011016D01*
X0132481Y0011125D01*
X0130203Y0011125D02*
X0130205Y0011234D01*
X0130210Y0011344D01*
X0130219Y0011453D01*
X0130231Y0011562D01*
X0130247Y0011670D01*
X0130267Y0011778D01*
X0130290Y0011885D01*
X0130316Y0011991D01*
X0130346Y0012096D01*
X0130379Y0012201D01*
X0130415Y0012304D01*
X0130455Y0012406D01*
X0130498Y0012507D01*
X0130545Y0012606D01*
X0131342Y0013175D02*
X0131397Y0013173D01*
X0131452Y0013168D01*
X0131506Y0013159D01*
X0131560Y0013146D01*
X0131612Y0013130D01*
X0131664Y0013111D01*
X0131714Y0013088D01*
X0131763Y0013063D01*
X0131809Y0013034D01*
X0131854Y0013002D01*
X0131897Y0012967D01*
X0131937Y0012929D01*
X0131975Y0012889D01*
X0132010Y0012847D01*
X0132042Y0012802D01*
X0132071Y0012755D01*
X0132097Y0012707D01*
X0132120Y0012657D01*
X0132139Y0012605D01*
X0132253Y0012264D02*
X0130431Y0009986D01*
X0131342Y0009075D02*
X0131397Y0009077D01*
X0131452Y0009082D01*
X0131506Y0009091D01*
X0131560Y0009104D01*
X0131612Y0009120D01*
X0131664Y0009139D01*
X0131714Y0009162D01*
X0131763Y0009187D01*
X0131809Y0009216D01*
X0131854Y0009248D01*
X0131897Y0009283D01*
X0131937Y0009321D01*
X0131975Y0009361D01*
X0132010Y0009403D01*
X0132042Y0009448D01*
X0132071Y0009495D01*
X0132097Y0009543D01*
X0132120Y0009593D01*
X0132139Y0009645D01*
X0131342Y0009075D02*
X0131287Y0009077D01*
X0131232Y0009082D01*
X0131178Y0009091D01*
X0131124Y0009104D01*
X0131072Y0009120D01*
X0131020Y0009139D01*
X0130970Y0009162D01*
X0130921Y0009187D01*
X0130875Y0009216D01*
X0130830Y0009248D01*
X0130787Y0009283D01*
X0130747Y0009321D01*
X0130709Y0009361D01*
X0130674Y0009403D01*
X0130642Y0009448D01*
X0130613Y0009495D01*
X0130587Y0009543D01*
X0130564Y0009593D01*
X0130545Y0009645D01*
X0132482Y0011125D02*
X0132480Y0011234D01*
X0132475Y0011344D01*
X0132466Y0011453D01*
X0132454Y0011562D01*
X0132438Y0011670D01*
X0132418Y0011778D01*
X0132395Y0011885D01*
X0132369Y0011991D01*
X0132339Y0012096D01*
X0132306Y0012201D01*
X0132270Y0012304D01*
X0132230Y0012406D01*
X0132187Y0012507D01*
X0132140Y0012606D01*
X0131342Y0013175D02*
X0131287Y0013173D01*
X0131232Y0013168D01*
X0131178Y0013159D01*
X0131124Y0013146D01*
X0131072Y0013130D01*
X0131020Y0013111D01*
X0130970Y0013088D01*
X0130921Y0013063D01*
X0130875Y0013034D01*
X0130830Y0013002D01*
X0130787Y0012967D01*
X0130747Y0012929D01*
X0130709Y0012889D01*
X0130674Y0012847D01*
X0130642Y0012802D01*
X0130613Y0012755D01*
X0130587Y0012707D01*
X0130564Y0012657D01*
X0130545Y0012605D01*
X0130203Y0011125D02*
X0130205Y0011016D01*
X0130210Y0010906D01*
X0130219Y0010797D01*
X0130231Y0010688D01*
X0130247Y0010580D01*
X0130267Y0010472D01*
X0130290Y0010365D01*
X0130316Y0010259D01*
X0130346Y0010154D01*
X0130379Y0010049D01*
X0130415Y0009946D01*
X0130455Y0009844D01*
X0130498Y0009744D01*
X0130545Y0009644D01*
X0134703Y0009075D02*
X0136070Y0009075D01*
X0136130Y0009077D01*
X0136189Y0009083D01*
X0136248Y0009093D01*
X0136306Y0009106D01*
X0136363Y0009123D01*
X0136419Y0009144D01*
X0136473Y0009169D01*
X0136526Y0009197D01*
X0136576Y0009229D01*
X0136625Y0009263D01*
X0136671Y0009301D01*
X0136714Y0009342D01*
X0136755Y0009385D01*
X0136793Y0009431D01*
X0136827Y0009480D01*
X0136859Y0009531D01*
X0136887Y0009583D01*
X0136912Y0009637D01*
X0136933Y0009693D01*
X0136950Y0009750D01*
X0136963Y0009808D01*
X0136973Y0009867D01*
X0136979Y0009926D01*
X0136981Y0009986D01*
X0136981Y0010442D01*
X0136979Y0010502D01*
X0136973Y0010561D01*
X0136963Y0010620D01*
X0136950Y0010678D01*
X0136933Y0010735D01*
X0136912Y0010791D01*
X0136887Y0010845D01*
X0136859Y0010898D01*
X0136827Y0010948D01*
X0136793Y0010997D01*
X0136755Y0011043D01*
X0136714Y0011086D01*
X0136671Y0011127D01*
X0136625Y0011165D01*
X0136576Y0011199D01*
X0136526Y0011231D01*
X0136473Y0011259D01*
X0136419Y0011284D01*
X0136363Y0011305D01*
X0136306Y0011322D01*
X0136248Y0011335D01*
X0136189Y0011345D01*
X0136130Y0011351D01*
X0136070Y0011353D01*
X0134703Y0011353D01*
X0134703Y0013175D01*
X0136981Y0013175D01*
X0139276Y0010669D02*
X0142009Y0010669D01*
X0144303Y0009075D02*
X0146581Y0009075D01*
X0145442Y0009075D02*
X0145442Y0013175D01*
X0144303Y0012264D01*
X0148803Y0009986D02*
X0151081Y0009986D01*
X0150398Y0010897D02*
X0150398Y0009075D01*
X0148803Y0009986D02*
X0149715Y0013175D01*
X0111945Y0009644D02*
X0111898Y0009744D01*
X0111855Y0009844D01*
X0111815Y0009946D01*
X0111779Y0010049D01*
X0111746Y0010154D01*
X0111716Y0010259D01*
X0111690Y0010365D01*
X0111667Y0010472D01*
X0111647Y0010580D01*
X0111631Y0010688D01*
X0111619Y0010797D01*
X0111610Y0010906D01*
X0111605Y0011016D01*
X0111603Y0011125D01*
X0113882Y0011125D02*
X0113880Y0011234D01*
X0113875Y0011344D01*
X0113866Y0011453D01*
X0113854Y0011562D01*
X0113838Y0011670D01*
X0113818Y0011778D01*
X0113795Y0011885D01*
X0113769Y0011991D01*
X0113739Y0012096D01*
X0113706Y0012201D01*
X0113670Y0012304D01*
X0113630Y0012406D01*
X0113587Y0012507D01*
X0113540Y0012606D01*
X0113654Y0012264D02*
X0111831Y0009986D01*
X0112742Y0009075D02*
X0112797Y0009077D01*
X0112852Y0009082D01*
X0112906Y0009091D01*
X0112960Y0009104D01*
X0113012Y0009120D01*
X0113064Y0009139D01*
X0113114Y0009162D01*
X0113163Y0009187D01*
X0113209Y0009216D01*
X0113254Y0009248D01*
X0113297Y0009283D01*
X0113337Y0009321D01*
X0113375Y0009361D01*
X0113410Y0009403D01*
X0113442Y0009448D01*
X0113471Y0009495D01*
X0113497Y0009543D01*
X0113520Y0009593D01*
X0113539Y0009645D01*
X0112742Y0009075D02*
X0112687Y0009077D01*
X0112632Y0009082D01*
X0112578Y0009091D01*
X0112524Y0009104D01*
X0112472Y0009120D01*
X0112420Y0009139D01*
X0112370Y0009162D01*
X0112321Y0009187D01*
X0112275Y0009216D01*
X0112230Y0009248D01*
X0112187Y0009283D01*
X0112147Y0009321D01*
X0112109Y0009361D01*
X0112074Y0009403D01*
X0112042Y0009448D01*
X0112013Y0009495D01*
X0111987Y0009543D01*
X0111964Y0009593D01*
X0111945Y0009645D01*
X0113539Y0009644D02*
X0113586Y0009744D01*
X0113629Y0009844D01*
X0113669Y0009946D01*
X0113705Y0010049D01*
X0113738Y0010154D01*
X0113768Y0010259D01*
X0113794Y0010365D01*
X0113817Y0010472D01*
X0113837Y0010580D01*
X0113853Y0010688D01*
X0113865Y0010797D01*
X0113874Y0010906D01*
X0113879Y0011016D01*
X0113881Y0011125D01*
X0111603Y0011125D02*
X0111605Y0011234D01*
X0111610Y0011344D01*
X0111619Y0011453D01*
X0111631Y0011562D01*
X0111647Y0011670D01*
X0111667Y0011778D01*
X0111690Y0011885D01*
X0111716Y0011991D01*
X0111746Y0012096D01*
X0111779Y0012201D01*
X0111815Y0012304D01*
X0111855Y0012406D01*
X0111898Y0012507D01*
X0111945Y0012606D01*
X0111945Y0012605D02*
X0111964Y0012657D01*
X0111987Y0012707D01*
X0112013Y0012755D01*
X0112042Y0012802D01*
X0112074Y0012847D01*
X0112109Y0012889D01*
X0112147Y0012929D01*
X0112187Y0012967D01*
X0112230Y0013002D01*
X0112275Y0013034D01*
X0112321Y0013063D01*
X0112370Y0013088D01*
X0112420Y0013111D01*
X0112472Y0013130D01*
X0112524Y0013146D01*
X0112578Y0013159D01*
X0112632Y0013168D01*
X0112687Y0013173D01*
X0112742Y0013175D01*
X0112797Y0013173D01*
X0112852Y0013168D01*
X0112906Y0013159D01*
X0112960Y0013146D01*
X0113012Y0013130D01*
X0113064Y0013111D01*
X0113114Y0013088D01*
X0113163Y0013063D01*
X0113209Y0013034D01*
X0113254Y0013002D01*
X0113297Y0012967D01*
X0113337Y0012929D01*
X0113375Y0012889D01*
X0113410Y0012847D01*
X0113442Y0012802D01*
X0113471Y0012755D01*
X0113497Y0012707D01*
X0113520Y0012657D01*
X0113539Y0012605D01*
X0109040Y0011353D02*
X0107104Y0009075D01*
X0109381Y0009075D01*
X0107103Y0012264D02*
X0107126Y0012329D01*
X0107152Y0012393D01*
X0107182Y0012455D01*
X0107215Y0012516D01*
X0107251Y0012574D01*
X0107290Y0012631D01*
X0107332Y0012686D01*
X0107377Y0012739D01*
X0107424Y0012789D01*
X0107474Y0012836D01*
X0107527Y0012881D01*
X0107581Y0012923D01*
X0107638Y0012962D01*
X0107697Y0012998D01*
X0107758Y0013031D01*
X0107820Y0013061D01*
X0107884Y0013087D01*
X0107949Y0013110D01*
X0108015Y0013130D01*
X0108082Y0013146D01*
X0108150Y0013159D01*
X0108218Y0013168D01*
X0108287Y0013173D01*
X0108356Y0013175D01*
X0108418Y0013173D01*
X0108480Y0013168D01*
X0108541Y0013158D01*
X0108601Y0013145D01*
X0108661Y0013129D01*
X0108719Y0013108D01*
X0108777Y0013085D01*
X0108832Y0013058D01*
X0108886Y0013027D01*
X0108938Y0012994D01*
X0108988Y0012957D01*
X0109036Y0012917D01*
X0109081Y0012875D01*
X0109123Y0012830D01*
X0109163Y0012782D01*
X0109200Y0012732D01*
X0109233Y0012680D01*
X0109264Y0012626D01*
X0109291Y0012571D01*
X0109314Y0012513D01*
X0109335Y0012455D01*
X0109351Y0012395D01*
X0109364Y0012335D01*
X0109374Y0012274D01*
X0109379Y0012212D01*
X0109381Y0012150D01*
X0109379Y0012086D01*
X0109374Y0012023D01*
X0109364Y0011960D01*
X0109352Y0011898D01*
X0109335Y0011836D01*
X0109315Y0011776D01*
X0109292Y0011716D01*
X0109265Y0011659D01*
X0109235Y0011602D01*
X0109202Y0011548D01*
X0109166Y0011496D01*
X0109126Y0011446D01*
X0109084Y0011398D01*
X0109039Y0011353D01*
D12*
X0107149Y0033193D02*
X0107149Y0036493D01*
X0108065Y0036493D01*
X0108124Y0036491D01*
X0108182Y0036485D01*
X0108240Y0036476D01*
X0108298Y0036463D01*
X0108354Y0036446D01*
X0108409Y0036426D01*
X0108463Y0036402D01*
X0108515Y0036375D01*
X0108565Y0036345D01*
X0108613Y0036311D01*
X0108659Y0036274D01*
X0108703Y0036235D01*
X0108744Y0036192D01*
X0108782Y0036148D01*
X0108817Y0036101D01*
X0108849Y0036051D01*
X0108878Y0036000D01*
X0108904Y0035947D01*
X0108926Y0035893D01*
X0108944Y0035837D01*
X0108959Y0035780D01*
X0108970Y0035722D01*
X0108978Y0035664D01*
X0108982Y0035605D01*
X0108982Y0035547D01*
X0108978Y0035488D01*
X0108970Y0035430D01*
X0108959Y0035372D01*
X0108944Y0035315D01*
X0108926Y0035259D01*
X0108904Y0035205D01*
X0108878Y0035152D01*
X0108849Y0035101D01*
X0108817Y0035051D01*
X0108782Y0035004D01*
X0108744Y0034960D01*
X0108703Y0034917D01*
X0108659Y0034878D01*
X0108613Y0034841D01*
X0108565Y0034807D01*
X0108515Y0034777D01*
X0108463Y0034750D01*
X0108409Y0034726D01*
X0108354Y0034706D01*
X0108298Y0034689D01*
X0108240Y0034676D01*
X0108182Y0034667D01*
X0108124Y0034661D01*
X0108065Y0034659D01*
X0107149Y0034659D01*
X0105417Y0036493D02*
X0103584Y0036493D01*
X0104500Y0036493D02*
X0104500Y0033193D01*
X0101811Y0034568D02*
X0100802Y0035118D01*
X0101169Y0036493D02*
X0101243Y0036491D01*
X0101316Y0036485D01*
X0101389Y0036475D01*
X0101462Y0036461D01*
X0101533Y0036444D01*
X0101604Y0036422D01*
X0101673Y0036397D01*
X0101741Y0036368D01*
X0101807Y0036336D01*
X0101872Y0036300D01*
X0101934Y0036261D01*
X0101994Y0036218D01*
X0100802Y0035117D02*
X0100758Y0035145D01*
X0100717Y0035175D01*
X0100678Y0035209D01*
X0100641Y0035245D01*
X0100606Y0035284D01*
X0100575Y0035324D01*
X0100546Y0035367D01*
X0100521Y0035412D01*
X0100498Y0035458D01*
X0100479Y0035506D01*
X0100463Y0035555D01*
X0100451Y0035605D01*
X0100442Y0035656D01*
X0100437Y0035707D01*
X0100435Y0035759D01*
X0100436Y0035759D02*
X0100438Y0035811D01*
X0100443Y0035863D01*
X0100453Y0035915D01*
X0100466Y0035966D01*
X0100482Y0036015D01*
X0100502Y0036063D01*
X0100526Y0036110D01*
X0100552Y0036155D01*
X0100582Y0036198D01*
X0100615Y0036239D01*
X0100651Y0036277D01*
X0100689Y0036313D01*
X0100730Y0036346D01*
X0100773Y0036376D01*
X0100818Y0036402D01*
X0100865Y0036426D01*
X0100913Y0036446D01*
X0100962Y0036462D01*
X0101013Y0036475D01*
X0101065Y0036485D01*
X0101117Y0036490D01*
X0101169Y0036492D01*
X0100344Y0033651D02*
X0100399Y0033598D01*
X0100457Y0033548D01*
X0100517Y0033501D01*
X0100579Y0033457D01*
X0100644Y0033416D01*
X0100710Y0033378D01*
X0100778Y0033343D01*
X0100848Y0033312D01*
X0100919Y0033285D01*
X0100992Y0033260D01*
X0101066Y0033240D01*
X0101140Y0033223D01*
X0101216Y0033210D01*
X0101291Y0033201D01*
X0101368Y0033195D01*
X0101444Y0033193D01*
X0101496Y0033195D01*
X0101548Y0033200D01*
X0101600Y0033210D01*
X0101651Y0033223D01*
X0101700Y0033239D01*
X0101749Y0033259D01*
X0101795Y0033283D01*
X0101840Y0033309D01*
X0101883Y0033339D01*
X0101924Y0033372D01*
X0101962Y0033408D01*
X0101998Y0033446D01*
X0102031Y0033487D01*
X0102061Y0033530D01*
X0102087Y0033575D01*
X0102111Y0033622D01*
X0102131Y0033670D01*
X0102147Y0033719D01*
X0102160Y0033770D01*
X0102170Y0033822D01*
X0102175Y0033874D01*
X0102177Y0033926D01*
X0102175Y0033978D01*
X0102170Y0034029D01*
X0102161Y0034080D01*
X0102149Y0034130D01*
X0102133Y0034179D01*
X0102114Y0034227D01*
X0102091Y0034273D01*
X0102066Y0034318D01*
X0102037Y0034361D01*
X0102006Y0034401D01*
X0101971Y0034440D01*
X0101934Y0034476D01*
X0101895Y0034510D01*
X0101854Y0034540D01*
X0101810Y0034568D01*
X0098942Y0033193D02*
X0097475Y0033193D01*
X0097475Y0036493D01*
X0098942Y0036493D01*
X0098575Y0035026D02*
X0097475Y0035026D01*
X0095817Y0036493D02*
X0093984Y0036493D01*
X0094901Y0036493D02*
X0094901Y0033193D01*
X0089621Y0033193D02*
X0090721Y0036493D01*
X0088521Y0036493D02*
X0089621Y0033193D01*
X0086937Y0033926D02*
X0086937Y0034293D01*
X0086935Y0034345D01*
X0086930Y0034397D01*
X0086920Y0034449D01*
X0086907Y0034500D01*
X0086891Y0034549D01*
X0086871Y0034597D01*
X0086847Y0034644D01*
X0086821Y0034689D01*
X0086791Y0034732D01*
X0086758Y0034773D01*
X0086722Y0034811D01*
X0086684Y0034847D01*
X0086643Y0034880D01*
X0086600Y0034910D01*
X0086555Y0034936D01*
X0086508Y0034960D01*
X0086460Y0034980D01*
X0086411Y0034996D01*
X0086360Y0035009D01*
X0086308Y0035019D01*
X0086256Y0035024D01*
X0086204Y0035026D01*
X0085104Y0035026D01*
X0085104Y0036493D01*
X0086937Y0036493D01*
X0086937Y0033926D02*
X0086935Y0033874D01*
X0086930Y0033822D01*
X0086920Y0033770D01*
X0086907Y0033719D01*
X0086891Y0033670D01*
X0086871Y0033622D01*
X0086847Y0033575D01*
X0086821Y0033530D01*
X0086791Y0033487D01*
X0086758Y0033446D01*
X0086722Y0033408D01*
X0086684Y0033372D01*
X0086643Y0033339D01*
X0086600Y0033309D01*
X0086555Y0033283D01*
X0086509Y0033259D01*
X0086460Y0033239D01*
X0086411Y0033223D01*
X0086360Y0033210D01*
X0086308Y0033200D01*
X0086256Y0033195D01*
X0086204Y0033193D01*
X0085104Y0033193D01*
X0077576Y0027044D02*
X0077576Y0023744D01*
X0079043Y0023744D01*
X0075923Y0023744D02*
X0074456Y0023744D01*
X0074456Y0027044D01*
X0075923Y0027044D01*
X0075556Y0025577D02*
X0074456Y0025577D01*
X0072311Y0025119D02*
X0071303Y0025669D01*
X0071670Y0027044D02*
X0071744Y0027042D01*
X0071817Y0027036D01*
X0071890Y0027026D01*
X0071963Y0027012D01*
X0072034Y0026995D01*
X0072105Y0026973D01*
X0072174Y0026948D01*
X0072242Y0026919D01*
X0072308Y0026887D01*
X0072373Y0026851D01*
X0072435Y0026812D01*
X0072495Y0026769D01*
X0071303Y0025668D02*
X0071259Y0025696D01*
X0071218Y0025726D01*
X0071179Y0025760D01*
X0071142Y0025796D01*
X0071107Y0025835D01*
X0071076Y0025875D01*
X0071047Y0025918D01*
X0071022Y0025963D01*
X0070999Y0026009D01*
X0070980Y0026057D01*
X0070964Y0026106D01*
X0070952Y0026156D01*
X0070943Y0026207D01*
X0070938Y0026258D01*
X0070936Y0026310D01*
X0070937Y0026310D02*
X0070939Y0026362D01*
X0070944Y0026414D01*
X0070954Y0026466D01*
X0070967Y0026517D01*
X0070983Y0026566D01*
X0071003Y0026614D01*
X0071027Y0026661D01*
X0071053Y0026706D01*
X0071083Y0026749D01*
X0071116Y0026790D01*
X0071152Y0026828D01*
X0071190Y0026864D01*
X0071231Y0026897D01*
X0071274Y0026927D01*
X0071319Y0026953D01*
X0071366Y0026977D01*
X0071414Y0026997D01*
X0071463Y0027013D01*
X0071514Y0027026D01*
X0071566Y0027036D01*
X0071618Y0027041D01*
X0071670Y0027043D01*
X0070845Y0024202D02*
X0070900Y0024149D01*
X0070958Y0024099D01*
X0071018Y0024052D01*
X0071080Y0024008D01*
X0071145Y0023967D01*
X0071211Y0023929D01*
X0071279Y0023894D01*
X0071349Y0023863D01*
X0071420Y0023836D01*
X0071493Y0023811D01*
X0071567Y0023791D01*
X0071641Y0023774D01*
X0071717Y0023761D01*
X0071792Y0023752D01*
X0071869Y0023746D01*
X0071945Y0023744D01*
X0071997Y0023746D01*
X0072049Y0023751D01*
X0072101Y0023761D01*
X0072152Y0023774D01*
X0072201Y0023790D01*
X0072250Y0023810D01*
X0072296Y0023834D01*
X0072341Y0023860D01*
X0072384Y0023890D01*
X0072425Y0023923D01*
X0072463Y0023959D01*
X0072499Y0023997D01*
X0072532Y0024038D01*
X0072562Y0024081D01*
X0072588Y0024126D01*
X0072612Y0024173D01*
X0072632Y0024221D01*
X0072648Y0024270D01*
X0072661Y0024321D01*
X0072671Y0024373D01*
X0072676Y0024425D01*
X0072678Y0024477D01*
X0072676Y0024529D01*
X0072671Y0024580D01*
X0072662Y0024631D01*
X0072650Y0024681D01*
X0072634Y0024730D01*
X0072615Y0024778D01*
X0072592Y0024824D01*
X0072567Y0024869D01*
X0072538Y0024912D01*
X0072507Y0024952D01*
X0072472Y0024991D01*
X0072435Y0025027D01*
X0072396Y0025061D01*
X0072355Y0025091D01*
X0072311Y0025119D01*
X0069141Y0025027D02*
X0066941Y0025027D01*
X0065155Y0023744D02*
X0064422Y0025210D01*
X0064238Y0025210D02*
X0063322Y0025210D01*
X0064238Y0025210D02*
X0064297Y0025212D01*
X0064355Y0025218D01*
X0064413Y0025227D01*
X0064471Y0025240D01*
X0064527Y0025257D01*
X0064582Y0025277D01*
X0064636Y0025301D01*
X0064688Y0025328D01*
X0064738Y0025358D01*
X0064786Y0025392D01*
X0064832Y0025429D01*
X0064876Y0025468D01*
X0064917Y0025511D01*
X0064955Y0025555D01*
X0064990Y0025602D01*
X0065022Y0025652D01*
X0065051Y0025703D01*
X0065077Y0025756D01*
X0065099Y0025810D01*
X0065117Y0025866D01*
X0065132Y0025923D01*
X0065143Y0025981D01*
X0065151Y0026039D01*
X0065155Y0026098D01*
X0065155Y0026156D01*
X0065151Y0026215D01*
X0065143Y0026273D01*
X0065132Y0026331D01*
X0065117Y0026388D01*
X0065099Y0026444D01*
X0065077Y0026498D01*
X0065051Y0026551D01*
X0065022Y0026602D01*
X0064990Y0026652D01*
X0064955Y0026699D01*
X0064917Y0026743D01*
X0064876Y0026786D01*
X0064832Y0026825D01*
X0064786Y0026862D01*
X0064738Y0026896D01*
X0064688Y0026926D01*
X0064636Y0026953D01*
X0064582Y0026977D01*
X0064527Y0026997D01*
X0064471Y0027014D01*
X0064413Y0027027D01*
X0064355Y0027036D01*
X0064297Y0027042D01*
X0064238Y0027044D01*
X0063322Y0027044D01*
X0063322Y0023744D01*
X0061643Y0023744D02*
X0060176Y0023744D01*
X0060176Y0027044D01*
X0061643Y0027044D01*
X0061276Y0025577D02*
X0060176Y0025577D01*
X0058348Y0027044D02*
X0057615Y0023744D01*
X0056881Y0025944D01*
X0056148Y0023744D01*
X0055415Y0027044D01*
X0053718Y0026127D02*
X0053718Y0024660D01*
X0053716Y0024601D01*
X0053710Y0024543D01*
X0053701Y0024485D01*
X0053688Y0024427D01*
X0053671Y0024371D01*
X0053651Y0024316D01*
X0053627Y0024262D01*
X0053600Y0024210D01*
X0053570Y0024160D01*
X0053536Y0024112D01*
X0053499Y0024066D01*
X0053460Y0024022D01*
X0053417Y0023981D01*
X0053373Y0023943D01*
X0053326Y0023908D01*
X0053276Y0023876D01*
X0053225Y0023847D01*
X0053172Y0023821D01*
X0053118Y0023799D01*
X0053062Y0023781D01*
X0053005Y0023766D01*
X0052947Y0023755D01*
X0052889Y0023747D01*
X0052830Y0023743D01*
X0052772Y0023743D01*
X0052713Y0023747D01*
X0052655Y0023755D01*
X0052597Y0023766D01*
X0052540Y0023781D01*
X0052484Y0023799D01*
X0052430Y0023821D01*
X0052377Y0023847D01*
X0052326Y0023876D01*
X0052276Y0023908D01*
X0052229Y0023943D01*
X0052185Y0023981D01*
X0052142Y0024022D01*
X0052103Y0024066D01*
X0052066Y0024112D01*
X0052032Y0024160D01*
X0052002Y0024210D01*
X0051975Y0024262D01*
X0051951Y0024316D01*
X0051931Y0024371D01*
X0051914Y0024427D01*
X0051901Y0024485D01*
X0051892Y0024543D01*
X0051886Y0024601D01*
X0051884Y0024660D01*
X0051885Y0024660D02*
X0051885Y0026127D01*
X0051884Y0026127D02*
X0051886Y0026186D01*
X0051892Y0026244D01*
X0051901Y0026302D01*
X0051914Y0026360D01*
X0051931Y0026416D01*
X0051951Y0026471D01*
X0051975Y0026525D01*
X0052002Y0026577D01*
X0052032Y0026627D01*
X0052066Y0026675D01*
X0052103Y0026721D01*
X0052142Y0026765D01*
X0052185Y0026806D01*
X0052229Y0026844D01*
X0052276Y0026879D01*
X0052326Y0026911D01*
X0052377Y0026940D01*
X0052430Y0026966D01*
X0052484Y0026988D01*
X0052540Y0027006D01*
X0052597Y0027021D01*
X0052655Y0027032D01*
X0052713Y0027040D01*
X0052772Y0027044D01*
X0052830Y0027044D01*
X0052889Y0027040D01*
X0052947Y0027032D01*
X0053005Y0027021D01*
X0053062Y0027006D01*
X0053118Y0026988D01*
X0053172Y0026966D01*
X0053225Y0026940D01*
X0053276Y0026911D01*
X0053326Y0026879D01*
X0053373Y0026844D01*
X0053417Y0026806D01*
X0053460Y0026765D01*
X0053499Y0026721D01*
X0053536Y0026675D01*
X0053570Y0026627D01*
X0053600Y0026577D01*
X0053627Y0026525D01*
X0053651Y0026471D01*
X0053671Y0026416D01*
X0053688Y0026360D01*
X0053701Y0026302D01*
X0053710Y0026244D01*
X0053716Y0026186D01*
X0053718Y0026127D01*
X0049406Y0025210D02*
X0049465Y0025212D01*
X0049523Y0025218D01*
X0049581Y0025227D01*
X0049639Y0025240D01*
X0049695Y0025257D01*
X0049750Y0025277D01*
X0049804Y0025301D01*
X0049856Y0025328D01*
X0049906Y0025358D01*
X0049954Y0025392D01*
X0050000Y0025429D01*
X0050044Y0025468D01*
X0050085Y0025511D01*
X0050123Y0025555D01*
X0050158Y0025602D01*
X0050190Y0025652D01*
X0050219Y0025703D01*
X0050245Y0025756D01*
X0050267Y0025810D01*
X0050285Y0025866D01*
X0050300Y0025923D01*
X0050311Y0025981D01*
X0050319Y0026039D01*
X0050323Y0026098D01*
X0050323Y0026156D01*
X0050319Y0026215D01*
X0050311Y0026273D01*
X0050300Y0026331D01*
X0050285Y0026388D01*
X0050267Y0026444D01*
X0050245Y0026498D01*
X0050219Y0026551D01*
X0050190Y0026602D01*
X0050158Y0026652D01*
X0050123Y0026699D01*
X0050085Y0026743D01*
X0050044Y0026786D01*
X0050000Y0026825D01*
X0049954Y0026862D01*
X0049906Y0026896D01*
X0049856Y0026926D01*
X0049804Y0026953D01*
X0049750Y0026977D01*
X0049695Y0026997D01*
X0049639Y0027014D01*
X0049581Y0027027D01*
X0049523Y0027036D01*
X0049465Y0027042D01*
X0049406Y0027044D01*
X0048490Y0027044D01*
X0048490Y0023744D01*
X0048490Y0025210D02*
X0049406Y0025210D01*
X0130576Y0033783D02*
X0131493Y0033783D01*
X0131552Y0033785D01*
X0131610Y0033791D01*
X0131668Y0033800D01*
X0131726Y0033813D01*
X0131782Y0033830D01*
X0131837Y0033850D01*
X0131891Y0033874D01*
X0131943Y0033901D01*
X0131993Y0033931D01*
X0132041Y0033965D01*
X0132087Y0034002D01*
X0132131Y0034041D01*
X0132172Y0034084D01*
X0132210Y0034128D01*
X0132245Y0034175D01*
X0132277Y0034225D01*
X0132306Y0034276D01*
X0132332Y0034329D01*
X0132354Y0034383D01*
X0132372Y0034439D01*
X0132387Y0034496D01*
X0132398Y0034554D01*
X0132406Y0034612D01*
X0132410Y0034671D01*
X0132410Y0034729D01*
X0132406Y0034788D01*
X0132398Y0034846D01*
X0132387Y0034904D01*
X0132372Y0034961D01*
X0132354Y0035017D01*
X0132332Y0035071D01*
X0132306Y0035124D01*
X0132277Y0035175D01*
X0132245Y0035225D01*
X0132210Y0035272D01*
X0132172Y0035316D01*
X0132131Y0035359D01*
X0132087Y0035398D01*
X0132041Y0035435D01*
X0131993Y0035469D01*
X0131943Y0035499D01*
X0131891Y0035526D01*
X0131837Y0035550D01*
X0131782Y0035570D01*
X0131726Y0035587D01*
X0131668Y0035600D01*
X0131610Y0035609D01*
X0131552Y0035615D01*
X0131493Y0035617D01*
X0131676Y0035616D02*
X0130943Y0035616D01*
X0131676Y0035617D02*
X0131728Y0035619D01*
X0131780Y0035624D01*
X0131832Y0035634D01*
X0131883Y0035647D01*
X0131932Y0035663D01*
X0131980Y0035683D01*
X0132027Y0035707D01*
X0132072Y0035733D01*
X0132115Y0035763D01*
X0132156Y0035796D01*
X0132194Y0035832D01*
X0132230Y0035870D01*
X0132263Y0035911D01*
X0132293Y0035954D01*
X0132319Y0035999D01*
X0132343Y0036046D01*
X0132363Y0036094D01*
X0132379Y0036143D01*
X0132392Y0036194D01*
X0132402Y0036246D01*
X0132407Y0036298D01*
X0132409Y0036350D01*
X0132407Y0036402D01*
X0132402Y0036454D01*
X0132392Y0036506D01*
X0132379Y0036557D01*
X0132363Y0036606D01*
X0132343Y0036654D01*
X0132319Y0036701D01*
X0132293Y0036746D01*
X0132263Y0036789D01*
X0132230Y0036830D01*
X0132194Y0036868D01*
X0132156Y0036904D01*
X0132115Y0036937D01*
X0132072Y0036967D01*
X0132027Y0036993D01*
X0131980Y0037017D01*
X0131932Y0037037D01*
X0131883Y0037053D01*
X0131832Y0037066D01*
X0131780Y0037076D01*
X0131728Y0037081D01*
X0131676Y0037083D01*
X0130576Y0037083D01*
X0133993Y0037083D02*
X0135093Y0033783D01*
X0136193Y0037083D01*
X0137776Y0037083D02*
X0138876Y0037083D01*
X0138928Y0037081D01*
X0138980Y0037076D01*
X0139032Y0037066D01*
X0139083Y0037053D01*
X0139132Y0037037D01*
X0139180Y0037017D01*
X0139227Y0036993D01*
X0139272Y0036967D01*
X0139315Y0036937D01*
X0139356Y0036904D01*
X0139394Y0036868D01*
X0139430Y0036830D01*
X0139463Y0036789D01*
X0139493Y0036746D01*
X0139519Y0036701D01*
X0139543Y0036654D01*
X0139563Y0036606D01*
X0139579Y0036557D01*
X0139592Y0036506D01*
X0139602Y0036454D01*
X0139607Y0036402D01*
X0139609Y0036350D01*
X0139607Y0036298D01*
X0139602Y0036246D01*
X0139592Y0036194D01*
X0139579Y0036143D01*
X0139563Y0036094D01*
X0139543Y0036046D01*
X0139519Y0035999D01*
X0139493Y0035954D01*
X0139463Y0035911D01*
X0139430Y0035870D01*
X0139394Y0035832D01*
X0139356Y0035796D01*
X0139315Y0035763D01*
X0139272Y0035733D01*
X0139227Y0035707D01*
X0139180Y0035683D01*
X0139132Y0035663D01*
X0139083Y0035647D01*
X0139032Y0035634D01*
X0138980Y0035624D01*
X0138928Y0035619D01*
X0138876Y0035617D01*
X0138876Y0035616D02*
X0138143Y0035616D01*
X0138693Y0035617D02*
X0138752Y0035615D01*
X0138810Y0035609D01*
X0138868Y0035600D01*
X0138926Y0035587D01*
X0138982Y0035570D01*
X0139037Y0035550D01*
X0139091Y0035526D01*
X0139143Y0035499D01*
X0139193Y0035469D01*
X0139241Y0035435D01*
X0139287Y0035398D01*
X0139331Y0035359D01*
X0139372Y0035316D01*
X0139410Y0035272D01*
X0139445Y0035225D01*
X0139477Y0035175D01*
X0139506Y0035124D01*
X0139532Y0035071D01*
X0139554Y0035017D01*
X0139572Y0034961D01*
X0139587Y0034904D01*
X0139598Y0034846D01*
X0139606Y0034788D01*
X0139610Y0034729D01*
X0139610Y0034671D01*
X0139606Y0034612D01*
X0139598Y0034554D01*
X0139587Y0034496D01*
X0139572Y0034439D01*
X0139554Y0034383D01*
X0139532Y0034329D01*
X0139506Y0034276D01*
X0139477Y0034225D01*
X0139445Y0034175D01*
X0139410Y0034128D01*
X0139372Y0034084D01*
X0139331Y0034041D01*
X0139287Y0034002D01*
X0139241Y0033965D01*
X0139193Y0033931D01*
X0139143Y0033901D01*
X0139091Y0033874D01*
X0139037Y0033850D01*
X0138982Y0033830D01*
X0138926Y0033813D01*
X0138868Y0033800D01*
X0138810Y0033791D01*
X0138752Y0033785D01*
X0138693Y0033783D01*
X0137776Y0033783D01*
X0143973Y0033783D02*
X0143973Y0037083D01*
X0143056Y0037083D02*
X0144890Y0037083D01*
X0146548Y0037083D02*
X0146548Y0033783D01*
X0148014Y0033783D01*
X0147648Y0035616D02*
X0146548Y0035616D01*
X0146548Y0037083D02*
X0148014Y0037083D01*
X0149875Y0035708D02*
X0150883Y0035158D01*
X0150516Y0033783D02*
X0150440Y0033785D01*
X0150363Y0033791D01*
X0150288Y0033800D01*
X0150212Y0033813D01*
X0150138Y0033830D01*
X0150064Y0033850D01*
X0149991Y0033875D01*
X0149920Y0033902D01*
X0149850Y0033933D01*
X0149782Y0033968D01*
X0149716Y0034006D01*
X0149651Y0034047D01*
X0149589Y0034091D01*
X0149529Y0034138D01*
X0149471Y0034188D01*
X0149416Y0034241D01*
X0150883Y0035158D02*
X0150927Y0035130D01*
X0150968Y0035100D01*
X0151007Y0035066D01*
X0151044Y0035030D01*
X0151079Y0034991D01*
X0151110Y0034951D01*
X0151139Y0034908D01*
X0151164Y0034863D01*
X0151187Y0034817D01*
X0151206Y0034769D01*
X0151222Y0034720D01*
X0151234Y0034670D01*
X0151243Y0034619D01*
X0151248Y0034568D01*
X0151250Y0034516D01*
X0151249Y0034516D02*
X0151247Y0034464D01*
X0151242Y0034412D01*
X0151232Y0034360D01*
X0151219Y0034309D01*
X0151203Y0034260D01*
X0151183Y0034212D01*
X0151159Y0034165D01*
X0151133Y0034120D01*
X0151103Y0034077D01*
X0151070Y0034036D01*
X0151034Y0033998D01*
X0150996Y0033962D01*
X0150955Y0033929D01*
X0150912Y0033899D01*
X0150867Y0033873D01*
X0150821Y0033849D01*
X0150772Y0033829D01*
X0150723Y0033813D01*
X0150672Y0033800D01*
X0150620Y0033790D01*
X0150568Y0033785D01*
X0150516Y0033783D01*
X0151066Y0036808D02*
X0151006Y0036851D01*
X0150944Y0036890D01*
X0150879Y0036926D01*
X0150813Y0036958D01*
X0150745Y0036987D01*
X0150676Y0037012D01*
X0150605Y0037034D01*
X0150534Y0037051D01*
X0150461Y0037065D01*
X0150388Y0037075D01*
X0150315Y0037081D01*
X0150241Y0037083D01*
X0150189Y0037081D01*
X0150137Y0037076D01*
X0150085Y0037066D01*
X0150034Y0037053D01*
X0149985Y0037037D01*
X0149937Y0037017D01*
X0149890Y0036993D01*
X0149845Y0036967D01*
X0149802Y0036937D01*
X0149761Y0036904D01*
X0149723Y0036868D01*
X0149687Y0036830D01*
X0149654Y0036789D01*
X0149624Y0036746D01*
X0149598Y0036701D01*
X0149574Y0036654D01*
X0149554Y0036606D01*
X0149538Y0036557D01*
X0149525Y0036506D01*
X0149515Y0036454D01*
X0149510Y0036402D01*
X0149508Y0036350D01*
X0149510Y0036298D01*
X0149515Y0036247D01*
X0149524Y0036196D01*
X0149536Y0036146D01*
X0149552Y0036097D01*
X0149571Y0036049D01*
X0149594Y0036003D01*
X0149619Y0035958D01*
X0149648Y0035915D01*
X0149679Y0035875D01*
X0149714Y0035836D01*
X0149751Y0035800D01*
X0149790Y0035766D01*
X0149831Y0035736D01*
X0149875Y0035708D01*
X0152656Y0037083D02*
X0154490Y0037083D01*
X0153573Y0037083D02*
X0153573Y0033783D01*
X0156221Y0033783D02*
X0156221Y0037083D01*
X0157138Y0037083D01*
X0157197Y0037081D01*
X0157255Y0037075D01*
X0157313Y0037066D01*
X0157371Y0037053D01*
X0157427Y0037036D01*
X0157482Y0037016D01*
X0157536Y0036992D01*
X0157588Y0036965D01*
X0157638Y0036935D01*
X0157686Y0036901D01*
X0157732Y0036864D01*
X0157776Y0036825D01*
X0157817Y0036782D01*
X0157855Y0036738D01*
X0157890Y0036691D01*
X0157922Y0036641D01*
X0157951Y0036590D01*
X0157977Y0036537D01*
X0157999Y0036483D01*
X0158017Y0036427D01*
X0158032Y0036370D01*
X0158043Y0036312D01*
X0158051Y0036254D01*
X0158055Y0036195D01*
X0158055Y0036137D01*
X0158051Y0036078D01*
X0158043Y0036020D01*
X0158032Y0035962D01*
X0158017Y0035905D01*
X0157999Y0035849D01*
X0157977Y0035795D01*
X0157951Y0035742D01*
X0157922Y0035691D01*
X0157890Y0035641D01*
X0157855Y0035594D01*
X0157817Y0035550D01*
X0157776Y0035507D01*
X0157732Y0035468D01*
X0157686Y0035431D01*
X0157638Y0035397D01*
X0157588Y0035367D01*
X0157536Y0035340D01*
X0157482Y0035316D01*
X0157427Y0035296D01*
X0157371Y0035279D01*
X0157313Y0035266D01*
X0157255Y0035257D01*
X0157197Y0035251D01*
X0157138Y0035249D01*
X0157138Y0035250D02*
X0156221Y0035250D01*
X0189725Y0082725D02*
X0190804Y0082725D01*
X0190855Y0082727D01*
X0190906Y0082732D01*
X0190957Y0082741D01*
X0191007Y0082754D01*
X0191055Y0082770D01*
X0191103Y0082790D01*
X0191149Y0082813D01*
X0191193Y0082839D01*
X0191235Y0082868D01*
X0191275Y0082901D01*
X0191312Y0082936D01*
X0191347Y0082973D01*
X0191380Y0083013D01*
X0191409Y0083055D01*
X0191435Y0083099D01*
X0191458Y0083145D01*
X0191478Y0083193D01*
X0191494Y0083241D01*
X0191507Y0083291D01*
X0191516Y0083342D01*
X0191521Y0083393D01*
X0191523Y0083444D01*
X0191523Y0083804D01*
X0191521Y0083855D01*
X0191516Y0083906D01*
X0191507Y0083957D01*
X0191494Y0084007D01*
X0191478Y0084055D01*
X0191458Y0084103D01*
X0191435Y0084149D01*
X0191409Y0084193D01*
X0191380Y0084235D01*
X0191347Y0084275D01*
X0191312Y0084312D01*
X0191275Y0084347D01*
X0191235Y0084380D01*
X0191193Y0084409D01*
X0191149Y0084435D01*
X0191103Y0084458D01*
X0191055Y0084478D01*
X0191007Y0084494D01*
X0190957Y0084507D01*
X0190906Y0084516D01*
X0190855Y0084521D01*
X0190804Y0084523D01*
X0189725Y0084523D01*
X0189725Y0085962D01*
X0191523Y0085962D01*
X0193088Y0085962D02*
X0194167Y0082725D01*
X0195246Y0085962D01*
X0194167Y0092725D02*
X0195246Y0095962D01*
X0196812Y0095962D02*
X0197891Y0095962D01*
X0197943Y0095960D01*
X0197996Y0095954D01*
X0198047Y0095945D01*
X0198098Y0095932D01*
X0198148Y0095915D01*
X0198196Y0095894D01*
X0198243Y0095870D01*
X0198288Y0095843D01*
X0198330Y0095812D01*
X0198371Y0095778D01*
X0198409Y0095742D01*
X0198444Y0095703D01*
X0198476Y0095661D01*
X0198505Y0095618D01*
X0198530Y0095572D01*
X0198553Y0095524D01*
X0198571Y0095475D01*
X0198587Y0095425D01*
X0198598Y0095374D01*
X0198606Y0095322D01*
X0198610Y0095269D01*
X0198610Y0095217D01*
X0198606Y0095164D01*
X0198598Y0095112D01*
X0198587Y0095061D01*
X0198571Y0095011D01*
X0198553Y0094962D01*
X0198530Y0094914D01*
X0198505Y0094868D01*
X0198476Y0094825D01*
X0198444Y0094783D01*
X0198409Y0094744D01*
X0198371Y0094708D01*
X0198330Y0094674D01*
X0198288Y0094643D01*
X0198243Y0094616D01*
X0198196Y0094592D01*
X0198148Y0094571D01*
X0198098Y0094554D01*
X0198047Y0094541D01*
X0197996Y0094532D01*
X0197943Y0094526D01*
X0197891Y0094524D01*
X0197891Y0094523D02*
X0197171Y0094523D01*
X0197711Y0094523D02*
X0197770Y0094521D01*
X0197828Y0094515D01*
X0197886Y0094506D01*
X0197944Y0094492D01*
X0198000Y0094475D01*
X0198055Y0094455D01*
X0198109Y0094430D01*
X0198161Y0094403D01*
X0198210Y0094371D01*
X0198258Y0094337D01*
X0198304Y0094300D01*
X0198347Y0094260D01*
X0198387Y0094217D01*
X0198424Y0094171D01*
X0198458Y0094123D01*
X0198490Y0094074D01*
X0198517Y0094022D01*
X0198542Y0093968D01*
X0198562Y0093913D01*
X0198579Y0093857D01*
X0198593Y0093799D01*
X0198602Y0093741D01*
X0198608Y0093683D01*
X0198610Y0093624D01*
X0198608Y0093565D01*
X0198602Y0093507D01*
X0198593Y0093449D01*
X0198579Y0093391D01*
X0198562Y0093335D01*
X0198542Y0093280D01*
X0198517Y0093226D01*
X0198490Y0093175D01*
X0198458Y0093125D01*
X0198424Y0093077D01*
X0198387Y0093031D01*
X0198347Y0092988D01*
X0198304Y0092948D01*
X0198258Y0092911D01*
X0198210Y0092877D01*
X0198161Y0092845D01*
X0198109Y0092818D01*
X0198055Y0092793D01*
X0198000Y0092773D01*
X0197944Y0092756D01*
X0197886Y0092742D01*
X0197828Y0092733D01*
X0197770Y0092727D01*
X0197711Y0092725D01*
X0196812Y0092725D01*
X0194167Y0092725D02*
X0193088Y0095962D01*
X0190804Y0095962D02*
X0189725Y0095962D01*
X0190804Y0095962D02*
X0190856Y0095960D01*
X0190909Y0095954D01*
X0190960Y0095945D01*
X0191011Y0095932D01*
X0191061Y0095915D01*
X0191109Y0095894D01*
X0191156Y0095870D01*
X0191201Y0095843D01*
X0191243Y0095812D01*
X0191284Y0095778D01*
X0191322Y0095742D01*
X0191357Y0095703D01*
X0191389Y0095661D01*
X0191418Y0095618D01*
X0191443Y0095572D01*
X0191466Y0095524D01*
X0191484Y0095475D01*
X0191500Y0095425D01*
X0191511Y0095374D01*
X0191519Y0095322D01*
X0191523Y0095269D01*
X0191523Y0095217D01*
X0191519Y0095164D01*
X0191511Y0095112D01*
X0191500Y0095061D01*
X0191484Y0095011D01*
X0191466Y0094962D01*
X0191443Y0094914D01*
X0191418Y0094868D01*
X0191389Y0094825D01*
X0191357Y0094783D01*
X0191322Y0094744D01*
X0191284Y0094708D01*
X0191243Y0094674D01*
X0191201Y0094643D01*
X0191156Y0094616D01*
X0191109Y0094592D01*
X0191061Y0094571D01*
X0191011Y0094554D01*
X0190960Y0094541D01*
X0190909Y0094532D01*
X0190856Y0094526D01*
X0190804Y0094524D01*
X0190804Y0094523D02*
X0190085Y0094523D01*
X0190624Y0094523D02*
X0190683Y0094521D01*
X0190741Y0094515D01*
X0190799Y0094506D01*
X0190857Y0094492D01*
X0190913Y0094475D01*
X0190968Y0094455D01*
X0191022Y0094430D01*
X0191074Y0094403D01*
X0191123Y0094371D01*
X0191171Y0094337D01*
X0191217Y0094300D01*
X0191260Y0094260D01*
X0191300Y0094217D01*
X0191337Y0094171D01*
X0191371Y0094123D01*
X0191403Y0094074D01*
X0191430Y0094022D01*
X0191455Y0093968D01*
X0191475Y0093913D01*
X0191492Y0093857D01*
X0191506Y0093799D01*
X0191515Y0093741D01*
X0191521Y0093683D01*
X0191523Y0093624D01*
X0191521Y0093565D01*
X0191515Y0093507D01*
X0191506Y0093449D01*
X0191492Y0093391D01*
X0191475Y0093335D01*
X0191455Y0093280D01*
X0191430Y0093226D01*
X0191403Y0093175D01*
X0191371Y0093125D01*
X0191337Y0093077D01*
X0191300Y0093031D01*
X0191260Y0092988D01*
X0191217Y0092948D01*
X0191171Y0092911D01*
X0191123Y0092877D01*
X0191074Y0092845D01*
X0191022Y0092818D01*
X0190968Y0092793D01*
X0190913Y0092773D01*
X0190857Y0092756D01*
X0190799Y0092742D01*
X0190741Y0092733D01*
X0190683Y0092727D01*
X0190624Y0092725D01*
X0189725Y0092725D01*
X0190444Y0102725D02*
X0191523Y0102725D01*
X0191523Y0104523D01*
X0190984Y0104523D01*
X0189725Y0105243D02*
X0189727Y0105294D01*
X0189732Y0105345D01*
X0189741Y0105396D01*
X0189754Y0105446D01*
X0189770Y0105494D01*
X0189790Y0105542D01*
X0189813Y0105588D01*
X0189839Y0105632D01*
X0189868Y0105674D01*
X0189901Y0105714D01*
X0189936Y0105751D01*
X0189973Y0105786D01*
X0190013Y0105819D01*
X0190055Y0105848D01*
X0190099Y0105874D01*
X0190145Y0105897D01*
X0190193Y0105917D01*
X0190241Y0105933D01*
X0190291Y0105946D01*
X0190342Y0105955D01*
X0190393Y0105960D01*
X0190444Y0105962D01*
X0191523Y0105962D01*
X0189725Y0105243D02*
X0189725Y0103444D01*
X0189727Y0103393D01*
X0189732Y0103342D01*
X0189741Y0103291D01*
X0189754Y0103241D01*
X0189770Y0103193D01*
X0189790Y0103145D01*
X0189813Y0103099D01*
X0189839Y0103055D01*
X0189868Y0103013D01*
X0189901Y0102973D01*
X0189936Y0102936D01*
X0189973Y0102901D01*
X0190013Y0102868D01*
X0190055Y0102839D01*
X0190099Y0102813D01*
X0190145Y0102790D01*
X0190193Y0102770D01*
X0190241Y0102754D01*
X0190291Y0102741D01*
X0190342Y0102732D01*
X0190393Y0102727D01*
X0190444Y0102725D01*
X0193505Y0102725D02*
X0193505Y0105962D01*
X0195303Y0102725D01*
X0195303Y0105962D01*
X0197284Y0105962D02*
X0197284Y0102725D01*
X0198183Y0102725D01*
X0198242Y0102727D01*
X0198300Y0102733D01*
X0198358Y0102742D01*
X0198416Y0102756D01*
X0198472Y0102773D01*
X0198527Y0102793D01*
X0198581Y0102818D01*
X0198633Y0102845D01*
X0198682Y0102877D01*
X0198730Y0102911D01*
X0198776Y0102948D01*
X0198819Y0102988D01*
X0198859Y0103031D01*
X0198896Y0103077D01*
X0198930Y0103125D01*
X0198962Y0103175D01*
X0198989Y0103226D01*
X0199014Y0103280D01*
X0199034Y0103335D01*
X0199051Y0103391D01*
X0199065Y0103449D01*
X0199074Y0103507D01*
X0199080Y0103565D01*
X0199082Y0103624D01*
X0199082Y0105063D01*
X0199080Y0105122D01*
X0199074Y0105180D01*
X0199065Y0105238D01*
X0199051Y0105296D01*
X0199034Y0105352D01*
X0199014Y0105407D01*
X0198989Y0105461D01*
X0198962Y0105513D01*
X0198930Y0105562D01*
X0198896Y0105610D01*
X0198859Y0105656D01*
X0198819Y0105699D01*
X0198776Y0105739D01*
X0198730Y0105776D01*
X0198682Y0105810D01*
X0198633Y0105842D01*
X0198581Y0105869D01*
X0198527Y0105894D01*
X0198472Y0105914D01*
X0198416Y0105931D01*
X0198358Y0105945D01*
X0198300Y0105954D01*
X0198242Y0105960D01*
X0198183Y0105962D01*
X0197284Y0105962D01*
X0196695Y0123350D02*
X0195795Y0123350D01*
X0195795Y0126587D01*
X0196695Y0126587D01*
X0196754Y0126585D01*
X0196812Y0126579D01*
X0196870Y0126570D01*
X0196928Y0126556D01*
X0196984Y0126539D01*
X0197039Y0126519D01*
X0197093Y0126494D01*
X0197145Y0126467D01*
X0197194Y0126435D01*
X0197242Y0126401D01*
X0197288Y0126364D01*
X0197331Y0126324D01*
X0197371Y0126281D01*
X0197408Y0126235D01*
X0197442Y0126187D01*
X0197474Y0126138D01*
X0197501Y0126086D01*
X0197526Y0126032D01*
X0197546Y0125977D01*
X0197563Y0125921D01*
X0197577Y0125863D01*
X0197586Y0125805D01*
X0197592Y0125747D01*
X0197594Y0125688D01*
X0197594Y0124249D01*
X0197592Y0124190D01*
X0197586Y0124132D01*
X0197577Y0124074D01*
X0197563Y0124016D01*
X0197546Y0123960D01*
X0197526Y0123905D01*
X0197501Y0123851D01*
X0197474Y0123800D01*
X0197442Y0123750D01*
X0197408Y0123702D01*
X0197371Y0123656D01*
X0197331Y0123613D01*
X0197288Y0123573D01*
X0197242Y0123536D01*
X0197194Y0123502D01*
X0197145Y0123470D01*
X0197093Y0123443D01*
X0197039Y0123418D01*
X0196984Y0123398D01*
X0196928Y0123381D01*
X0196870Y0123367D01*
X0196812Y0123358D01*
X0196754Y0123352D01*
X0196695Y0123350D01*
X0199288Y0123350D02*
X0200007Y0123350D01*
X0199647Y0123350D02*
X0199647Y0126587D01*
X0199288Y0126587D02*
X0200007Y0126587D01*
X0194175Y0123350D02*
X0192736Y0123350D01*
X0192736Y0126587D01*
X0190179Y0124789D02*
X0190898Y0123350D01*
X0189999Y0124789D02*
X0189100Y0124789D01*
X0189999Y0124789D02*
X0190058Y0124791D01*
X0190116Y0124797D01*
X0190174Y0124806D01*
X0190232Y0124820D01*
X0190288Y0124837D01*
X0190343Y0124857D01*
X0190397Y0124882D01*
X0190449Y0124909D01*
X0190498Y0124941D01*
X0190546Y0124975D01*
X0190592Y0125012D01*
X0190635Y0125052D01*
X0190675Y0125095D01*
X0190712Y0125141D01*
X0190746Y0125189D01*
X0190778Y0125239D01*
X0190805Y0125290D01*
X0190830Y0125344D01*
X0190850Y0125399D01*
X0190867Y0125455D01*
X0190881Y0125513D01*
X0190890Y0125571D01*
X0190896Y0125629D01*
X0190898Y0125688D01*
X0190896Y0125747D01*
X0190890Y0125805D01*
X0190881Y0125863D01*
X0190867Y0125921D01*
X0190850Y0125977D01*
X0190830Y0126032D01*
X0190805Y0126086D01*
X0190778Y0126138D01*
X0190746Y0126187D01*
X0190712Y0126235D01*
X0190675Y0126281D01*
X0190635Y0126324D01*
X0190592Y0126364D01*
X0190546Y0126401D01*
X0190498Y0126435D01*
X0190449Y0126467D01*
X0190397Y0126494D01*
X0190343Y0126519D01*
X0190288Y0126539D01*
X0190232Y0126556D01*
X0190174Y0126570D01*
X0190116Y0126579D01*
X0190058Y0126585D01*
X0189999Y0126587D01*
X0189100Y0126587D01*
X0189100Y0123350D01*
X0189100Y0133350D02*
X0189100Y0136587D01*
X0189999Y0136587D01*
X0190058Y0136585D01*
X0190116Y0136579D01*
X0190174Y0136570D01*
X0190232Y0136556D01*
X0190288Y0136539D01*
X0190343Y0136519D01*
X0190397Y0136494D01*
X0190449Y0136467D01*
X0190498Y0136435D01*
X0190546Y0136401D01*
X0190592Y0136364D01*
X0190635Y0136324D01*
X0190675Y0136281D01*
X0190712Y0136235D01*
X0190746Y0136187D01*
X0190778Y0136138D01*
X0190805Y0136086D01*
X0190830Y0136032D01*
X0190850Y0135977D01*
X0190867Y0135921D01*
X0190881Y0135863D01*
X0190890Y0135805D01*
X0190896Y0135747D01*
X0190898Y0135688D01*
X0190896Y0135629D01*
X0190890Y0135571D01*
X0190881Y0135513D01*
X0190867Y0135455D01*
X0190850Y0135399D01*
X0190830Y0135344D01*
X0190805Y0135290D01*
X0190778Y0135239D01*
X0190746Y0135189D01*
X0190712Y0135141D01*
X0190675Y0135095D01*
X0190635Y0135052D01*
X0190592Y0135012D01*
X0190546Y0134975D01*
X0190498Y0134941D01*
X0190449Y0134909D01*
X0190397Y0134882D01*
X0190343Y0134857D01*
X0190288Y0134837D01*
X0190232Y0134820D01*
X0190174Y0134806D01*
X0190116Y0134797D01*
X0190058Y0134791D01*
X0189999Y0134789D01*
X0189100Y0134789D01*
X0192570Y0133350D02*
X0194009Y0133350D01*
X0192570Y0133350D02*
X0192570Y0136587D01*
X0195630Y0136587D02*
X0195630Y0133350D01*
X0196529Y0133350D01*
X0196588Y0133352D01*
X0196646Y0133358D01*
X0196704Y0133367D01*
X0196762Y0133381D01*
X0196818Y0133398D01*
X0196873Y0133418D01*
X0196927Y0133443D01*
X0196979Y0133470D01*
X0197028Y0133502D01*
X0197076Y0133536D01*
X0197122Y0133573D01*
X0197165Y0133613D01*
X0197205Y0133656D01*
X0197242Y0133702D01*
X0197276Y0133750D01*
X0197308Y0133800D01*
X0197335Y0133851D01*
X0197360Y0133905D01*
X0197380Y0133960D01*
X0197397Y0134016D01*
X0197411Y0134074D01*
X0197420Y0134132D01*
X0197426Y0134190D01*
X0197428Y0134249D01*
X0197428Y0135688D01*
X0197426Y0135747D01*
X0197420Y0135805D01*
X0197411Y0135863D01*
X0197397Y0135921D01*
X0197380Y0135977D01*
X0197360Y0136032D01*
X0197335Y0136086D01*
X0197308Y0136138D01*
X0197276Y0136187D01*
X0197242Y0136235D01*
X0197205Y0136281D01*
X0197165Y0136324D01*
X0197122Y0136364D01*
X0197076Y0136401D01*
X0197028Y0136435D01*
X0196979Y0136467D01*
X0196927Y0136494D01*
X0196873Y0136519D01*
X0196818Y0136539D01*
X0196762Y0136556D01*
X0196704Y0136570D01*
X0196646Y0136579D01*
X0196588Y0136585D01*
X0196529Y0136587D01*
X0195630Y0136587D01*
X0199122Y0136587D02*
X0199841Y0136587D01*
X0199481Y0136587D02*
X0199481Y0133350D01*
X0199122Y0133350D02*
X0199841Y0133350D01*
X0196695Y0142725D02*
X0195795Y0142725D01*
X0195795Y0145962D01*
X0196695Y0145962D01*
X0196754Y0145960D01*
X0196812Y0145954D01*
X0196870Y0145945D01*
X0196928Y0145931D01*
X0196984Y0145914D01*
X0197039Y0145894D01*
X0197093Y0145869D01*
X0197145Y0145842D01*
X0197194Y0145810D01*
X0197242Y0145776D01*
X0197288Y0145739D01*
X0197331Y0145699D01*
X0197371Y0145656D01*
X0197408Y0145610D01*
X0197442Y0145562D01*
X0197474Y0145513D01*
X0197501Y0145461D01*
X0197526Y0145407D01*
X0197546Y0145352D01*
X0197563Y0145296D01*
X0197577Y0145238D01*
X0197586Y0145180D01*
X0197592Y0145122D01*
X0197594Y0145063D01*
X0197594Y0143624D01*
X0197592Y0143565D01*
X0197586Y0143507D01*
X0197577Y0143449D01*
X0197563Y0143391D01*
X0197546Y0143335D01*
X0197526Y0143280D01*
X0197501Y0143226D01*
X0197474Y0143175D01*
X0197442Y0143125D01*
X0197408Y0143077D01*
X0197371Y0143031D01*
X0197331Y0142988D01*
X0197288Y0142948D01*
X0197242Y0142911D01*
X0197194Y0142877D01*
X0197145Y0142845D01*
X0197093Y0142818D01*
X0197039Y0142793D01*
X0196984Y0142773D01*
X0196928Y0142756D01*
X0196870Y0142742D01*
X0196812Y0142733D01*
X0196754Y0142727D01*
X0196695Y0142725D01*
X0199457Y0143624D02*
X0199457Y0145063D01*
X0199459Y0145122D01*
X0199465Y0145180D01*
X0199474Y0145238D01*
X0199488Y0145296D01*
X0199505Y0145352D01*
X0199525Y0145407D01*
X0199550Y0145461D01*
X0199577Y0145513D01*
X0199609Y0145562D01*
X0199643Y0145610D01*
X0199680Y0145656D01*
X0199720Y0145699D01*
X0199763Y0145739D01*
X0199809Y0145776D01*
X0199857Y0145810D01*
X0199907Y0145842D01*
X0199958Y0145869D01*
X0200012Y0145894D01*
X0200067Y0145914D01*
X0200123Y0145931D01*
X0200181Y0145945D01*
X0200239Y0145954D01*
X0200297Y0145960D01*
X0200356Y0145962D01*
X0200415Y0145960D01*
X0200473Y0145954D01*
X0200531Y0145945D01*
X0200589Y0145931D01*
X0200645Y0145914D01*
X0200700Y0145894D01*
X0200754Y0145869D01*
X0200806Y0145842D01*
X0200855Y0145810D01*
X0200903Y0145776D01*
X0200949Y0145739D01*
X0200992Y0145699D01*
X0201032Y0145656D01*
X0201069Y0145610D01*
X0201103Y0145562D01*
X0201135Y0145513D01*
X0201162Y0145461D01*
X0201187Y0145407D01*
X0201207Y0145352D01*
X0201224Y0145296D01*
X0201238Y0145238D01*
X0201247Y0145180D01*
X0201253Y0145122D01*
X0201255Y0145063D01*
X0201255Y0143624D01*
X0201253Y0143565D01*
X0201247Y0143507D01*
X0201238Y0143449D01*
X0201224Y0143391D01*
X0201207Y0143335D01*
X0201187Y0143280D01*
X0201162Y0143226D01*
X0201135Y0143175D01*
X0201103Y0143125D01*
X0201069Y0143077D01*
X0201032Y0143031D01*
X0200992Y0142988D01*
X0200949Y0142948D01*
X0200903Y0142911D01*
X0200855Y0142877D01*
X0200806Y0142845D01*
X0200754Y0142818D01*
X0200700Y0142793D01*
X0200645Y0142773D01*
X0200589Y0142756D01*
X0200531Y0142742D01*
X0200473Y0142733D01*
X0200415Y0142727D01*
X0200356Y0142725D01*
X0200297Y0142727D01*
X0200239Y0142733D01*
X0200181Y0142742D01*
X0200123Y0142756D01*
X0200067Y0142773D01*
X0200012Y0142793D01*
X0199958Y0142818D01*
X0199907Y0142845D01*
X0199857Y0142877D01*
X0199809Y0142911D01*
X0199763Y0142948D01*
X0199720Y0142988D01*
X0199680Y0143031D01*
X0199643Y0143077D01*
X0199609Y0143125D01*
X0199577Y0143175D01*
X0199550Y0143226D01*
X0199525Y0143280D01*
X0199505Y0143335D01*
X0199488Y0143391D01*
X0199474Y0143449D01*
X0199465Y0143507D01*
X0199459Y0143565D01*
X0199457Y0143624D01*
X0194175Y0142725D02*
X0192736Y0142725D01*
X0192736Y0145962D01*
X0190179Y0144164D02*
X0190898Y0142725D01*
X0189999Y0144164D02*
X0189100Y0144164D01*
X0189999Y0144164D02*
X0190058Y0144166D01*
X0190116Y0144172D01*
X0190174Y0144181D01*
X0190232Y0144195D01*
X0190288Y0144212D01*
X0190343Y0144232D01*
X0190397Y0144257D01*
X0190449Y0144284D01*
X0190498Y0144316D01*
X0190546Y0144350D01*
X0190592Y0144387D01*
X0190635Y0144427D01*
X0190675Y0144470D01*
X0190712Y0144516D01*
X0190746Y0144564D01*
X0190778Y0144614D01*
X0190805Y0144665D01*
X0190830Y0144719D01*
X0190850Y0144774D01*
X0190867Y0144830D01*
X0190881Y0144888D01*
X0190890Y0144946D01*
X0190896Y0145004D01*
X0190898Y0145063D01*
X0190896Y0145122D01*
X0190890Y0145180D01*
X0190881Y0145238D01*
X0190867Y0145296D01*
X0190850Y0145352D01*
X0190830Y0145407D01*
X0190805Y0145461D01*
X0190778Y0145513D01*
X0190746Y0145562D01*
X0190712Y0145610D01*
X0190675Y0145656D01*
X0190635Y0145699D01*
X0190592Y0145739D01*
X0190546Y0145776D01*
X0190498Y0145810D01*
X0190449Y0145842D01*
X0190397Y0145869D01*
X0190343Y0145894D01*
X0190288Y0145914D01*
X0190232Y0145931D01*
X0190174Y0145945D01*
X0190116Y0145954D01*
X0190058Y0145960D01*
X0189999Y0145962D01*
X0189100Y0145962D01*
X0189100Y0142725D01*
X0190444Y0153350D02*
X0191164Y0153350D01*
X0190444Y0153350D02*
X0190393Y0153352D01*
X0190342Y0153357D01*
X0190291Y0153366D01*
X0190241Y0153379D01*
X0190193Y0153395D01*
X0190145Y0153415D01*
X0190099Y0153438D01*
X0190055Y0153464D01*
X0190013Y0153493D01*
X0189973Y0153526D01*
X0189936Y0153561D01*
X0189901Y0153598D01*
X0189868Y0153638D01*
X0189839Y0153680D01*
X0189813Y0153724D01*
X0189790Y0153770D01*
X0189770Y0153818D01*
X0189754Y0153866D01*
X0189741Y0153916D01*
X0189732Y0153967D01*
X0189727Y0154018D01*
X0189725Y0154069D01*
X0189725Y0155868D01*
X0189727Y0155919D01*
X0189732Y0155970D01*
X0189741Y0156021D01*
X0189754Y0156071D01*
X0189770Y0156119D01*
X0189790Y0156167D01*
X0189813Y0156213D01*
X0189839Y0156257D01*
X0189868Y0156299D01*
X0189901Y0156339D01*
X0189936Y0156376D01*
X0189973Y0156411D01*
X0190013Y0156444D01*
X0190055Y0156473D01*
X0190099Y0156499D01*
X0190145Y0156522D01*
X0190193Y0156542D01*
X0190241Y0156558D01*
X0190291Y0156571D01*
X0190342Y0156580D01*
X0190393Y0156585D01*
X0190444Y0156587D01*
X0191164Y0156587D01*
X0192869Y0156587D02*
X0193948Y0154789D01*
X0195027Y0156587D01*
X0195027Y0153350D01*
X0196946Y0154249D02*
X0196946Y0155688D01*
X0196948Y0155747D01*
X0196954Y0155805D01*
X0196963Y0155863D01*
X0196977Y0155921D01*
X0196994Y0155977D01*
X0197014Y0156032D01*
X0197039Y0156086D01*
X0197066Y0156138D01*
X0197098Y0156187D01*
X0197132Y0156235D01*
X0197169Y0156281D01*
X0197209Y0156324D01*
X0197252Y0156364D01*
X0197298Y0156401D01*
X0197346Y0156435D01*
X0197396Y0156467D01*
X0197447Y0156494D01*
X0197501Y0156519D01*
X0197556Y0156539D01*
X0197612Y0156556D01*
X0197670Y0156570D01*
X0197728Y0156579D01*
X0197786Y0156585D01*
X0197845Y0156587D01*
X0197904Y0156585D01*
X0197962Y0156579D01*
X0198020Y0156570D01*
X0198078Y0156556D01*
X0198134Y0156539D01*
X0198189Y0156519D01*
X0198243Y0156494D01*
X0198295Y0156467D01*
X0198344Y0156435D01*
X0198392Y0156401D01*
X0198438Y0156364D01*
X0198481Y0156324D01*
X0198521Y0156281D01*
X0198558Y0156235D01*
X0198592Y0156187D01*
X0198624Y0156138D01*
X0198651Y0156086D01*
X0198676Y0156032D01*
X0198696Y0155977D01*
X0198713Y0155921D01*
X0198727Y0155863D01*
X0198736Y0155805D01*
X0198742Y0155747D01*
X0198744Y0155688D01*
X0198745Y0155688D02*
X0198745Y0154249D01*
X0198744Y0154249D02*
X0198742Y0154190D01*
X0198736Y0154132D01*
X0198727Y0154074D01*
X0198713Y0154016D01*
X0198696Y0153960D01*
X0198676Y0153905D01*
X0198651Y0153851D01*
X0198624Y0153800D01*
X0198592Y0153750D01*
X0198558Y0153702D01*
X0198521Y0153656D01*
X0198481Y0153613D01*
X0198438Y0153573D01*
X0198392Y0153536D01*
X0198344Y0153502D01*
X0198295Y0153470D01*
X0198243Y0153443D01*
X0198189Y0153418D01*
X0198134Y0153398D01*
X0198078Y0153381D01*
X0198020Y0153367D01*
X0197962Y0153358D01*
X0197904Y0153352D01*
X0197845Y0153350D01*
X0197786Y0153352D01*
X0197728Y0153358D01*
X0197670Y0153367D01*
X0197612Y0153381D01*
X0197556Y0153398D01*
X0197501Y0153418D01*
X0197447Y0153443D01*
X0197396Y0153470D01*
X0197346Y0153502D01*
X0197298Y0153536D01*
X0197252Y0153573D01*
X0197209Y0153613D01*
X0197169Y0153656D01*
X0197132Y0153702D01*
X0197098Y0153750D01*
X0197066Y0153800D01*
X0197039Y0153851D01*
X0197014Y0153905D01*
X0196994Y0153960D01*
X0196977Y0154016D01*
X0196963Y0154074D01*
X0196954Y0154132D01*
X0196948Y0154190D01*
X0196946Y0154249D01*
X0192869Y0153350D02*
X0192869Y0156587D01*
X0191883Y0162725D02*
X0192602Y0165962D01*
X0191164Y0164883D02*
X0191883Y0162725D01*
X0190444Y0162725D02*
X0191164Y0164883D01*
X0189725Y0165962D02*
X0190444Y0162725D01*
X0194264Y0163444D02*
X0194264Y0165243D01*
X0194266Y0165294D01*
X0194271Y0165345D01*
X0194280Y0165396D01*
X0194293Y0165446D01*
X0194309Y0165494D01*
X0194329Y0165542D01*
X0194352Y0165588D01*
X0194378Y0165632D01*
X0194407Y0165674D01*
X0194440Y0165714D01*
X0194475Y0165751D01*
X0194512Y0165786D01*
X0194552Y0165819D01*
X0194594Y0165848D01*
X0194638Y0165874D01*
X0194684Y0165897D01*
X0194732Y0165917D01*
X0194780Y0165933D01*
X0194830Y0165946D01*
X0194881Y0165955D01*
X0194932Y0165960D01*
X0194983Y0165962D01*
X0195702Y0165962D01*
X0196997Y0165962D02*
X0198795Y0165962D01*
X0197896Y0165962D02*
X0197896Y0162725D01*
X0195702Y0162725D02*
X0194983Y0162725D01*
X0194932Y0162727D01*
X0194881Y0162732D01*
X0194830Y0162741D01*
X0194780Y0162754D01*
X0194732Y0162770D01*
X0194684Y0162790D01*
X0194638Y0162813D01*
X0194594Y0162839D01*
X0194552Y0162868D01*
X0194512Y0162901D01*
X0194475Y0162936D01*
X0194440Y0162973D01*
X0194407Y0163013D01*
X0194378Y0163055D01*
X0194352Y0163099D01*
X0194329Y0163145D01*
X0194309Y0163193D01*
X0194293Y0163241D01*
X0194280Y0163291D01*
X0194271Y0163342D01*
X0194266Y0163393D01*
X0194264Y0163444D01*
X0194391Y0182100D02*
X0192953Y0182100D01*
X0192953Y0185337D01*
X0190179Y0185337D02*
X0191258Y0182100D01*
X0190988Y0182909D02*
X0189370Y0182909D01*
X0189100Y0182100D02*
X0190179Y0185337D01*
X0190444Y0191475D02*
X0191164Y0191475D01*
X0190444Y0191475D02*
X0190393Y0191477D01*
X0190342Y0191482D01*
X0190291Y0191491D01*
X0190241Y0191504D01*
X0190193Y0191520D01*
X0190145Y0191540D01*
X0190099Y0191563D01*
X0190055Y0191589D01*
X0190013Y0191618D01*
X0189973Y0191651D01*
X0189936Y0191686D01*
X0189901Y0191723D01*
X0189868Y0191763D01*
X0189839Y0191805D01*
X0189813Y0191849D01*
X0189790Y0191895D01*
X0189770Y0191943D01*
X0189754Y0191991D01*
X0189741Y0192041D01*
X0189732Y0192092D01*
X0189727Y0192143D01*
X0189725Y0192194D01*
X0189725Y0193993D01*
X0189727Y0194044D01*
X0189732Y0194095D01*
X0189741Y0194146D01*
X0189754Y0194196D01*
X0189770Y0194244D01*
X0189790Y0194292D01*
X0189813Y0194338D01*
X0189839Y0194382D01*
X0189868Y0194424D01*
X0189901Y0194464D01*
X0189936Y0194501D01*
X0189973Y0194536D01*
X0190013Y0194569D01*
X0190055Y0194598D01*
X0190099Y0194624D01*
X0190145Y0194647D01*
X0190193Y0194667D01*
X0190241Y0194683D01*
X0190291Y0194696D01*
X0190342Y0194705D01*
X0190393Y0194710D01*
X0190444Y0194712D01*
X0191164Y0194712D01*
X0193026Y0193363D02*
X0194015Y0192824D01*
X0193655Y0191475D02*
X0193580Y0191477D01*
X0193505Y0191482D01*
X0193431Y0191492D01*
X0193357Y0191505D01*
X0193284Y0191521D01*
X0193211Y0191541D01*
X0193140Y0191565D01*
X0193070Y0191592D01*
X0193002Y0191622D01*
X0192935Y0191656D01*
X0192870Y0191694D01*
X0192807Y0191734D01*
X0192745Y0191777D01*
X0192686Y0191824D01*
X0192630Y0191873D01*
X0192576Y0191925D01*
X0194015Y0192824D02*
X0194058Y0192797D01*
X0194098Y0192767D01*
X0194137Y0192734D01*
X0194173Y0192698D01*
X0194207Y0192661D01*
X0194238Y0192621D01*
X0194266Y0192578D01*
X0194291Y0192534D01*
X0194313Y0192489D01*
X0194332Y0192442D01*
X0194347Y0192394D01*
X0194359Y0192345D01*
X0194368Y0192295D01*
X0194373Y0192245D01*
X0194375Y0192194D01*
X0194374Y0192194D02*
X0194372Y0192143D01*
X0194367Y0192092D01*
X0194358Y0192041D01*
X0194345Y0191991D01*
X0194329Y0191943D01*
X0194309Y0191895D01*
X0194286Y0191849D01*
X0194260Y0191805D01*
X0194231Y0191763D01*
X0194198Y0191723D01*
X0194163Y0191686D01*
X0194126Y0191651D01*
X0194086Y0191618D01*
X0194044Y0191589D01*
X0194000Y0191563D01*
X0193954Y0191540D01*
X0193906Y0191520D01*
X0193858Y0191504D01*
X0193808Y0191491D01*
X0193757Y0191482D01*
X0193706Y0191477D01*
X0193655Y0191475D01*
X0194194Y0194442D02*
X0194135Y0194484D01*
X0194074Y0194523D01*
X0194011Y0194558D01*
X0193946Y0194590D01*
X0193880Y0194618D01*
X0193812Y0194643D01*
X0193742Y0194664D01*
X0193672Y0194681D01*
X0193601Y0194695D01*
X0193529Y0194704D01*
X0193457Y0194710D01*
X0193385Y0194712D01*
X0193334Y0194710D01*
X0193283Y0194705D01*
X0193232Y0194696D01*
X0193182Y0194683D01*
X0193134Y0194667D01*
X0193086Y0194647D01*
X0193040Y0194624D01*
X0192996Y0194598D01*
X0192954Y0194569D01*
X0192914Y0194536D01*
X0192877Y0194501D01*
X0192842Y0194464D01*
X0192809Y0194424D01*
X0192780Y0194382D01*
X0192754Y0194338D01*
X0192731Y0194292D01*
X0192711Y0194244D01*
X0192695Y0194196D01*
X0192682Y0194146D01*
X0192673Y0194095D01*
X0192668Y0194044D01*
X0192666Y0193993D01*
X0192668Y0193942D01*
X0192673Y0193892D01*
X0192682Y0193842D01*
X0192694Y0193793D01*
X0192709Y0193745D01*
X0192728Y0193698D01*
X0192750Y0193653D01*
X0192775Y0193609D01*
X0192803Y0193566D01*
X0192834Y0193526D01*
X0192868Y0193489D01*
X0192904Y0193453D01*
X0192943Y0193420D01*
X0192983Y0193390D01*
X0193026Y0193363D01*
X0196049Y0185337D02*
X0196948Y0185337D01*
X0196049Y0185337D02*
X0196049Y0182100D01*
X0196049Y0183539D02*
X0196948Y0183539D01*
X0197128Y0183539D02*
X0197847Y0182100D01*
X0199730Y0182100D02*
X0199730Y0185337D01*
X0200809Y0183539D01*
X0201888Y0185337D01*
X0201888Y0182100D01*
X0196948Y0183539D02*
X0197007Y0183541D01*
X0197065Y0183547D01*
X0197123Y0183556D01*
X0197181Y0183570D01*
X0197237Y0183587D01*
X0197292Y0183607D01*
X0197346Y0183632D01*
X0197398Y0183659D01*
X0197447Y0183691D01*
X0197495Y0183725D01*
X0197541Y0183762D01*
X0197584Y0183802D01*
X0197624Y0183845D01*
X0197661Y0183891D01*
X0197695Y0183939D01*
X0197727Y0183989D01*
X0197754Y0184040D01*
X0197779Y0184094D01*
X0197799Y0184149D01*
X0197816Y0184205D01*
X0197830Y0184263D01*
X0197839Y0184321D01*
X0197845Y0184379D01*
X0197847Y0184438D01*
X0197845Y0184497D01*
X0197839Y0184555D01*
X0197830Y0184613D01*
X0197816Y0184671D01*
X0197799Y0184727D01*
X0197779Y0184782D01*
X0197754Y0184836D01*
X0197727Y0184888D01*
X0197695Y0184937D01*
X0197661Y0184985D01*
X0197624Y0185031D01*
X0197584Y0185074D01*
X0197541Y0185114D01*
X0197495Y0185151D01*
X0197447Y0185185D01*
X0197398Y0185217D01*
X0197346Y0185244D01*
X0197292Y0185269D01*
X0197237Y0185289D01*
X0197181Y0185306D01*
X0197123Y0185320D01*
X0197065Y0185329D01*
X0197007Y0185335D01*
X0196948Y0185337D01*
X0197046Y0200850D02*
X0195607Y0200850D01*
X0195607Y0204087D01*
X0193947Y0204087D02*
X0193228Y0204087D01*
X0193177Y0204085D01*
X0193126Y0204080D01*
X0193075Y0204071D01*
X0193025Y0204058D01*
X0192977Y0204042D01*
X0192929Y0204022D01*
X0192883Y0203999D01*
X0192839Y0203973D01*
X0192797Y0203944D01*
X0192757Y0203911D01*
X0192720Y0203876D01*
X0192685Y0203839D01*
X0192652Y0203799D01*
X0192623Y0203757D01*
X0192597Y0203713D01*
X0192574Y0203667D01*
X0192554Y0203619D01*
X0192538Y0203571D01*
X0192525Y0203521D01*
X0192516Y0203470D01*
X0192511Y0203419D01*
X0192509Y0203368D01*
X0192509Y0201569D01*
X0192511Y0201518D01*
X0192516Y0201467D01*
X0192525Y0201416D01*
X0192538Y0201366D01*
X0192554Y0201318D01*
X0192574Y0201270D01*
X0192597Y0201224D01*
X0192623Y0201180D01*
X0192652Y0201138D01*
X0192685Y0201098D01*
X0192720Y0201061D01*
X0192757Y0201026D01*
X0192797Y0200993D01*
X0192839Y0200964D01*
X0192883Y0200938D01*
X0192929Y0200915D01*
X0192977Y0200895D01*
X0193025Y0200879D01*
X0193075Y0200866D01*
X0193126Y0200857D01*
X0193177Y0200852D01*
X0193228Y0200850D01*
X0193947Y0200850D01*
X0190539Y0202199D02*
X0189550Y0202738D01*
X0189909Y0204087D02*
X0189981Y0204085D01*
X0190053Y0204079D01*
X0190125Y0204070D01*
X0190196Y0204056D01*
X0190266Y0204039D01*
X0190336Y0204018D01*
X0190404Y0203993D01*
X0190470Y0203965D01*
X0190535Y0203933D01*
X0190598Y0203898D01*
X0190659Y0203859D01*
X0190718Y0203817D01*
X0189549Y0202738D02*
X0189506Y0202765D01*
X0189466Y0202795D01*
X0189427Y0202828D01*
X0189391Y0202864D01*
X0189357Y0202901D01*
X0189326Y0202941D01*
X0189298Y0202984D01*
X0189273Y0203028D01*
X0189251Y0203073D01*
X0189232Y0203120D01*
X0189217Y0203168D01*
X0189205Y0203217D01*
X0189196Y0203267D01*
X0189191Y0203317D01*
X0189189Y0203368D01*
X0189190Y0203368D02*
X0189192Y0203419D01*
X0189197Y0203470D01*
X0189206Y0203521D01*
X0189219Y0203571D01*
X0189235Y0203619D01*
X0189255Y0203667D01*
X0189278Y0203713D01*
X0189304Y0203757D01*
X0189333Y0203799D01*
X0189366Y0203839D01*
X0189401Y0203876D01*
X0189438Y0203911D01*
X0189478Y0203944D01*
X0189520Y0203973D01*
X0189564Y0203999D01*
X0189610Y0204022D01*
X0189658Y0204042D01*
X0189706Y0204058D01*
X0189756Y0204071D01*
X0189807Y0204080D01*
X0189858Y0204085D01*
X0189909Y0204087D01*
X0189100Y0201300D02*
X0189154Y0201248D01*
X0189210Y0201199D01*
X0189269Y0201152D01*
X0189331Y0201109D01*
X0189394Y0201069D01*
X0189459Y0201031D01*
X0189526Y0200997D01*
X0189594Y0200967D01*
X0189664Y0200940D01*
X0189735Y0200916D01*
X0189808Y0200896D01*
X0189881Y0200880D01*
X0189955Y0200867D01*
X0190029Y0200857D01*
X0190104Y0200852D01*
X0190179Y0200850D01*
X0190230Y0200852D01*
X0190281Y0200857D01*
X0190332Y0200866D01*
X0190382Y0200879D01*
X0190430Y0200895D01*
X0190478Y0200915D01*
X0190524Y0200938D01*
X0190568Y0200964D01*
X0190610Y0200993D01*
X0190650Y0201026D01*
X0190687Y0201061D01*
X0190722Y0201098D01*
X0190755Y0201138D01*
X0190784Y0201180D01*
X0190810Y0201224D01*
X0190833Y0201270D01*
X0190853Y0201318D01*
X0190869Y0201366D01*
X0190882Y0201416D01*
X0190891Y0201467D01*
X0190896Y0201518D01*
X0190898Y0201569D01*
X0190899Y0201569D02*
X0190897Y0201620D01*
X0190892Y0201670D01*
X0190883Y0201720D01*
X0190871Y0201769D01*
X0190856Y0201817D01*
X0190837Y0201864D01*
X0190815Y0201909D01*
X0190790Y0201953D01*
X0190762Y0201996D01*
X0190731Y0202036D01*
X0190697Y0202073D01*
X0190661Y0202109D01*
X0190622Y0202142D01*
X0190582Y0202172D01*
X0190539Y0202199D01*
X0198751Y0202109D02*
X0200550Y0204087D01*
X0199471Y0202828D02*
X0200550Y0200850D01*
X0198751Y0200850D02*
X0198751Y0204087D01*
X0199859Y0211475D02*
X0200578Y0211475D01*
X0200218Y0211475D02*
X0200218Y0214712D01*
X0199859Y0214712D02*
X0200578Y0214712D01*
X0198041Y0212824D02*
X0197052Y0213363D01*
X0197412Y0214712D02*
X0197484Y0214710D01*
X0197556Y0214704D01*
X0197628Y0214695D01*
X0197699Y0214681D01*
X0197769Y0214664D01*
X0197839Y0214643D01*
X0197907Y0214618D01*
X0197973Y0214590D01*
X0198038Y0214558D01*
X0198101Y0214523D01*
X0198162Y0214484D01*
X0198221Y0214442D01*
X0197052Y0213363D02*
X0197009Y0213390D01*
X0196969Y0213420D01*
X0196930Y0213453D01*
X0196894Y0213489D01*
X0196860Y0213526D01*
X0196829Y0213566D01*
X0196801Y0213609D01*
X0196776Y0213653D01*
X0196754Y0213698D01*
X0196735Y0213745D01*
X0196720Y0213793D01*
X0196708Y0213842D01*
X0196699Y0213892D01*
X0196694Y0213942D01*
X0196692Y0213993D01*
X0196693Y0213993D02*
X0196695Y0214044D01*
X0196700Y0214095D01*
X0196709Y0214146D01*
X0196722Y0214196D01*
X0196738Y0214244D01*
X0196758Y0214292D01*
X0196781Y0214338D01*
X0196807Y0214382D01*
X0196836Y0214424D01*
X0196869Y0214464D01*
X0196904Y0214501D01*
X0196941Y0214536D01*
X0196981Y0214569D01*
X0197023Y0214598D01*
X0197067Y0214624D01*
X0197113Y0214647D01*
X0197161Y0214667D01*
X0197209Y0214683D01*
X0197259Y0214696D01*
X0197310Y0214705D01*
X0197361Y0214710D01*
X0197412Y0214712D01*
X0196603Y0211925D02*
X0196657Y0211873D01*
X0196713Y0211824D01*
X0196772Y0211777D01*
X0196834Y0211734D01*
X0196897Y0211694D01*
X0196962Y0211656D01*
X0197029Y0211622D01*
X0197097Y0211592D01*
X0197167Y0211565D01*
X0197238Y0211541D01*
X0197311Y0211521D01*
X0197384Y0211505D01*
X0197458Y0211492D01*
X0197532Y0211482D01*
X0197607Y0211477D01*
X0197682Y0211475D01*
X0197733Y0211477D01*
X0197784Y0211482D01*
X0197835Y0211491D01*
X0197885Y0211504D01*
X0197933Y0211520D01*
X0197981Y0211540D01*
X0198027Y0211563D01*
X0198071Y0211589D01*
X0198113Y0211618D01*
X0198153Y0211651D01*
X0198190Y0211686D01*
X0198225Y0211723D01*
X0198258Y0211763D01*
X0198287Y0211805D01*
X0198313Y0211849D01*
X0198336Y0211895D01*
X0198356Y0211943D01*
X0198372Y0211991D01*
X0198385Y0212041D01*
X0198394Y0212092D01*
X0198399Y0212143D01*
X0198401Y0212194D01*
X0198399Y0212245D01*
X0198394Y0212295D01*
X0198385Y0212345D01*
X0198373Y0212394D01*
X0198358Y0212442D01*
X0198339Y0212489D01*
X0198317Y0212534D01*
X0198292Y0212578D01*
X0198264Y0212621D01*
X0198233Y0212661D01*
X0198199Y0212698D01*
X0198163Y0212734D01*
X0198124Y0212767D01*
X0198084Y0212797D01*
X0198041Y0212824D01*
X0194976Y0212374D02*
X0194976Y0213813D01*
X0194974Y0213872D01*
X0194968Y0213930D01*
X0194959Y0213988D01*
X0194945Y0214046D01*
X0194928Y0214102D01*
X0194908Y0214157D01*
X0194883Y0214211D01*
X0194856Y0214263D01*
X0194824Y0214312D01*
X0194790Y0214360D01*
X0194753Y0214406D01*
X0194713Y0214449D01*
X0194670Y0214489D01*
X0194624Y0214526D01*
X0194576Y0214560D01*
X0194527Y0214592D01*
X0194475Y0214619D01*
X0194421Y0214644D01*
X0194366Y0214664D01*
X0194310Y0214681D01*
X0194252Y0214695D01*
X0194194Y0214704D01*
X0194136Y0214710D01*
X0194077Y0214712D01*
X0194018Y0214710D01*
X0193960Y0214704D01*
X0193902Y0214695D01*
X0193844Y0214681D01*
X0193788Y0214664D01*
X0193733Y0214644D01*
X0193679Y0214619D01*
X0193628Y0214592D01*
X0193578Y0214560D01*
X0193530Y0214526D01*
X0193484Y0214489D01*
X0193441Y0214449D01*
X0193401Y0214406D01*
X0193364Y0214360D01*
X0193330Y0214312D01*
X0193298Y0214263D01*
X0193271Y0214211D01*
X0193246Y0214157D01*
X0193226Y0214102D01*
X0193209Y0214046D01*
X0193195Y0213988D01*
X0193186Y0213930D01*
X0193180Y0213872D01*
X0193178Y0213813D01*
X0193177Y0213813D02*
X0193177Y0212374D01*
X0193178Y0212374D02*
X0193180Y0212315D01*
X0193186Y0212257D01*
X0193195Y0212199D01*
X0193209Y0212141D01*
X0193226Y0212085D01*
X0193246Y0212030D01*
X0193271Y0211976D01*
X0193298Y0211925D01*
X0193330Y0211875D01*
X0193364Y0211827D01*
X0193401Y0211781D01*
X0193441Y0211738D01*
X0193484Y0211698D01*
X0193530Y0211661D01*
X0193578Y0211627D01*
X0193628Y0211595D01*
X0193679Y0211568D01*
X0193733Y0211543D01*
X0193788Y0211523D01*
X0193844Y0211506D01*
X0193902Y0211492D01*
X0193960Y0211483D01*
X0194018Y0211477D01*
X0194077Y0211475D01*
X0194136Y0211477D01*
X0194194Y0211483D01*
X0194252Y0211492D01*
X0194310Y0211506D01*
X0194366Y0211523D01*
X0194421Y0211543D01*
X0194475Y0211568D01*
X0194527Y0211595D01*
X0194576Y0211627D01*
X0194624Y0211661D01*
X0194670Y0211698D01*
X0194713Y0211738D01*
X0194753Y0211781D01*
X0194790Y0211827D01*
X0194824Y0211875D01*
X0194856Y0211925D01*
X0194883Y0211976D01*
X0194908Y0212030D01*
X0194928Y0212085D01*
X0194945Y0212141D01*
X0194959Y0212199D01*
X0194968Y0212257D01*
X0194974Y0212315D01*
X0194976Y0212374D01*
X0191258Y0211475D02*
X0191258Y0214712D01*
X0190179Y0212914D01*
X0189100Y0214712D01*
X0189100Y0211475D01*
X0189100Y0221475D02*
X0189100Y0224712D01*
X0190179Y0222914D01*
X0191258Y0224712D01*
X0191258Y0221475D01*
X0193008Y0221475D02*
X0193728Y0221475D01*
X0193368Y0221475D02*
X0193368Y0224712D01*
X0193008Y0224712D02*
X0193728Y0224712D01*
X0195635Y0223363D02*
X0196624Y0222824D01*
X0196264Y0221475D02*
X0196189Y0221477D01*
X0196114Y0221482D01*
X0196040Y0221492D01*
X0195966Y0221505D01*
X0195893Y0221521D01*
X0195820Y0221541D01*
X0195749Y0221565D01*
X0195679Y0221592D01*
X0195611Y0221622D01*
X0195544Y0221656D01*
X0195479Y0221694D01*
X0195416Y0221734D01*
X0195354Y0221777D01*
X0195295Y0221824D01*
X0195239Y0221873D01*
X0195185Y0221925D01*
X0196624Y0222824D02*
X0196667Y0222797D01*
X0196707Y0222767D01*
X0196746Y0222734D01*
X0196782Y0222698D01*
X0196816Y0222661D01*
X0196847Y0222621D01*
X0196875Y0222578D01*
X0196900Y0222534D01*
X0196922Y0222489D01*
X0196941Y0222442D01*
X0196956Y0222394D01*
X0196968Y0222345D01*
X0196977Y0222295D01*
X0196982Y0222245D01*
X0196984Y0222194D01*
X0196983Y0222194D02*
X0196981Y0222143D01*
X0196976Y0222092D01*
X0196967Y0222041D01*
X0196954Y0221991D01*
X0196938Y0221943D01*
X0196918Y0221895D01*
X0196895Y0221849D01*
X0196869Y0221805D01*
X0196840Y0221763D01*
X0196807Y0221723D01*
X0196772Y0221686D01*
X0196735Y0221651D01*
X0196695Y0221618D01*
X0196653Y0221589D01*
X0196609Y0221563D01*
X0196563Y0221540D01*
X0196515Y0221520D01*
X0196467Y0221504D01*
X0196417Y0221491D01*
X0196366Y0221482D01*
X0196315Y0221477D01*
X0196264Y0221475D01*
X0196804Y0224442D02*
X0196745Y0224484D01*
X0196684Y0224523D01*
X0196621Y0224558D01*
X0196556Y0224590D01*
X0196490Y0224618D01*
X0196422Y0224643D01*
X0196352Y0224664D01*
X0196282Y0224681D01*
X0196211Y0224695D01*
X0196139Y0224704D01*
X0196067Y0224710D01*
X0195995Y0224712D01*
X0195944Y0224710D01*
X0195893Y0224705D01*
X0195842Y0224696D01*
X0195792Y0224683D01*
X0195744Y0224667D01*
X0195696Y0224647D01*
X0195650Y0224624D01*
X0195606Y0224598D01*
X0195564Y0224569D01*
X0195524Y0224536D01*
X0195487Y0224501D01*
X0195452Y0224464D01*
X0195419Y0224424D01*
X0195390Y0224382D01*
X0195364Y0224338D01*
X0195341Y0224292D01*
X0195321Y0224244D01*
X0195305Y0224196D01*
X0195292Y0224146D01*
X0195283Y0224095D01*
X0195278Y0224044D01*
X0195276Y0223993D01*
X0195275Y0223993D02*
X0195277Y0223942D01*
X0195282Y0223892D01*
X0195291Y0223842D01*
X0195303Y0223793D01*
X0195318Y0223745D01*
X0195337Y0223698D01*
X0195359Y0223653D01*
X0195384Y0223609D01*
X0195412Y0223566D01*
X0195443Y0223526D01*
X0195477Y0223489D01*
X0195513Y0223453D01*
X0195552Y0223420D01*
X0195592Y0223390D01*
X0195635Y0223363D01*
X0198611Y0223813D02*
X0198611Y0222374D01*
X0198613Y0222315D01*
X0198619Y0222257D01*
X0198628Y0222199D01*
X0198642Y0222141D01*
X0198659Y0222085D01*
X0198679Y0222030D01*
X0198704Y0221976D01*
X0198731Y0221925D01*
X0198763Y0221875D01*
X0198797Y0221827D01*
X0198834Y0221781D01*
X0198874Y0221738D01*
X0198917Y0221698D01*
X0198963Y0221661D01*
X0199011Y0221627D01*
X0199061Y0221595D01*
X0199112Y0221568D01*
X0199166Y0221543D01*
X0199221Y0221523D01*
X0199277Y0221506D01*
X0199335Y0221492D01*
X0199393Y0221483D01*
X0199451Y0221477D01*
X0199510Y0221475D01*
X0199569Y0221477D01*
X0199627Y0221483D01*
X0199685Y0221492D01*
X0199743Y0221506D01*
X0199799Y0221523D01*
X0199854Y0221543D01*
X0199908Y0221568D01*
X0199960Y0221595D01*
X0200009Y0221627D01*
X0200057Y0221661D01*
X0200103Y0221698D01*
X0200146Y0221738D01*
X0200186Y0221781D01*
X0200223Y0221827D01*
X0200257Y0221875D01*
X0200289Y0221925D01*
X0200316Y0221976D01*
X0200341Y0222030D01*
X0200361Y0222085D01*
X0200378Y0222141D01*
X0200392Y0222199D01*
X0200401Y0222257D01*
X0200407Y0222315D01*
X0200409Y0222374D01*
X0200409Y0223813D01*
X0200407Y0223872D01*
X0200401Y0223930D01*
X0200392Y0223988D01*
X0200378Y0224046D01*
X0200361Y0224102D01*
X0200341Y0224157D01*
X0200316Y0224211D01*
X0200289Y0224263D01*
X0200257Y0224312D01*
X0200223Y0224360D01*
X0200186Y0224406D01*
X0200146Y0224449D01*
X0200103Y0224489D01*
X0200057Y0224526D01*
X0200009Y0224560D01*
X0199960Y0224592D01*
X0199908Y0224619D01*
X0199854Y0224644D01*
X0199799Y0224664D01*
X0199743Y0224681D01*
X0199685Y0224695D01*
X0199627Y0224704D01*
X0199569Y0224710D01*
X0199510Y0224712D01*
X0199451Y0224710D01*
X0199393Y0224704D01*
X0199335Y0224695D01*
X0199277Y0224681D01*
X0199221Y0224664D01*
X0199166Y0224644D01*
X0199112Y0224619D01*
X0199061Y0224592D01*
X0199011Y0224560D01*
X0198963Y0224526D01*
X0198917Y0224489D01*
X0198874Y0224449D01*
X0198834Y0224406D01*
X0198797Y0224360D01*
X0198763Y0224312D01*
X0198731Y0224263D01*
X0198704Y0224211D01*
X0198679Y0224157D01*
X0198659Y0224102D01*
X0198642Y0224046D01*
X0198628Y0223988D01*
X0198619Y0223930D01*
X0198613Y0223872D01*
X0198611Y0223813D01*
X0197440Y0231475D02*
X0196541Y0231475D01*
X0196541Y0234712D01*
X0197440Y0234712D01*
X0197499Y0234710D01*
X0197557Y0234704D01*
X0197615Y0234695D01*
X0197673Y0234681D01*
X0197729Y0234664D01*
X0197784Y0234644D01*
X0197838Y0234619D01*
X0197890Y0234592D01*
X0197939Y0234560D01*
X0197987Y0234526D01*
X0198033Y0234489D01*
X0198076Y0234449D01*
X0198116Y0234406D01*
X0198153Y0234360D01*
X0198187Y0234312D01*
X0198219Y0234263D01*
X0198246Y0234211D01*
X0198271Y0234157D01*
X0198291Y0234102D01*
X0198308Y0234046D01*
X0198322Y0233988D01*
X0198331Y0233930D01*
X0198337Y0233872D01*
X0198339Y0233813D01*
X0198339Y0232374D01*
X0198337Y0232315D01*
X0198331Y0232257D01*
X0198322Y0232199D01*
X0198308Y0232141D01*
X0198291Y0232085D01*
X0198271Y0232030D01*
X0198246Y0231976D01*
X0198219Y0231925D01*
X0198187Y0231875D01*
X0198153Y0231827D01*
X0198116Y0231781D01*
X0198076Y0231738D01*
X0198033Y0231698D01*
X0197987Y0231661D01*
X0197939Y0231627D01*
X0197890Y0231595D01*
X0197838Y0231568D01*
X0197784Y0231543D01*
X0197729Y0231523D01*
X0197673Y0231506D01*
X0197615Y0231492D01*
X0197557Y0231483D01*
X0197499Y0231477D01*
X0197440Y0231475D01*
X0194715Y0231475D02*
X0193995Y0232914D01*
X0193815Y0232914D02*
X0192916Y0232914D01*
X0193815Y0232914D02*
X0193874Y0232916D01*
X0193932Y0232922D01*
X0193990Y0232931D01*
X0194048Y0232945D01*
X0194104Y0232962D01*
X0194159Y0232982D01*
X0194213Y0233007D01*
X0194265Y0233034D01*
X0194314Y0233066D01*
X0194362Y0233100D01*
X0194408Y0233137D01*
X0194451Y0233177D01*
X0194491Y0233220D01*
X0194528Y0233266D01*
X0194562Y0233314D01*
X0194594Y0233364D01*
X0194621Y0233415D01*
X0194646Y0233469D01*
X0194666Y0233524D01*
X0194683Y0233580D01*
X0194697Y0233638D01*
X0194706Y0233696D01*
X0194712Y0233754D01*
X0194714Y0233813D01*
X0194712Y0233872D01*
X0194706Y0233930D01*
X0194697Y0233988D01*
X0194683Y0234046D01*
X0194666Y0234102D01*
X0194646Y0234157D01*
X0194621Y0234211D01*
X0194594Y0234263D01*
X0194562Y0234312D01*
X0194528Y0234360D01*
X0194491Y0234406D01*
X0194451Y0234449D01*
X0194408Y0234489D01*
X0194362Y0234526D01*
X0194314Y0234560D01*
X0194265Y0234592D01*
X0194213Y0234619D01*
X0194159Y0234644D01*
X0194104Y0234664D01*
X0194048Y0234681D01*
X0193990Y0234695D01*
X0193932Y0234704D01*
X0193874Y0234710D01*
X0193815Y0234712D01*
X0192916Y0234712D01*
X0192916Y0231475D01*
X0190898Y0232374D02*
X0190898Y0233813D01*
X0190896Y0233872D01*
X0190890Y0233930D01*
X0190881Y0233988D01*
X0190867Y0234046D01*
X0190850Y0234102D01*
X0190830Y0234157D01*
X0190805Y0234211D01*
X0190778Y0234263D01*
X0190746Y0234312D01*
X0190712Y0234360D01*
X0190675Y0234406D01*
X0190635Y0234449D01*
X0190592Y0234489D01*
X0190546Y0234526D01*
X0190498Y0234560D01*
X0190449Y0234592D01*
X0190397Y0234619D01*
X0190343Y0234644D01*
X0190288Y0234664D01*
X0190232Y0234681D01*
X0190174Y0234695D01*
X0190116Y0234704D01*
X0190058Y0234710D01*
X0189999Y0234712D01*
X0189100Y0234712D01*
X0189100Y0231475D01*
X0189999Y0231475D01*
X0190058Y0231477D01*
X0190116Y0231483D01*
X0190174Y0231492D01*
X0190232Y0231506D01*
X0190288Y0231523D01*
X0190343Y0231543D01*
X0190397Y0231568D01*
X0190449Y0231595D01*
X0190498Y0231627D01*
X0190546Y0231661D01*
X0190592Y0231698D01*
X0190635Y0231738D01*
X0190675Y0231781D01*
X0190712Y0231827D01*
X0190746Y0231875D01*
X0190778Y0231925D01*
X0190805Y0231976D01*
X0190830Y0232030D01*
X0190850Y0232085D01*
X0190867Y0232141D01*
X0190881Y0232199D01*
X0190890Y0232257D01*
X0190896Y0232315D01*
X0190898Y0232374D01*
X0191164Y0241475D02*
X0190444Y0241475D01*
X0190393Y0241477D01*
X0190342Y0241482D01*
X0190291Y0241491D01*
X0190241Y0241504D01*
X0190193Y0241520D01*
X0190145Y0241540D01*
X0190099Y0241563D01*
X0190055Y0241589D01*
X0190013Y0241618D01*
X0189973Y0241651D01*
X0189936Y0241686D01*
X0189901Y0241723D01*
X0189868Y0241763D01*
X0189839Y0241805D01*
X0189813Y0241849D01*
X0189790Y0241895D01*
X0189770Y0241943D01*
X0189754Y0241991D01*
X0189741Y0242041D01*
X0189732Y0242092D01*
X0189727Y0242143D01*
X0189725Y0242194D01*
X0189725Y0243993D01*
X0189727Y0244044D01*
X0189732Y0244095D01*
X0189741Y0244146D01*
X0189754Y0244196D01*
X0189770Y0244244D01*
X0189790Y0244292D01*
X0189813Y0244338D01*
X0189839Y0244382D01*
X0189868Y0244424D01*
X0189901Y0244464D01*
X0189936Y0244501D01*
X0189973Y0244536D01*
X0190013Y0244569D01*
X0190055Y0244598D01*
X0190099Y0244624D01*
X0190145Y0244647D01*
X0190193Y0244667D01*
X0190241Y0244683D01*
X0190291Y0244696D01*
X0190342Y0244705D01*
X0190393Y0244710D01*
X0190444Y0244712D01*
X0191164Y0244712D01*
X0192824Y0244712D02*
X0192824Y0241475D01*
X0194262Y0241475D01*
X0195968Y0241475D02*
X0195968Y0244712D01*
X0196687Y0243453D02*
X0197766Y0241475D01*
X0195968Y0242734D02*
X0197766Y0244712D01*
X0197202Y0251475D02*
X0197202Y0254712D01*
X0198101Y0254712D02*
X0196302Y0254712D01*
X0193563Y0253363D02*
X0193520Y0253390D01*
X0193480Y0253420D01*
X0193441Y0253453D01*
X0193405Y0253489D01*
X0193371Y0253526D01*
X0193340Y0253566D01*
X0193312Y0253609D01*
X0193287Y0253653D01*
X0193265Y0253698D01*
X0193246Y0253745D01*
X0193231Y0253793D01*
X0193219Y0253842D01*
X0193210Y0253892D01*
X0193205Y0253942D01*
X0193203Y0253993D01*
X0193204Y0253993D02*
X0193206Y0254044D01*
X0193211Y0254095D01*
X0193220Y0254146D01*
X0193233Y0254196D01*
X0193249Y0254244D01*
X0193269Y0254292D01*
X0193292Y0254338D01*
X0193318Y0254382D01*
X0193347Y0254424D01*
X0193380Y0254464D01*
X0193415Y0254501D01*
X0193452Y0254536D01*
X0193492Y0254569D01*
X0193534Y0254598D01*
X0193578Y0254624D01*
X0193624Y0254647D01*
X0193672Y0254667D01*
X0193720Y0254683D01*
X0193770Y0254696D01*
X0193821Y0254705D01*
X0193872Y0254710D01*
X0193923Y0254712D01*
X0193995Y0254710D01*
X0194067Y0254704D01*
X0194139Y0254695D01*
X0194210Y0254681D01*
X0194280Y0254664D01*
X0194350Y0254643D01*
X0194418Y0254618D01*
X0194484Y0254590D01*
X0194549Y0254558D01*
X0194612Y0254523D01*
X0194673Y0254484D01*
X0194732Y0254442D01*
X0193113Y0251925D02*
X0193167Y0251873D01*
X0193223Y0251824D01*
X0193282Y0251777D01*
X0193344Y0251734D01*
X0193407Y0251694D01*
X0193472Y0251656D01*
X0193539Y0251622D01*
X0193607Y0251592D01*
X0193677Y0251565D01*
X0193748Y0251541D01*
X0193821Y0251521D01*
X0193894Y0251505D01*
X0193968Y0251492D01*
X0194042Y0251482D01*
X0194117Y0251477D01*
X0194192Y0251475D01*
X0194243Y0251477D01*
X0194294Y0251482D01*
X0194345Y0251491D01*
X0194395Y0251504D01*
X0194443Y0251520D01*
X0194491Y0251540D01*
X0194537Y0251563D01*
X0194581Y0251589D01*
X0194623Y0251618D01*
X0194663Y0251651D01*
X0194700Y0251686D01*
X0194735Y0251723D01*
X0194768Y0251763D01*
X0194797Y0251805D01*
X0194823Y0251849D01*
X0194846Y0251895D01*
X0194866Y0251943D01*
X0194882Y0251991D01*
X0194895Y0252041D01*
X0194904Y0252092D01*
X0194909Y0252143D01*
X0194911Y0252194D01*
X0194552Y0252824D02*
X0193563Y0253363D01*
X0194552Y0252824D02*
X0194595Y0252797D01*
X0194635Y0252767D01*
X0194674Y0252734D01*
X0194710Y0252698D01*
X0194744Y0252661D01*
X0194775Y0252621D01*
X0194803Y0252578D01*
X0194828Y0252534D01*
X0194850Y0252489D01*
X0194869Y0252442D01*
X0194884Y0252394D01*
X0194896Y0252345D01*
X0194905Y0252295D01*
X0194910Y0252245D01*
X0194912Y0252194D01*
X0191523Y0251475D02*
X0190804Y0252914D01*
X0190624Y0252914D02*
X0189725Y0252914D01*
X0190624Y0252914D02*
X0190683Y0252916D01*
X0190741Y0252922D01*
X0190799Y0252931D01*
X0190857Y0252945D01*
X0190913Y0252962D01*
X0190968Y0252982D01*
X0191022Y0253007D01*
X0191074Y0253034D01*
X0191123Y0253066D01*
X0191171Y0253100D01*
X0191217Y0253137D01*
X0191260Y0253177D01*
X0191300Y0253220D01*
X0191337Y0253266D01*
X0191371Y0253314D01*
X0191403Y0253364D01*
X0191430Y0253415D01*
X0191455Y0253469D01*
X0191475Y0253524D01*
X0191492Y0253580D01*
X0191506Y0253638D01*
X0191515Y0253696D01*
X0191521Y0253754D01*
X0191523Y0253813D01*
X0191521Y0253872D01*
X0191515Y0253930D01*
X0191506Y0253988D01*
X0191492Y0254046D01*
X0191475Y0254102D01*
X0191455Y0254157D01*
X0191430Y0254211D01*
X0191403Y0254263D01*
X0191371Y0254312D01*
X0191337Y0254360D01*
X0191300Y0254406D01*
X0191260Y0254449D01*
X0191217Y0254489D01*
X0191171Y0254526D01*
X0191123Y0254560D01*
X0191074Y0254592D01*
X0191022Y0254619D01*
X0190968Y0254644D01*
X0190913Y0254664D01*
X0190857Y0254681D01*
X0190799Y0254695D01*
X0190741Y0254704D01*
X0190683Y0254710D01*
X0190624Y0254712D01*
X0189725Y0254712D01*
X0189725Y0251475D01*
X0160713Y0232050D02*
X0158880Y0228750D01*
X0160713Y0228750D01*
X0160713Y0232050D02*
X0158880Y0232050D01*
X0157113Y0232050D02*
X0157113Y0228750D01*
X0155280Y0228750D02*
X0155280Y0232050D01*
X0155280Y0230583D02*
X0157113Y0230583D01*
X0153217Y0230400D02*
X0153217Y0228750D01*
X0152117Y0228750D02*
X0152117Y0230950D01*
X0152667Y0230950D02*
X0151017Y0230950D01*
X0151017Y0228750D01*
X0149073Y0229667D02*
X0149073Y0229850D01*
X0149071Y0229902D01*
X0149066Y0229954D01*
X0149056Y0230006D01*
X0149043Y0230057D01*
X0149027Y0230106D01*
X0149007Y0230154D01*
X0148983Y0230201D01*
X0148957Y0230246D01*
X0148927Y0230289D01*
X0148894Y0230330D01*
X0148858Y0230368D01*
X0148820Y0230404D01*
X0148779Y0230437D01*
X0148736Y0230467D01*
X0148691Y0230493D01*
X0148644Y0230517D01*
X0148596Y0230537D01*
X0148547Y0230553D01*
X0148496Y0230566D01*
X0148444Y0230576D01*
X0148392Y0230581D01*
X0148340Y0230583D01*
X0147240Y0230583D01*
X0147240Y0229667D01*
X0147242Y0229608D01*
X0147248Y0229550D01*
X0147257Y0229492D01*
X0147270Y0229434D01*
X0147287Y0229378D01*
X0147307Y0229323D01*
X0147331Y0229269D01*
X0147358Y0229217D01*
X0147388Y0229167D01*
X0147422Y0229119D01*
X0147459Y0229073D01*
X0147498Y0229029D01*
X0147541Y0228988D01*
X0147585Y0228950D01*
X0147632Y0228915D01*
X0147682Y0228883D01*
X0147733Y0228854D01*
X0147786Y0228828D01*
X0147840Y0228806D01*
X0147896Y0228788D01*
X0147953Y0228773D01*
X0148011Y0228762D01*
X0148069Y0228754D01*
X0148128Y0228750D01*
X0148186Y0228750D01*
X0148245Y0228754D01*
X0148303Y0228762D01*
X0148361Y0228773D01*
X0148418Y0228788D01*
X0148474Y0228806D01*
X0148528Y0228828D01*
X0148581Y0228854D01*
X0148632Y0228883D01*
X0148682Y0228915D01*
X0148729Y0228950D01*
X0148773Y0228988D01*
X0148816Y0229029D01*
X0148855Y0229073D01*
X0148892Y0229119D01*
X0148926Y0229167D01*
X0148956Y0229217D01*
X0148983Y0229269D01*
X0149007Y0229323D01*
X0149027Y0229378D01*
X0149044Y0229434D01*
X0149057Y0229492D01*
X0149066Y0229550D01*
X0149072Y0229608D01*
X0149074Y0229667D01*
X0147240Y0230583D02*
X0147242Y0230657D01*
X0147248Y0230731D01*
X0147257Y0230805D01*
X0147270Y0230878D01*
X0147287Y0230951D01*
X0147307Y0231022D01*
X0147331Y0231092D01*
X0147359Y0231162D01*
X0147390Y0231229D01*
X0147424Y0231295D01*
X0147462Y0231359D01*
X0147503Y0231421D01*
X0147547Y0231481D01*
X0147594Y0231539D01*
X0147644Y0231594D01*
X0147696Y0231646D01*
X0147751Y0231696D01*
X0147809Y0231743D01*
X0147869Y0231787D01*
X0147931Y0231828D01*
X0147995Y0231866D01*
X0148061Y0231900D01*
X0148128Y0231931D01*
X0148197Y0231959D01*
X0148268Y0231983D01*
X0148339Y0232003D01*
X0148412Y0232020D01*
X0148485Y0232033D01*
X0148559Y0232042D01*
X0148633Y0232048D01*
X0148707Y0232050D01*
X0152667Y0230950D02*
X0152712Y0230948D01*
X0152758Y0230942D01*
X0152802Y0230933D01*
X0152846Y0230920D01*
X0152888Y0230904D01*
X0152929Y0230884D01*
X0152968Y0230860D01*
X0153005Y0230834D01*
X0153040Y0230805D01*
X0153072Y0230773D01*
X0153101Y0230738D01*
X0153127Y0230701D01*
X0153151Y0230662D01*
X0153171Y0230621D01*
X0153187Y0230579D01*
X0153200Y0230535D01*
X0153209Y0230491D01*
X0153215Y0230445D01*
X0153217Y0230400D01*
X0145473Y0230217D02*
X0145473Y0231133D01*
X0145473Y0230217D02*
X0144373Y0230217D01*
X0145474Y0230217D02*
X0145472Y0230143D01*
X0145466Y0230069D01*
X0145457Y0229995D01*
X0145444Y0229922D01*
X0145427Y0229849D01*
X0145407Y0229778D01*
X0145383Y0229708D01*
X0145355Y0229638D01*
X0145324Y0229571D01*
X0145290Y0229505D01*
X0145252Y0229441D01*
X0145211Y0229379D01*
X0145167Y0229319D01*
X0145120Y0229261D01*
X0145070Y0229206D01*
X0145018Y0229154D01*
X0144963Y0229104D01*
X0144905Y0229057D01*
X0144845Y0229013D01*
X0144783Y0228972D01*
X0144719Y0228934D01*
X0144653Y0228900D01*
X0144586Y0228869D01*
X0144516Y0228841D01*
X0144446Y0228817D01*
X0144375Y0228797D01*
X0144302Y0228780D01*
X0144229Y0228767D01*
X0144155Y0228758D01*
X0144081Y0228752D01*
X0144007Y0228750D01*
X0140315Y0229209D02*
X0140272Y0229302D01*
X0140232Y0229397D01*
X0140196Y0229493D01*
X0140163Y0229590D01*
X0140135Y0229689D01*
X0140110Y0229789D01*
X0140088Y0229889D01*
X0140071Y0229990D01*
X0140057Y0230092D01*
X0140048Y0230195D01*
X0140042Y0230297D01*
X0140040Y0230400D01*
X0141873Y0230400D02*
X0141871Y0230503D01*
X0141865Y0230605D01*
X0141856Y0230708D01*
X0141842Y0230810D01*
X0141825Y0230911D01*
X0141803Y0231011D01*
X0141778Y0231111D01*
X0141750Y0231210D01*
X0141717Y0231307D01*
X0141681Y0231403D01*
X0141641Y0231498D01*
X0141598Y0231591D01*
X0141690Y0231317D02*
X0140223Y0229483D01*
X0140957Y0228750D02*
X0141006Y0228752D01*
X0141056Y0228757D01*
X0141104Y0228766D01*
X0141152Y0228779D01*
X0141199Y0228795D01*
X0141244Y0228814D01*
X0141288Y0228837D01*
X0141331Y0228862D01*
X0141371Y0228891D01*
X0141409Y0228923D01*
X0141445Y0228957D01*
X0141478Y0228994D01*
X0141508Y0229033D01*
X0141535Y0229074D01*
X0141560Y0229117D01*
X0141581Y0229162D01*
X0141598Y0229208D01*
X0140957Y0228750D02*
X0140908Y0228752D01*
X0140858Y0228757D01*
X0140810Y0228766D01*
X0140762Y0228779D01*
X0140715Y0228795D01*
X0140670Y0228814D01*
X0140626Y0228837D01*
X0140583Y0228862D01*
X0140543Y0228891D01*
X0140505Y0228923D01*
X0140469Y0228957D01*
X0140436Y0228994D01*
X0140406Y0229033D01*
X0140379Y0229074D01*
X0140354Y0229117D01*
X0140333Y0229162D01*
X0140316Y0229208D01*
X0141598Y0229209D02*
X0141641Y0229302D01*
X0141681Y0229397D01*
X0141717Y0229493D01*
X0141750Y0229590D01*
X0141778Y0229689D01*
X0141803Y0229789D01*
X0141825Y0229889D01*
X0141842Y0229990D01*
X0141856Y0230092D01*
X0141865Y0230195D01*
X0141871Y0230297D01*
X0141873Y0230400D01*
X0140040Y0230400D02*
X0140042Y0230503D01*
X0140048Y0230605D01*
X0140057Y0230708D01*
X0140071Y0230810D01*
X0140088Y0230911D01*
X0140110Y0231011D01*
X0140135Y0231111D01*
X0140163Y0231210D01*
X0140196Y0231307D01*
X0140232Y0231403D01*
X0140272Y0231498D01*
X0140315Y0231591D01*
X0140957Y0232050D02*
X0141006Y0232048D01*
X0141056Y0232043D01*
X0141104Y0232034D01*
X0141152Y0232021D01*
X0141199Y0232005D01*
X0141244Y0231986D01*
X0141288Y0231963D01*
X0141331Y0231938D01*
X0141371Y0231909D01*
X0141409Y0231877D01*
X0141445Y0231843D01*
X0141478Y0231806D01*
X0141508Y0231767D01*
X0141535Y0231726D01*
X0141560Y0231683D01*
X0141581Y0231638D01*
X0141598Y0231592D01*
X0140957Y0232050D02*
X0140908Y0232048D01*
X0140858Y0232043D01*
X0140810Y0232034D01*
X0140762Y0232021D01*
X0140715Y0232005D01*
X0140670Y0231986D01*
X0140626Y0231963D01*
X0140583Y0231938D01*
X0140543Y0231909D01*
X0140505Y0231877D01*
X0140469Y0231843D01*
X0140436Y0231806D01*
X0140406Y0231767D01*
X0140379Y0231726D01*
X0140354Y0231683D01*
X0140333Y0231638D01*
X0140316Y0231592D01*
X0138528Y0228933D02*
X0138528Y0228750D01*
X0138345Y0228750D01*
X0138345Y0228933D01*
X0138528Y0228933D01*
X0136833Y0229483D02*
X0135000Y0229483D01*
X0135733Y0232050D01*
X0136283Y0230217D02*
X0136283Y0228750D01*
X0143640Y0230950D02*
X0143640Y0231133D01*
X0143640Y0230950D02*
X0143642Y0230898D01*
X0143647Y0230846D01*
X0143657Y0230794D01*
X0143670Y0230743D01*
X0143686Y0230694D01*
X0143706Y0230646D01*
X0143730Y0230599D01*
X0143756Y0230554D01*
X0143786Y0230511D01*
X0143819Y0230470D01*
X0143855Y0230432D01*
X0143893Y0230396D01*
X0143934Y0230363D01*
X0143977Y0230333D01*
X0144022Y0230307D01*
X0144069Y0230283D01*
X0144117Y0230263D01*
X0144166Y0230247D01*
X0144217Y0230234D01*
X0144269Y0230224D01*
X0144321Y0230219D01*
X0144373Y0230217D01*
X0143640Y0231133D02*
X0143642Y0231192D01*
X0143648Y0231250D01*
X0143657Y0231308D01*
X0143670Y0231366D01*
X0143687Y0231422D01*
X0143707Y0231477D01*
X0143731Y0231531D01*
X0143758Y0231583D01*
X0143788Y0231633D01*
X0143822Y0231681D01*
X0143859Y0231727D01*
X0143898Y0231771D01*
X0143941Y0231812D01*
X0143985Y0231850D01*
X0144032Y0231885D01*
X0144082Y0231917D01*
X0144133Y0231946D01*
X0144186Y0231972D01*
X0144240Y0231994D01*
X0144296Y0232012D01*
X0144353Y0232027D01*
X0144411Y0232038D01*
X0144469Y0232046D01*
X0144528Y0232050D01*
X0144586Y0232050D01*
X0144645Y0232046D01*
X0144703Y0232038D01*
X0144761Y0232027D01*
X0144818Y0232012D01*
X0144874Y0231994D01*
X0144928Y0231972D01*
X0144981Y0231946D01*
X0145032Y0231917D01*
X0145082Y0231885D01*
X0145129Y0231850D01*
X0145173Y0231812D01*
X0145216Y0231771D01*
X0145255Y0231727D01*
X0145292Y0231681D01*
X0145326Y0231633D01*
X0145356Y0231583D01*
X0145383Y0231531D01*
X0145407Y0231477D01*
X0145427Y0231422D01*
X0145444Y0231366D01*
X0145457Y0231308D01*
X0145466Y0231250D01*
X0145472Y0231192D01*
X0145474Y0231133D01*
X0044867Y0227212D02*
X0043069Y0227212D01*
X0043968Y0227212D02*
X0043968Y0223975D01*
X0041803Y0223975D02*
X0040364Y0223975D01*
X0040364Y0227212D01*
X0041803Y0227212D01*
X0041443Y0225773D02*
X0040364Y0225773D01*
X0038248Y0225324D02*
X0037259Y0225863D01*
X0037619Y0227212D02*
X0037691Y0227210D01*
X0037763Y0227204D01*
X0037835Y0227195D01*
X0037906Y0227181D01*
X0037976Y0227164D01*
X0038046Y0227143D01*
X0038114Y0227118D01*
X0038180Y0227090D01*
X0038245Y0227058D01*
X0038308Y0227023D01*
X0038369Y0226984D01*
X0038428Y0226942D01*
X0037259Y0225863D02*
X0037216Y0225890D01*
X0037176Y0225920D01*
X0037137Y0225953D01*
X0037101Y0225989D01*
X0037067Y0226026D01*
X0037036Y0226066D01*
X0037008Y0226109D01*
X0036983Y0226153D01*
X0036961Y0226198D01*
X0036942Y0226245D01*
X0036927Y0226293D01*
X0036915Y0226342D01*
X0036906Y0226392D01*
X0036901Y0226442D01*
X0036899Y0226493D01*
X0036900Y0226493D02*
X0036902Y0226544D01*
X0036907Y0226595D01*
X0036916Y0226646D01*
X0036929Y0226696D01*
X0036945Y0226744D01*
X0036965Y0226792D01*
X0036988Y0226838D01*
X0037014Y0226882D01*
X0037043Y0226924D01*
X0037076Y0226964D01*
X0037111Y0227001D01*
X0037148Y0227036D01*
X0037188Y0227069D01*
X0037230Y0227098D01*
X0037274Y0227124D01*
X0037320Y0227147D01*
X0037368Y0227167D01*
X0037416Y0227183D01*
X0037466Y0227196D01*
X0037517Y0227205D01*
X0037568Y0227210D01*
X0037619Y0227212D01*
X0036809Y0224425D02*
X0036863Y0224373D01*
X0036919Y0224324D01*
X0036978Y0224277D01*
X0037040Y0224234D01*
X0037103Y0224194D01*
X0037168Y0224156D01*
X0037235Y0224122D01*
X0037303Y0224092D01*
X0037373Y0224065D01*
X0037444Y0224041D01*
X0037517Y0224021D01*
X0037590Y0224005D01*
X0037664Y0223992D01*
X0037738Y0223982D01*
X0037813Y0223977D01*
X0037888Y0223975D01*
X0037939Y0223977D01*
X0037990Y0223982D01*
X0038041Y0223991D01*
X0038091Y0224004D01*
X0038139Y0224020D01*
X0038187Y0224040D01*
X0038233Y0224063D01*
X0038277Y0224089D01*
X0038319Y0224118D01*
X0038359Y0224151D01*
X0038396Y0224186D01*
X0038431Y0224223D01*
X0038464Y0224263D01*
X0038493Y0224305D01*
X0038519Y0224349D01*
X0038542Y0224395D01*
X0038562Y0224443D01*
X0038578Y0224491D01*
X0038591Y0224541D01*
X0038600Y0224592D01*
X0038605Y0224643D01*
X0038607Y0224694D01*
X0038608Y0224694D02*
X0038606Y0224745D01*
X0038601Y0224795D01*
X0038592Y0224845D01*
X0038580Y0224894D01*
X0038565Y0224942D01*
X0038546Y0224989D01*
X0038524Y0225034D01*
X0038499Y0225078D01*
X0038471Y0225121D01*
X0038440Y0225161D01*
X0038406Y0225198D01*
X0038370Y0225234D01*
X0038331Y0225267D01*
X0038291Y0225297D01*
X0038248Y0225324D01*
X0035425Y0223975D02*
X0033986Y0223975D01*
X0033986Y0227212D01*
X0035425Y0227212D01*
X0035065Y0225773D02*
X0033986Y0225773D01*
X0032148Y0223975D02*
X0031429Y0225414D01*
X0031249Y0225414D02*
X0030350Y0225414D01*
X0031249Y0225414D02*
X0031308Y0225416D01*
X0031366Y0225422D01*
X0031424Y0225431D01*
X0031482Y0225445D01*
X0031538Y0225462D01*
X0031593Y0225482D01*
X0031647Y0225507D01*
X0031699Y0225534D01*
X0031748Y0225566D01*
X0031796Y0225600D01*
X0031842Y0225637D01*
X0031885Y0225677D01*
X0031925Y0225720D01*
X0031962Y0225766D01*
X0031996Y0225814D01*
X0032028Y0225864D01*
X0032055Y0225915D01*
X0032080Y0225969D01*
X0032100Y0226024D01*
X0032117Y0226080D01*
X0032131Y0226138D01*
X0032140Y0226196D01*
X0032146Y0226254D01*
X0032148Y0226313D01*
X0032146Y0226372D01*
X0032140Y0226430D01*
X0032131Y0226488D01*
X0032117Y0226546D01*
X0032100Y0226602D01*
X0032080Y0226657D01*
X0032055Y0226711D01*
X0032028Y0226763D01*
X0031996Y0226812D01*
X0031962Y0226860D01*
X0031925Y0226906D01*
X0031885Y0226949D01*
X0031842Y0226989D01*
X0031796Y0227026D01*
X0031748Y0227060D01*
X0031698Y0227092D01*
X0031647Y0227119D01*
X0031593Y0227144D01*
X0031538Y0227164D01*
X0031482Y0227181D01*
X0031424Y0227195D01*
X0031366Y0227204D01*
X0031308Y0227210D01*
X0031249Y0227212D01*
X0030350Y0227212D01*
X0030350Y0223975D01*
D13*
X0018666Y0058261D02*
X0018666Y0031489D01*
X0029296Y0031489D02*
X0035595Y0031489D01*
X0035595Y0036214D01*
X0030084Y0036214D01*
X0030084Y0053536D01*
X0035595Y0053536D01*
X0035595Y0058261D01*
X0029296Y0058261D01*
X0037677Y0077158D02*
X0016811Y0077158D01*
X0016811Y0112592D01*
X0058937Y0112592D01*
X0058937Y0104324D01*
X0058937Y0085426D02*
X0058937Y0077158D01*
X0056181Y0077158D01*
X0060625Y0059875D02*
X0058125Y0057375D01*
X0058125Y0052375D01*
X0060625Y0049875D01*
X0058125Y0047375D01*
X0058125Y0042375D01*
X0060625Y0039875D01*
X0058125Y0037375D01*
X0058125Y0032375D01*
X0060625Y0029875D01*
X0065625Y0029875D01*
X0068125Y0032375D01*
X0068125Y0037375D01*
X0065625Y0039875D01*
X0068125Y0042375D01*
X0068125Y0047375D01*
X0065625Y0049875D01*
X0068125Y0052375D01*
X0068125Y0057375D01*
X0065625Y0059875D01*
X0060625Y0059875D01*
X0086875Y0047375D02*
X0086875Y0042375D01*
X0089375Y0039875D01*
X0094375Y0039875D01*
X0096875Y0042375D01*
X0099375Y0039875D01*
X0104375Y0039875D01*
X0106875Y0042375D01*
X0106875Y0047375D01*
X0104375Y0049875D01*
X0099375Y0049875D01*
X0096875Y0047375D01*
X0094375Y0049875D01*
X0089375Y0049875D01*
X0086875Y0047375D01*
X0092725Y0067750D02*
X0092725Y0080750D01*
X0118525Y0080750D01*
X0118525Y0067750D01*
X0092725Y0067750D01*
X0070330Y0113000D02*
X0070334Y0113314D01*
X0070345Y0113628D01*
X0070365Y0113941D01*
X0070392Y0114254D01*
X0070426Y0114566D01*
X0070468Y0114877D01*
X0070518Y0115187D01*
X0070576Y0115496D01*
X0070641Y0115803D01*
X0070713Y0116109D01*
X0070793Y0116413D01*
X0070881Y0116714D01*
X0070976Y0117014D01*
X0071078Y0117311D01*
X0071187Y0117605D01*
X0071304Y0117896D01*
X0071428Y0118185D01*
X0071558Y0118471D01*
X0071696Y0118753D01*
X0071841Y0119032D01*
X0071992Y0119307D01*
X0072150Y0119578D01*
X0072315Y0119845D01*
X0072486Y0120109D01*
X0072664Y0120367D01*
X0072848Y0120622D01*
X0073038Y0120872D01*
X0073234Y0121117D01*
X0073437Y0121357D01*
X0073645Y0121593D01*
X0073858Y0121823D01*
X0074078Y0122047D01*
X0074302Y0122267D01*
X0074532Y0122480D01*
X0074768Y0122688D01*
X0075008Y0122891D01*
X0075253Y0123087D01*
X0075503Y0123277D01*
X0075758Y0123461D01*
X0076016Y0123639D01*
X0076280Y0123810D01*
X0076547Y0123975D01*
X0076818Y0124133D01*
X0077093Y0124284D01*
X0077372Y0124429D01*
X0077654Y0124567D01*
X0077940Y0124697D01*
X0078229Y0124821D01*
X0078520Y0124938D01*
X0078814Y0125047D01*
X0079111Y0125149D01*
X0079411Y0125244D01*
X0079712Y0125332D01*
X0080016Y0125412D01*
X0080322Y0125484D01*
X0080629Y0125549D01*
X0080938Y0125607D01*
X0081248Y0125657D01*
X0081559Y0125699D01*
X0081871Y0125733D01*
X0082184Y0125760D01*
X0082497Y0125780D01*
X0082811Y0125791D01*
X0083125Y0125795D01*
X0083439Y0125791D01*
X0083753Y0125780D01*
X0084066Y0125760D01*
X0084379Y0125733D01*
X0084691Y0125699D01*
X0085002Y0125657D01*
X0085312Y0125607D01*
X0085621Y0125549D01*
X0085928Y0125484D01*
X0086234Y0125412D01*
X0086538Y0125332D01*
X0086839Y0125244D01*
X0087139Y0125149D01*
X0087436Y0125047D01*
X0087730Y0124938D01*
X0088021Y0124821D01*
X0088310Y0124697D01*
X0088596Y0124567D01*
X0088878Y0124429D01*
X0089157Y0124284D01*
X0089432Y0124133D01*
X0089703Y0123975D01*
X0089970Y0123810D01*
X0090234Y0123639D01*
X0090492Y0123461D01*
X0090747Y0123277D01*
X0090997Y0123087D01*
X0091242Y0122891D01*
X0091482Y0122688D01*
X0091718Y0122480D01*
X0091948Y0122267D01*
X0092172Y0122047D01*
X0092392Y0121823D01*
X0092605Y0121593D01*
X0092813Y0121357D01*
X0093016Y0121117D01*
X0093212Y0120872D01*
X0093402Y0120622D01*
X0093586Y0120367D01*
X0093764Y0120109D01*
X0093935Y0119845D01*
X0094100Y0119578D01*
X0094258Y0119307D01*
X0094409Y0119032D01*
X0094554Y0118753D01*
X0094692Y0118471D01*
X0094822Y0118185D01*
X0094946Y0117896D01*
X0095063Y0117605D01*
X0095172Y0117311D01*
X0095274Y0117014D01*
X0095369Y0116714D01*
X0095457Y0116413D01*
X0095537Y0116109D01*
X0095609Y0115803D01*
X0095674Y0115496D01*
X0095732Y0115187D01*
X0095782Y0114877D01*
X0095824Y0114566D01*
X0095858Y0114254D01*
X0095885Y0113941D01*
X0095905Y0113628D01*
X0095916Y0113314D01*
X0095920Y0113000D01*
X0095916Y0112686D01*
X0095905Y0112372D01*
X0095885Y0112059D01*
X0095858Y0111746D01*
X0095824Y0111434D01*
X0095782Y0111123D01*
X0095732Y0110813D01*
X0095674Y0110504D01*
X0095609Y0110197D01*
X0095537Y0109891D01*
X0095457Y0109587D01*
X0095369Y0109286D01*
X0095274Y0108986D01*
X0095172Y0108689D01*
X0095063Y0108395D01*
X0094946Y0108104D01*
X0094822Y0107815D01*
X0094692Y0107529D01*
X0094554Y0107247D01*
X0094409Y0106968D01*
X0094258Y0106693D01*
X0094100Y0106422D01*
X0093935Y0106155D01*
X0093764Y0105891D01*
X0093586Y0105633D01*
X0093402Y0105378D01*
X0093212Y0105128D01*
X0093016Y0104883D01*
X0092813Y0104643D01*
X0092605Y0104407D01*
X0092392Y0104177D01*
X0092172Y0103953D01*
X0091948Y0103733D01*
X0091718Y0103520D01*
X0091482Y0103312D01*
X0091242Y0103109D01*
X0090997Y0102913D01*
X0090747Y0102723D01*
X0090492Y0102539D01*
X0090234Y0102361D01*
X0089970Y0102190D01*
X0089703Y0102025D01*
X0089432Y0101867D01*
X0089157Y0101716D01*
X0088878Y0101571D01*
X0088596Y0101433D01*
X0088310Y0101303D01*
X0088021Y0101179D01*
X0087730Y0101062D01*
X0087436Y0100953D01*
X0087139Y0100851D01*
X0086839Y0100756D01*
X0086538Y0100668D01*
X0086234Y0100588D01*
X0085928Y0100516D01*
X0085621Y0100451D01*
X0085312Y0100393D01*
X0085002Y0100343D01*
X0084691Y0100301D01*
X0084379Y0100267D01*
X0084066Y0100240D01*
X0083753Y0100220D01*
X0083439Y0100209D01*
X0083125Y0100205D01*
X0082811Y0100209D01*
X0082497Y0100220D01*
X0082184Y0100240D01*
X0081871Y0100267D01*
X0081559Y0100301D01*
X0081248Y0100343D01*
X0080938Y0100393D01*
X0080629Y0100451D01*
X0080322Y0100516D01*
X0080016Y0100588D01*
X0079712Y0100668D01*
X0079411Y0100756D01*
X0079111Y0100851D01*
X0078814Y0100953D01*
X0078520Y0101062D01*
X0078229Y0101179D01*
X0077940Y0101303D01*
X0077654Y0101433D01*
X0077372Y0101571D01*
X0077093Y0101716D01*
X0076818Y0101867D01*
X0076547Y0102025D01*
X0076280Y0102190D01*
X0076016Y0102361D01*
X0075758Y0102539D01*
X0075503Y0102723D01*
X0075253Y0102913D01*
X0075008Y0103109D01*
X0074768Y0103312D01*
X0074532Y0103520D01*
X0074302Y0103733D01*
X0074078Y0103953D01*
X0073858Y0104177D01*
X0073645Y0104407D01*
X0073437Y0104643D01*
X0073234Y0104883D01*
X0073038Y0105128D01*
X0072848Y0105378D01*
X0072664Y0105633D01*
X0072486Y0105891D01*
X0072315Y0106155D01*
X0072150Y0106422D01*
X0071992Y0106693D01*
X0071841Y0106968D01*
X0071696Y0107247D01*
X0071558Y0107529D01*
X0071428Y0107815D01*
X0071304Y0108104D01*
X0071187Y0108395D01*
X0071078Y0108689D01*
X0070976Y0108986D01*
X0070881Y0109286D01*
X0070793Y0109587D01*
X0070713Y0109891D01*
X0070641Y0110197D01*
X0070576Y0110504D01*
X0070518Y0110813D01*
X0070468Y0111123D01*
X0070426Y0111434D01*
X0070392Y0111746D01*
X0070365Y0112059D01*
X0070345Y0112372D01*
X0070334Y0112686D01*
X0070330Y0113000D01*
X0075625Y0120000D02*
X0080625Y0120000D01*
X0085625Y0120000D02*
X0090625Y0120000D01*
X0088125Y0122500D02*
X0088125Y0117500D01*
X0118125Y0120000D02*
X0123125Y0120000D01*
X0112830Y0113000D02*
X0112834Y0113314D01*
X0112845Y0113628D01*
X0112865Y0113941D01*
X0112892Y0114254D01*
X0112926Y0114566D01*
X0112968Y0114877D01*
X0113018Y0115187D01*
X0113076Y0115496D01*
X0113141Y0115803D01*
X0113213Y0116109D01*
X0113293Y0116413D01*
X0113381Y0116714D01*
X0113476Y0117014D01*
X0113578Y0117311D01*
X0113687Y0117605D01*
X0113804Y0117896D01*
X0113928Y0118185D01*
X0114058Y0118471D01*
X0114196Y0118753D01*
X0114341Y0119032D01*
X0114492Y0119307D01*
X0114650Y0119578D01*
X0114815Y0119845D01*
X0114986Y0120109D01*
X0115164Y0120367D01*
X0115348Y0120622D01*
X0115538Y0120872D01*
X0115734Y0121117D01*
X0115937Y0121357D01*
X0116145Y0121593D01*
X0116358Y0121823D01*
X0116578Y0122047D01*
X0116802Y0122267D01*
X0117032Y0122480D01*
X0117268Y0122688D01*
X0117508Y0122891D01*
X0117753Y0123087D01*
X0118003Y0123277D01*
X0118258Y0123461D01*
X0118516Y0123639D01*
X0118780Y0123810D01*
X0119047Y0123975D01*
X0119318Y0124133D01*
X0119593Y0124284D01*
X0119872Y0124429D01*
X0120154Y0124567D01*
X0120440Y0124697D01*
X0120729Y0124821D01*
X0121020Y0124938D01*
X0121314Y0125047D01*
X0121611Y0125149D01*
X0121911Y0125244D01*
X0122212Y0125332D01*
X0122516Y0125412D01*
X0122822Y0125484D01*
X0123129Y0125549D01*
X0123438Y0125607D01*
X0123748Y0125657D01*
X0124059Y0125699D01*
X0124371Y0125733D01*
X0124684Y0125760D01*
X0124997Y0125780D01*
X0125311Y0125791D01*
X0125625Y0125795D01*
X0125939Y0125791D01*
X0126253Y0125780D01*
X0126566Y0125760D01*
X0126879Y0125733D01*
X0127191Y0125699D01*
X0127502Y0125657D01*
X0127812Y0125607D01*
X0128121Y0125549D01*
X0128428Y0125484D01*
X0128734Y0125412D01*
X0129038Y0125332D01*
X0129339Y0125244D01*
X0129639Y0125149D01*
X0129936Y0125047D01*
X0130230Y0124938D01*
X0130521Y0124821D01*
X0130810Y0124697D01*
X0131096Y0124567D01*
X0131378Y0124429D01*
X0131657Y0124284D01*
X0131932Y0124133D01*
X0132203Y0123975D01*
X0132470Y0123810D01*
X0132734Y0123639D01*
X0132992Y0123461D01*
X0133247Y0123277D01*
X0133497Y0123087D01*
X0133742Y0122891D01*
X0133982Y0122688D01*
X0134218Y0122480D01*
X0134448Y0122267D01*
X0134672Y0122047D01*
X0134892Y0121823D01*
X0135105Y0121593D01*
X0135313Y0121357D01*
X0135516Y0121117D01*
X0135712Y0120872D01*
X0135902Y0120622D01*
X0136086Y0120367D01*
X0136264Y0120109D01*
X0136435Y0119845D01*
X0136600Y0119578D01*
X0136758Y0119307D01*
X0136909Y0119032D01*
X0137054Y0118753D01*
X0137192Y0118471D01*
X0137322Y0118185D01*
X0137446Y0117896D01*
X0137563Y0117605D01*
X0137672Y0117311D01*
X0137774Y0117014D01*
X0137869Y0116714D01*
X0137957Y0116413D01*
X0138037Y0116109D01*
X0138109Y0115803D01*
X0138174Y0115496D01*
X0138232Y0115187D01*
X0138282Y0114877D01*
X0138324Y0114566D01*
X0138358Y0114254D01*
X0138385Y0113941D01*
X0138405Y0113628D01*
X0138416Y0113314D01*
X0138420Y0113000D01*
X0138416Y0112686D01*
X0138405Y0112372D01*
X0138385Y0112059D01*
X0138358Y0111746D01*
X0138324Y0111434D01*
X0138282Y0111123D01*
X0138232Y0110813D01*
X0138174Y0110504D01*
X0138109Y0110197D01*
X0138037Y0109891D01*
X0137957Y0109587D01*
X0137869Y0109286D01*
X0137774Y0108986D01*
X0137672Y0108689D01*
X0137563Y0108395D01*
X0137446Y0108104D01*
X0137322Y0107815D01*
X0137192Y0107529D01*
X0137054Y0107247D01*
X0136909Y0106968D01*
X0136758Y0106693D01*
X0136600Y0106422D01*
X0136435Y0106155D01*
X0136264Y0105891D01*
X0136086Y0105633D01*
X0135902Y0105378D01*
X0135712Y0105128D01*
X0135516Y0104883D01*
X0135313Y0104643D01*
X0135105Y0104407D01*
X0134892Y0104177D01*
X0134672Y0103953D01*
X0134448Y0103733D01*
X0134218Y0103520D01*
X0133982Y0103312D01*
X0133742Y0103109D01*
X0133497Y0102913D01*
X0133247Y0102723D01*
X0132992Y0102539D01*
X0132734Y0102361D01*
X0132470Y0102190D01*
X0132203Y0102025D01*
X0131932Y0101867D01*
X0131657Y0101716D01*
X0131378Y0101571D01*
X0131096Y0101433D01*
X0130810Y0101303D01*
X0130521Y0101179D01*
X0130230Y0101062D01*
X0129936Y0100953D01*
X0129639Y0100851D01*
X0129339Y0100756D01*
X0129038Y0100668D01*
X0128734Y0100588D01*
X0128428Y0100516D01*
X0128121Y0100451D01*
X0127812Y0100393D01*
X0127502Y0100343D01*
X0127191Y0100301D01*
X0126879Y0100267D01*
X0126566Y0100240D01*
X0126253Y0100220D01*
X0125939Y0100209D01*
X0125625Y0100205D01*
X0125311Y0100209D01*
X0124997Y0100220D01*
X0124684Y0100240D01*
X0124371Y0100267D01*
X0124059Y0100301D01*
X0123748Y0100343D01*
X0123438Y0100393D01*
X0123129Y0100451D01*
X0122822Y0100516D01*
X0122516Y0100588D01*
X0122212Y0100668D01*
X0121911Y0100756D01*
X0121611Y0100851D01*
X0121314Y0100953D01*
X0121020Y0101062D01*
X0120729Y0101179D01*
X0120440Y0101303D01*
X0120154Y0101433D01*
X0119872Y0101571D01*
X0119593Y0101716D01*
X0119318Y0101867D01*
X0119047Y0102025D01*
X0118780Y0102190D01*
X0118516Y0102361D01*
X0118258Y0102539D01*
X0118003Y0102723D01*
X0117753Y0102913D01*
X0117508Y0103109D01*
X0117268Y0103312D01*
X0117032Y0103520D01*
X0116802Y0103733D01*
X0116578Y0103953D01*
X0116358Y0104177D01*
X0116145Y0104407D01*
X0115937Y0104643D01*
X0115734Y0104883D01*
X0115538Y0105128D01*
X0115348Y0105378D01*
X0115164Y0105633D01*
X0114986Y0105891D01*
X0114815Y0106155D01*
X0114650Y0106422D01*
X0114492Y0106693D01*
X0114341Y0106968D01*
X0114196Y0107247D01*
X0114058Y0107529D01*
X0113928Y0107815D01*
X0113804Y0108104D01*
X0113687Y0108395D01*
X0113578Y0108689D01*
X0113476Y0108986D01*
X0113381Y0109286D01*
X0113293Y0109587D01*
X0113213Y0109891D01*
X0113141Y0110197D01*
X0113076Y0110504D01*
X0113018Y0110813D01*
X0112968Y0111123D01*
X0112926Y0111434D01*
X0112892Y0111746D01*
X0112865Y0112059D01*
X0112845Y0112372D01*
X0112834Y0112686D01*
X0112830Y0113000D01*
X0128125Y0120000D02*
X0133125Y0120000D01*
X0130625Y0122500D02*
X0130625Y0117500D01*
X0176875Y0121750D02*
X0176875Y0126750D01*
X0179375Y0129250D01*
X0176875Y0131750D01*
X0176875Y0136750D01*
X0179375Y0139250D01*
X0176875Y0141750D01*
X0176875Y0146750D01*
X0179375Y0149250D01*
X0176875Y0151750D01*
X0176875Y0156750D01*
X0179375Y0159250D01*
X0176875Y0161750D01*
X0176875Y0166750D01*
X0179375Y0169250D01*
X0184375Y0169250D01*
X0186875Y0166750D01*
X0186875Y0161750D01*
X0184375Y0159250D01*
X0186875Y0156750D01*
X0186875Y0151750D01*
X0184375Y0149250D01*
X0186875Y0146750D01*
X0186875Y0141750D01*
X0184375Y0139250D01*
X0186875Y0136750D01*
X0186875Y0131750D01*
X0184375Y0129250D01*
X0186875Y0126750D01*
X0186875Y0121750D01*
X0184375Y0119250D01*
X0179375Y0119250D01*
X0176875Y0121750D01*
X0179375Y0108625D02*
X0176875Y0106125D01*
X0176875Y0101125D01*
X0179375Y0098625D01*
X0176875Y0096125D01*
X0176875Y0091125D01*
X0179375Y0088625D01*
X0176875Y0086125D01*
X0176875Y0081125D01*
X0179375Y0078625D01*
X0184375Y0078625D01*
X0186875Y0081125D01*
X0186875Y0086125D01*
X0184375Y0088625D01*
X0186875Y0091125D01*
X0186875Y0096125D01*
X0184375Y0098625D01*
X0186875Y0101125D01*
X0186875Y0106125D01*
X0184375Y0108625D01*
X0179375Y0108625D01*
X0150625Y0051125D02*
X0145625Y0051125D01*
X0143125Y0048625D01*
X0140625Y0051125D01*
X0135625Y0051125D01*
X0133125Y0048625D01*
X0133125Y0043625D01*
X0135625Y0041125D01*
X0140625Y0041125D01*
X0143125Y0043625D01*
X0145625Y0041125D01*
X0150625Y0041125D01*
X0153125Y0043625D01*
X0153125Y0048625D01*
X0150625Y0051125D01*
X0179375Y0177375D02*
X0176875Y0179875D01*
X0176875Y0184875D01*
X0179375Y0187375D01*
X0176875Y0189875D01*
X0176875Y0194875D01*
X0179375Y0197375D01*
X0176875Y0199875D01*
X0176875Y0204875D01*
X0179375Y0207375D01*
X0176875Y0209875D01*
X0176875Y0214875D01*
X0179375Y0217375D01*
X0176875Y0219875D01*
X0176875Y0224875D01*
X0179375Y0227375D01*
X0176875Y0229875D01*
X0176875Y0234875D01*
X0179375Y0237375D01*
X0176875Y0239875D01*
X0176875Y0244875D01*
X0179375Y0247375D01*
X0176875Y0249875D01*
X0176875Y0254875D01*
X0179375Y0257375D01*
X0184375Y0257375D01*
X0186875Y0254875D01*
X0186875Y0249875D01*
X0184375Y0247375D01*
X0186875Y0244875D01*
X0186875Y0239875D01*
X0184375Y0237375D01*
X0186875Y0234875D01*
X0186875Y0229875D01*
X0184375Y0227375D01*
X0186875Y0224875D01*
X0186875Y0219875D01*
X0184375Y0217375D01*
X0186875Y0214875D01*
X0186875Y0209875D01*
X0184375Y0207375D01*
X0186875Y0204875D01*
X0186875Y0199875D01*
X0184375Y0197375D01*
X0186875Y0194875D01*
X0186875Y0189875D01*
X0184375Y0187375D01*
X0186875Y0184875D01*
X0186875Y0179875D01*
X0184375Y0177375D01*
X0179375Y0177375D01*
X0156625Y0233250D02*
X0129625Y0233250D01*
X0129406Y0233253D01*
X0129187Y0233261D01*
X0128968Y0233274D01*
X0128750Y0233293D01*
X0128532Y0233317D01*
X0128315Y0233346D01*
X0128098Y0233380D01*
X0127883Y0233420D01*
X0127668Y0233465D01*
X0127455Y0233516D01*
X0127243Y0233571D01*
X0127032Y0233632D01*
X0126823Y0233697D01*
X0126616Y0233768D01*
X0126410Y0233844D01*
X0126206Y0233925D01*
X0126004Y0234010D01*
X0125805Y0234101D01*
X0125608Y0234196D01*
X0125413Y0234297D01*
X0125220Y0234402D01*
X0125030Y0234511D01*
X0124843Y0234625D01*
X0124659Y0234744D01*
X0124478Y0234867D01*
X0124300Y0234995D01*
X0124124Y0235127D01*
X0123953Y0235263D01*
X0123784Y0235403D01*
X0123619Y0235547D01*
X0123458Y0235695D01*
X0123300Y0235847D01*
X0123146Y0236003D01*
X0122996Y0236163D01*
X0122849Y0236326D01*
X0122707Y0236493D01*
X0122569Y0236663D01*
X0122435Y0236837D01*
X0122305Y0237013D01*
X0122180Y0237193D01*
X0122059Y0237376D01*
X0121943Y0237562D01*
X0121831Y0237750D01*
X0121724Y0237941D01*
X0121621Y0238135D01*
X0121523Y0238331D01*
X0121430Y0238529D01*
X0121342Y0238730D01*
X0121259Y0238933D01*
X0121180Y0239138D01*
X0121107Y0239344D01*
X0121039Y0239552D01*
X0120976Y0239762D01*
X0120918Y0239974D01*
X0120865Y0240186D01*
X0120817Y0240400D01*
X0120775Y0240615D01*
X0120738Y0240831D01*
X0120706Y0241048D01*
X0120679Y0241266D01*
X0120658Y0241484D01*
X0120642Y0241702D01*
X0120631Y0241921D01*
X0120626Y0242140D01*
X0120626Y0242360D01*
X0120631Y0242579D01*
X0120642Y0242798D01*
X0120658Y0243016D01*
X0120679Y0243234D01*
X0120706Y0243452D01*
X0120738Y0243669D01*
X0120775Y0243885D01*
X0120817Y0244100D01*
X0120865Y0244314D01*
X0120918Y0244526D01*
X0120976Y0244738D01*
X0121039Y0244948D01*
X0121107Y0245156D01*
X0121180Y0245362D01*
X0121259Y0245567D01*
X0121342Y0245770D01*
X0121430Y0245971D01*
X0121523Y0246169D01*
X0121621Y0246365D01*
X0121724Y0246559D01*
X0121831Y0246750D01*
X0121943Y0246938D01*
X0122059Y0247124D01*
X0122180Y0247307D01*
X0122305Y0247487D01*
X0122435Y0247663D01*
X0122569Y0247837D01*
X0122707Y0248007D01*
X0122849Y0248174D01*
X0122996Y0248337D01*
X0123146Y0248497D01*
X0123300Y0248653D01*
X0123458Y0248805D01*
X0123619Y0248953D01*
X0123784Y0249097D01*
X0123953Y0249237D01*
X0124124Y0249373D01*
X0124300Y0249505D01*
X0124478Y0249633D01*
X0124659Y0249756D01*
X0124843Y0249875D01*
X0125030Y0249989D01*
X0125220Y0250098D01*
X0125413Y0250203D01*
X0125608Y0250304D01*
X0125805Y0250399D01*
X0126004Y0250490D01*
X0126206Y0250575D01*
X0126410Y0250656D01*
X0126616Y0250732D01*
X0126823Y0250803D01*
X0127032Y0250868D01*
X0127243Y0250929D01*
X0127455Y0250984D01*
X0127668Y0251035D01*
X0127883Y0251080D01*
X0128098Y0251120D01*
X0128315Y0251154D01*
X0128532Y0251183D01*
X0128750Y0251207D01*
X0128968Y0251226D01*
X0129187Y0251239D01*
X0129406Y0251247D01*
X0129625Y0251250D01*
X0156625Y0251250D01*
X0156844Y0251247D01*
X0157063Y0251239D01*
X0157282Y0251226D01*
X0157500Y0251207D01*
X0157718Y0251183D01*
X0157935Y0251154D01*
X0158152Y0251120D01*
X0158367Y0251080D01*
X0158582Y0251035D01*
X0158795Y0250984D01*
X0159007Y0250929D01*
X0159218Y0250868D01*
X0159427Y0250803D01*
X0159634Y0250732D01*
X0159840Y0250656D01*
X0160044Y0250575D01*
X0160246Y0250490D01*
X0160445Y0250399D01*
X0160642Y0250304D01*
X0160837Y0250203D01*
X0161030Y0250098D01*
X0161220Y0249989D01*
X0161407Y0249875D01*
X0161591Y0249756D01*
X0161772Y0249633D01*
X0161950Y0249505D01*
X0162126Y0249373D01*
X0162297Y0249237D01*
X0162466Y0249097D01*
X0162631Y0248953D01*
X0162792Y0248805D01*
X0162950Y0248653D01*
X0163104Y0248497D01*
X0163254Y0248337D01*
X0163401Y0248174D01*
X0163543Y0248007D01*
X0163681Y0247837D01*
X0163815Y0247663D01*
X0163945Y0247487D01*
X0164070Y0247307D01*
X0164191Y0247124D01*
X0164307Y0246938D01*
X0164419Y0246750D01*
X0164526Y0246559D01*
X0164629Y0246365D01*
X0164727Y0246169D01*
X0164820Y0245971D01*
X0164908Y0245770D01*
X0164991Y0245567D01*
X0165070Y0245362D01*
X0165143Y0245156D01*
X0165211Y0244948D01*
X0165274Y0244738D01*
X0165332Y0244526D01*
X0165385Y0244314D01*
X0165433Y0244100D01*
X0165475Y0243885D01*
X0165512Y0243669D01*
X0165544Y0243452D01*
X0165571Y0243234D01*
X0165592Y0243016D01*
X0165608Y0242798D01*
X0165619Y0242579D01*
X0165624Y0242360D01*
X0165624Y0242140D01*
X0165619Y0241921D01*
X0165608Y0241702D01*
X0165592Y0241484D01*
X0165571Y0241266D01*
X0165544Y0241048D01*
X0165512Y0240831D01*
X0165475Y0240615D01*
X0165433Y0240400D01*
X0165385Y0240186D01*
X0165332Y0239974D01*
X0165274Y0239762D01*
X0165211Y0239552D01*
X0165143Y0239344D01*
X0165070Y0239138D01*
X0164991Y0238933D01*
X0164908Y0238730D01*
X0164820Y0238529D01*
X0164727Y0238331D01*
X0164629Y0238135D01*
X0164526Y0237941D01*
X0164419Y0237750D01*
X0164307Y0237562D01*
X0164191Y0237376D01*
X0164070Y0237193D01*
X0163945Y0237013D01*
X0163815Y0236837D01*
X0163681Y0236663D01*
X0163543Y0236493D01*
X0163401Y0236326D01*
X0163254Y0236163D01*
X0163104Y0236003D01*
X0162950Y0235847D01*
X0162792Y0235695D01*
X0162631Y0235547D01*
X0162466Y0235403D01*
X0162297Y0235263D01*
X0162126Y0235127D01*
X0161950Y0234995D01*
X0161772Y0234867D01*
X0161591Y0234744D01*
X0161407Y0234625D01*
X0161220Y0234511D01*
X0161030Y0234402D01*
X0160837Y0234297D01*
X0160642Y0234196D01*
X0160445Y0234101D01*
X0160246Y0234010D01*
X0160044Y0233925D01*
X0159840Y0233844D01*
X0159634Y0233768D01*
X0159427Y0233697D01*
X0159218Y0233632D01*
X0159007Y0233571D01*
X0158795Y0233516D01*
X0158582Y0233465D01*
X0158367Y0233420D01*
X0158152Y0233380D01*
X0157935Y0233346D01*
X0157718Y0233317D01*
X0157500Y0233293D01*
X0157282Y0233274D01*
X0157063Y0233261D01*
X0156844Y0233253D01*
X0156625Y0233250D01*
X0049125Y0236750D02*
X0049125Y0253750D01*
X0041125Y0257250D02*
X0033196Y0257250D01*
X0025125Y0253750D02*
X0025125Y0236750D01*
X0033078Y0233250D02*
X0041125Y0233250D01*
X0030125Y0245250D02*
X0030127Y0245422D01*
X0030133Y0245593D01*
X0030144Y0245765D01*
X0030159Y0245936D01*
X0030178Y0246107D01*
X0030201Y0246277D01*
X0030228Y0246447D01*
X0030260Y0246616D01*
X0030295Y0246784D01*
X0030335Y0246951D01*
X0030379Y0247117D01*
X0030426Y0247282D01*
X0030478Y0247446D01*
X0030534Y0247608D01*
X0030594Y0247769D01*
X0030658Y0247929D01*
X0030726Y0248087D01*
X0030797Y0248243D01*
X0030872Y0248397D01*
X0030952Y0248550D01*
X0031034Y0248700D01*
X0031121Y0248849D01*
X0031211Y0248995D01*
X0031305Y0249139D01*
X0031402Y0249281D01*
X0031503Y0249420D01*
X0031607Y0249557D01*
X0031714Y0249691D01*
X0031825Y0249822D01*
X0031938Y0249951D01*
X0032055Y0250077D01*
X0032175Y0250200D01*
X0032298Y0250320D01*
X0032424Y0250437D01*
X0032553Y0250550D01*
X0032684Y0250661D01*
X0032818Y0250768D01*
X0032955Y0250872D01*
X0033094Y0250973D01*
X0033236Y0251070D01*
X0033380Y0251164D01*
X0033526Y0251254D01*
X0033675Y0251341D01*
X0033825Y0251423D01*
X0033978Y0251503D01*
X0034132Y0251578D01*
X0034288Y0251649D01*
X0034446Y0251717D01*
X0034606Y0251781D01*
X0034767Y0251841D01*
X0034929Y0251897D01*
X0035093Y0251949D01*
X0035258Y0251996D01*
X0035424Y0252040D01*
X0035591Y0252080D01*
X0035759Y0252115D01*
X0035928Y0252147D01*
X0036098Y0252174D01*
X0036268Y0252197D01*
X0036439Y0252216D01*
X0036610Y0252231D01*
X0036782Y0252242D01*
X0036953Y0252248D01*
X0037125Y0252250D01*
X0037297Y0252248D01*
X0037468Y0252242D01*
X0037640Y0252231D01*
X0037811Y0252216D01*
X0037982Y0252197D01*
X0038152Y0252174D01*
X0038322Y0252147D01*
X0038491Y0252115D01*
X0038659Y0252080D01*
X0038826Y0252040D01*
X0038992Y0251996D01*
X0039157Y0251949D01*
X0039321Y0251897D01*
X0039483Y0251841D01*
X0039644Y0251781D01*
X0039804Y0251717D01*
X0039962Y0251649D01*
X0040118Y0251578D01*
X0040272Y0251503D01*
X0040425Y0251423D01*
X0040575Y0251341D01*
X0040724Y0251254D01*
X0040870Y0251164D01*
X0041014Y0251070D01*
X0041156Y0250973D01*
X0041295Y0250872D01*
X0041432Y0250768D01*
X0041566Y0250661D01*
X0041697Y0250550D01*
X0041826Y0250437D01*
X0041952Y0250320D01*
X0042075Y0250200D01*
X0042195Y0250077D01*
X0042312Y0249951D01*
X0042425Y0249822D01*
X0042536Y0249691D01*
X0042643Y0249557D01*
X0042747Y0249420D01*
X0042848Y0249281D01*
X0042945Y0249139D01*
X0043039Y0248995D01*
X0043129Y0248849D01*
X0043216Y0248700D01*
X0043298Y0248550D01*
X0043378Y0248397D01*
X0043453Y0248243D01*
X0043524Y0248087D01*
X0043592Y0247929D01*
X0043656Y0247769D01*
X0043716Y0247608D01*
X0043772Y0247446D01*
X0043824Y0247282D01*
X0043871Y0247117D01*
X0043915Y0246951D01*
X0043955Y0246784D01*
X0043990Y0246616D01*
X0044022Y0246447D01*
X0044049Y0246277D01*
X0044072Y0246107D01*
X0044091Y0245936D01*
X0044106Y0245765D01*
X0044117Y0245593D01*
X0044123Y0245422D01*
X0044125Y0245250D01*
X0044123Y0245078D01*
X0044117Y0244907D01*
X0044106Y0244735D01*
X0044091Y0244564D01*
X0044072Y0244393D01*
X0044049Y0244223D01*
X0044022Y0244053D01*
X0043990Y0243884D01*
X0043955Y0243716D01*
X0043915Y0243549D01*
X0043871Y0243383D01*
X0043824Y0243218D01*
X0043772Y0243054D01*
X0043716Y0242892D01*
X0043656Y0242731D01*
X0043592Y0242571D01*
X0043524Y0242413D01*
X0043453Y0242257D01*
X0043378Y0242103D01*
X0043298Y0241950D01*
X0043216Y0241800D01*
X0043129Y0241651D01*
X0043039Y0241505D01*
X0042945Y0241361D01*
X0042848Y0241219D01*
X0042747Y0241080D01*
X0042643Y0240943D01*
X0042536Y0240809D01*
X0042425Y0240678D01*
X0042312Y0240549D01*
X0042195Y0240423D01*
X0042075Y0240300D01*
X0041952Y0240180D01*
X0041826Y0240063D01*
X0041697Y0239950D01*
X0041566Y0239839D01*
X0041432Y0239732D01*
X0041295Y0239628D01*
X0041156Y0239527D01*
X0041014Y0239430D01*
X0040870Y0239336D01*
X0040724Y0239246D01*
X0040575Y0239159D01*
X0040425Y0239077D01*
X0040272Y0238997D01*
X0040118Y0238922D01*
X0039962Y0238851D01*
X0039804Y0238783D01*
X0039644Y0238719D01*
X0039483Y0238659D01*
X0039321Y0238603D01*
X0039157Y0238551D01*
X0038992Y0238504D01*
X0038826Y0238460D01*
X0038659Y0238420D01*
X0038491Y0238385D01*
X0038322Y0238353D01*
X0038152Y0238326D01*
X0037982Y0238303D01*
X0037811Y0238284D01*
X0037640Y0238269D01*
X0037468Y0238258D01*
X0037297Y0238252D01*
X0037125Y0238250D01*
X0036953Y0238252D01*
X0036782Y0238258D01*
X0036610Y0238269D01*
X0036439Y0238284D01*
X0036268Y0238303D01*
X0036098Y0238326D01*
X0035928Y0238353D01*
X0035759Y0238385D01*
X0035591Y0238420D01*
X0035424Y0238460D01*
X0035258Y0238504D01*
X0035093Y0238551D01*
X0034929Y0238603D01*
X0034767Y0238659D01*
X0034606Y0238719D01*
X0034446Y0238783D01*
X0034288Y0238851D01*
X0034132Y0238922D01*
X0033978Y0238997D01*
X0033825Y0239077D01*
X0033675Y0239159D01*
X0033526Y0239246D01*
X0033380Y0239336D01*
X0033236Y0239430D01*
X0033094Y0239527D01*
X0032955Y0239628D01*
X0032818Y0239732D01*
X0032684Y0239839D01*
X0032553Y0239950D01*
X0032424Y0240063D01*
X0032298Y0240180D01*
X0032175Y0240300D01*
X0032055Y0240423D01*
X0031938Y0240549D01*
X0031825Y0240678D01*
X0031714Y0240809D01*
X0031607Y0240943D01*
X0031503Y0241080D01*
X0031402Y0241219D01*
X0031305Y0241361D01*
X0031211Y0241505D01*
X0031121Y0241651D01*
X0031034Y0241800D01*
X0030952Y0241950D01*
X0030872Y0242103D01*
X0030797Y0242257D01*
X0030726Y0242413D01*
X0030658Y0242571D01*
X0030594Y0242731D01*
X0030534Y0242892D01*
X0030478Y0243054D01*
X0030426Y0243218D01*
X0030379Y0243383D01*
X0030335Y0243549D01*
X0030295Y0243716D01*
X0030260Y0243884D01*
X0030228Y0244053D01*
X0030201Y0244223D01*
X0030178Y0244393D01*
X0030159Y0244564D01*
X0030144Y0244735D01*
X0030133Y0244907D01*
X0030127Y0245078D01*
X0030125Y0245250D01*
X0031250Y0205500D02*
X0031250Y0200500D01*
D14*
X0092461Y0193039D02*
X0092461Y0190087D01*
X0093228Y0191268D02*
X0093230Y0191331D01*
X0093236Y0191394D01*
X0093246Y0191456D01*
X0093260Y0191518D01*
X0093277Y0191578D01*
X0093299Y0191638D01*
X0093324Y0191695D01*
X0093352Y0191752D01*
X0093384Y0191806D01*
X0093420Y0191858D01*
X0093458Y0191908D01*
X0093500Y0191955D01*
X0093545Y0192000D01*
X0093592Y0192042D01*
X0093642Y0192080D01*
X0093694Y0192116D01*
X0093748Y0192148D01*
X0093805Y0192176D01*
X0093862Y0192201D01*
X0093922Y0192223D01*
X0093982Y0192240D01*
X0094044Y0192254D01*
X0094106Y0192264D01*
X0094169Y0192270D01*
X0094232Y0192272D01*
X0094295Y0192270D01*
X0094358Y0192264D01*
X0094420Y0192254D01*
X0094482Y0192240D01*
X0094542Y0192223D01*
X0094602Y0192201D01*
X0094659Y0192176D01*
X0094716Y0192148D01*
X0094770Y0192116D01*
X0094822Y0192080D01*
X0094872Y0192042D01*
X0094919Y0192000D01*
X0094964Y0191955D01*
X0095006Y0191908D01*
X0095044Y0191858D01*
X0095080Y0191806D01*
X0095112Y0191752D01*
X0095140Y0191695D01*
X0095165Y0191638D01*
X0095187Y0191578D01*
X0095204Y0191518D01*
X0095218Y0191456D01*
X0095228Y0191394D01*
X0095234Y0191331D01*
X0095236Y0191268D01*
X0095234Y0191205D01*
X0095228Y0191142D01*
X0095218Y0191080D01*
X0095204Y0191018D01*
X0095187Y0190958D01*
X0095165Y0190898D01*
X0095140Y0190841D01*
X0095112Y0190784D01*
X0095080Y0190730D01*
X0095044Y0190678D01*
X0095006Y0190628D01*
X0094964Y0190581D01*
X0094919Y0190536D01*
X0094872Y0190494D01*
X0094822Y0190456D01*
X0094770Y0190420D01*
X0094716Y0190388D01*
X0094659Y0190360D01*
X0094602Y0190335D01*
X0094542Y0190313D01*
X0094482Y0190296D01*
X0094420Y0190282D01*
X0094358Y0190272D01*
X0094295Y0190266D01*
X0094232Y0190264D01*
X0094169Y0190266D01*
X0094106Y0190272D01*
X0094044Y0190282D01*
X0093982Y0190296D01*
X0093922Y0190313D01*
X0093862Y0190335D01*
X0093805Y0190360D01*
X0093748Y0190388D01*
X0093694Y0190420D01*
X0093642Y0190456D01*
X0093592Y0190494D01*
X0093545Y0190536D01*
X0093500Y0190581D01*
X0093458Y0190628D01*
X0093420Y0190678D01*
X0093384Y0190730D01*
X0093352Y0190784D01*
X0093324Y0190841D01*
X0093299Y0190898D01*
X0093277Y0190958D01*
X0093260Y0191018D01*
X0093246Y0191080D01*
X0093236Y0191142D01*
X0093230Y0191205D01*
X0093228Y0191268D01*
X0092461Y0193039D02*
X0095413Y0193039D01*
X0092461Y0175913D02*
X0092461Y0172961D01*
X0095413Y0172961D01*
X0109587Y0172961D02*
X0112539Y0172961D01*
X0112539Y0175913D01*
X0112539Y0190087D02*
X0112539Y0193039D01*
X0109587Y0193039D01*
D15*
X0038250Y0208000D02*
X0038250Y0148000D01*
X0016250Y0148000D01*
X0016250Y0153000D01*
X0021250Y0153000D01*
X0021250Y0203000D01*
X0016250Y0203000D01*
X0016250Y0208000D01*
X0038250Y0208000D01*
X0016250Y0203000D02*
X0016250Y0153000D01*
M02*
