G75*
%MOIN*%
%OFA0B0*%
%FSLAX25Y25*%
%IPPOS*%
%LPD*%
%AMOC8*
5,1,8,0,0,1.08239X$1,22.5*
%
%ADD10C,0.06500*%
%ADD11R,0.06500X0.06500*%
%ADD12C,0.17000*%
%ADD13C,0.07400*%
%ADD14R,0.03937X0.04331*%
%ADD15R,0.04331X0.03937*%
%ADD16R,0.03150X0.04724*%
%ADD17C,0.02978*%
%ADD18C,0.02400*%
%ADD19C,0.04000*%
%ADD20C,0.03200*%
%ADD21C,0.02000*%
%ADD22C,0.01000*%
%ADD23C,0.00800*%
D10*
X0078204Y0113000D03*
X0120704Y0113000D03*
X0133125Y0242250D03*
X0153125Y0242250D03*
D11*
X0130546Y0113000D03*
X0088046Y0113000D03*
D12*
X0058937Y0094875D03*
X0047126Y0076371D03*
X0035315Y0094875D03*
D13*
X0063125Y0054875D03*
X0063125Y0044875D03*
X0063125Y0034875D03*
X0091875Y0044875D03*
X0101875Y0044875D03*
X0138125Y0046125D03*
X0148125Y0046125D03*
X0181875Y0083625D03*
X0181875Y0093625D03*
X0181875Y0103625D03*
X0181875Y0124250D03*
X0181875Y0134250D03*
X0181875Y0144250D03*
X0181875Y0154250D03*
X0181875Y0164250D03*
X0181875Y0182375D03*
X0181875Y0192375D03*
X0181875Y0202375D03*
X0181875Y0212375D03*
X0181875Y0222375D03*
X0181875Y0232375D03*
X0181875Y0242375D03*
X0181875Y0252375D03*
X0046025Y0258050D03*
X0028225Y0258050D03*
X0028225Y0232450D03*
X0046025Y0232450D03*
X0026250Y0203000D03*
X0026250Y0193000D03*
X0026250Y0183000D03*
X0026250Y0173000D03*
X0026250Y0163000D03*
X0026250Y0153000D03*
D14*
X0091500Y0199404D03*
X0091500Y0206096D03*
D15*
X0106529Y0209375D03*
X0113221Y0209375D03*
X0117529Y0197250D03*
X0124221Y0197250D03*
X0139779Y0210625D03*
X0146471Y0210625D03*
X0108971Y0163875D03*
X0102279Y0163875D03*
D16*
X0098043Y0221500D03*
X0090957Y0221500D03*
D17*
X0042500Y0039875D03*
X0050000Y0039875D03*
X0065000Y0144250D03*
X0050000Y0173500D03*
X0060000Y0214875D03*
X0057450Y0226600D03*
X0085550Y0213400D03*
X0096125Y0206125D03*
X0100625Y0206125D03*
X0104375Y0201125D03*
X0098750Y0199250D03*
X0087950Y0195700D03*
X0086875Y0176750D03*
X0093125Y0169875D03*
X0105000Y0168625D03*
X0112500Y0168625D03*
X0107500Y0159250D03*
X0132500Y0166750D03*
X0136250Y0171750D03*
X0138125Y0165500D03*
X0141250Y0161750D03*
X0155000Y0154875D03*
X0155000Y0151125D03*
X0160000Y0134250D03*
X0111875Y0196750D03*
X0119375Y0214875D03*
X0153750Y0212375D03*
X0161250Y0202375D03*
D18*
X0100625Y0206125D02*
X0100625Y0218918D01*
X0098043Y0221500D01*
X0090957Y0221500D02*
X0085625Y0216168D01*
X0085625Y0201750D01*
X0087971Y0199404D01*
X0091500Y0199404D01*
X0091654Y0199250D01*
X0098750Y0199250D01*
D19*
X0035315Y0094875D02*
X0035315Y0088182D01*
X0047126Y0076371D01*
X0047126Y0044501D01*
X0042500Y0039875D01*
D20*
X0058937Y0059063D02*
X0058937Y0094875D01*
X0058937Y0059063D02*
X0063125Y0054875D01*
X0088046Y0113000D02*
X0112996Y0113000D01*
X0118446Y0118450D01*
X0147050Y0118450D01*
X0181875Y0083625D01*
X0181875Y0093625D02*
X0137500Y0138000D01*
X0146471Y0146971D01*
X0146471Y0171750D01*
X0136250Y0171750D01*
X0146471Y0171750D02*
X0146471Y0210625D01*
X0152000Y0210625D01*
X0153750Y0212375D01*
X0161250Y0204875D01*
X0161250Y0202375D01*
X0139779Y0210625D02*
X0137596Y0210625D01*
X0124221Y0197250D01*
X0121894Y0194922D01*
X0121894Y0194370D01*
X0120605Y0193081D01*
X0113831Y0193081D01*
X0108125Y0187375D01*
X0101250Y0187375D01*
X0098750Y0189875D01*
X0098750Y0199250D01*
X0091654Y0199250D02*
X0065000Y0172596D01*
X0065000Y0144250D01*
X0060000Y0138000D02*
X0060000Y0214875D01*
X0075243Y0226550D02*
X0043581Y0226550D01*
X0037681Y0232450D01*
X0028225Y0232450D01*
X0075243Y0226550D02*
X0085625Y0216168D01*
X0090957Y0221500D02*
X0090995Y0221500D01*
X0112971Y0209625D02*
X0113221Y0209375D01*
X0118721Y0214875D01*
X0119375Y0214875D01*
X0137500Y0138000D02*
X0060000Y0138000D01*
D21*
X0098750Y0199250D02*
X0098750Y0199882D01*
X0096096Y0206096D02*
X0091500Y0206096D01*
X0096096Y0206096D02*
X0096125Y0206125D01*
X0111875Y0196750D02*
X0117029Y0196750D01*
X0117529Y0197250D01*
X0134472Y0214194D01*
X0142607Y0214194D01*
X0146175Y0210625D01*
X0146471Y0210625D01*
X0138125Y0165500D02*
X0136286Y0163661D01*
X0131220Y0163661D01*
X0131007Y0163875D01*
X0108971Y0163875D01*
D22*
X0112500Y0167404D01*
X0112500Y0168625D01*
X0105000Y0168625D02*
X0102279Y0165904D01*
X0102279Y0163875D01*
X0106904Y0159250D01*
X0107500Y0159250D01*
X0102589Y0169875D02*
X0103928Y0171214D01*
X0128036Y0171214D01*
X0132500Y0166750D01*
X0141250Y0161750D02*
X0141250Y0158625D01*
X0136875Y0154250D01*
X0100000Y0154250D01*
X0083125Y0171125D01*
X0083125Y0173000D01*
X0086875Y0176750D01*
X0093125Y0169875D02*
X0102589Y0169875D01*
X0104375Y0201125D02*
X0104375Y0207221D01*
X0106327Y0209173D01*
X0106327Y0228548D01*
X0102425Y0232450D01*
X0102425Y0254800D01*
X0108125Y0260500D01*
X0173750Y0260500D01*
X0181875Y0252375D01*
X0155000Y0154875D02*
X0166875Y0143000D01*
X0166875Y0131125D01*
X0173750Y0124250D01*
X0181875Y0124250D01*
X0160000Y0134250D02*
X0155000Y0139250D01*
X0155000Y0151125D01*
X0106327Y0209173D02*
X0106529Y0209375D01*
X0102425Y0232450D02*
X0046025Y0232450D01*
X0046750Y0173500D02*
X0050000Y0173500D01*
X0046750Y0173500D02*
X0026250Y0153000D01*
D23*
X0087950Y0195700D02*
X0087950Y0199382D01*
X0087971Y0199404D01*
M02*
