G75*
%MOIN*%
%OFA0B0*%
%FSLAX25Y25*%
%IPPOS*%
%LPD*%
%AMOC8*
5,1,8,0,0,1.08239X$1,22.5*
%
%ADD10C,0.07300*%
%ADD11R,0.07300X0.07300*%
%ADD12C,0.17800*%
%ADD13C,0.08200*%
%ADD14R,0.04737X0.05131*%
%ADD15R,0.05131X0.04737*%
%ADD16R,0.03950X0.05524*%
%ADD17C,0.12800*%
%ADD18C,0.03778*%
D10*
X0078204Y0113000D03*
X0120704Y0113000D03*
X0133125Y0242250D03*
X0153125Y0242250D03*
D11*
X0130546Y0113000D03*
X0088046Y0113000D03*
D12*
X0058937Y0094875D03*
X0047126Y0076371D03*
X0035315Y0094875D03*
D13*
X0063125Y0054875D03*
X0063125Y0044875D03*
X0063125Y0034875D03*
X0091875Y0044875D03*
X0101875Y0044875D03*
X0138125Y0046125D03*
X0148125Y0046125D03*
X0181875Y0083625D03*
X0181875Y0093625D03*
X0181875Y0103625D03*
X0181875Y0124250D03*
X0181875Y0134250D03*
X0181875Y0144250D03*
X0181875Y0154250D03*
X0181875Y0164250D03*
X0181875Y0182375D03*
X0181875Y0192375D03*
X0181875Y0202375D03*
X0181875Y0212375D03*
X0181875Y0222375D03*
X0181875Y0232375D03*
X0181875Y0242375D03*
X0181875Y0252375D03*
X0046025Y0258050D03*
X0028225Y0258050D03*
X0028225Y0232450D03*
X0046025Y0232450D03*
X0026250Y0203000D03*
X0026250Y0193000D03*
X0026250Y0183000D03*
X0026250Y0173000D03*
X0026250Y0163000D03*
X0026250Y0153000D03*
D14*
X0091500Y0199404D03*
X0091500Y0206096D03*
D15*
X0106529Y0209375D03*
X0113221Y0209375D03*
X0117529Y0197250D03*
X0124221Y0197250D03*
X0139779Y0210625D03*
X0146471Y0210625D03*
X0108971Y0163875D03*
X0102279Y0163875D03*
D16*
X0098043Y0221500D03*
X0090957Y0221500D03*
D17*
X0028750Y0013625D03*
X0195625Y0013625D03*
X0195625Y0275500D03*
X0028750Y0275500D03*
D18*
X0057450Y0226600D03*
X0060000Y0214875D03*
X0085550Y0213400D03*
X0096125Y0206125D03*
X0100625Y0206125D03*
X0104375Y0201125D03*
X0098750Y0199250D03*
X0087950Y0195700D03*
X0086875Y0176750D03*
X0093125Y0169875D03*
X0105000Y0168625D03*
X0112500Y0168625D03*
X0107500Y0159250D03*
X0132500Y0166750D03*
X0136250Y0171750D03*
X0138125Y0165500D03*
X0141250Y0161750D03*
X0155000Y0154875D03*
X0155000Y0151125D03*
X0160000Y0134250D03*
X0111875Y0196750D03*
X0119375Y0214875D03*
X0153750Y0212375D03*
X0161250Y0202375D03*
X0065000Y0144250D03*
X0050000Y0173500D03*
X0050000Y0039875D03*
X0042500Y0039875D03*
M02*
