G75*
%MOIN*%
%OFA0B0*%
%FSLAX25Y25*%
%IPPOS*%
%LPD*%
%AMOC8*
5,1,8,0,0,1.08239X$1,22.5*
%
%ADD10R,0.05131X0.04737*%
%ADD11C,0.07300*%
%ADD12R,0.07300X0.07300*%
%ADD13R,0.14973X0.14973*%
%ADD14R,0.01784X0.03162*%
%ADD15R,0.03162X0.01784*%
%ADD16C,0.17800*%
%ADD17R,0.06312X0.02178*%
%ADD18R,0.08280X0.07887*%
%ADD19R,0.08280X0.08280*%
%ADD20C,0.08200*%
%ADD21R,0.05600X0.09600*%
%ADD22R,0.14973X0.09461*%
%ADD23C,0.12800*%
%ADD24C,0.03778*%
D10*
X0082904Y0091125D03*
X0089596Y0091125D03*
X0122154Y0090000D03*
X0128846Y0090000D03*
X0127721Y0138625D03*
X0121029Y0138625D03*
X0114596Y0154875D03*
X0107904Y0154875D03*
X0094346Y0152250D03*
X0087654Y0152250D03*
X0078221Y0152375D03*
X0071529Y0152375D03*
X0068096Y0163000D03*
X0061404Y0163000D03*
X0061404Y0173000D03*
X0068096Y0173000D03*
X0068096Y0183000D03*
X0061404Y0183000D03*
X0061404Y0193000D03*
X0068096Y0193000D03*
X0068096Y0203000D03*
X0061404Y0203000D03*
X0087529Y0164125D03*
X0094221Y0164125D03*
X0118529Y0171750D03*
X0125221Y0171750D03*
X0122904Y0159875D03*
X0129596Y0159875D03*
X0132904Y0183625D03*
X0139596Y0183625D03*
X0139596Y0194250D03*
X0132904Y0194250D03*
X0147904Y0194250D03*
X0154596Y0194250D03*
X0152404Y0220625D03*
X0159096Y0220625D03*
X0133096Y0221000D03*
X0126404Y0221000D03*
D11*
X0133125Y0242250D03*
X0153125Y0242250D03*
X0120704Y0113000D03*
X0078204Y0113000D03*
D12*
X0088046Y0113000D03*
X0130546Y0113000D03*
D13*
X0102500Y0183000D03*
D14*
X0102500Y0173551D03*
X0104469Y0173551D03*
X0106437Y0173551D03*
X0108406Y0173551D03*
X0100531Y0173551D03*
X0098563Y0173551D03*
X0096594Y0173551D03*
X0096594Y0192449D03*
X0098563Y0192449D03*
X0100531Y0192449D03*
X0102500Y0192449D03*
X0104469Y0192449D03*
X0106437Y0192449D03*
X0108406Y0192449D03*
D15*
X0111949Y0188906D03*
X0111949Y0186937D03*
X0111949Y0184969D03*
X0111949Y0183000D03*
X0111949Y0181031D03*
X0111949Y0179063D03*
X0111949Y0177094D03*
X0093051Y0177094D03*
X0093051Y0179063D03*
X0093051Y0181031D03*
X0093051Y0183000D03*
X0093051Y0184969D03*
X0093051Y0186937D03*
X0093051Y0188906D03*
D16*
X0058937Y0094875D03*
X0047126Y0076371D03*
X0035315Y0094875D03*
D17*
X0034808Y0049993D03*
X0034808Y0047434D03*
X0034808Y0044875D03*
X0034808Y0042316D03*
X0034808Y0039757D03*
D18*
X0024375Y0029127D03*
X0024375Y0060623D03*
D19*
X0024375Y0049875D03*
X0024375Y0039875D03*
D20*
X0063125Y0034875D03*
X0063125Y0044875D03*
X0063125Y0054875D03*
X0091875Y0044875D03*
X0101875Y0044875D03*
X0138125Y0046125D03*
X0148125Y0046125D03*
X0181875Y0083625D03*
X0181875Y0093625D03*
X0181875Y0103625D03*
X0181875Y0124250D03*
X0181875Y0134250D03*
X0181875Y0144250D03*
X0181875Y0154250D03*
X0181875Y0164250D03*
X0181875Y0182375D03*
X0181875Y0192375D03*
X0181875Y0202375D03*
X0181875Y0212375D03*
X0181875Y0222375D03*
X0181875Y0232375D03*
X0181875Y0242375D03*
X0181875Y0252375D03*
X0046025Y0258050D03*
X0028225Y0258050D03*
X0028225Y0232450D03*
X0046025Y0232450D03*
X0026250Y0203000D03*
X0026250Y0193000D03*
X0026250Y0183000D03*
X0026250Y0173000D03*
X0026250Y0163000D03*
X0026250Y0153000D03*
D21*
X0096525Y0062050D03*
X0105625Y0062050D03*
X0114725Y0062050D03*
D22*
X0105625Y0086451D03*
D23*
X0028750Y0013625D03*
X0195625Y0013625D03*
X0195625Y0275500D03*
X0028750Y0275500D03*
D24*
X0057450Y0226600D03*
X0060000Y0214875D03*
X0085550Y0213400D03*
X0096125Y0206125D03*
X0100625Y0206125D03*
X0104375Y0201125D03*
X0098750Y0199250D03*
X0087950Y0195700D03*
X0086875Y0176750D03*
X0093125Y0169875D03*
X0105000Y0168625D03*
X0112500Y0168625D03*
X0107500Y0159250D03*
X0132500Y0166750D03*
X0136250Y0171750D03*
X0138125Y0165500D03*
X0141250Y0161750D03*
X0155000Y0154875D03*
X0155000Y0151125D03*
X0160000Y0134250D03*
X0111875Y0196750D03*
X0119375Y0214875D03*
X0153750Y0212375D03*
X0161250Y0202375D03*
X0065000Y0144250D03*
X0050000Y0173500D03*
X0050000Y0039875D03*
X0042500Y0039875D03*
M02*
