%
M48
M72
T01C0.01378
T02C0.02756
T03C0.04000
T04C0.11800
T05C0.12000
%
T01
X42500Y39875
X50000Y39875
X65000Y144250
X50000Y173500
X60000Y214875
X57450Y226600
X85550Y213400
X96125Y206125
X100625Y206125
X104375Y201125
X98750Y199250
X87950Y195700
X86875Y176750
X93125Y169875
X105000Y168625
X112500Y168625
X107500Y159250
X132500Y166750
X136250Y171750
X138125Y165500
X141250Y161750
X155000Y154875
X155000Y151125
X160000Y134250
X111875Y196750
X119375Y214875
X153750Y212375
X161250Y202375
T02
X153125Y242250
X133125Y242250
X130546Y113000
X120704Y113000
X88046Y113000
X78204Y113000
T03
X63125Y54875
X63125Y44875
X63125Y34875
X91875Y44875
X101875Y44875
X138125Y46125
X148125Y46125
X181875Y83625
X181875Y93625
X181875Y103625
X181875Y124250
X181875Y134250
X181875Y144250
X181875Y154250
X181875Y164250
X181875Y182375
X181875Y192375
X181875Y202375
X181875Y212375
X181875Y222375
X181875Y232375
X181875Y242375
X181875Y252375
X46025Y258050
X28225Y258050
X28225Y232450
X46025Y232450
X26250Y203000
X26250Y193000
X26250Y183000
X26250Y173000
X26250Y163000
X26250Y153000
T04
X35315Y94875
X47126Y76371
X58937Y94875
T05
X28750Y13625
X195625Y13625
X195625Y275500
X28750Y275500
M30
